<?xml version="1.0" encoding="UTF-8" standalone="no"?><svg xmlns="http://www.w3.org/2000/svg" xmlns:xlink="http://www.w3.org/1999/xlink" contentScriptType="application/ecmascript" contentStyleType="text/css" height="439px" preserveAspectRatio="none" style="width:670px;height:439px;" version="1.1" viewBox="0 0 670 439" width="670px" zoomAndPan="magnify"><defs><filter height="300%" id="fn845nd" width="300%" x="-1" y="-1"><feGaussianBlur result="blurOut" stdDeviation="2.0"/><feColorMatrix in="blurOut" result="blurOut2" type="matrix" values="0 0 0 0 0 0 0 0 0 0 0 0 0 0 0 0 0 0 .4 0"/><feOffset dx="4.0" dy="4.0" in="blurOut2" result="blurOut3"/><feBlend in="SourceGraphic" in2="blurOut3" mode="normal"/></filter></defs><g><line style="stroke: #A80036; stroke-width: 1.0; stroke-dasharray: 5.0,5.0;" x1="42" x2="42" y1="39.6094" y2="399.4766"/><line style="stroke: #A80036; stroke-width: 1.0; stroke-dasharray: 5.0,5.0;" x1="159.5" x2="159.5" y1="39.6094" y2="399.4766"/><line style="stroke: #A80036; stroke-width: 1.0; stroke-dasharray: 5.0,5.0;" x1="311.5" x2="311.5" y1="39.6094" y2="399.4766"/><line style="stroke: #A80036; stroke-width: 1.0; stroke-dasharray: 5.0,5.0;" x1="420" x2="420" y1="39.6094" y2="399.4766"/><line style="stroke: #A80036; stroke-width: 1.0; stroke-dasharray: 5.0,5.0;" x1="595" x2="595" y1="39.6094" y2="399.4766"/><rect fill="#FEFECE" filter="url(#fn845nd)" height="31.6094" style="stroke: #A80036; stroke-width: 1.5;" width="65" x="8" y="3"/><text fill="#000000" font-family="sans-serif" font-size="14" lengthAdjust="spacingAndGlyphs" textLength="51" x="15" y="24.5332">Browser</text><rect fill="#FEFECE" filter="url(#fn845nd)" height="31.6094" style="stroke: #A80036; stroke-width: 1.5;" width="65" x="8" y="398.4766"/><text fill="#000000" font-family="sans-serif" font-size="14" lengthAdjust="spacingAndGlyphs" textLength="51" x="15" y="420.0098">Browser</text><rect fill="#FEFECE" filter="url(#fn845nd)" height="31.6094" style="stroke: #A80036; stroke-width: 1.5;" width="70" x="122.5" y="3"/><text fill="#000000" font-family="sans-serif" font-size="14" lengthAdjust="spacingAndGlyphs" textLength="56" x="129.5" y="24.5332">SERVER</text><rect fill="#FEFECE" filter="url(#fn845nd)" height="31.6094" style="stroke: #A80036; stroke-width: 1.5;" width="70" x="122.5" y="398.4766"/><text fill="#000000" font-family="sans-serif" font-size="14" lengthAdjust="spacingAndGlyphs" textLength="56" x="129.5" y="420.0098">SERVER</text><rect fill="#FEFECE" filter="url(#fn845nd)" height="31.6094" style="stroke: #A80036; stroke-width: 1.5;" width="74" x="272.5" y="3"/><text fill="#000000" font-family="sans-serif" font-size="14" lengthAdjust="spacingAndGlyphs" textLength="60" x="279.5" y="24.5332">Sakura.io</text><rect fill="#FEFECE" filter="url(#fn845nd)" height="31.6094" style="stroke: #A80036; stroke-width: 1.5;" width="74" x="272.5" y="398.4766"/><text fill="#000000" font-family="sans-serif" font-size="14" lengthAdjust="spacingAndGlyphs" textLength="60" x="279.5" y="420.0098">Sakura.io</text><rect fill="#FEFECE" filter="url(#fn845nd)" height="31.6094" style="stroke: #A80036; stroke-width: 1.5;" width="83" x="377" y="3"/><text fill="#000000" font-family="sans-serif" font-size="14" lengthAdjust="spacingAndGlyphs" textLength="69" x="384" y="24.5332">IOTmodule</text><rect fill="#FEFECE" filter="url(#fn845nd)" height="31.6094" style="stroke: #A80036; stroke-width: 1.5;" width="83" x="377" y="398.4766"/><text fill="#000000" font-family="sans-serif" font-size="14" lengthAdjust="spacingAndGlyphs" textLength="69" x="384" y="420.0098">IOTmodule</text><rect fill="#FEFECE" filter="url(#fn845nd)" height="31.6094" style="stroke: #A80036; stroke-width: 1.5;" width="135" x="526" y="3"/><text fill="#000000" font-family="sans-serif" font-size="14" lengthAdjust="spacingAndGlyphs" textLength="121" x="533" y="24.5332">ghf_SensorUnit1..8</text><rect fill="#FEFECE" filter="url(#fn845nd)" height="31.6094" style="stroke: #A80036; stroke-width: 1.5;" width="135" x="526" y="398.4766"/><text fill="#000000" font-family="sans-serif" font-size="14" lengthAdjust="spacingAndGlyphs" textLength="121" x="533" y="420.0098">ghf_SensorUnit1..8</text><polygon fill="#A80036" points="147.5,67.6094,157.5,71.6094,147.5,75.6094,151.5,71.6094" style="stroke: #A80036; stroke-width: 1.0;"/><line style="stroke: #A80036; stroke-width: 1.0;" x1="42.5" x2="153.5" y1="71.6094" y2="71.6094"/><text fill="#000000" font-family="sans-serif" font-size="13" lengthAdjust="spacingAndGlyphs" textLength="83" x="49.5" y="67.1045">Request Https</text><polygon fill="#A80036" points="53.5,97.9609,43.5,101.9609,53.5,105.9609,49.5,101.9609" style="stroke: #A80036; stroke-width: 1.0;"/><line style="stroke: #A80036; stroke-width: 1.0;" x1="47.5" x2="158.5" y1="101.9609" y2="101.9609"/><text fill="#000000" font-family="sans-serif" font-size="13" lengthAdjust="spacingAndGlyphs" textLength="93" x="59.5" y="97.4561">Responce Https</text><polygon fill="#A80036" points="299.5,128.3125,309.5,132.3125,299.5,136.3125,303.5,132.3125" style="stroke: #A80036; stroke-width: 1.0;"/><line style="stroke: #A80036; stroke-width: 1.0;" x1="159.5" x2="305.5" y1="132.3125" y2="132.3125"/><text fill="#000000" font-family="sans-serif" font-size="13" lengthAdjust="spacingAndGlyphs" textLength="118" x="166.5" y="127.8076">Request Websocket</text><polygon fill="#A80036" points="408.5,158.6641,418.5,162.6641,408.5,166.6641,412.5,162.6641" style="stroke: #A80036; stroke-width: 1.0;"/><line style="stroke: #A80036; stroke-width: 1.0;" x1="311.5" x2="414.5" y1="162.6641" y2="162.6641"/><text fill="#000000" font-family="sans-serif" font-size="13" lengthAdjust="spacingAndGlyphs" textLength="75" x="318.5" y="158.1592">Request LTE</text><polygon fill="#FBFB77" filter="url(#fn845nd)" points="124,176.0156,124,218.0156,347,218.0156,347,186.0156,337,176.0156,124,176.0156" style="stroke: #A80036; stroke-width: 1.0;"/><line style="stroke: #A80036; stroke-width: 1.0;" x1="337" x2="337" y1="176.0156" y2="186.0156"/><line style="stroke: #A80036; stroke-width: 1.0;" x1="347" x2="337" y1="186.0156" y2="186.0156"/><text fill="#000000" font-family="sans-serif" font-size="13" lengthAdjust="spacingAndGlyphs" textLength="36" x="184" y="194.5107">LOOP</text><text fill="#000000" font-family="sans-serif" font-size="13" lengthAdjust="spacingAndGlyphs" textLength="90" x="184" y="210.8623">5minute interval</text><polygon fill="#A80036" points="583.5,245.7188,593.5,249.7188,583.5,253.7188,587.5,249.7188" style="stroke: #A80036; stroke-width: 1.0;"/><line style="stroke: #A80036; stroke-width: 1.0;" x1="420.5" x2="589.5" y1="249.7188" y2="249.7188"/><text fill="#000000" font-family="sans-serif" font-size="13" lengthAdjust="spacingAndGlyphs" textLength="141" x="427.5" y="245.2139">Request modbus.RS485</text><polygon fill="#FBFB77" filter="url(#fn845nd)" points="316,263.0703,316,289.0703,468,289.0703,468,273.0703,458,263.0703,316,263.0703" style="stroke: #A80036; stroke-width: 1.0;"/><line style="stroke: #A80036; stroke-width: 1.0;" x1="458" x2="458" y1="263.0703" y2="273.0703"/><line style="stroke: #A80036; stroke-width: 1.0;" x1="468" x2="458" y1="273.0703" y2="273.0703"/><text fill="#000000" font-family="sans-serif" font-size="13" lengthAdjust="spacingAndGlyphs" textLength="131" x="322" y="281.5654">Secure private network</text><polygon fill="#A80036" points="431.5,316.4219,421.5,320.4219,431.5,324.4219,427.5,320.4219" style="stroke: #A80036; stroke-width: 1.0;"/><line style="stroke: #A80036; stroke-width: 1.0;" x1="425.5" x2="594.5" y1="320.4219" y2="320.4219"/><text fill="#000000" font-family="sans-serif" font-size="13" lengthAdjust="spacingAndGlyphs" textLength="151" x="437.5" y="315.917">Response modbus.RS485</text><polygon fill="#A80036" points="322.5,346.7734,312.5,350.7734,322.5,354.7734,318.5,350.7734" style="stroke: #A80036; stroke-width: 1.0;"/><line style="stroke: #A80036; stroke-width: 1.0;" x1="316.5" x2="419.5" y1="350.7734" y2="350.7734"/><text fill="#000000" font-family="sans-serif" font-size="13" lengthAdjust="spacingAndGlyphs" textLength="85" x="328.5" y="346.2686">Responce LTE</text><polygon fill="#A80036" points="170.5,377.125,160.5,381.125,170.5,385.125,166.5,381.125" style="stroke: #A80036; stroke-width: 1.0;"/><line style="stroke: #A80036; stroke-width: 1.0;" x1="164.5" x2="310.5" y1="381.125" y2="381.125"/><text fill="#000000" font-family="sans-serif" font-size="13" lengthAdjust="spacingAndGlyphs" textLength="128" x="176.5" y="376.6201">Responce Websocket</text></g></svg>