<?xml version="1.0" encoding="UTF-8" standalone="no"?><svg xmlns="http://www.w3.org/2000/svg" xmlns:xlink="http://www.w3.org/1999/xlink" contentScriptType="application/ecmascript" contentStyleType="text/css" height="508px" preserveAspectRatio="none" style="width:684px;height:508px;" version="1.1" viewBox="0 0 684 508" width="684px" zoomAndPan="magnify"><defs><filter height="300%" id="f0pnr2c" width="300%" x="-1" y="-1"><feGaussianBlur result="blurOut" stdDeviation="2.0"/><feColorMatrix in="blurOut" result="blurOut2" type="matrix" values="0 0 0 0 0 0 0 0 0 0 0 0 0 0 0 0 0 0 .4 0"/><feOffset dx="4.0" dy="4.0" in="blurOut2" result="blurOut3"/><feBlend in="SourceGraphic" in2="blurOut3" mode="normal"/></filter></defs><g><rect fill="#FFFFFF" filter="url(#f0pnr2c)" height="284.1641" style="stroke: #000000; stroke-width: 2.0;" width="562.5" x="112.5" y="142.3125"/><line style="stroke: #A80036; stroke-width: 1.0; stroke-dasharray: 5.0,5.0;" x1="42" x2="42" y1="39.6094" y2="468.4766"/><line style="stroke: #A80036; stroke-width: 1.0; stroke-dasharray: 5.0,5.0;" x1="159.5" x2="159.5" y1="39.6094" y2="468.4766"/><line style="stroke: #A80036; stroke-width: 1.0; stroke-dasharray: 5.0,5.0;" x1="311.5" x2="311.5" y1="39.6094" y2="468.4766"/><line style="stroke: #A80036; stroke-width: 1.0; stroke-dasharray: 5.0,5.0;" x1="420" x2="420" y1="39.6094" y2="468.4766"/><line style="stroke: #A80036; stroke-width: 1.0; stroke-dasharray: 5.0,5.0;" x1="595" x2="595" y1="39.6094" y2="468.4766"/><rect fill="#FEFECE" filter="url(#f0pnr2c)" height="31.6094" style="stroke: #A80036; stroke-width: 1.5;" width="65" x="8" y="3"/><text fill="#000000" font-family="sans-serif" font-size="14" lengthAdjust="spacingAndGlyphs" textLength="51" x="15" y="24.5332">Browser</text><rect fill="#FEFECE" filter="url(#f0pnr2c)" height="31.6094" style="stroke: #A80036; stroke-width: 1.5;" width="65" x="8" y="467.4766"/><text fill="#000000" font-family="sans-serif" font-size="14" lengthAdjust="spacingAndGlyphs" textLength="51" x="15" y="489.0098">Browser</text><rect fill="#FEFECE" filter="url(#f0pnr2c)" height="31.6094" style="stroke: #A80036; stroke-width: 1.5;" width="70" x="122.5" y="3"/><text fill="#000000" font-family="sans-serif" font-size="14" lengthAdjust="spacingAndGlyphs" textLength="56" x="129.5" y="24.5332">SERVER</text><rect fill="#FEFECE" filter="url(#f0pnr2c)" height="31.6094" style="stroke: #A80036; stroke-width: 1.5;" width="70" x="122.5" y="467.4766"/><text fill="#000000" font-family="sans-serif" font-size="14" lengthAdjust="spacingAndGlyphs" textLength="56" x="129.5" y="489.0098">SERVER</text><rect fill="#FEFECE" filter="url(#f0pnr2c)" height="31.6094" style="stroke: #A80036; stroke-width: 1.5;" width="74" x="272.5" y="3"/><text fill="#000000" font-family="sans-serif" font-size="14" lengthAdjust="spacingAndGlyphs" textLength="60" x="279.5" y="24.5332">Sakura.io</text><rect fill="#FEFECE" filter="url(#f0pnr2c)" height="31.6094" style="stroke: #A80036; stroke-width: 1.5;" width="74" x="272.5" y="467.4766"/><text fill="#000000" font-family="sans-serif" font-size="14" lengthAdjust="spacingAndGlyphs" textLength="60" x="279.5" y="489.0098">Sakura.io</text><rect fill="#FEFECE" filter="url(#f0pnr2c)" height="31.6094" style="stroke: #A80036; stroke-width: 1.5;" width="83" x="377" y="3"/><text fill="#000000" font-family="sans-serif" font-size="14" lengthAdjust="spacingAndGlyphs" textLength="69" x="384" y="24.5332">IOTmodule</text><rect fill="#FEFECE" filter="url(#f0pnr2c)" height="31.6094" style="stroke: #A80036; stroke-width: 1.5;" width="83" x="377" y="467.4766"/><text fill="#000000" font-family="sans-serif" font-size="14" lengthAdjust="spacingAndGlyphs" textLength="69" x="384" y="489.0098">IOTmodule</text><rect fill="#FEFECE" filter="url(#f0pnr2c)" height="31.6094" style="stroke: #A80036; stroke-width: 1.5;" width="135" x="526" y="3"/><text fill="#000000" font-family="sans-serif" font-size="14" lengthAdjust="spacingAndGlyphs" textLength="121" x="533" y="24.5332">ghf_SensorUnit1..8</text><rect fill="#FEFECE" filter="url(#f0pnr2c)" height="31.6094" style="stroke: #A80036; stroke-width: 1.5;" width="135" x="526" y="467.4766"/><text fill="#000000" font-family="sans-serif" font-size="14" lengthAdjust="spacingAndGlyphs" textLength="121" x="533" y="489.0098">ghf_SensorUnit1..8</text><polygon fill="#A80036" points="147.5,67.6094,157.5,71.6094,147.5,75.6094,151.5,71.6094" style="stroke: #A80036; stroke-width: 1.0;"/><line style="stroke: #A80036; stroke-width: 1.0;" x1="42.5" x2="153.5" y1="71.6094" y2="71.6094"/><text fill="#000000" font-family="sans-serif" font-size="13" lengthAdjust="spacingAndGlyphs" textLength="83" x="49.5" y="67.1045">Request Https</text><polygon fill="#A80036" points="53.5,97.9609,43.5,101.9609,53.5,105.9609,49.5,101.9609" style="stroke: #A80036; stroke-width: 1.0;"/><line style="stroke: #A80036; stroke-width: 1.0;" x1="47.5" x2="158.5" y1="101.9609" y2="101.9609"/><text fill="#000000" font-family="sans-serif" font-size="13" lengthAdjust="spacingAndGlyphs" textLength="93" x="59.5" y="97.4561">Responce Https</text><rect fill="none" height="284.1641" style="stroke: #000000; stroke-width: 2.0;" width="562.5" x="112.5" y="142.3125"/><polygon fill="#EEEEEE" points="112.5,142.3125,185.5,142.3125,185.5,150.3125,175.5,160.3125,112.5,160.3125,112.5,142.3125" style="stroke: #000000; stroke-width: 2.0;"/><text fill="#000000" font-family="sans-serif" font-size="13" font-weight="bold" lengthAdjust="spacingAndGlyphs" textLength="28" x="127.5" y="156.8076">loop</text><text fill="#000000" font-family="sans-serif" font-size="11" font-weight="bold" lengthAdjust="spacingAndGlyphs" textLength="107" x="200.5" y="155.7314">[5 minutes interval]</text><polygon fill="#A80036" points="299.5,178.6641,309.5,182.6641,299.5,186.6641,303.5,182.6641" style="stroke: #A80036; stroke-width: 1.0;"/><line style="stroke: #A80036; stroke-width: 1.0;" x1="159.5" x2="305.5" y1="182.6641" y2="182.6641"/><text fill="#000000" font-family="sans-serif" font-size="13" lengthAdjust="spacingAndGlyphs" textLength="118" x="166.5" y="178.1592">Request Websocket</text><polygon fill="#A80036" points="408.5,209.0156,418.5,213.0156,408.5,217.0156,412.5,213.0156" style="stroke: #A80036; stroke-width: 1.0;"/><line style="stroke: #A80036; stroke-width: 1.0;" x1="311.5" x2="414.5" y1="213.0156" y2="213.0156"/><text fill="#000000" font-family="sans-serif" font-size="13" lengthAdjust="spacingAndGlyphs" textLength="75" x="318.5" y="208.5107">Request LTE</text><polygon fill="#A80036" points="583.5,239.3672,593.5,243.3672,583.5,247.3672,587.5,243.3672" style="stroke: #A80036; stroke-width: 1.0;"/><line style="stroke: #A80036; stroke-width: 1.0;" x1="420.5" x2="589.5" y1="243.3672" y2="243.3672"/><text fill="#000000" font-family="sans-serif" font-size="13" lengthAdjust="spacingAndGlyphs" textLength="141" x="427.5" y="238.8623">Request modbus.RS485</text><polygon fill="#FBFB77" filter="url(#f0pnr2c)" points="316,256.7188,316,282.7188,468,282.7188,468,266.7188,458,256.7188,316,256.7188" style="stroke: #A80036; stroke-width: 1.0;"/><line style="stroke: #A80036; stroke-width: 1.0;" x1="458" x2="458" y1="256.7188" y2="266.7188"/><line style="stroke: #A80036; stroke-width: 1.0;" x1="468" x2="458" y1="266.7188" y2="266.7188"/><text fill="#000000" font-family="sans-serif" font-size="13" lengthAdjust="spacingAndGlyphs" textLength="131" x="322" y="275.2139">Secure private network</text><polygon fill="#A80036" points="431.5,310.0703,421.5,314.0703,431.5,318.0703,427.5,314.0703" style="stroke: #A80036; stroke-width: 1.0;"/><line style="stroke: #A80036; stroke-width: 1.0;" x1="425.5" x2="594.5" y1="314.0703" y2="314.0703"/><text fill="#000000" font-family="sans-serif" font-size="13" lengthAdjust="spacingAndGlyphs" textLength="151" x="437.5" y="309.5654">Response modbus.RS485</text><polygon fill="#A80036" points="322.5,340.4219,312.5,344.4219,322.5,348.4219,318.5,344.4219" style="stroke: #A80036; stroke-width: 1.0;"/><line style="stroke: #A80036; stroke-width: 1.0;" x1="316.5" x2="419.5" y1="344.4219" y2="344.4219"/><text fill="#000000" font-family="sans-serif" font-size="13" lengthAdjust="spacingAndGlyphs" textLength="85" x="328.5" y="339.917">Responce LTE</text><polygon fill="#A80036" points="170.5,370.7734,160.5,374.7734,170.5,378.7734,166.5,374.7734" style="stroke: #A80036; stroke-width: 1.0;"/><line style="stroke: #A80036; stroke-width: 1.0;" x1="164.5" x2="310.5" y1="374.7734" y2="374.7734"/><text fill="#000000" font-family="sans-serif" font-size="13" lengthAdjust="spacingAndGlyphs" textLength="128" x="176.5" y="370.2686">Responce Websocket</text><line style="stroke: #A80036; stroke-width: 1.0;" x1="159.5" x2="201.5" y1="405.4766" y2="405.4766"/><line style="stroke: #A80036; stroke-width: 1.0;" x1="201.5" x2="201.5" y1="405.4766" y2="418.4766"/><line style="stroke: #A80036; stroke-width: 1.0;" x1="160.5" x2="201.5" y1="418.4766" y2="418.4766"/><polygon fill="#A80036" points="170.5,414.4766,160.5,418.4766,170.5,422.4766,166.5,418.4766" style="stroke: #A80036; stroke-width: 1.0;"/><text fill="#000000" font-family="sans-serif" font-size="13" lengthAdjust="spacingAndGlyphs" textLength="74" x="166.5" y="400.6201">Data storage</text></g></svg>