G04 #@! TF.FileFunction,Copper,L1,Top,Signal*
%FSLAX46Y46*%
G04 Gerber Fmt 4.6, Leading zero omitted, Abs format (unit mm)*
G04 Created by KiCad (PCBNEW 4.0.1-stable) date 2019/02/18 22:31:54*
%MOMM*%
G01*
G04 APERTURE LIST*
%ADD10C,0.100000*%
%ADD11R,0.750000X0.800000*%
%ADD12R,0.800000X0.750000*%
%ADD13R,1.250000X1.000000*%
%ADD14R,1.000000X1.250000*%
%ADD15R,1.120000X1.220000*%
%ADD16R,0.500000X0.600000*%
%ADD17R,2.900000X5.450000*%
%ADD18R,1.525000X0.650000*%
%ADD19R,1.700000X1.700000*%
%ADD20O,1.700000X1.700000*%
%ADD21C,3.000000*%
%ADD22R,3.000000X3.000000*%
%ADD23R,0.700000X0.450000*%
%ADD24R,0.900000X0.500000*%
%ADD25R,0.500000X0.900000*%
%ADD26R,0.400000X0.600000*%
%ADD27R,0.300000X0.600000*%
%ADD28R,1.425000X0.750000*%
%ADD29C,2.000000*%
%ADD30R,4.500000X2.000000*%
%ADD31R,1.600000X0.550000*%
%ADD32R,0.550000X1.600000*%
%ADD33R,1.200000X2.200000*%
%ADD34R,5.800000X6.400000*%
%ADD35R,2.750000X3.050000*%
%ADD36C,1.303000*%
%ADD37C,0.600000*%
%ADD38C,0.250000*%
%ADD39C,0.800000*%
%ADD40C,0.254000*%
G04 APERTURE END LIST*
D10*
D11*
X32500000Y27750000D03*
X32500000Y26250000D03*
X6400000Y11050000D03*
X6400000Y12550000D03*
D12*
X26750000Y36500000D03*
X28250000Y36500000D03*
D11*
X10200000Y36850000D03*
X10200000Y35350000D03*
D13*
X46500000Y37500000D03*
X46500000Y39500000D03*
X50500000Y37500000D03*
X50500000Y39500000D03*
D11*
X45300000Y41750000D03*
X45300000Y43250000D03*
D12*
X14250000Y10500000D03*
X12750000Y10500000D03*
X16750000Y10500000D03*
X18250000Y10500000D03*
D14*
X30100000Y7400000D03*
X28100000Y7400000D03*
D11*
X63300000Y39050000D03*
X63300000Y37550000D03*
D15*
X56350000Y38800000D03*
X59450000Y38800000D03*
D16*
X53600000Y21050000D03*
X53600000Y19950000D03*
X55100000Y21050000D03*
X55100000Y19950000D03*
D17*
X56390000Y32500000D03*
X50610000Y32500000D03*
D18*
X51288000Y26905000D03*
X51288000Y25635000D03*
X51288000Y24365000D03*
X51288000Y23095000D03*
X56712000Y23095000D03*
X56712000Y24365000D03*
X56712000Y25635000D03*
X56712000Y26905000D03*
D19*
X2000000Y31000000D03*
D20*
X2000000Y33540000D03*
X2000000Y36080000D03*
X2000000Y38620000D03*
D19*
X2000000Y11000000D03*
D20*
X2000000Y13540000D03*
X2000000Y16080000D03*
X2000000Y18620000D03*
X2000000Y21160000D03*
X2000000Y23700000D03*
D21*
X66000000Y27920000D03*
X66000000Y22840000D03*
D22*
X66000000Y33000000D03*
D21*
X66000000Y17760000D03*
X46080000Y4000000D03*
X51160000Y4000000D03*
D22*
X41000000Y4000000D03*
D21*
X56240000Y4000000D03*
D19*
X28000000Y40000000D03*
D20*
X25460000Y40000000D03*
X22920000Y40000000D03*
X20380000Y40000000D03*
X17840000Y40000000D03*
D22*
X50000000Y46000000D03*
D21*
X55080000Y46000000D03*
D19*
X37500000Y28500000D03*
D20*
X37500000Y25960000D03*
D23*
X45500000Y21250000D03*
X45500000Y19950000D03*
X47500000Y20600000D03*
D24*
X6500000Y31250000D03*
X6500000Y32750000D03*
X6500000Y35250000D03*
X6500000Y36750000D03*
X47900000Y28150000D03*
X47900000Y26650000D03*
X50400000Y20450000D03*
X50400000Y18950000D03*
D25*
X53450000Y16400000D03*
X54950000Y16400000D03*
X35250000Y7500000D03*
X33750000Y7500000D03*
X21250000Y36400000D03*
X22750000Y36400000D03*
D26*
X30200000Y13750000D03*
D27*
X29650000Y13750000D03*
X29150000Y13750000D03*
D26*
X28600000Y13750000D03*
X28600000Y12650000D03*
D27*
X29150000Y12650000D03*
X29650000Y12650000D03*
D26*
X30200000Y12650000D03*
D28*
X39688000Y16905000D03*
X39688000Y15635000D03*
X39688000Y14365000D03*
X39688000Y13095000D03*
X47312000Y13095000D03*
X47312000Y14365000D03*
X47312000Y15635000D03*
X47312000Y16905000D03*
D29*
X15000000Y25500000D03*
X10500000Y25500000D03*
X15000000Y32000000D03*
X10500000Y32000000D03*
D30*
X11250000Y15500000D03*
X19750000Y15500000D03*
D31*
X20750000Y29800000D03*
X20750000Y29000000D03*
X20750000Y28200000D03*
X20750000Y27400000D03*
X20750000Y26600000D03*
X20750000Y25800000D03*
X20750000Y25000000D03*
X20750000Y24200000D03*
D32*
X22200000Y22750000D03*
X23000000Y22750000D03*
X23800000Y22750000D03*
X24600000Y22750000D03*
X25400000Y22750000D03*
X26200000Y22750000D03*
X27000000Y22750000D03*
X27800000Y22750000D03*
D31*
X29250000Y24200000D03*
X29250000Y25000000D03*
X29250000Y25800000D03*
X29250000Y26600000D03*
X29250000Y27400000D03*
X29250000Y28200000D03*
X29250000Y29000000D03*
X29250000Y29800000D03*
D32*
X27800000Y31250000D03*
X27000000Y31250000D03*
X26200000Y31250000D03*
X25400000Y31250000D03*
X24600000Y31250000D03*
X23800000Y31250000D03*
X23000000Y31250000D03*
X22200000Y31250000D03*
D33*
X35620000Y35600000D03*
X37900000Y35600000D03*
X40180000Y35600000D03*
D34*
X37900000Y41900000D03*
D35*
X39425000Y43575000D03*
X36375000Y40225000D03*
X36375000Y43575000D03*
X39425000Y40225000D03*
D36*
X43900000Y25800000D03*
X43900000Y28340000D03*
D19*
X75000000Y29000000D03*
D20*
X75000000Y26460000D03*
X75000000Y23920000D03*
X75000000Y21380000D03*
D19*
X85000000Y29000000D03*
D20*
X85000000Y26460000D03*
X85000000Y23920000D03*
X85000000Y21380000D03*
D19*
X25200000Y6400000D03*
D20*
X25200000Y3860000D03*
X22660000Y6400000D03*
X22660000Y3860000D03*
X20120000Y6400000D03*
X20120000Y3860000D03*
D19*
X22000000Y47000000D03*
D20*
X24540000Y47000000D03*
X27080000Y47000000D03*
D25*
X10750000Y43000000D03*
X9250000Y43000000D03*
X14250000Y43000000D03*
X15750000Y43000000D03*
D37*
X33500000Y36000000D03*
X35000000Y47000000D03*
X37000000Y47000000D03*
X39000000Y47000000D03*
X41000000Y47000000D03*
X43000000Y47000000D03*
X40000000Y41000000D03*
X39000000Y41000000D03*
X38000000Y41000000D03*
X37000000Y41000000D03*
X36000000Y41000000D03*
X38000000Y39500000D03*
X37000000Y39500000D03*
X39000000Y39500000D03*
X40000000Y39500000D03*
X36000000Y39500000D03*
X31300000Y13600000D03*
X28900000Y5700000D03*
X9300000Y39600000D03*
X60200000Y34500000D03*
X62900000Y19600000D03*
X52500000Y19000000D03*
X19800000Y44450000D03*
X30400000Y4000000D03*
X28000000Y3400000D03*
X41900000Y11800000D03*
X28300000Y16100000D03*
X16400000Y21400000D03*
X33500000Y24400000D03*
X8800000Y35200000D03*
X18200000Y36400000D03*
X17900000Y27400000D03*
X48400000Y38500000D03*
X42900000Y35900000D03*
X19800000Y9200000D03*
X8000000Y20800000D03*
X12800000Y41000000D03*
X18000000Y41900000D03*
X24100000Y36400000D03*
X23900000Y34300000D03*
X59000000Y23100000D03*
X49600000Y27200000D03*
X24100000Y37500000D03*
X22900000Y34100000D03*
X33700000Y32100000D03*
X35300000Y32900000D03*
X49400000Y23200000D03*
X21900000Y34100000D03*
X4700000Y33500000D03*
X15100000Y37900000D03*
X6500000Y38000000D03*
X14300000Y37200000D03*
X19900000Y22200000D03*
X8800000Y33700000D03*
X17100000Y34300000D03*
X28200000Y11300000D03*
X31500000Y11400000D03*
X24500000Y11900000D03*
X26200000Y11900000D03*
X23400000Y11800000D03*
X26400000Y18600000D03*
X28000000Y19600000D03*
X27000000Y9400000D03*
X26400000Y17200000D03*
X23000000Y13800000D03*
X35800000Y13500000D03*
X29200000Y32900000D03*
X33400000Y16100000D03*
X34100000Y17700000D03*
X27800000Y34100000D03*
X23700000Y13000000D03*
X26300000Y13000000D03*
X12800000Y33200000D03*
X14300000Y23100000D03*
X11800000Y21350000D03*
X19450000Y19450000D03*
X17100000Y31400000D03*
X15450000Y23400000D03*
X10550000Y20850000D03*
X26100000Y20150000D03*
D38*
X20120000Y3860000D02*
X17860000Y3860000D01*
X17860000Y3860000D02*
X17400000Y3400000D01*
X17400000Y1200000D02*
X17600000Y1000000D01*
X16750000Y5850000D02*
X17400000Y5200000D01*
X17400000Y5200000D02*
X17400000Y3400000D01*
X17400000Y3400000D02*
X17400000Y1200000D01*
X30100000Y2700000D02*
X30100000Y1400000D01*
X16750000Y5850000D02*
X16750000Y10500000D01*
X29700000Y1000000D02*
X30100000Y1400000D01*
X17600000Y1000000D02*
X29700000Y1000000D01*
X45300000Y41750000D02*
X43250000Y41750000D01*
X33500000Y36000000D02*
X33600000Y36000000D01*
X37000000Y47000000D02*
X35000000Y47000000D01*
X41000000Y47000000D02*
X39000000Y47000000D01*
X43000000Y42000000D02*
X43000000Y47000000D01*
X43250000Y41750000D02*
X43000000Y42000000D01*
X33600000Y38100000D02*
X33600000Y41370000D01*
X33600000Y41370000D02*
X34130000Y41900000D01*
X33600000Y36000000D02*
X33600000Y38100000D01*
X37300000Y33700000D02*
X34000000Y33700000D01*
X33600000Y34100000D02*
X33600000Y36000000D01*
X34000000Y33700000D02*
X33600000Y34100000D01*
X41840000Y43840000D02*
X39840000Y43840000D01*
X39840000Y43840000D02*
X37900000Y41900000D01*
X34250000Y43900000D02*
X35900000Y43900000D01*
X35900000Y43900000D02*
X37900000Y41900000D01*
X38890000Y46040000D02*
X38890000Y42890000D01*
X38890000Y42890000D02*
X37900000Y41900000D01*
X37030000Y45900000D02*
X37030000Y42770000D01*
X37030000Y42770000D02*
X37900000Y41900000D01*
X37900000Y41900000D02*
X34130000Y41900000D01*
X34130000Y41900000D02*
X34090000Y41940000D01*
X40000000Y41000000D02*
X39100000Y41900000D01*
X39100000Y41900000D02*
X37900000Y41900000D01*
X39000000Y41000000D02*
X38100000Y41900000D01*
X38100000Y41900000D02*
X37900000Y41900000D01*
X38000000Y41000000D02*
X37900000Y41100000D01*
X37900000Y41100000D02*
X37900000Y41900000D01*
X37000000Y41000000D02*
X37900000Y41900000D01*
X36000000Y41000000D02*
X36900000Y41900000D01*
X36900000Y41900000D02*
X37900000Y41900000D01*
X38000000Y39500000D02*
X37900000Y39600000D01*
X37900000Y39600000D02*
X37900000Y41900000D01*
X37000000Y39500000D02*
X37900000Y40400000D01*
X37900000Y40400000D02*
X37900000Y41900000D01*
X39000000Y39500000D02*
X37900000Y40600000D01*
X37900000Y40600000D02*
X37900000Y41900000D01*
X40000000Y39500000D02*
X37900000Y41600000D01*
X37900000Y41600000D02*
X37900000Y41900000D01*
X36000000Y39500000D02*
X37900000Y41400000D01*
X37900000Y41400000D02*
X37900000Y41900000D01*
X14250000Y10500000D02*
X14250000Y9050000D01*
X6900000Y10550000D02*
X6400000Y11050000D01*
X6900000Y8900000D02*
X6900000Y10550000D01*
X7200000Y8600000D02*
X6900000Y8900000D01*
X13800000Y8600000D02*
X7200000Y8600000D01*
X14250000Y9050000D02*
X13800000Y8600000D01*
X2000000Y11000000D02*
X6350000Y11000000D01*
X6350000Y11000000D02*
X6400000Y11050000D01*
X30100000Y2700000D02*
X37300000Y2700000D01*
X56240000Y2040000D02*
X56240000Y4000000D01*
X55800000Y1600000D02*
X56240000Y2040000D01*
X38400000Y1600000D02*
X55800000Y1600000D01*
X37300000Y2700000D02*
X38400000Y1600000D01*
X37300000Y33700000D02*
X37400000Y33700000D01*
X37400000Y33700000D02*
X37500000Y33600000D01*
X38700000Y33600000D02*
X37500000Y33600000D01*
X35350000Y27750000D02*
X32500000Y27750000D01*
X39400000Y32900000D02*
X38700000Y33600000D01*
X39400000Y28000000D02*
X39400000Y32900000D01*
X38600000Y27200000D02*
X39400000Y28000000D01*
X35900000Y27200000D02*
X38600000Y27200000D01*
X35350000Y27750000D02*
X35900000Y27200000D01*
X37500000Y33700000D02*
X37500000Y33600000D01*
X30200000Y12650000D02*
X30350000Y12650000D01*
X30350000Y12650000D02*
X31300000Y13600000D01*
X28900000Y5700000D02*
X29000000Y5700000D01*
X29000000Y6500000D02*
X28100000Y7400000D01*
X29000000Y4200000D02*
X29000000Y5700000D01*
X29000000Y5700000D02*
X29000000Y6500000D01*
X30100000Y3100000D02*
X29000000Y4200000D01*
X30100000Y2700000D02*
X30100000Y3100000D01*
X14250000Y10500000D02*
X16750000Y10500000D01*
X2000000Y36080000D02*
X5320000Y36080000D01*
X9000000Y36300000D02*
X9000000Y37200000D01*
X8700000Y36000000D02*
X9000000Y36300000D01*
X5400000Y36000000D02*
X8700000Y36000000D01*
X5320000Y36080000D02*
X5400000Y36000000D01*
X10500000Y32000000D02*
X10500000Y33300000D01*
X10500000Y33300000D02*
X11400000Y34200000D01*
X11400000Y34200000D02*
X11400000Y36400000D01*
X11400000Y36400000D02*
X10950000Y36850000D01*
X10950000Y36850000D02*
X10200000Y36850000D01*
X9350000Y36850000D02*
X10200000Y36850000D01*
X9000000Y37200000D02*
X9350000Y36850000D01*
X9000000Y39300000D02*
X9000000Y37200000D01*
X9300000Y39600000D02*
X9000000Y39300000D01*
X20750000Y28200000D02*
X17600000Y28200000D01*
X10500000Y26700000D02*
X10500000Y25500000D01*
X11300000Y27500000D02*
X10500000Y26700000D01*
X16900000Y27500000D02*
X11300000Y27500000D01*
X17600000Y28200000D02*
X16900000Y27500000D01*
X20750000Y28200000D02*
X25300000Y28200000D01*
X26000000Y27500000D02*
X26000000Y27400000D01*
X25300000Y28200000D02*
X26000000Y27500000D01*
X29250000Y27400000D02*
X26000000Y27400000D01*
X25200000Y26600000D02*
X20750000Y26600000D01*
X26000000Y27400000D02*
X25200000Y26600000D01*
X37900000Y41900000D02*
X37900000Y46300000D01*
X37900000Y46300000D02*
X40600000Y49000000D01*
X40600000Y49000000D02*
X53000000Y49000000D01*
X53000000Y49000000D02*
X55080000Y46920000D01*
X55080000Y46920000D02*
X55080000Y46000000D01*
X46500000Y39500000D02*
X46500000Y41000000D01*
X45750000Y41750000D02*
X45300000Y41750000D01*
X46500000Y41000000D02*
X45750000Y41750000D01*
X37900000Y41900000D02*
X45150000Y41900000D01*
X45150000Y41900000D02*
X45300000Y41750000D01*
X37900000Y35600000D02*
X37900000Y34000000D01*
X37900000Y34000000D02*
X37600000Y33700000D01*
X37600000Y33700000D02*
X37500000Y33700000D01*
X37500000Y33700000D02*
X37300000Y33700000D01*
X37400000Y41900000D02*
X37900000Y41900000D01*
X56712000Y23095000D02*
X57595000Y23095000D01*
X62900000Y22700000D02*
X62900000Y19600000D01*
X61800000Y23800000D02*
X62900000Y22700000D01*
X58300000Y23800000D02*
X61800000Y23800000D01*
X57595000Y23095000D02*
X58300000Y23800000D01*
X59450000Y35250000D02*
X60200000Y34500000D01*
X59450000Y35250000D02*
X59450000Y38800000D01*
X56240000Y4000000D02*
X56240000Y9040000D01*
X56240000Y9040000D02*
X58500000Y11300000D01*
X58500000Y11300000D02*
X63800000Y11300000D01*
X63800000Y11300000D02*
X66000000Y13500000D01*
X66000000Y13500000D02*
X66000000Y17760000D01*
X55080000Y46000000D02*
X58400000Y46000000D01*
X58400000Y46000000D02*
X59450000Y44950000D01*
X59450000Y44950000D02*
X59450000Y38800000D01*
X59450000Y38800000D02*
X63050000Y38800000D01*
X63050000Y38800000D02*
X63300000Y39050000D01*
X50500000Y39500000D02*
X53300000Y39500000D01*
X55080000Y41280000D02*
X55080000Y46000000D01*
X53300000Y39500000D02*
X55080000Y41280000D01*
X66000000Y17760000D02*
X64740000Y17760000D01*
X64740000Y17760000D02*
X62900000Y19600000D01*
X52500000Y19000000D02*
X52700000Y18800000D01*
X53600000Y19950000D02*
X53600000Y19700000D01*
X53600000Y19700000D02*
X52700000Y18800000D01*
X52700000Y18800000D02*
X50805000Y16905000D01*
X50805000Y16905000D02*
X47312000Y16905000D01*
X45500000Y21250000D02*
X44050000Y21250000D01*
X44195000Y16905000D02*
X47312000Y16905000D01*
X43600000Y17500000D02*
X44195000Y16905000D01*
X43600000Y20800000D02*
X43600000Y17500000D01*
X44050000Y21250000D02*
X43600000Y20800000D01*
X47312000Y14365000D02*
X47312000Y15635000D01*
X47312000Y16905000D02*
X47312000Y15635000D01*
X55100000Y19950000D02*
X53600000Y19950000D01*
X29250000Y27400000D02*
X32150000Y27400000D01*
X32150000Y27400000D02*
X32500000Y27750000D01*
X29250000Y26600000D02*
X31500000Y26600000D01*
X31850000Y26250000D02*
X32500000Y26250000D01*
X31500000Y26600000D02*
X31850000Y26250000D01*
X14250000Y43000000D02*
X14250000Y44100000D01*
X14600000Y44450000D02*
X19800000Y44450000D01*
X14250000Y44100000D02*
X14600000Y44450000D01*
X25200000Y3860000D02*
X27540000Y3860000D01*
X27540000Y3860000D02*
X28000000Y3400000D01*
X6400000Y12550000D02*
X6400000Y18200000D01*
X16300000Y21400000D02*
X16400000Y21400000D01*
X14900000Y20000000D02*
X16300000Y21400000D01*
X8200000Y20000000D02*
X14900000Y20000000D01*
X6400000Y18200000D02*
X8200000Y20000000D01*
X2000000Y13540000D02*
X5960000Y13540000D01*
X6400000Y13100000D02*
X6400000Y12550000D01*
X5960000Y13540000D02*
X6400000Y13100000D01*
X43050000Y24950000D02*
X43900000Y25800000D01*
X42300000Y24200000D02*
X43050000Y24950000D01*
X43050000Y24950000D02*
X43100000Y25000000D01*
X42300000Y12200000D02*
X42300000Y24200000D01*
X41900000Y11800000D02*
X42300000Y12200000D01*
X28600000Y13750000D02*
X28600000Y15800000D01*
X28600000Y15800000D02*
X28300000Y16100000D01*
X29150000Y13750000D02*
X28600000Y13750000D01*
X29650000Y13750000D02*
X29150000Y13750000D01*
X18900000Y25800000D02*
X17700000Y25800000D01*
X16400000Y24500000D02*
X16400000Y21400000D01*
X17700000Y25800000D02*
X16400000Y24500000D01*
X33700000Y24600000D02*
X33700000Y24700000D01*
X33500000Y24400000D02*
X33700000Y24600000D01*
X8800000Y35200000D02*
X8800000Y35250000D01*
X6500000Y35250000D02*
X6500000Y34600000D01*
X7450000Y31250000D02*
X6500000Y31250000D01*
X7800000Y31600000D02*
X7450000Y31250000D01*
X7800000Y33300000D02*
X7800000Y31600000D01*
X6500000Y34600000D02*
X7800000Y33300000D01*
X2000000Y31000000D02*
X3800000Y31000000D01*
X3800000Y31000000D02*
X4050000Y31250000D01*
X4050000Y31250000D02*
X6500000Y31250000D01*
X6500000Y35250000D02*
X8800000Y35250000D01*
X8800000Y35250000D02*
X10100000Y35250000D01*
X10100000Y35250000D02*
X10200000Y35350000D01*
X18400000Y26800000D02*
X18400000Y26900000D01*
X18200000Y36400000D02*
X21250000Y36400000D01*
X18400000Y26900000D02*
X17900000Y27400000D01*
X20750000Y25800000D02*
X18900000Y25800000D01*
X18900000Y25800000D02*
X18800000Y25800000D01*
X19000000Y27400000D02*
X20750000Y27400000D01*
X18400000Y26800000D02*
X19000000Y27400000D01*
X18400000Y26200000D02*
X18400000Y26800000D01*
X18800000Y25800000D02*
X18400000Y26200000D01*
X52450000Y28150000D02*
X56150000Y28150000D01*
X56712000Y27588000D02*
X56712000Y26905000D01*
X56150000Y28150000D02*
X56712000Y27588000D01*
X30100000Y7400000D02*
X30100000Y4300000D01*
X30400000Y4000000D02*
X41000000Y4000000D01*
X30100000Y4300000D02*
X30400000Y4000000D01*
X21250000Y36400000D02*
X21250000Y39130000D01*
X21250000Y39130000D02*
X20380000Y40000000D01*
X40180000Y35600000D02*
X42600000Y35600000D01*
X48400000Y38500000D02*
X48500000Y38500000D01*
X42600000Y35600000D02*
X42900000Y35900000D01*
X56350000Y38800000D02*
X55600000Y38800000D01*
X54300000Y37500000D02*
X52300000Y37500000D01*
X55600000Y38800000D02*
X54300000Y37500000D01*
X50500000Y37500000D02*
X49100000Y37500000D01*
X49100000Y37500000D02*
X48500000Y38100000D01*
X48500000Y38100000D02*
X48500000Y38500000D01*
X48500000Y42800000D02*
X48950000Y43250000D01*
X48500000Y38500000D02*
X48500000Y42800000D01*
X50000000Y46000000D02*
X50000000Y44300000D01*
X50000000Y44300000D02*
X48950000Y43250000D01*
X48950000Y43250000D02*
X45300000Y43250000D01*
X50500000Y37500000D02*
X52300000Y37500000D01*
X52300000Y37500000D02*
X52500000Y37500000D01*
X52450000Y28150000D02*
X47900000Y28150000D01*
X53600000Y29300000D02*
X52450000Y28150000D01*
X53600000Y36400000D02*
X53600000Y29300000D01*
X52500000Y37500000D02*
X53600000Y36400000D01*
X40180000Y33020000D02*
X40180000Y23780000D01*
X40180000Y23780000D02*
X40000000Y23600000D01*
X40000000Y23600000D02*
X35400000Y23600000D01*
X35400000Y23600000D02*
X34300000Y24700000D01*
X34300000Y24700000D02*
X33700000Y24700000D01*
X30800000Y25000000D02*
X29250000Y25000000D01*
X33700000Y24700000D02*
X31100000Y24700000D01*
X31100000Y24700000D02*
X30800000Y25000000D01*
X47050000Y28150000D02*
X47900000Y28150000D01*
X46400000Y27500000D02*
X47050000Y28150000D01*
X46400000Y26600000D02*
X46400000Y27500000D01*
X40180000Y35600000D02*
X40180000Y33020000D01*
X47900000Y29600000D02*
X47900000Y28150000D01*
X46800000Y30700000D02*
X47900000Y29600000D01*
X42500000Y30700000D02*
X46800000Y30700000D01*
X40180000Y33020000D02*
X42500000Y30700000D01*
X44000000Y25960000D02*
X45760000Y25960000D01*
X45760000Y25960000D02*
X46400000Y26600000D01*
X20120000Y8880000D02*
X19800000Y9200000D01*
X20120000Y6400000D02*
X20120000Y8880000D01*
X12600000Y22600000D02*
X15000000Y25000000D01*
X9800000Y22600000D02*
X12600000Y22600000D01*
X8000000Y20800000D02*
X9800000Y22600000D01*
X15000000Y25000000D02*
X15000000Y25500000D01*
X22750000Y36400000D02*
X22750000Y37250000D01*
X12800000Y41000000D02*
X12760000Y41000000D01*
X21100000Y41900000D02*
X18000000Y41900000D01*
X21600000Y41400000D02*
X21100000Y41900000D01*
X21600000Y39700000D02*
X21600000Y41400000D01*
X21700002Y39599998D02*
X21600000Y39700000D01*
X21700002Y38299998D02*
X21700002Y39599998D01*
X22750000Y37250000D02*
X21700002Y38299998D01*
X12760000Y41000000D02*
X12760000Y39740000D01*
X12760000Y39740000D02*
X13500000Y39000000D01*
X13500000Y39000000D02*
X13500000Y33500000D01*
X13500000Y33500000D02*
X15000000Y32000000D01*
X24100000Y36400000D02*
X26650000Y36400000D01*
X26650000Y36400000D02*
X26750000Y36500000D01*
X24600000Y31250000D02*
X24600000Y33600000D01*
X24100000Y36400000D02*
X22750000Y36400000D01*
X24600000Y33600000D02*
X23900000Y34300000D01*
X28250000Y36500000D02*
X28250000Y39750000D01*
X28250000Y39750000D02*
X28000000Y40000000D01*
D39*
X45050000Y34850000D02*
X45550000Y34850000D01*
X45550000Y34850000D02*
X46500000Y35800000D01*
X46500000Y34500000D02*
X45400000Y34500000D01*
X35620000Y35600000D02*
X35620000Y36920000D01*
X35620000Y36920000D02*
X36400000Y37700000D01*
X36400000Y37700000D02*
X43400000Y37700000D01*
X43400000Y37700000D02*
X44300000Y36800000D01*
X44300000Y36800000D02*
X44300000Y35600000D01*
X44300000Y35600000D02*
X45050000Y34850000D01*
X45050000Y34850000D02*
X45400000Y34500000D01*
X45400000Y34500000D02*
X46500000Y33400000D01*
X50610000Y32500000D02*
X47400000Y32500000D01*
X46500000Y33400000D02*
X46500000Y34500000D01*
X46500000Y34500000D02*
X46500000Y35800000D01*
X46500000Y35800000D02*
X46500000Y37500000D01*
X47400000Y32500000D02*
X46500000Y33400000D01*
D38*
X11250000Y15500000D02*
X11250000Y12000000D01*
X11250000Y12000000D02*
X11775000Y11475000D01*
X11775000Y11475000D02*
X12750000Y10500000D01*
X20750000Y25000000D02*
X18400000Y25000000D01*
X14100000Y15500000D02*
X11250000Y15500000D01*
X15000000Y16400000D02*
X14100000Y15500000D01*
X15000000Y17500000D02*
X15000000Y16400000D01*
X17300000Y19800000D02*
X15000000Y17500000D01*
X17300000Y23900000D02*
X17300000Y19800000D01*
X18400000Y25000000D02*
X17300000Y23900000D01*
X18250000Y10500000D02*
X18250000Y12300000D01*
X18250000Y12300000D02*
X18250000Y14000000D01*
X18250000Y14000000D02*
X19750000Y15500000D01*
X18500000Y15500000D02*
X19750000Y15500000D01*
X17200000Y16800000D02*
X18500000Y15500000D01*
X17200000Y17900000D02*
X17200000Y16800000D01*
X18500000Y19200000D02*
X17200000Y17900000D01*
X18500000Y23500000D02*
X18500000Y19200000D01*
X19200000Y24200000D02*
X18500000Y23500000D01*
X20750000Y24200000D02*
X19200000Y24200000D01*
D39*
X66000000Y33000000D02*
X66000000Y36300000D01*
X64750000Y37550000D02*
X63300000Y37550000D01*
X66000000Y36300000D02*
X64750000Y37550000D01*
X66000000Y33000000D02*
X56890000Y33000000D01*
X56890000Y33000000D02*
X56390000Y32500000D01*
D38*
X54950000Y16400000D02*
X55900000Y16400000D01*
X59000000Y19500000D02*
X59000000Y23100000D01*
X55900000Y16400000D02*
X59000000Y19500000D01*
X53600000Y21050000D02*
X53600000Y24600000D01*
X54635000Y25635000D02*
X56712000Y25635000D01*
X53600000Y24600000D02*
X54635000Y25635000D01*
X66000000Y27920000D02*
X65120000Y27920000D01*
X65120000Y27920000D02*
X62835000Y25635000D01*
X62835000Y25635000D02*
X56712000Y25635000D01*
X53400000Y18500000D02*
X55800000Y18500000D01*
X55800000Y18500000D02*
X56400000Y19100000D01*
X52300000Y17400000D02*
X53400000Y18500000D01*
X56400000Y19100000D02*
X56400000Y20600000D01*
X56400000Y20600000D02*
X55950000Y21050000D01*
X55950000Y21050000D02*
X55100000Y21050000D01*
X47312000Y13095000D02*
X51495000Y13095000D01*
X52300000Y13900000D02*
X52300000Y17400000D01*
X51495000Y13095000D02*
X52300000Y13900000D01*
X55100000Y21050000D02*
X55100000Y23600000D01*
X55100000Y23600000D02*
X55865000Y24365000D01*
X55865000Y24365000D02*
X56712000Y24365000D01*
X66000000Y22840000D02*
X63960000Y22840000D01*
X62435000Y24365000D02*
X56712000Y24365000D01*
X63960000Y22840000D02*
X62435000Y24365000D01*
X51288000Y26905000D02*
X49895000Y26905000D01*
X49895000Y26905000D02*
X49600000Y27200000D01*
X23800000Y31250000D02*
X23800000Y33200000D01*
X25460000Y38860000D02*
X25460000Y40000000D01*
X24100000Y37500000D02*
X25460000Y38860000D01*
X23800000Y33200000D02*
X22900000Y34100000D01*
X51288000Y24365000D02*
X48165000Y24365000D01*
X47500000Y23700000D02*
X47500000Y20600000D01*
X48165000Y24365000D02*
X47500000Y23700000D01*
X51288000Y25635000D02*
X51288000Y24365000D01*
X47900000Y26650000D02*
X47900000Y25900000D01*
X48165000Y25635000D02*
X51288000Y25635000D01*
X47900000Y25900000D02*
X48165000Y25635000D01*
X51288000Y23095000D02*
X49505000Y23095000D01*
X34500000Y32100000D02*
X33700000Y32100000D01*
X35300000Y32900000D02*
X34500000Y32100000D01*
X49505000Y23095000D02*
X49400000Y23200000D01*
X23000000Y31250000D02*
X23000000Y32400000D01*
X23000000Y32400000D02*
X21900000Y33500000D01*
X21900000Y33500000D02*
X21900000Y34100000D01*
X51288000Y23095000D02*
X51288000Y21088000D01*
X51288000Y21088000D02*
X50650000Y20450000D01*
X50650000Y20450000D02*
X50400000Y20450000D01*
X4700000Y33500000D02*
X4700000Y33540000D01*
X15100000Y35800000D02*
X15100000Y37900000D01*
X15400000Y35500000D02*
X15100000Y35800000D01*
X25200000Y35500000D02*
X15400000Y35500000D01*
X26200000Y34500000D02*
X25200000Y35500000D01*
X26200000Y31250000D02*
X26200000Y34500000D01*
X4700000Y33540000D02*
X6060000Y33540000D01*
X2000000Y33540000D02*
X1760000Y33540000D01*
X2000000Y33540000D02*
X4700000Y33540000D01*
X6500000Y33100000D02*
X6500000Y32750000D01*
X6060000Y33540000D02*
X6500000Y33100000D01*
X25400000Y31250000D02*
X25400000Y34100000D01*
X14300000Y35400000D02*
X14300000Y37200000D01*
X14700000Y35000000D02*
X14300000Y35400000D01*
X24500000Y35000000D02*
X14700000Y35000000D01*
X25400000Y34100000D02*
X24500000Y35000000D01*
X2000000Y38620000D02*
X5880000Y38620000D01*
X6500000Y38000000D02*
X6500000Y36750000D01*
X5880000Y38620000D02*
X6500000Y38000000D01*
X20750000Y29000000D02*
X15500000Y29000000D01*
X15500000Y29000000D02*
X7300000Y29000000D01*
X3780000Y16080000D02*
X2000000Y16080000D01*
X5300000Y17600000D02*
X3780000Y16080000D01*
X5300000Y27000000D02*
X5300000Y17600000D01*
X7300000Y29000000D02*
X5300000Y27000000D01*
X22200000Y22750000D02*
X20450000Y22750000D01*
X20450000Y22750000D02*
X19900000Y22200000D01*
X2000000Y21160000D02*
X2000000Y21300000D01*
X2000000Y21300000D02*
X500000Y22800000D01*
X500000Y22800000D02*
X500000Y26000000D01*
X500000Y26000000D02*
X5000000Y30500000D01*
X5000000Y30500000D02*
X8100000Y30500000D01*
X8100000Y30500000D02*
X8800000Y31200000D01*
X8800000Y31200000D02*
X8800000Y33700000D01*
X22200000Y31250000D02*
X22200000Y31800000D01*
X22200000Y31800000D02*
X20300000Y33700000D01*
X20300000Y33700000D02*
X19700000Y34300000D01*
X19700000Y34300000D02*
X17100000Y34300000D01*
X20750000Y29800000D02*
X5500000Y29800000D01*
X4300000Y26000000D02*
X2000000Y23700000D01*
X4300000Y28600000D02*
X4300000Y26000000D01*
X5500000Y29800000D02*
X4300000Y28600000D01*
X35250000Y7500000D02*
X50100000Y7500000D01*
X51160000Y6440000D02*
X51160000Y4000000D01*
X50100000Y7500000D02*
X51160000Y6440000D01*
X39688000Y15635000D02*
X34435000Y15635000D01*
X28400000Y11100000D02*
X28400000Y10900000D01*
X28200000Y11300000D02*
X28400000Y11100000D01*
X31500000Y12700000D02*
X31500000Y11400000D01*
X34435000Y15635000D02*
X31500000Y12700000D01*
X29150000Y12650000D02*
X29150000Y11550000D01*
X24600000Y12000000D02*
X24600000Y22750000D01*
X24500000Y11900000D02*
X24600000Y12000000D01*
X26200000Y11500000D02*
X26200000Y11900000D01*
X26800000Y10900000D02*
X26200000Y11500000D01*
X28500000Y10900000D02*
X28400000Y10900000D01*
X28400000Y10900000D02*
X26800000Y10900000D01*
X29150000Y11550000D02*
X28500000Y10900000D01*
X39688000Y14365000D02*
X34065000Y14365000D01*
X31800000Y10300000D02*
X28800000Y10300000D01*
X32500000Y11000000D02*
X31800000Y10300000D01*
X32500000Y12800000D02*
X32500000Y11000000D01*
X34065000Y14365000D02*
X32500000Y12800000D01*
X29650000Y12650000D02*
X29650000Y11150000D01*
X25400000Y11300000D02*
X25400000Y22750000D01*
X26400000Y10300000D02*
X25900000Y10800000D01*
X25900000Y10800000D02*
X25400000Y11300000D01*
X28800000Y10300000D02*
X26400000Y10300000D01*
X29650000Y11150000D02*
X28800000Y10300000D01*
X22660000Y3860000D02*
X22660000Y4060000D01*
X22660000Y4060000D02*
X24000000Y5400000D01*
X24000000Y5400000D02*
X24000000Y11200000D01*
X24000000Y11200000D02*
X23400000Y11800000D01*
X26400000Y18600000D02*
X27000000Y19200000D01*
X27000000Y19200000D02*
X27000000Y22750000D01*
X25200000Y6400000D02*
X25200000Y8800000D01*
X27800000Y19800000D02*
X27800000Y22750000D01*
X28000000Y19600000D02*
X27800000Y19800000D01*
X25800000Y9400000D02*
X27000000Y9400000D01*
X25200000Y8800000D02*
X25800000Y9400000D01*
X22660000Y6400000D02*
X22660000Y11660000D01*
X29400000Y18200000D02*
X29400000Y24050000D01*
X29000000Y17800000D02*
X29400000Y18200000D01*
X27000000Y17800000D02*
X29000000Y17800000D01*
X26400000Y17200000D02*
X27000000Y17800000D01*
X22600000Y13400000D02*
X23000000Y13800000D01*
X22600000Y11720000D02*
X22600000Y13400000D01*
X22660000Y11660000D02*
X22600000Y11720000D01*
X29400000Y24050000D02*
X29250000Y24200000D01*
X33750000Y7500000D02*
X33750000Y7950000D01*
X33750000Y7950000D02*
X35800000Y10000000D01*
X35800000Y10000000D02*
X35800000Y13500000D01*
X29200000Y32900000D02*
X29250000Y32900000D01*
X29250000Y32900000D02*
X29250000Y29800000D01*
X43000000Y28500000D02*
X44000000Y28500000D01*
X30200000Y13750000D02*
X30200000Y14900000D01*
X30200000Y14900000D02*
X31400000Y16100000D01*
X31400000Y16100000D02*
X33400000Y16100000D01*
X34100000Y17700000D02*
X35100000Y18700000D01*
X35100000Y18700000D02*
X39600000Y18700000D01*
X39600000Y18700000D02*
X41300000Y20400000D01*
X41300000Y20400000D02*
X41300000Y26800000D01*
X41300000Y26800000D02*
X43000000Y28500000D01*
X27800000Y34100000D02*
X27800000Y31250000D01*
X39688000Y16905000D02*
X27305000Y16905000D01*
X26300000Y15900000D02*
X26300000Y13000000D01*
X27305000Y16905000D02*
X26300000Y15900000D01*
X28600000Y12650000D02*
X26650000Y12650000D01*
X23800000Y13100000D02*
X23800000Y20300000D01*
X23700000Y13000000D02*
X23800000Y13100000D01*
X26650000Y12650000D02*
X26300000Y13000000D01*
X23800000Y20300000D02*
X23800000Y22750000D01*
X29250000Y28200000D02*
X31100000Y28200000D01*
X31900000Y29000000D02*
X37000000Y29000000D01*
X31100000Y28200000D02*
X31900000Y29000000D01*
X37000000Y29000000D02*
X37500000Y28500000D01*
X29250000Y25800000D02*
X30900000Y25800000D01*
X36740000Y25200000D02*
X37500000Y25960000D01*
X31500000Y25200000D02*
X36740000Y25200000D01*
X30900000Y25800000D02*
X31500000Y25200000D01*
X45500000Y19950000D02*
X45500000Y19400000D01*
X45950000Y18950000D02*
X50400000Y18950000D01*
X45500000Y19400000D02*
X45950000Y18950000D01*
X53450000Y16400000D02*
X53450000Y12350000D01*
X39688000Y11512000D02*
X39688000Y13095000D01*
X40400000Y10800000D02*
X39688000Y11512000D01*
X51900000Y10800000D02*
X40400000Y10800000D01*
X53450000Y12350000D02*
X51900000Y10800000D01*
X15750000Y43000000D02*
X22650000Y43000000D01*
X24540000Y44890000D02*
X24540000Y47000000D01*
X22650000Y43000000D02*
X24540000Y44890000D01*
X23000000Y22750000D02*
X23000000Y20600000D01*
X15750000Y41850000D02*
X15750000Y43000000D01*
X15300000Y41400000D02*
X15750000Y41850000D01*
X13750000Y41400000D02*
X15300000Y41400000D01*
X13150000Y42000000D02*
X13750000Y41400000D01*
X12550000Y42000000D02*
X13150000Y42000000D01*
X11950000Y41400000D02*
X12550000Y42000000D01*
X11950000Y39800000D02*
X11950000Y41400000D01*
X12700000Y39050000D02*
X11950000Y39800000D01*
X12700000Y33300000D02*
X12700000Y39050000D01*
X12800000Y33200000D02*
X12700000Y33300000D01*
X12900000Y21700000D02*
X14300000Y23100000D01*
X12150000Y21700000D02*
X12900000Y21700000D01*
X11800000Y21350000D02*
X12150000Y21700000D01*
X21850000Y19450000D02*
X19450000Y19450000D01*
X23000000Y20600000D02*
X21850000Y19450000D01*
X26200000Y22750000D02*
X26200000Y20250000D01*
X9250000Y41750000D02*
X9250000Y43000000D01*
X10600000Y40400000D02*
X9250000Y41750000D01*
X10600000Y39450000D02*
X10600000Y40400000D01*
X12000000Y38050000D02*
X10600000Y39450000D01*
X12000000Y32850000D02*
X12000000Y38050000D01*
X12300000Y32550000D02*
X12000000Y32850000D01*
X12300000Y31000000D02*
X12300000Y32550000D01*
X12900000Y30400000D02*
X12300000Y31000000D01*
X16100000Y30400000D02*
X12900000Y30400000D01*
X17100000Y31400000D02*
X16100000Y30400000D01*
X15450000Y22000000D02*
X15450000Y23400000D01*
X14050000Y20600000D02*
X15450000Y22000000D01*
X10800000Y20600000D02*
X14050000Y20600000D01*
X10550000Y20850000D02*
X10800000Y20600000D01*
X26200000Y20250000D02*
X26100000Y20150000D01*
X10750000Y43000000D02*
X10750000Y44750000D01*
X13000000Y47000000D02*
X22000000Y47000000D01*
X10750000Y44750000D02*
X13000000Y47000000D01*
D40*
G36*
X27525000Y29802560D02*
X27802560Y29802560D01*
X27802560Y29525000D01*
X27826944Y29395411D01*
X27802560Y29275000D01*
X27802560Y28725000D01*
X27826944Y28595411D01*
X27802560Y28475000D01*
X27802560Y27925000D01*
X27822450Y27819295D01*
X27815000Y27801310D01*
X27815000Y27685750D01*
X27911401Y27589349D01*
X27973000Y27493622D01*
X27973000Y27301683D01*
X27909505Y27208755D01*
X27815000Y27114250D01*
X27815000Y26998690D01*
X27823468Y26978247D01*
X27802560Y26875000D01*
X27802560Y26325000D01*
X27826944Y26195411D01*
X27802560Y26075000D01*
X27802560Y25525000D01*
X27826944Y25395411D01*
X27802560Y25275000D01*
X27802560Y24725000D01*
X27826944Y24595411D01*
X27802560Y24475000D01*
X27802560Y24197440D01*
X27525000Y24197440D01*
X27395411Y24173056D01*
X27275000Y24197440D01*
X26725000Y24197440D01*
X26595411Y24173056D01*
X26475000Y24197440D01*
X25925000Y24197440D01*
X25795411Y24173056D01*
X25675000Y24197440D01*
X25125000Y24197440D01*
X24995411Y24173056D01*
X24875000Y24197440D01*
X24325000Y24197440D01*
X24195411Y24173056D01*
X24075000Y24197440D01*
X23525000Y24197440D01*
X23395411Y24173056D01*
X23275000Y24197440D01*
X22725000Y24197440D01*
X22595411Y24173056D01*
X22475000Y24197440D01*
X22197440Y24197440D01*
X22197440Y24475000D01*
X22173056Y24604589D01*
X22197440Y24725000D01*
X22197440Y25275000D01*
X22173056Y25404589D01*
X22197440Y25525000D01*
X22197440Y26075000D01*
X22177550Y26180705D01*
X22185000Y26198690D01*
X22185000Y26314250D01*
X22088599Y26410651D01*
X22027000Y26506378D01*
X22027000Y26698317D01*
X22090495Y26791245D01*
X22185000Y26885750D01*
X22185000Y27001310D01*
X22176532Y27021753D01*
X22197440Y27125000D01*
X22197440Y27675000D01*
X22177550Y27780705D01*
X22185000Y27798690D01*
X22185000Y27914250D01*
X22088599Y28010651D01*
X22027000Y28106378D01*
X22027000Y28298317D01*
X22090495Y28391245D01*
X22185000Y28485750D01*
X22185000Y28601310D01*
X22176532Y28621753D01*
X22197440Y28725000D01*
X22197440Y29275000D01*
X22173056Y29404589D01*
X22197440Y29525000D01*
X22197440Y29802560D01*
X22475000Y29802560D01*
X22604589Y29826944D01*
X22725000Y29802560D01*
X23275000Y29802560D01*
X23404589Y29826944D01*
X23525000Y29802560D01*
X24075000Y29802560D01*
X24204589Y29826944D01*
X24325000Y29802560D01*
X24875000Y29802560D01*
X25004589Y29826944D01*
X25125000Y29802560D01*
X25675000Y29802560D01*
X25804589Y29826944D01*
X25925000Y29802560D01*
X26475000Y29802560D01*
X26604589Y29826944D01*
X26725000Y29802560D01*
X27275000Y29802560D01*
X27404589Y29826944D01*
X27525000Y29802560D01*
X27525000Y29802560D01*
G37*
X27525000Y29802560D02*
X27802560Y29802560D01*
X27802560Y29525000D01*
X27826944Y29395411D01*
X27802560Y29275000D01*
X27802560Y28725000D01*
X27826944Y28595411D01*
X27802560Y28475000D01*
X27802560Y27925000D01*
X27822450Y27819295D01*
X27815000Y27801310D01*
X27815000Y27685750D01*
X27911401Y27589349D01*
X27973000Y27493622D01*
X27973000Y27301683D01*
X27909505Y27208755D01*
X27815000Y27114250D01*
X27815000Y26998690D01*
X27823468Y26978247D01*
X27802560Y26875000D01*
X27802560Y26325000D01*
X27826944Y26195411D01*
X27802560Y26075000D01*
X27802560Y25525000D01*
X27826944Y25395411D01*
X27802560Y25275000D01*
X27802560Y24725000D01*
X27826944Y24595411D01*
X27802560Y24475000D01*
X27802560Y24197440D01*
X27525000Y24197440D01*
X27395411Y24173056D01*
X27275000Y24197440D01*
X26725000Y24197440D01*
X26595411Y24173056D01*
X26475000Y24197440D01*
X25925000Y24197440D01*
X25795411Y24173056D01*
X25675000Y24197440D01*
X25125000Y24197440D01*
X24995411Y24173056D01*
X24875000Y24197440D01*
X24325000Y24197440D01*
X24195411Y24173056D01*
X24075000Y24197440D01*
X23525000Y24197440D01*
X23395411Y24173056D01*
X23275000Y24197440D01*
X22725000Y24197440D01*
X22595411Y24173056D01*
X22475000Y24197440D01*
X22197440Y24197440D01*
X22197440Y24475000D01*
X22173056Y24604589D01*
X22197440Y24725000D01*
X22197440Y25275000D01*
X22173056Y25404589D01*
X22197440Y25525000D01*
X22197440Y26075000D01*
X22177550Y26180705D01*
X22185000Y26198690D01*
X22185000Y26314250D01*
X22088599Y26410651D01*
X22027000Y26506378D01*
X22027000Y26698317D01*
X22090495Y26791245D01*
X22185000Y26885750D01*
X22185000Y27001310D01*
X22176532Y27021753D01*
X22197440Y27125000D01*
X22197440Y27675000D01*
X22177550Y27780705D01*
X22185000Y27798690D01*
X22185000Y27914250D01*
X22088599Y28010651D01*
X22027000Y28106378D01*
X22027000Y28298317D01*
X22090495Y28391245D01*
X22185000Y28485750D01*
X22185000Y28601310D01*
X22176532Y28621753D01*
X22197440Y28725000D01*
X22197440Y29275000D01*
X22173056Y29404589D01*
X22197440Y29525000D01*
X22197440Y29802560D01*
X22475000Y29802560D01*
X22604589Y29826944D01*
X22725000Y29802560D01*
X23275000Y29802560D01*
X23404589Y29826944D01*
X23525000Y29802560D01*
X24075000Y29802560D01*
X24204589Y29826944D01*
X24325000Y29802560D01*
X24875000Y29802560D01*
X25004589Y29826944D01*
X25125000Y29802560D01*
X25675000Y29802560D01*
X25804589Y29826944D01*
X25925000Y29802560D01*
X26475000Y29802560D01*
X26604589Y29826944D01*
X26725000Y29802560D01*
X27275000Y29802560D01*
X27404589Y29826944D01*
X27525000Y29802560D01*
G36*
X46873000Y44627000D02*
X43800000Y44627000D01*
X43750590Y44616994D01*
X43708965Y44588553D01*
X43681685Y44546159D01*
X43673000Y44500000D01*
X43673000Y38680697D01*
X43400000Y38735001D01*
X43399995Y38735000D01*
X41435000Y38735000D01*
X41435000Y41876309D01*
X41425187Y41900000D01*
X41435000Y41923691D01*
X41435000Y45226309D01*
X41338327Y45459698D01*
X41159699Y45638327D01*
X40926310Y45735000D01*
X37923690Y45735000D01*
X37900000Y45725187D01*
X37876310Y45735000D01*
X34873690Y45735000D01*
X34640301Y45638327D01*
X34461673Y45459698D01*
X34365000Y45226309D01*
X34365000Y41923691D01*
X34374813Y41900000D01*
X34365000Y41876309D01*
X34365000Y38627000D01*
X33427000Y38627000D01*
X33427000Y46600000D01*
X33416994Y46649410D01*
X33388553Y46691035D01*
X33346159Y46718315D01*
X33300000Y46727000D01*
X30527000Y46727000D01*
X30527000Y49290000D01*
X46873000Y49290000D01*
X46873000Y44627000D01*
X46873000Y44627000D01*
G37*
X46873000Y44627000D02*
X43800000Y44627000D01*
X43750590Y44616994D01*
X43708965Y44588553D01*
X43681685Y44546159D01*
X43673000Y44500000D01*
X43673000Y38680697D01*
X43400000Y38735001D01*
X43399995Y38735000D01*
X41435000Y38735000D01*
X41435000Y41876309D01*
X41425187Y41900000D01*
X41435000Y41923691D01*
X41435000Y45226309D01*
X41338327Y45459698D01*
X41159699Y45638327D01*
X40926310Y45735000D01*
X37923690Y45735000D01*
X37900000Y45725187D01*
X37876310Y45735000D01*
X34873690Y45735000D01*
X34640301Y45638327D01*
X34461673Y45459698D01*
X34365000Y45226309D01*
X34365000Y41923691D01*
X34374813Y41900000D01*
X34365000Y41876309D01*
X34365000Y38627000D01*
X33427000Y38627000D01*
X33427000Y46600000D01*
X33416994Y46649410D01*
X33388553Y46691035D01*
X33346159Y46718315D01*
X33300000Y46727000D01*
X30527000Y46727000D01*
X30527000Y49290000D01*
X46873000Y49290000D01*
X46873000Y44627000D01*
M02*
