G04 #@! TF.FileFunction,Copper,L2,Bot,Signal*
%FSLAX46Y46*%
G04 Gerber Fmt 4.6, Leading zero omitted, Abs format (unit mm)*
G04 Created by KiCad (PCBNEW 4.0.1-stable) date 2019/02/18 22:31:54*
%MOMM*%
G01*
G04 APERTURE LIST*
%ADD10C,0.100000*%
%ADD11R,1.700000X1.700000*%
%ADD12O,1.700000X1.700000*%
%ADD13C,3.000000*%
%ADD14R,3.000000X3.000000*%
%ADD15C,2.000000*%
%ADD16C,1.303000*%
%ADD17C,0.600000*%
%ADD18C,0.250000*%
%ADD19C,0.254000*%
G04 APERTURE END LIST*
D10*
D11*
X2000000Y31000000D03*
D12*
X2000000Y33540000D03*
X2000000Y36080000D03*
X2000000Y38620000D03*
D11*
X2000000Y11000000D03*
D12*
X2000000Y13540000D03*
X2000000Y16080000D03*
X2000000Y18620000D03*
X2000000Y21160000D03*
X2000000Y23700000D03*
D13*
X66000000Y27920000D03*
X66000000Y22840000D03*
D14*
X66000000Y33000000D03*
D13*
X66000000Y17760000D03*
X46080000Y4000000D03*
X51160000Y4000000D03*
D14*
X41000000Y4000000D03*
D13*
X56240000Y4000000D03*
D11*
X28000000Y40000000D03*
D12*
X25460000Y40000000D03*
X22920000Y40000000D03*
X20380000Y40000000D03*
X17840000Y40000000D03*
D14*
X50000000Y46000000D03*
D13*
X55080000Y46000000D03*
D11*
X37500000Y28500000D03*
D12*
X37500000Y25960000D03*
D15*
X15000000Y25500000D03*
X10500000Y25500000D03*
X15000000Y32000000D03*
X10500000Y32000000D03*
D16*
X43900000Y25800000D03*
X43900000Y28340000D03*
D11*
X75000000Y29000000D03*
D12*
X75000000Y26460000D03*
X75000000Y23920000D03*
X75000000Y21380000D03*
D11*
X85000000Y29000000D03*
D12*
X85000000Y26460000D03*
X85000000Y23920000D03*
X85000000Y21380000D03*
D11*
X25200000Y6400000D03*
D12*
X25200000Y3860000D03*
X22660000Y6400000D03*
X22660000Y3860000D03*
X20120000Y6400000D03*
X20120000Y3860000D03*
D11*
X22000000Y47000000D03*
D12*
X24540000Y47000000D03*
X27080000Y47000000D03*
D17*
X33500000Y36000000D03*
X35000000Y47000000D03*
X37000000Y47000000D03*
X39000000Y47000000D03*
X41000000Y47000000D03*
X43000000Y47000000D03*
X40000000Y41000000D03*
X39000000Y41000000D03*
X38000000Y41000000D03*
X37000000Y41000000D03*
X36000000Y41000000D03*
X38000000Y39500000D03*
X37000000Y39500000D03*
X39000000Y39500000D03*
X40000000Y39500000D03*
X36000000Y39500000D03*
X31300000Y13600000D03*
X28900000Y5700000D03*
X9300000Y39600000D03*
X60200000Y34500000D03*
X62900000Y19600000D03*
X52500000Y19000000D03*
X19800000Y44450000D03*
X30400000Y4000000D03*
X28000000Y3400000D03*
X41900000Y11800000D03*
X28300000Y16100000D03*
X16400000Y21400000D03*
X33500000Y24400000D03*
X8800000Y35200000D03*
X18200000Y36400000D03*
X17900000Y27400000D03*
X48400000Y38500000D03*
X42900000Y35900000D03*
X19800000Y9200000D03*
X8000000Y20800000D03*
X12800000Y41000000D03*
X18000000Y41900000D03*
X24100000Y36400000D03*
X23900000Y34300000D03*
X59000000Y23100000D03*
X49600000Y27200000D03*
X24100000Y37500000D03*
X22900000Y34100000D03*
X33700000Y32100000D03*
X35300000Y32900000D03*
X49400000Y23200000D03*
X21900000Y34100000D03*
X4700000Y33500000D03*
X15100000Y37900000D03*
X6500000Y38000000D03*
X14300000Y37200000D03*
X19900000Y22200000D03*
X8800000Y33700000D03*
X17100000Y34300000D03*
X28200000Y11300000D03*
X31500000Y11400000D03*
X24500000Y11900000D03*
X26200000Y11900000D03*
X23400000Y11800000D03*
X26400000Y18600000D03*
X28000000Y19600000D03*
X27000000Y9400000D03*
X26400000Y17200000D03*
X23000000Y13800000D03*
X35800000Y13500000D03*
X29200000Y32900000D03*
X33400000Y16100000D03*
X34100000Y17700000D03*
X27800000Y34100000D03*
X23700000Y13000000D03*
X26300000Y13000000D03*
X12800000Y33200000D03*
X14300000Y23100000D03*
X11800000Y21350000D03*
X19450000Y19450000D03*
X17100000Y31400000D03*
X15450000Y23400000D03*
X10550000Y20850000D03*
X26100000Y20150000D03*
D18*
X33500000Y40500000D02*
X33500000Y36000000D01*
X34000000Y41000000D02*
X33500000Y40500000D01*
X34000000Y42000000D02*
X34000000Y41000000D01*
X34000000Y46000000D02*
X34000000Y42000000D01*
X35000000Y47000000D02*
X34000000Y46000000D01*
X39000000Y47000000D02*
X37000000Y47000000D01*
X43000000Y47000000D02*
X41000000Y47000000D01*
X31300000Y13600000D02*
X32300000Y12600000D01*
X32300000Y12600000D02*
X32300000Y8000000D01*
X32300000Y8000000D02*
X30000000Y5700000D01*
X30000000Y5700000D02*
X28900000Y5700000D01*
X10500000Y25500000D02*
X10500000Y32000000D01*
X17840000Y40000000D02*
X9700000Y40000000D01*
X9700000Y40000000D02*
X9300000Y39600000D01*
X67400000Y30600000D02*
X61800000Y30600000D01*
X67400000Y30600000D02*
X68300000Y29700000D01*
X68300000Y29700000D02*
X68300000Y20100000D01*
X66000000Y17800000D02*
X68300000Y20100000D01*
X60200000Y32200000D02*
X60200000Y34500000D01*
X61800000Y30600000D02*
X60200000Y32200000D01*
X66000000Y17800000D02*
X66000000Y17760000D01*
X62900000Y19600000D02*
X62300000Y19000000D01*
X62300000Y19000000D02*
X52500000Y19000000D01*
X20380000Y43870000D02*
X20380000Y40000000D01*
X19800000Y44450000D02*
X20380000Y43870000D01*
X28600000Y4000000D02*
X30400000Y4000000D01*
X28000000Y3400000D02*
X28600000Y4000000D01*
X41000000Y4000000D02*
X41000000Y10900000D01*
X41000000Y10900000D02*
X41900000Y11800000D01*
X30800000Y21300000D02*
X31200000Y21300000D01*
X28100000Y18600000D02*
X30800000Y21300000D01*
X28100000Y16300000D02*
X28100000Y18600000D01*
X28300000Y16100000D02*
X28100000Y16300000D01*
X20200000Y21300000D02*
X31200000Y21300000D01*
X16500000Y21300000D02*
X20200000Y21300000D01*
X16400000Y21400000D02*
X16500000Y21300000D01*
X31200000Y21300000D02*
X31600000Y21700000D01*
X31600000Y21700000D02*
X31600000Y22500000D01*
X31600000Y22500000D02*
X33500000Y24400000D01*
X18200000Y36400000D02*
X12600000Y36400000D01*
X11400000Y35200000D02*
X8800000Y35200000D01*
X12600000Y36400000D02*
X11400000Y35200000D01*
X18400000Y36200000D02*
X18200000Y36400000D01*
X18400000Y27900000D02*
X18400000Y36200000D01*
X17900000Y27400000D02*
X18400000Y27900000D01*
X48400000Y38500000D02*
X48400000Y42600000D01*
X50000000Y44200000D02*
X50000000Y46000000D01*
X48400000Y42600000D02*
X50000000Y44200000D01*
X45500000Y38500000D02*
X48400000Y38500000D01*
X42900000Y35900000D02*
X45500000Y38500000D01*
X8000000Y10800000D02*
X8000000Y20800000D01*
X8600000Y10200000D02*
X8000000Y10800000D01*
X8600000Y9800000D02*
X8600000Y10200000D01*
X9000000Y9400000D02*
X8600000Y9800000D01*
X11000000Y9400000D02*
X9000000Y9400000D01*
X19600000Y9400000D02*
X11000000Y9400000D01*
X19800000Y9200000D02*
X19600000Y9400000D01*
X12800000Y40800000D02*
X12800000Y41000000D01*
X13100000Y40500000D02*
X12800000Y40800000D01*
X15600000Y40500000D02*
X13100000Y40500000D01*
X16600000Y41500000D02*
X15600000Y40500000D01*
X17600000Y41500000D02*
X16600000Y41500000D01*
X18000000Y41900000D02*
X17600000Y41500000D01*
X15000000Y25500000D02*
X15000000Y32000000D01*
X24100000Y34500000D02*
X24100000Y36400000D01*
X23900000Y34300000D02*
X24100000Y34500000D01*
X63820000Y27920000D02*
X66000000Y27920000D01*
X59000000Y23100000D02*
X63820000Y27920000D01*
X23600000Y33400000D02*
X22900000Y34100000D01*
X24400000Y33400000D02*
X23600000Y33400000D01*
X24800000Y33800000D02*
X24400000Y33400000D01*
X24900000Y33800000D02*
X24800000Y33800000D01*
X26100000Y35000000D02*
X24900000Y33800000D01*
X32000000Y35000000D02*
X26100000Y35000000D01*
X32849998Y34150002D02*
X32000000Y35000000D01*
X45449998Y34150002D02*
X32849998Y34150002D01*
X49600000Y30000000D02*
X45449998Y34150002D01*
X49600000Y27200000D02*
X49600000Y30000000D01*
X23200000Y36600000D02*
X24100000Y37500000D01*
X23200000Y34400000D02*
X23200000Y36600000D01*
X22900000Y34100000D02*
X23200000Y34400000D01*
X21900000Y33000000D02*
X21900000Y34100000D01*
X22800000Y32100000D02*
X21900000Y33000000D01*
X26900000Y32100000D02*
X22800000Y32100000D01*
X33700000Y32100000D02*
X26900000Y32100000D01*
X35600000Y32600000D02*
X35300000Y32900000D01*
X35600000Y24300000D02*
X35600000Y32600000D01*
X36100000Y23800000D02*
X35600000Y24300000D01*
X48800000Y23800000D02*
X36100000Y23800000D01*
X49400000Y23200000D02*
X48800000Y23800000D01*
X22300000Y40000000D02*
X22920000Y40000000D01*
X22000000Y39080000D02*
X22920000Y40000000D01*
X21900000Y34100000D02*
X22000000Y34200000D01*
X22000000Y34200000D02*
X22000000Y39080000D01*
X4700000Y38500000D02*
X4700000Y33500000D01*
X5100000Y38900000D02*
X4700000Y38500000D01*
X7000000Y38900000D02*
X5100000Y38900000D01*
X7300000Y38600000D02*
X7000000Y38900000D01*
X14400000Y38600000D02*
X7300000Y38600000D01*
X15100000Y37900000D02*
X14400000Y38600000D01*
X13500000Y38000000D02*
X6500000Y38000000D01*
X14300000Y37200000D02*
X13500000Y38000000D01*
X6700000Y18700000D02*
X2080000Y18700000D01*
X7000000Y19000000D02*
X6700000Y18700000D01*
X7000000Y21000000D02*
X7000000Y19000000D01*
X7000000Y21300000D02*
X7000000Y21000000D01*
X8000000Y22300000D02*
X7800000Y22100000D01*
X7800000Y22100000D02*
X7000000Y21300000D01*
X19800000Y22300000D02*
X8000000Y22300000D01*
X19900000Y22200000D02*
X19800000Y22300000D01*
X2080000Y18700000D02*
X2000000Y18620000D01*
X8800000Y33700000D02*
X9400000Y34300000D01*
X9400000Y34300000D02*
X17100000Y34300000D01*
X31400000Y11300000D02*
X28200000Y11300000D01*
X31500000Y11400000D02*
X31400000Y11300000D01*
X26200000Y11900000D02*
X24500000Y11900000D01*
X23400000Y11800000D02*
X22800000Y12400000D01*
X22800000Y12400000D02*
X22800000Y12600000D01*
X22800000Y12600000D02*
X22200000Y13200000D01*
X22200000Y13200000D02*
X22200000Y14400000D01*
X22200000Y14400000D02*
X23200000Y15400000D01*
X23200000Y15400000D02*
X24800000Y15400000D01*
X24800000Y15400000D02*
X25600000Y16200000D01*
X25600000Y16200000D02*
X25600000Y17800000D01*
X25600000Y17800000D02*
X26400000Y18600000D01*
X27200000Y18800000D02*
X28000000Y19600000D01*
X27200000Y9600000D02*
X27200000Y18800000D01*
X27000000Y9400000D02*
X27200000Y9600000D01*
X26400000Y14800000D02*
X26400000Y17200000D01*
X25600000Y14000000D02*
X26400000Y14800000D01*
X23200000Y14000000D02*
X25600000Y14000000D01*
X23000000Y13800000D02*
X23200000Y14000000D01*
X35800000Y13500000D02*
X35800000Y21100000D01*
X35800000Y21100000D02*
X34900000Y22000000D01*
X34900000Y22000000D02*
X34900000Y32100000D01*
X34900000Y32100000D02*
X34100000Y32900000D01*
X34100000Y32900000D02*
X29200000Y32900000D01*
X31200000Y33700000D02*
X42600000Y33700000D01*
X44000000Y32300000D02*
X44000000Y28500000D01*
X42600000Y33700000D02*
X44000000Y32300000D01*
X33400000Y16100000D02*
X34100000Y16800000D01*
X34100000Y16800000D02*
X34100000Y17700000D01*
X31200000Y33700000D02*
X30800000Y34100000D01*
X30800000Y34100000D02*
X27800000Y34100000D01*
X26300000Y13000000D02*
X23700000Y13000000D01*
X75000000Y29000000D02*
X77000000Y29000000D01*
X83000000Y29000000D02*
X85000000Y29000000D01*
X82000000Y28000000D02*
X83000000Y29000000D01*
X78000000Y28000000D02*
X82000000Y28000000D01*
X77000000Y29000000D02*
X78000000Y28000000D01*
X75000000Y26460000D02*
X85000000Y26460000D01*
X75000000Y23920000D02*
X85000000Y23920000D01*
X75000000Y21380000D02*
X77380000Y21380000D01*
X83000000Y21000000D02*
X84620000Y21000000D01*
X82000000Y22000000D02*
X83000000Y21000000D01*
X78000000Y22000000D02*
X82000000Y22000000D01*
X77380000Y21380000D02*
X78000000Y22000000D01*
X84620000Y21000000D02*
X85000000Y21380000D01*
X13200000Y32800000D02*
X12800000Y33200000D01*
X13200000Y24200000D02*
X13200000Y32800000D01*
X14300000Y23100000D02*
X13200000Y24200000D01*
X11800000Y21150000D02*
X11800000Y21350000D01*
X13500000Y19450000D02*
X11800000Y21150000D01*
X19450000Y19450000D02*
X13500000Y19450000D01*
X17100000Y25450000D02*
X17100000Y31400000D01*
X16350000Y24700000D02*
X17100000Y25450000D01*
X16350000Y24300000D02*
X16350000Y24700000D01*
X15450000Y23400000D02*
X16350000Y24300000D01*
X11050000Y20850000D02*
X10550000Y20850000D01*
X13100000Y18800000D02*
X11050000Y20850000D01*
X16550000Y18800000D02*
X13100000Y18800000D01*
X24750000Y18800000D02*
X16550000Y18800000D01*
X26100000Y20150000D02*
X24750000Y18800000D01*
D19*
G36*
X68873000Y1127000D02*
X1127000Y1127000D01*
X1127000Y3557381D01*
X1764613Y3557381D01*
X2104155Y2735628D01*
X2732321Y2106364D01*
X3553481Y1765389D01*
X4442619Y1764613D01*
X5264372Y2104155D01*
X5893636Y2732321D01*
X6213694Y3503108D01*
X18678514Y3503108D01*
X18924817Y2978642D01*
X19353076Y2588355D01*
X19763110Y2418524D01*
X19993000Y2539845D01*
X19993000Y3733000D01*
X18799181Y3733000D01*
X18678514Y3503108D01*
X6213694Y3503108D01*
X6234611Y3553481D01*
X6235387Y4442619D01*
X5895845Y5264372D01*
X5267679Y5893636D01*
X4446519Y6234611D01*
X3557381Y6235387D01*
X2735628Y5895845D01*
X2106364Y5267679D01*
X1765389Y4446519D01*
X1764613Y3557381D01*
X1127000Y3557381D01*
X1127000Y6429093D01*
X18635000Y6429093D01*
X18635000Y6370907D01*
X18748039Y5802622D01*
X19069946Y5320853D01*
X19353101Y5131655D01*
X19353076Y5131645D01*
X18924817Y4741358D01*
X18678514Y4216892D01*
X18799181Y3987000D01*
X19993000Y3987000D01*
X19993000Y4007000D01*
X20247000Y4007000D01*
X20247000Y3987000D01*
X20267000Y3987000D01*
X20267000Y3733000D01*
X20247000Y3733000D01*
X20247000Y2539845D01*
X20476890Y2418524D01*
X20886924Y2588355D01*
X21315183Y2978642D01*
X21382298Y3121553D01*
X21609946Y2780853D01*
X22091715Y2458946D01*
X22660000Y2345907D01*
X23228285Y2458946D01*
X23710054Y2780853D01*
X23930000Y3110026D01*
X24149946Y2780853D01*
X24631715Y2458946D01*
X25200000Y2345907D01*
X25768285Y2458946D01*
X26250054Y2780853D01*
X26540029Y3214833D01*
X27064838Y3214833D01*
X27206883Y2871057D01*
X27469673Y2607808D01*
X27813201Y2465162D01*
X28185167Y2464838D01*
X28528943Y2606883D01*
X28792192Y2869673D01*
X28934838Y3213201D01*
X28934861Y3240000D01*
X29837537Y3240000D01*
X29869673Y3207808D01*
X30213201Y3065162D01*
X30585167Y3064838D01*
X30928943Y3206883D01*
X31192192Y3469673D01*
X31334838Y3813201D01*
X31335162Y4185167D01*
X31193117Y4528943D01*
X30930327Y4792192D01*
X30586799Y4934838D01*
X30214833Y4935162D01*
X29871057Y4793117D01*
X29837882Y4760000D01*
X28600000Y4760000D01*
X28309161Y4702148D01*
X28062599Y4537401D01*
X27860320Y4335122D01*
X27814833Y4335162D01*
X27471057Y4193117D01*
X27207808Y3930327D01*
X27065162Y3586799D01*
X27064838Y3214833D01*
X26540029Y3214833D01*
X26571961Y3262622D01*
X26685000Y3830907D01*
X26685000Y3889093D01*
X26571961Y4457378D01*
X26250054Y4939147D01*
X26248821Y4939971D01*
X26285317Y4946838D01*
X26501441Y5085910D01*
X26646431Y5298110D01*
X26687314Y5500000D01*
X38852560Y5500000D01*
X38852560Y2500000D01*
X38896838Y2264683D01*
X39035910Y2048559D01*
X39248110Y1903569D01*
X39500000Y1852560D01*
X42500000Y1852560D01*
X42735317Y1896838D01*
X42951441Y2035910D01*
X43096431Y2248110D01*
X43147440Y2500000D01*
X43147440Y3577185D01*
X43944630Y3577185D01*
X44268980Y2792200D01*
X44869041Y2191091D01*
X45653459Y1865372D01*
X46502815Y1864630D01*
X47287800Y2188980D01*
X47888909Y2789041D01*
X48214628Y3573459D01*
X48214631Y3577185D01*
X49024630Y3577185D01*
X49348980Y2792200D01*
X49949041Y2191091D01*
X50733459Y1865372D01*
X51582815Y1864630D01*
X52367800Y2188980D01*
X52665368Y2486030D01*
X54905635Y2486030D01*
X55065418Y2167261D01*
X55856187Y1857277D01*
X56705387Y1873503D01*
X57414582Y2167261D01*
X57574365Y2486030D01*
X56240000Y3820395D01*
X54905635Y2486030D01*
X52665368Y2486030D01*
X52968909Y2789041D01*
X53294628Y3573459D01*
X53295335Y4383813D01*
X54097277Y4383813D01*
X54113503Y3534613D01*
X54407261Y2825418D01*
X54726030Y2665635D01*
X56060395Y4000000D01*
X56419605Y4000000D01*
X57753970Y2665635D01*
X58072739Y2825418D01*
X58359670Y3557381D01*
X63764613Y3557381D01*
X64104155Y2735628D01*
X64732321Y2106364D01*
X65553481Y1765389D01*
X66442619Y1764613D01*
X67264372Y2104155D01*
X67893636Y2732321D01*
X68234611Y3553481D01*
X68235387Y4442619D01*
X67895845Y5264372D01*
X67267679Y5893636D01*
X66446519Y6234611D01*
X65557381Y6235387D01*
X64735628Y5895845D01*
X64106364Y5267679D01*
X63765389Y4446519D01*
X63764613Y3557381D01*
X58359670Y3557381D01*
X58382723Y3616187D01*
X58366497Y4465387D01*
X58072739Y5174582D01*
X57753970Y5334365D01*
X56419605Y4000000D01*
X56060395Y4000000D01*
X54726030Y5334365D01*
X54407261Y5174582D01*
X54097277Y4383813D01*
X53295335Y4383813D01*
X53295370Y4422815D01*
X52971020Y5207800D01*
X52665384Y5513970D01*
X54905635Y5513970D01*
X56240000Y4179605D01*
X57574365Y5513970D01*
X57414582Y5832739D01*
X56623813Y6142723D01*
X55774613Y6126497D01*
X55065418Y5832739D01*
X54905635Y5513970D01*
X52665384Y5513970D01*
X52370959Y5808909D01*
X51586541Y6134628D01*
X50737185Y6135370D01*
X49952200Y5811020D01*
X49351091Y5210959D01*
X49025372Y4426541D01*
X49024630Y3577185D01*
X48214631Y3577185D01*
X48215370Y4422815D01*
X47891020Y5207800D01*
X47290959Y5808909D01*
X46506541Y6134628D01*
X45657185Y6135370D01*
X44872200Y5811020D01*
X44271091Y5210959D01*
X43945372Y4426541D01*
X43944630Y3577185D01*
X43147440Y3577185D01*
X43147440Y5500000D01*
X43103162Y5735317D01*
X42964090Y5951441D01*
X42751890Y6096431D01*
X42500000Y6147440D01*
X41760000Y6147440D01*
X41760000Y10585198D01*
X42039680Y10864878D01*
X42085167Y10864838D01*
X42428943Y11006883D01*
X42692192Y11269673D01*
X42834838Y11613201D01*
X42835162Y11985167D01*
X42693117Y12328943D01*
X42430327Y12592192D01*
X42086799Y12734838D01*
X41714833Y12735162D01*
X41371057Y12593117D01*
X41107808Y12330327D01*
X40965162Y11986799D01*
X40965121Y11939923D01*
X40462599Y11437401D01*
X40297852Y11190839D01*
X40240000Y10900000D01*
X40240000Y6147440D01*
X39500000Y6147440D01*
X39264683Y6103162D01*
X39048559Y5964090D01*
X38903569Y5751890D01*
X38852560Y5500000D01*
X26687314Y5500000D01*
X26697440Y5550000D01*
X26697440Y7250000D01*
X26653162Y7485317D01*
X26514090Y7701441D01*
X26301890Y7846431D01*
X26050000Y7897440D01*
X24350000Y7897440D01*
X24114683Y7853162D01*
X23898559Y7714090D01*
X23753569Y7501890D01*
X23739914Y7434459D01*
X23710054Y7479147D01*
X23228285Y7801054D01*
X22660000Y7914093D01*
X22091715Y7801054D01*
X21609946Y7479147D01*
X21390000Y7149974D01*
X21170054Y7479147D01*
X20688285Y7801054D01*
X20120000Y7914093D01*
X19551715Y7801054D01*
X19069946Y7479147D01*
X18748039Y6997378D01*
X18635000Y6429093D01*
X1127000Y6429093D01*
X1127000Y9515000D01*
X1714250Y9515000D01*
X1873000Y9673750D01*
X1873000Y10873000D01*
X2127000Y10873000D01*
X2127000Y9673750D01*
X2285750Y9515000D01*
X2976309Y9515000D01*
X3209698Y9611673D01*
X3388327Y9790301D01*
X3485000Y10023690D01*
X3485000Y10714250D01*
X3326250Y10873000D01*
X2127000Y10873000D01*
X1873000Y10873000D01*
X1853000Y10873000D01*
X1853000Y11127000D01*
X1873000Y11127000D01*
X1873000Y11147000D01*
X2127000Y11147000D01*
X2127000Y11127000D01*
X3326250Y11127000D01*
X3485000Y11285750D01*
X3485000Y11976310D01*
X3388327Y12209699D01*
X3209698Y12388327D01*
X3035223Y12460597D01*
X3079147Y12489946D01*
X3401054Y12971715D01*
X3514093Y13540000D01*
X3401054Y14108285D01*
X3079147Y14590054D01*
X2749974Y14810000D01*
X3079147Y15029946D01*
X3401054Y15511715D01*
X3514093Y16080000D01*
X3401054Y16648285D01*
X3079147Y17130054D01*
X2749974Y17350000D01*
X3079147Y17569946D01*
X3326409Y17940000D01*
X6700000Y17940000D01*
X6990839Y17997852D01*
X7237401Y18162599D01*
X7240000Y18165198D01*
X7240000Y10800000D01*
X7297852Y10509161D01*
X7462599Y10262599D01*
X7840000Y9885198D01*
X7840000Y9800000D01*
X7897852Y9509161D01*
X8062599Y9262599D01*
X8462599Y8862599D01*
X8709160Y8697852D01*
X8757414Y8688254D01*
X9000000Y8640000D01*
X19037886Y8640000D01*
X19269673Y8407808D01*
X19613201Y8265162D01*
X19985167Y8264838D01*
X20328943Y8406883D01*
X20592192Y8669673D01*
X20734838Y9013201D01*
X20735162Y9385167D01*
X20593117Y9728943D01*
X20330327Y9992192D01*
X19986799Y10134838D01*
X19725352Y10135066D01*
X19600000Y10160000D01*
X9360000Y10160000D01*
X9360000Y10200000D01*
X9302148Y10490839D01*
X9137401Y10737401D01*
X8760000Y11114802D01*
X8760000Y20237537D01*
X8792192Y20269673D01*
X8934838Y20613201D01*
X8935162Y20985167D01*
X8793117Y21328943D01*
X8582428Y21540000D01*
X9917760Y21540000D01*
X9757808Y21380327D01*
X9615162Y21036799D01*
X9614838Y20664833D01*
X9756883Y20321057D01*
X10019673Y20057808D01*
X10363201Y19915162D01*
X10735167Y19914838D01*
X10859137Y19966061D01*
X12562599Y18262599D01*
X12809161Y18097852D01*
X13100000Y18040000D01*
X24750000Y18040000D01*
X24893414Y18068527D01*
X24840000Y17800000D01*
X24840000Y16514802D01*
X24485198Y16160000D01*
X23200000Y16160000D01*
X22909161Y16102148D01*
X22662599Y15937401D01*
X21662599Y14937401D01*
X21497852Y14690839D01*
X21440000Y14400000D01*
X21440000Y13200000D01*
X21497852Y12909161D01*
X21662599Y12662599D01*
X22068506Y12256692D01*
X22097852Y12109161D01*
X22262599Y11862599D01*
X22464878Y11660320D01*
X22464838Y11614833D01*
X22606883Y11271057D01*
X22869673Y11007808D01*
X23213201Y10865162D01*
X23585167Y10864838D01*
X23928943Y11006883D01*
X24012309Y11090104D01*
X24313201Y10965162D01*
X24685167Y10964838D01*
X25028943Y11106883D01*
X25062118Y11140000D01*
X25637537Y11140000D01*
X25669673Y11107808D01*
X26013201Y10965162D01*
X26385167Y10964838D01*
X26440000Y10987494D01*
X26440000Y10162114D01*
X26207808Y9930327D01*
X26065162Y9586799D01*
X26064838Y9214833D01*
X26206883Y8871057D01*
X26469673Y8607808D01*
X26813201Y8465162D01*
X27185167Y8464838D01*
X27528943Y8606883D01*
X27792192Y8869673D01*
X27934838Y9213201D01*
X27935066Y9474648D01*
X27960000Y9600000D01*
X27960000Y10387253D01*
X28013201Y10365162D01*
X28385167Y10364838D01*
X28728943Y10506883D01*
X28762118Y10540000D01*
X31132972Y10540000D01*
X31313201Y10465162D01*
X31685167Y10464838D01*
X32028943Y10606883D01*
X32292192Y10869673D01*
X32434838Y11213201D01*
X32435162Y11585167D01*
X32293117Y11928943D01*
X32030327Y12192192D01*
X31686799Y12334838D01*
X31314833Y12335162D01*
X30971057Y12193117D01*
X30837707Y12060000D01*
X28762463Y12060000D01*
X28730327Y12092192D01*
X28386799Y12234838D01*
X28014833Y12235162D01*
X27960000Y12212506D01*
X27960000Y15228777D01*
X28113201Y15165162D01*
X28485167Y15164838D01*
X28828943Y15306883D01*
X29092192Y15569673D01*
X29234838Y15913201D01*
X29234839Y15914833D01*
X32464838Y15914833D01*
X32606883Y15571057D01*
X32869673Y15307808D01*
X33213201Y15165162D01*
X33585167Y15164838D01*
X33928943Y15306883D01*
X34192192Y15569673D01*
X34334838Y15913201D01*
X34334879Y15960076D01*
X34637401Y16262598D01*
X34776769Y16471179D01*
X34802148Y16509161D01*
X34860000Y16800000D01*
X34860000Y17137537D01*
X34892192Y17169673D01*
X35034838Y17513201D01*
X35035162Y17885167D01*
X34893117Y18228943D01*
X34630327Y18492192D01*
X34286799Y18634838D01*
X33914833Y18635162D01*
X33571057Y18493117D01*
X33307808Y18230327D01*
X33165162Y17886799D01*
X33164838Y17514833D01*
X33306883Y17171057D01*
X33340000Y17137882D01*
X33340000Y17114803D01*
X33260320Y17035122D01*
X33214833Y17035162D01*
X32871057Y16893117D01*
X32607808Y16630327D01*
X32465162Y16286799D01*
X32464838Y15914833D01*
X29234839Y15914833D01*
X29235162Y16285167D01*
X29093117Y16628943D01*
X28860000Y16862467D01*
X28860000Y18285198D01*
X31114802Y20540000D01*
X31200000Y20540000D01*
X31490839Y20597852D01*
X31737401Y20762599D01*
X32137401Y21162599D01*
X32302148Y21409160D01*
X32327537Y21536799D01*
X32360000Y21700000D01*
X32360000Y22185198D01*
X33639680Y23464878D01*
X33685167Y23464838D01*
X34028943Y23606883D01*
X34140000Y23717746D01*
X34140000Y22000000D01*
X34197852Y21709161D01*
X34362599Y21462599D01*
X35040000Y20785198D01*
X35040000Y14062463D01*
X35007808Y14030327D01*
X34865162Y13686799D01*
X34864838Y13314833D01*
X35006883Y12971057D01*
X35269673Y12707808D01*
X35613201Y12565162D01*
X35985167Y12564838D01*
X36328943Y12706883D01*
X36592192Y12969673D01*
X36734838Y13313201D01*
X36735162Y13685167D01*
X36593117Y14028943D01*
X36560000Y14062118D01*
X36560000Y16246030D01*
X64665635Y16246030D01*
X64825418Y15927261D01*
X65616187Y15617277D01*
X66465387Y15633503D01*
X67174582Y15927261D01*
X67334365Y16246030D01*
X66000000Y17580395D01*
X64665635Y16246030D01*
X36560000Y16246030D01*
X36560000Y18143813D01*
X63857277Y18143813D01*
X63873503Y17294613D01*
X64167261Y16585418D01*
X64486030Y16425635D01*
X65820395Y17760000D01*
X66179605Y17760000D01*
X67513970Y16425635D01*
X67832739Y16585418D01*
X68142723Y17376187D01*
X68126497Y18225387D01*
X67832739Y18934582D01*
X67513970Y19094365D01*
X66179605Y17760000D01*
X65820395Y17760000D01*
X64486030Y19094365D01*
X64167261Y18934582D01*
X63857277Y18143813D01*
X36560000Y18143813D01*
X36560000Y19273970D01*
X64665635Y19273970D01*
X66000000Y17939605D01*
X67334365Y19273970D01*
X67174582Y19592739D01*
X66383813Y19902723D01*
X65534613Y19886497D01*
X64825418Y19592739D01*
X64665635Y19273970D01*
X36560000Y19273970D01*
X36560000Y21100000D01*
X36525950Y21271179D01*
X36502148Y21390840D01*
X36337401Y21637401D01*
X35660000Y22314802D01*
X35660000Y23197518D01*
X35809161Y23097852D01*
X36100000Y23040000D01*
X48464860Y23040000D01*
X48464838Y23014833D01*
X48606883Y22671057D01*
X48869673Y22407808D01*
X49213201Y22265162D01*
X49585167Y22264838D01*
X49928943Y22406883D01*
X50192192Y22669673D01*
X50293991Y22914833D01*
X58064838Y22914833D01*
X58206883Y22571057D01*
X58469673Y22307808D01*
X58813201Y22165162D01*
X59185167Y22164838D01*
X59528943Y22306883D01*
X59639437Y22417185D01*
X63864630Y22417185D01*
X64188980Y21632200D01*
X64789041Y21031091D01*
X65573459Y20705372D01*
X66422815Y20704630D01*
X67207800Y21028980D01*
X67808909Y21629041D01*
X68134628Y22413459D01*
X68135370Y23262815D01*
X67811020Y24047800D01*
X67210959Y24648909D01*
X66426541Y24974628D01*
X65577185Y24975370D01*
X64792200Y24651020D01*
X64191091Y24050959D01*
X63865372Y23266541D01*
X63864630Y22417185D01*
X59639437Y22417185D01*
X59792192Y22569673D01*
X59934838Y22913201D01*
X59934879Y22960077D01*
X64042210Y27067408D01*
X64188980Y26712200D01*
X64789041Y26111091D01*
X65573459Y25785372D01*
X66422815Y25784630D01*
X67207800Y26108980D01*
X67808909Y26709041D01*
X68134628Y27493459D01*
X68135370Y28342815D01*
X67811020Y29127800D01*
X67210959Y29728909D01*
X66426541Y30054628D01*
X65577185Y30055370D01*
X64792200Y29731020D01*
X64191091Y29130959D01*
X64003836Y28680000D01*
X63820000Y28680000D01*
X63529160Y28622148D01*
X63282599Y28457401D01*
X58860320Y24035122D01*
X58814833Y24035162D01*
X58471057Y23893117D01*
X58207808Y23630327D01*
X58065162Y23286799D01*
X58064838Y22914833D01*
X50293991Y22914833D01*
X50334838Y23013201D01*
X50335162Y23385167D01*
X50193117Y23728943D01*
X49930327Y23992192D01*
X49586799Y24134838D01*
X49539923Y24134879D01*
X49337401Y24337401D01*
X49090839Y24502148D01*
X48800000Y24560000D01*
X44267857Y24560000D01*
X44627792Y24708722D01*
X44990006Y25070305D01*
X45186276Y25542977D01*
X45186723Y26054778D01*
X44991278Y26527792D01*
X44629695Y26890006D01*
X44195737Y27070201D01*
X44627792Y27248722D01*
X44990006Y27610305D01*
X45186276Y28082977D01*
X45186723Y28594778D01*
X44991278Y29067792D01*
X44760000Y29299474D01*
X44760000Y32300000D01*
X44702148Y32590839D01*
X44537401Y32837401D01*
X43984800Y33390002D01*
X45135196Y33390002D01*
X48840000Y29685198D01*
X48840000Y27762463D01*
X48807808Y27730327D01*
X48665162Y27386799D01*
X48664838Y27014833D01*
X48806883Y26671057D01*
X49069673Y26407808D01*
X49413201Y26265162D01*
X49785167Y26264838D01*
X50128943Y26406883D01*
X50392192Y26669673D01*
X50534838Y27013201D01*
X50535162Y27385167D01*
X50393117Y27728943D01*
X50360000Y27762118D01*
X50360000Y30000000D01*
X50302148Y30290839D01*
X50137401Y30537401D01*
X46174802Y34500000D01*
X63852560Y34500000D01*
X63852560Y31500000D01*
X63896838Y31264683D01*
X64035910Y31048559D01*
X64248110Y30903569D01*
X64500000Y30852560D01*
X67500000Y30852560D01*
X67735317Y30896838D01*
X67951441Y31035910D01*
X68096431Y31248110D01*
X68147440Y31500000D01*
X68147440Y34500000D01*
X68103162Y34735317D01*
X67964090Y34951441D01*
X67751890Y35096431D01*
X67500000Y35147440D01*
X64500000Y35147440D01*
X64264683Y35103162D01*
X64048559Y34964090D01*
X63903569Y34751890D01*
X63852560Y34500000D01*
X46174802Y34500000D01*
X45987399Y34687403D01*
X45740837Y34852150D01*
X45449998Y34910002D01*
X33164800Y34910002D01*
X32537401Y35537401D01*
X32290839Y35702148D01*
X32227068Y35714833D01*
X41964838Y35714833D01*
X42106883Y35371057D01*
X42369673Y35107808D01*
X42713201Y34965162D01*
X43085167Y34964838D01*
X43428943Y35106883D01*
X43692192Y35369673D01*
X43834838Y35713201D01*
X43834879Y35760077D01*
X45814802Y37740000D01*
X47837537Y37740000D01*
X47869673Y37707808D01*
X48213201Y37565162D01*
X48585167Y37564838D01*
X48928943Y37706883D01*
X49192192Y37969673D01*
X49334838Y38313201D01*
X49335162Y38685167D01*
X49193117Y39028943D01*
X49160000Y39062118D01*
X49160000Y42285198D01*
X50537401Y43662599D01*
X50664329Y43852560D01*
X51500000Y43852560D01*
X51735317Y43896838D01*
X51951441Y44035910D01*
X52096431Y44248110D01*
X52144611Y44486030D01*
X53745635Y44486030D01*
X53905418Y44167261D01*
X54696187Y43857277D01*
X55545387Y43873503D01*
X56254582Y44167261D01*
X56414365Y44486030D01*
X55080000Y45820395D01*
X53745635Y44486030D01*
X52144611Y44486030D01*
X52147440Y44500000D01*
X52147440Y46383813D01*
X52937277Y46383813D01*
X52953503Y45534613D01*
X53247261Y44825418D01*
X53566030Y44665635D01*
X54900395Y46000000D01*
X55259605Y46000000D01*
X56593970Y44665635D01*
X56912739Y44825418D01*
X57199670Y45557381D01*
X63764613Y45557381D01*
X64104155Y44735628D01*
X64732321Y44106364D01*
X65553481Y43765389D01*
X66442619Y43764613D01*
X67264372Y44104155D01*
X67893636Y44732321D01*
X68234611Y45553481D01*
X68235387Y46442619D01*
X67895845Y47264372D01*
X67267679Y47893636D01*
X66446519Y48234611D01*
X65557381Y48235387D01*
X64735628Y47895845D01*
X64106364Y47267679D01*
X63765389Y46446519D01*
X63764613Y45557381D01*
X57199670Y45557381D01*
X57222723Y45616187D01*
X57206497Y46465387D01*
X56912739Y47174582D01*
X56593970Y47334365D01*
X55259605Y46000000D01*
X54900395Y46000000D01*
X53566030Y47334365D01*
X53247261Y47174582D01*
X52937277Y46383813D01*
X52147440Y46383813D01*
X52147440Y47500000D01*
X52144812Y47513970D01*
X53745635Y47513970D01*
X55080000Y46179605D01*
X56414365Y47513970D01*
X56254582Y47832739D01*
X55463813Y48142723D01*
X54614613Y48126497D01*
X53905418Y47832739D01*
X53745635Y47513970D01*
X52144812Y47513970D01*
X52103162Y47735317D01*
X51964090Y47951441D01*
X51751890Y48096431D01*
X51500000Y48147440D01*
X48500000Y48147440D01*
X48264683Y48103162D01*
X48048559Y47964090D01*
X47903569Y47751890D01*
X47852560Y47500000D01*
X47852560Y44500000D01*
X47896838Y44264683D01*
X48035910Y44048559D01*
X48248110Y43903569D01*
X48500000Y43852560D01*
X48577758Y43852560D01*
X47862599Y43137401D01*
X47697852Y42890839D01*
X47640000Y42600000D01*
X47640000Y39260000D01*
X45500000Y39260000D01*
X45209160Y39202148D01*
X44962599Y39037401D01*
X42760320Y36835122D01*
X42714833Y36835162D01*
X42371057Y36693117D01*
X42107808Y36430327D01*
X41965162Y36086799D01*
X41964838Y35714833D01*
X32227068Y35714833D01*
X32000000Y35760000D01*
X26100000Y35760000D01*
X25809160Y35702148D01*
X25562599Y35537401D01*
X24860000Y34834802D01*
X24860000Y35837537D01*
X24892192Y35869673D01*
X25034838Y36213201D01*
X25035162Y36585167D01*
X24893117Y36928943D01*
X24872290Y36949806D01*
X24892192Y36969673D01*
X25034838Y37313201D01*
X25035162Y37685167D01*
X24893117Y38028943D01*
X24630327Y38292192D01*
X24286799Y38434838D01*
X23914833Y38435162D01*
X23571057Y38293117D01*
X23307808Y38030327D01*
X23165162Y37686799D01*
X23165121Y37639923D01*
X22760000Y37234802D01*
X22760000Y38517733D01*
X22920000Y38485907D01*
X23488285Y38598946D01*
X23970054Y38920853D01*
X24190000Y39250026D01*
X24409946Y38920853D01*
X24891715Y38598946D01*
X25460000Y38485907D01*
X26028285Y38598946D01*
X26510054Y38920853D01*
X26537850Y38962452D01*
X26546838Y38914683D01*
X26685910Y38698559D01*
X26898110Y38553569D01*
X27150000Y38502560D01*
X28850000Y38502560D01*
X29085317Y38546838D01*
X29301441Y38685910D01*
X29446431Y38898110D01*
X29497440Y39150000D01*
X29497440Y40850000D01*
X29453162Y41085317D01*
X29314090Y41301441D01*
X29101890Y41446431D01*
X28850000Y41497440D01*
X27150000Y41497440D01*
X26914683Y41453162D01*
X26698559Y41314090D01*
X26553569Y41101890D01*
X26539914Y41034459D01*
X26510054Y41079147D01*
X26028285Y41401054D01*
X25460000Y41514093D01*
X24891715Y41401054D01*
X24409946Y41079147D01*
X24190000Y40749974D01*
X23970054Y41079147D01*
X23488285Y41401054D01*
X22920000Y41514093D01*
X22351715Y41401054D01*
X21869946Y41079147D01*
X21650000Y40749974D01*
X21430054Y41079147D01*
X21140000Y41272954D01*
X21140000Y43870000D01*
X21082148Y44160839D01*
X20917401Y44407401D01*
X20735122Y44589680D01*
X20735162Y44635167D01*
X20593117Y44978943D01*
X20330327Y45242192D01*
X19986799Y45384838D01*
X19614833Y45385162D01*
X19271057Y45243117D01*
X19007808Y44980327D01*
X18865162Y44636799D01*
X18864838Y44264833D01*
X19006883Y43921057D01*
X19269673Y43657808D01*
X19613201Y43515162D01*
X19620000Y43515156D01*
X19620000Y41272954D01*
X19329946Y41079147D01*
X19102298Y40738447D01*
X19035183Y40881358D01*
X18652440Y41230165D01*
X18792192Y41369673D01*
X18934838Y41713201D01*
X18935162Y42085167D01*
X18793117Y42428943D01*
X18530327Y42692192D01*
X18186799Y42834838D01*
X17814833Y42835162D01*
X17471057Y42693117D01*
X17207808Y42430327D01*
X17137082Y42260000D01*
X16600000Y42260000D01*
X16309161Y42202148D01*
X16062599Y42037401D01*
X15285198Y41260000D01*
X13704242Y41260000D01*
X13593117Y41528943D01*
X13330327Y41792192D01*
X12986799Y41934838D01*
X12614833Y41935162D01*
X12271057Y41793117D01*
X12007808Y41530327D01*
X11865162Y41186799D01*
X11864838Y40814833D01*
X12006883Y40471057D01*
X12269673Y40207808D01*
X12351274Y40173924D01*
X12562599Y39962599D01*
X12809161Y39797852D01*
X13100000Y39740000D01*
X15600000Y39740000D01*
X15890839Y39797852D01*
X16137401Y39962599D01*
X16444356Y40269554D01*
X16519181Y40127000D01*
X17713000Y40127000D01*
X17713000Y40147000D01*
X17967000Y40147000D01*
X17967000Y40127000D01*
X17987000Y40127000D01*
X17987000Y39873000D01*
X17967000Y39873000D01*
X17967000Y38679845D01*
X18196890Y38558524D01*
X18606924Y38728355D01*
X19035183Y39118642D01*
X19102298Y39261553D01*
X19329946Y38920853D01*
X19811715Y38598946D01*
X20380000Y38485907D01*
X20948285Y38598946D01*
X21240000Y38793863D01*
X21240000Y34762289D01*
X21107808Y34630327D01*
X20965162Y34286799D01*
X20964838Y33914833D01*
X21106883Y33571057D01*
X21140000Y33537882D01*
X21140000Y33000000D01*
X21197852Y32709161D01*
X21362599Y32462599D01*
X22262599Y31562599D01*
X22509160Y31397852D01*
X22800000Y31340000D01*
X33137537Y31340000D01*
X33169673Y31307808D01*
X33513201Y31165162D01*
X33885167Y31164838D01*
X34140000Y31270133D01*
X34140000Y25082327D01*
X34030327Y25192192D01*
X33686799Y25334838D01*
X33314833Y25335162D01*
X32971057Y25193117D01*
X32707808Y24930327D01*
X32565162Y24586799D01*
X32565121Y24539923D01*
X31062599Y23037401D01*
X30897852Y22790839D01*
X30840000Y22500000D01*
X30840000Y22060000D01*
X20834879Y22060000D01*
X20835162Y22385167D01*
X20693117Y22728943D01*
X20430327Y22992192D01*
X20086799Y23134838D01*
X19714833Y23135162D01*
X19532927Y23060000D01*
X16321223Y23060000D01*
X16384838Y23213201D01*
X16384879Y23260077D01*
X16887401Y23762599D01*
X17052148Y24009160D01*
X17110000Y24300000D01*
X17110000Y24385198D01*
X17637401Y24912599D01*
X17802148Y25159160D01*
X17860000Y25450000D01*
X17860000Y26465034D01*
X18085167Y26464838D01*
X18428943Y26606883D01*
X18692192Y26869673D01*
X18834838Y27213201D01*
X18834879Y27260077D01*
X18937401Y27362599D01*
X19102148Y27609161D01*
X19160000Y27900000D01*
X19160000Y36200000D01*
X19134936Y36326003D01*
X19135162Y36585167D01*
X18993117Y36928943D01*
X18730327Y37192192D01*
X18386799Y37334838D01*
X18014833Y37335162D01*
X17671057Y37193117D01*
X17637882Y37160000D01*
X15682153Y37160000D01*
X15892192Y37369673D01*
X16034838Y37713201D01*
X16035162Y38085167D01*
X15893117Y38428943D01*
X15630327Y38692192D01*
X15286799Y38834838D01*
X15239924Y38834879D01*
X14937401Y39137401D01*
X14690839Y39302148D01*
X14400000Y39360000D01*
X7614802Y39360000D01*
X7537401Y39437401D01*
X7290839Y39602148D01*
X7084922Y39643108D01*
X16398514Y39643108D01*
X16644817Y39118642D01*
X17073076Y38728355D01*
X17483110Y38558524D01*
X17713000Y38679845D01*
X17713000Y39873000D01*
X16519181Y39873000D01*
X16398514Y39643108D01*
X7084922Y39643108D01*
X7000000Y39660000D01*
X5100000Y39660000D01*
X4857414Y39611746D01*
X4809160Y39602148D01*
X4562599Y39437401D01*
X4162599Y39037401D01*
X3997852Y38790839D01*
X3940000Y38500000D01*
X3940000Y34062463D01*
X3907808Y34030327D01*
X3765162Y33686799D01*
X3764838Y33314833D01*
X3906883Y32971057D01*
X4169673Y32707808D01*
X4513201Y32565162D01*
X4885167Y32564838D01*
X5228943Y32706883D01*
X5492192Y32969673D01*
X5634838Y33313201D01*
X5635162Y33685167D01*
X5493117Y34028943D01*
X5460000Y34062118D01*
X5460000Y38140000D01*
X5565121Y38140000D01*
X5564838Y37814833D01*
X5706883Y37471057D01*
X5969673Y37207808D01*
X6313201Y37065162D01*
X6685167Y37064838D01*
X7028943Y37206883D01*
X7062118Y37240000D01*
X13185198Y37240000D01*
X13265198Y37160000D01*
X12600000Y37160000D01*
X12309160Y37102148D01*
X12062599Y36937401D01*
X11085198Y35960000D01*
X9362463Y35960000D01*
X9330327Y35992192D01*
X8986799Y36134838D01*
X8614833Y36135162D01*
X8271057Y35993117D01*
X8007808Y35730327D01*
X7865162Y35386799D01*
X7864838Y35014833D01*
X8006883Y34671057D01*
X8227709Y34449845D01*
X8007808Y34230327D01*
X7865162Y33886799D01*
X7864838Y33514833D01*
X8006883Y33171057D01*
X8269673Y32907808D01*
X8613201Y32765162D01*
X8985167Y32764838D01*
X9049896Y32791583D01*
X8854092Y32264539D01*
X8878144Y31614540D01*
X9080613Y31125736D01*
X9347468Y31027073D01*
X10320395Y32000000D01*
X10679605Y32000000D01*
X11652532Y31027073D01*
X11919387Y31125736D01*
X12145908Y31735461D01*
X12121856Y32385460D01*
X11919387Y32874264D01*
X11652532Y32972927D01*
X10679605Y32000000D01*
X10320395Y32000000D01*
X10306253Y32014142D01*
X10485858Y32193747D01*
X10500000Y32179605D01*
X11472927Y33152532D01*
X11374264Y33419387D01*
X11049611Y33540000D01*
X11928777Y33540000D01*
X11865162Y33386799D01*
X11864838Y33014833D01*
X12006883Y32671057D01*
X12269673Y32407808D01*
X12440000Y32337082D01*
X12440000Y24200000D01*
X12497852Y23909161D01*
X12662599Y23662599D01*
X13265198Y23060000D01*
X8000000Y23060000D01*
X7709161Y23002148D01*
X7462599Y22837401D01*
X6462599Y21837401D01*
X6297852Y21590839D01*
X6240000Y21300000D01*
X6240000Y19460000D01*
X3219500Y19460000D01*
X3079147Y19670054D01*
X2749974Y19890000D01*
X3079147Y20109946D01*
X3401054Y20591715D01*
X3514093Y21160000D01*
X3401054Y21728285D01*
X3079147Y22210054D01*
X2749974Y22430000D01*
X3079147Y22649946D01*
X3401054Y23131715D01*
X3514093Y23700000D01*
X3401054Y24268285D01*
X3348146Y24347468D01*
X9527073Y24347468D01*
X9625736Y24080613D01*
X10235461Y23854092D01*
X10885460Y23878144D01*
X11374264Y24080613D01*
X11472927Y24347468D01*
X10500000Y25320395D01*
X9527073Y24347468D01*
X3348146Y24347468D01*
X3079147Y24750054D01*
X2597378Y25071961D01*
X2029093Y25185000D01*
X1970907Y25185000D01*
X1402622Y25071961D01*
X1127000Y24887797D01*
X1127000Y25764539D01*
X8854092Y25764539D01*
X8878144Y25114540D01*
X9080613Y24625736D01*
X9347468Y24527073D01*
X10320395Y25500000D01*
X10679605Y25500000D01*
X11652532Y24527073D01*
X11919387Y24625736D01*
X12145908Y25235461D01*
X12121856Y25885460D01*
X11919387Y26374264D01*
X11652532Y26472927D01*
X10679605Y25500000D01*
X10320395Y25500000D01*
X9347468Y26472927D01*
X9080613Y26374264D01*
X8854092Y25764539D01*
X1127000Y25764539D01*
X1127000Y26652532D01*
X9527073Y26652532D01*
X10500000Y25679605D01*
X11472927Y26652532D01*
X11374264Y26919387D01*
X10764539Y27145908D01*
X10114540Y27121856D01*
X9625736Y26919387D01*
X9527073Y26652532D01*
X1127000Y26652532D01*
X1127000Y29507218D01*
X1150000Y29502560D01*
X2850000Y29502560D01*
X3085317Y29546838D01*
X3301441Y29685910D01*
X3446431Y29898110D01*
X3497440Y30150000D01*
X3497440Y30847468D01*
X9527073Y30847468D01*
X9625736Y30580613D01*
X10235461Y30354092D01*
X10885460Y30378144D01*
X11374264Y30580613D01*
X11472927Y30847468D01*
X10500000Y31820395D01*
X9527073Y30847468D01*
X3497440Y30847468D01*
X3497440Y31850000D01*
X3453162Y32085317D01*
X3314090Y32301441D01*
X3101890Y32446431D01*
X3034459Y32460086D01*
X3079147Y32489946D01*
X3401054Y32971715D01*
X3514093Y33540000D01*
X3401054Y34108285D01*
X3079147Y34590054D01*
X2738447Y34817702D01*
X2881358Y34884817D01*
X3271645Y35313076D01*
X3441476Y35723110D01*
X3320155Y35953000D01*
X2127000Y35953000D01*
X2127000Y35933000D01*
X1873000Y35933000D01*
X1873000Y35953000D01*
X1853000Y35953000D01*
X1853000Y36207000D01*
X1873000Y36207000D01*
X1873000Y36227000D01*
X2127000Y36227000D01*
X2127000Y36207000D01*
X3320155Y36207000D01*
X3441476Y36436890D01*
X3271645Y36846924D01*
X2881358Y37275183D01*
X2738447Y37342298D01*
X3079147Y37569946D01*
X3401054Y38051715D01*
X3514093Y38620000D01*
X3401054Y39188285D01*
X3079147Y39670054D01*
X2597378Y39991961D01*
X2029093Y40105000D01*
X1970907Y40105000D01*
X1402622Y39991961D01*
X1127000Y39807797D01*
X1127000Y45557381D01*
X1764613Y45557381D01*
X2104155Y44735628D01*
X2732321Y44106364D01*
X3553481Y43765389D01*
X4442619Y43764613D01*
X5264372Y44104155D01*
X5893636Y44732321D01*
X6234611Y45553481D01*
X6235387Y46442619D01*
X5895845Y47264372D01*
X5311239Y47850000D01*
X20502560Y47850000D01*
X20502560Y46150000D01*
X20546838Y45914683D01*
X20685910Y45698559D01*
X20898110Y45553569D01*
X21150000Y45502560D01*
X22850000Y45502560D01*
X23085317Y45546838D01*
X23301441Y45685910D01*
X23446431Y45898110D01*
X23460086Y45965541D01*
X23489946Y45920853D01*
X23971715Y45598946D01*
X24540000Y45485907D01*
X25108285Y45598946D01*
X25590054Y45920853D01*
X25817702Y46261553D01*
X25884817Y46118642D01*
X26313076Y45728355D01*
X26723110Y45558524D01*
X26953000Y45679845D01*
X26953000Y46873000D01*
X27207000Y46873000D01*
X27207000Y45679845D01*
X27436890Y45558524D01*
X27846924Y45728355D01*
X28275183Y46118642D01*
X28521486Y46643108D01*
X28400819Y46873000D01*
X27207000Y46873000D01*
X26953000Y46873000D01*
X26933000Y46873000D01*
X26933000Y47127000D01*
X26953000Y47127000D01*
X26953000Y48320155D01*
X27207000Y48320155D01*
X27207000Y47127000D01*
X28400819Y47127000D01*
X28521486Y47356892D01*
X28275183Y47881358D01*
X27846924Y48271645D01*
X27436890Y48441476D01*
X27207000Y48320155D01*
X26953000Y48320155D01*
X26723110Y48441476D01*
X26313076Y48271645D01*
X25884817Y47881358D01*
X25817702Y47738447D01*
X25590054Y48079147D01*
X25108285Y48401054D01*
X24540000Y48514093D01*
X23971715Y48401054D01*
X23489946Y48079147D01*
X23462150Y48037548D01*
X23453162Y48085317D01*
X23314090Y48301441D01*
X23101890Y48446431D01*
X22850000Y48497440D01*
X21150000Y48497440D01*
X20914683Y48453162D01*
X20698559Y48314090D01*
X20553569Y48101890D01*
X20502560Y47850000D01*
X5311239Y47850000D01*
X5267679Y47893636D01*
X4446519Y48234611D01*
X3557381Y48235387D01*
X2735628Y47895845D01*
X2106364Y47267679D01*
X1765389Y46446519D01*
X1764613Y45557381D01*
X1127000Y45557381D01*
X1127000Y48873000D01*
X68873000Y48873000D01*
X68873000Y1127000D01*
X68873000Y1127000D01*
G37*
X68873000Y1127000D02*
X1127000Y1127000D01*
X1127000Y3557381D01*
X1764613Y3557381D01*
X2104155Y2735628D01*
X2732321Y2106364D01*
X3553481Y1765389D01*
X4442619Y1764613D01*
X5264372Y2104155D01*
X5893636Y2732321D01*
X6213694Y3503108D01*
X18678514Y3503108D01*
X18924817Y2978642D01*
X19353076Y2588355D01*
X19763110Y2418524D01*
X19993000Y2539845D01*
X19993000Y3733000D01*
X18799181Y3733000D01*
X18678514Y3503108D01*
X6213694Y3503108D01*
X6234611Y3553481D01*
X6235387Y4442619D01*
X5895845Y5264372D01*
X5267679Y5893636D01*
X4446519Y6234611D01*
X3557381Y6235387D01*
X2735628Y5895845D01*
X2106364Y5267679D01*
X1765389Y4446519D01*
X1764613Y3557381D01*
X1127000Y3557381D01*
X1127000Y6429093D01*
X18635000Y6429093D01*
X18635000Y6370907D01*
X18748039Y5802622D01*
X19069946Y5320853D01*
X19353101Y5131655D01*
X19353076Y5131645D01*
X18924817Y4741358D01*
X18678514Y4216892D01*
X18799181Y3987000D01*
X19993000Y3987000D01*
X19993000Y4007000D01*
X20247000Y4007000D01*
X20247000Y3987000D01*
X20267000Y3987000D01*
X20267000Y3733000D01*
X20247000Y3733000D01*
X20247000Y2539845D01*
X20476890Y2418524D01*
X20886924Y2588355D01*
X21315183Y2978642D01*
X21382298Y3121553D01*
X21609946Y2780853D01*
X22091715Y2458946D01*
X22660000Y2345907D01*
X23228285Y2458946D01*
X23710054Y2780853D01*
X23930000Y3110026D01*
X24149946Y2780853D01*
X24631715Y2458946D01*
X25200000Y2345907D01*
X25768285Y2458946D01*
X26250054Y2780853D01*
X26540029Y3214833D01*
X27064838Y3214833D01*
X27206883Y2871057D01*
X27469673Y2607808D01*
X27813201Y2465162D01*
X28185167Y2464838D01*
X28528943Y2606883D01*
X28792192Y2869673D01*
X28934838Y3213201D01*
X28934861Y3240000D01*
X29837537Y3240000D01*
X29869673Y3207808D01*
X30213201Y3065162D01*
X30585167Y3064838D01*
X30928943Y3206883D01*
X31192192Y3469673D01*
X31334838Y3813201D01*
X31335162Y4185167D01*
X31193117Y4528943D01*
X30930327Y4792192D01*
X30586799Y4934838D01*
X30214833Y4935162D01*
X29871057Y4793117D01*
X29837882Y4760000D01*
X28600000Y4760000D01*
X28309161Y4702148D01*
X28062599Y4537401D01*
X27860320Y4335122D01*
X27814833Y4335162D01*
X27471057Y4193117D01*
X27207808Y3930327D01*
X27065162Y3586799D01*
X27064838Y3214833D01*
X26540029Y3214833D01*
X26571961Y3262622D01*
X26685000Y3830907D01*
X26685000Y3889093D01*
X26571961Y4457378D01*
X26250054Y4939147D01*
X26248821Y4939971D01*
X26285317Y4946838D01*
X26501441Y5085910D01*
X26646431Y5298110D01*
X26687314Y5500000D01*
X38852560Y5500000D01*
X38852560Y2500000D01*
X38896838Y2264683D01*
X39035910Y2048559D01*
X39248110Y1903569D01*
X39500000Y1852560D01*
X42500000Y1852560D01*
X42735317Y1896838D01*
X42951441Y2035910D01*
X43096431Y2248110D01*
X43147440Y2500000D01*
X43147440Y3577185D01*
X43944630Y3577185D01*
X44268980Y2792200D01*
X44869041Y2191091D01*
X45653459Y1865372D01*
X46502815Y1864630D01*
X47287800Y2188980D01*
X47888909Y2789041D01*
X48214628Y3573459D01*
X48214631Y3577185D01*
X49024630Y3577185D01*
X49348980Y2792200D01*
X49949041Y2191091D01*
X50733459Y1865372D01*
X51582815Y1864630D01*
X52367800Y2188980D01*
X52665368Y2486030D01*
X54905635Y2486030D01*
X55065418Y2167261D01*
X55856187Y1857277D01*
X56705387Y1873503D01*
X57414582Y2167261D01*
X57574365Y2486030D01*
X56240000Y3820395D01*
X54905635Y2486030D01*
X52665368Y2486030D01*
X52968909Y2789041D01*
X53294628Y3573459D01*
X53295335Y4383813D01*
X54097277Y4383813D01*
X54113503Y3534613D01*
X54407261Y2825418D01*
X54726030Y2665635D01*
X56060395Y4000000D01*
X56419605Y4000000D01*
X57753970Y2665635D01*
X58072739Y2825418D01*
X58359670Y3557381D01*
X63764613Y3557381D01*
X64104155Y2735628D01*
X64732321Y2106364D01*
X65553481Y1765389D01*
X66442619Y1764613D01*
X67264372Y2104155D01*
X67893636Y2732321D01*
X68234611Y3553481D01*
X68235387Y4442619D01*
X67895845Y5264372D01*
X67267679Y5893636D01*
X66446519Y6234611D01*
X65557381Y6235387D01*
X64735628Y5895845D01*
X64106364Y5267679D01*
X63765389Y4446519D01*
X63764613Y3557381D01*
X58359670Y3557381D01*
X58382723Y3616187D01*
X58366497Y4465387D01*
X58072739Y5174582D01*
X57753970Y5334365D01*
X56419605Y4000000D01*
X56060395Y4000000D01*
X54726030Y5334365D01*
X54407261Y5174582D01*
X54097277Y4383813D01*
X53295335Y4383813D01*
X53295370Y4422815D01*
X52971020Y5207800D01*
X52665384Y5513970D01*
X54905635Y5513970D01*
X56240000Y4179605D01*
X57574365Y5513970D01*
X57414582Y5832739D01*
X56623813Y6142723D01*
X55774613Y6126497D01*
X55065418Y5832739D01*
X54905635Y5513970D01*
X52665384Y5513970D01*
X52370959Y5808909D01*
X51586541Y6134628D01*
X50737185Y6135370D01*
X49952200Y5811020D01*
X49351091Y5210959D01*
X49025372Y4426541D01*
X49024630Y3577185D01*
X48214631Y3577185D01*
X48215370Y4422815D01*
X47891020Y5207800D01*
X47290959Y5808909D01*
X46506541Y6134628D01*
X45657185Y6135370D01*
X44872200Y5811020D01*
X44271091Y5210959D01*
X43945372Y4426541D01*
X43944630Y3577185D01*
X43147440Y3577185D01*
X43147440Y5500000D01*
X43103162Y5735317D01*
X42964090Y5951441D01*
X42751890Y6096431D01*
X42500000Y6147440D01*
X41760000Y6147440D01*
X41760000Y10585198D01*
X42039680Y10864878D01*
X42085167Y10864838D01*
X42428943Y11006883D01*
X42692192Y11269673D01*
X42834838Y11613201D01*
X42835162Y11985167D01*
X42693117Y12328943D01*
X42430327Y12592192D01*
X42086799Y12734838D01*
X41714833Y12735162D01*
X41371057Y12593117D01*
X41107808Y12330327D01*
X40965162Y11986799D01*
X40965121Y11939923D01*
X40462599Y11437401D01*
X40297852Y11190839D01*
X40240000Y10900000D01*
X40240000Y6147440D01*
X39500000Y6147440D01*
X39264683Y6103162D01*
X39048559Y5964090D01*
X38903569Y5751890D01*
X38852560Y5500000D01*
X26687314Y5500000D01*
X26697440Y5550000D01*
X26697440Y7250000D01*
X26653162Y7485317D01*
X26514090Y7701441D01*
X26301890Y7846431D01*
X26050000Y7897440D01*
X24350000Y7897440D01*
X24114683Y7853162D01*
X23898559Y7714090D01*
X23753569Y7501890D01*
X23739914Y7434459D01*
X23710054Y7479147D01*
X23228285Y7801054D01*
X22660000Y7914093D01*
X22091715Y7801054D01*
X21609946Y7479147D01*
X21390000Y7149974D01*
X21170054Y7479147D01*
X20688285Y7801054D01*
X20120000Y7914093D01*
X19551715Y7801054D01*
X19069946Y7479147D01*
X18748039Y6997378D01*
X18635000Y6429093D01*
X1127000Y6429093D01*
X1127000Y9515000D01*
X1714250Y9515000D01*
X1873000Y9673750D01*
X1873000Y10873000D01*
X2127000Y10873000D01*
X2127000Y9673750D01*
X2285750Y9515000D01*
X2976309Y9515000D01*
X3209698Y9611673D01*
X3388327Y9790301D01*
X3485000Y10023690D01*
X3485000Y10714250D01*
X3326250Y10873000D01*
X2127000Y10873000D01*
X1873000Y10873000D01*
X1853000Y10873000D01*
X1853000Y11127000D01*
X1873000Y11127000D01*
X1873000Y11147000D01*
X2127000Y11147000D01*
X2127000Y11127000D01*
X3326250Y11127000D01*
X3485000Y11285750D01*
X3485000Y11976310D01*
X3388327Y12209699D01*
X3209698Y12388327D01*
X3035223Y12460597D01*
X3079147Y12489946D01*
X3401054Y12971715D01*
X3514093Y13540000D01*
X3401054Y14108285D01*
X3079147Y14590054D01*
X2749974Y14810000D01*
X3079147Y15029946D01*
X3401054Y15511715D01*
X3514093Y16080000D01*
X3401054Y16648285D01*
X3079147Y17130054D01*
X2749974Y17350000D01*
X3079147Y17569946D01*
X3326409Y17940000D01*
X6700000Y17940000D01*
X6990839Y17997852D01*
X7237401Y18162599D01*
X7240000Y18165198D01*
X7240000Y10800000D01*
X7297852Y10509161D01*
X7462599Y10262599D01*
X7840000Y9885198D01*
X7840000Y9800000D01*
X7897852Y9509161D01*
X8062599Y9262599D01*
X8462599Y8862599D01*
X8709160Y8697852D01*
X8757414Y8688254D01*
X9000000Y8640000D01*
X19037886Y8640000D01*
X19269673Y8407808D01*
X19613201Y8265162D01*
X19985167Y8264838D01*
X20328943Y8406883D01*
X20592192Y8669673D01*
X20734838Y9013201D01*
X20735162Y9385167D01*
X20593117Y9728943D01*
X20330327Y9992192D01*
X19986799Y10134838D01*
X19725352Y10135066D01*
X19600000Y10160000D01*
X9360000Y10160000D01*
X9360000Y10200000D01*
X9302148Y10490839D01*
X9137401Y10737401D01*
X8760000Y11114802D01*
X8760000Y20237537D01*
X8792192Y20269673D01*
X8934838Y20613201D01*
X8935162Y20985167D01*
X8793117Y21328943D01*
X8582428Y21540000D01*
X9917760Y21540000D01*
X9757808Y21380327D01*
X9615162Y21036799D01*
X9614838Y20664833D01*
X9756883Y20321057D01*
X10019673Y20057808D01*
X10363201Y19915162D01*
X10735167Y19914838D01*
X10859137Y19966061D01*
X12562599Y18262599D01*
X12809161Y18097852D01*
X13100000Y18040000D01*
X24750000Y18040000D01*
X24893414Y18068527D01*
X24840000Y17800000D01*
X24840000Y16514802D01*
X24485198Y16160000D01*
X23200000Y16160000D01*
X22909161Y16102148D01*
X22662599Y15937401D01*
X21662599Y14937401D01*
X21497852Y14690839D01*
X21440000Y14400000D01*
X21440000Y13200000D01*
X21497852Y12909161D01*
X21662599Y12662599D01*
X22068506Y12256692D01*
X22097852Y12109161D01*
X22262599Y11862599D01*
X22464878Y11660320D01*
X22464838Y11614833D01*
X22606883Y11271057D01*
X22869673Y11007808D01*
X23213201Y10865162D01*
X23585167Y10864838D01*
X23928943Y11006883D01*
X24012309Y11090104D01*
X24313201Y10965162D01*
X24685167Y10964838D01*
X25028943Y11106883D01*
X25062118Y11140000D01*
X25637537Y11140000D01*
X25669673Y11107808D01*
X26013201Y10965162D01*
X26385167Y10964838D01*
X26440000Y10987494D01*
X26440000Y10162114D01*
X26207808Y9930327D01*
X26065162Y9586799D01*
X26064838Y9214833D01*
X26206883Y8871057D01*
X26469673Y8607808D01*
X26813201Y8465162D01*
X27185167Y8464838D01*
X27528943Y8606883D01*
X27792192Y8869673D01*
X27934838Y9213201D01*
X27935066Y9474648D01*
X27960000Y9600000D01*
X27960000Y10387253D01*
X28013201Y10365162D01*
X28385167Y10364838D01*
X28728943Y10506883D01*
X28762118Y10540000D01*
X31132972Y10540000D01*
X31313201Y10465162D01*
X31685167Y10464838D01*
X32028943Y10606883D01*
X32292192Y10869673D01*
X32434838Y11213201D01*
X32435162Y11585167D01*
X32293117Y11928943D01*
X32030327Y12192192D01*
X31686799Y12334838D01*
X31314833Y12335162D01*
X30971057Y12193117D01*
X30837707Y12060000D01*
X28762463Y12060000D01*
X28730327Y12092192D01*
X28386799Y12234838D01*
X28014833Y12235162D01*
X27960000Y12212506D01*
X27960000Y15228777D01*
X28113201Y15165162D01*
X28485167Y15164838D01*
X28828943Y15306883D01*
X29092192Y15569673D01*
X29234838Y15913201D01*
X29234839Y15914833D01*
X32464838Y15914833D01*
X32606883Y15571057D01*
X32869673Y15307808D01*
X33213201Y15165162D01*
X33585167Y15164838D01*
X33928943Y15306883D01*
X34192192Y15569673D01*
X34334838Y15913201D01*
X34334879Y15960076D01*
X34637401Y16262598D01*
X34776769Y16471179D01*
X34802148Y16509161D01*
X34860000Y16800000D01*
X34860000Y17137537D01*
X34892192Y17169673D01*
X35034838Y17513201D01*
X35035162Y17885167D01*
X34893117Y18228943D01*
X34630327Y18492192D01*
X34286799Y18634838D01*
X33914833Y18635162D01*
X33571057Y18493117D01*
X33307808Y18230327D01*
X33165162Y17886799D01*
X33164838Y17514833D01*
X33306883Y17171057D01*
X33340000Y17137882D01*
X33340000Y17114803D01*
X33260320Y17035122D01*
X33214833Y17035162D01*
X32871057Y16893117D01*
X32607808Y16630327D01*
X32465162Y16286799D01*
X32464838Y15914833D01*
X29234839Y15914833D01*
X29235162Y16285167D01*
X29093117Y16628943D01*
X28860000Y16862467D01*
X28860000Y18285198D01*
X31114802Y20540000D01*
X31200000Y20540000D01*
X31490839Y20597852D01*
X31737401Y20762599D01*
X32137401Y21162599D01*
X32302148Y21409160D01*
X32327537Y21536799D01*
X32360000Y21700000D01*
X32360000Y22185198D01*
X33639680Y23464878D01*
X33685167Y23464838D01*
X34028943Y23606883D01*
X34140000Y23717746D01*
X34140000Y22000000D01*
X34197852Y21709161D01*
X34362599Y21462599D01*
X35040000Y20785198D01*
X35040000Y14062463D01*
X35007808Y14030327D01*
X34865162Y13686799D01*
X34864838Y13314833D01*
X35006883Y12971057D01*
X35269673Y12707808D01*
X35613201Y12565162D01*
X35985167Y12564838D01*
X36328943Y12706883D01*
X36592192Y12969673D01*
X36734838Y13313201D01*
X36735162Y13685167D01*
X36593117Y14028943D01*
X36560000Y14062118D01*
X36560000Y16246030D01*
X64665635Y16246030D01*
X64825418Y15927261D01*
X65616187Y15617277D01*
X66465387Y15633503D01*
X67174582Y15927261D01*
X67334365Y16246030D01*
X66000000Y17580395D01*
X64665635Y16246030D01*
X36560000Y16246030D01*
X36560000Y18143813D01*
X63857277Y18143813D01*
X63873503Y17294613D01*
X64167261Y16585418D01*
X64486030Y16425635D01*
X65820395Y17760000D01*
X66179605Y17760000D01*
X67513970Y16425635D01*
X67832739Y16585418D01*
X68142723Y17376187D01*
X68126497Y18225387D01*
X67832739Y18934582D01*
X67513970Y19094365D01*
X66179605Y17760000D01*
X65820395Y17760000D01*
X64486030Y19094365D01*
X64167261Y18934582D01*
X63857277Y18143813D01*
X36560000Y18143813D01*
X36560000Y19273970D01*
X64665635Y19273970D01*
X66000000Y17939605D01*
X67334365Y19273970D01*
X67174582Y19592739D01*
X66383813Y19902723D01*
X65534613Y19886497D01*
X64825418Y19592739D01*
X64665635Y19273970D01*
X36560000Y19273970D01*
X36560000Y21100000D01*
X36525950Y21271179D01*
X36502148Y21390840D01*
X36337401Y21637401D01*
X35660000Y22314802D01*
X35660000Y23197518D01*
X35809161Y23097852D01*
X36100000Y23040000D01*
X48464860Y23040000D01*
X48464838Y23014833D01*
X48606883Y22671057D01*
X48869673Y22407808D01*
X49213201Y22265162D01*
X49585167Y22264838D01*
X49928943Y22406883D01*
X50192192Y22669673D01*
X50293991Y22914833D01*
X58064838Y22914833D01*
X58206883Y22571057D01*
X58469673Y22307808D01*
X58813201Y22165162D01*
X59185167Y22164838D01*
X59528943Y22306883D01*
X59639437Y22417185D01*
X63864630Y22417185D01*
X64188980Y21632200D01*
X64789041Y21031091D01*
X65573459Y20705372D01*
X66422815Y20704630D01*
X67207800Y21028980D01*
X67808909Y21629041D01*
X68134628Y22413459D01*
X68135370Y23262815D01*
X67811020Y24047800D01*
X67210959Y24648909D01*
X66426541Y24974628D01*
X65577185Y24975370D01*
X64792200Y24651020D01*
X64191091Y24050959D01*
X63865372Y23266541D01*
X63864630Y22417185D01*
X59639437Y22417185D01*
X59792192Y22569673D01*
X59934838Y22913201D01*
X59934879Y22960077D01*
X64042210Y27067408D01*
X64188980Y26712200D01*
X64789041Y26111091D01*
X65573459Y25785372D01*
X66422815Y25784630D01*
X67207800Y26108980D01*
X67808909Y26709041D01*
X68134628Y27493459D01*
X68135370Y28342815D01*
X67811020Y29127800D01*
X67210959Y29728909D01*
X66426541Y30054628D01*
X65577185Y30055370D01*
X64792200Y29731020D01*
X64191091Y29130959D01*
X64003836Y28680000D01*
X63820000Y28680000D01*
X63529160Y28622148D01*
X63282599Y28457401D01*
X58860320Y24035122D01*
X58814833Y24035162D01*
X58471057Y23893117D01*
X58207808Y23630327D01*
X58065162Y23286799D01*
X58064838Y22914833D01*
X50293991Y22914833D01*
X50334838Y23013201D01*
X50335162Y23385167D01*
X50193117Y23728943D01*
X49930327Y23992192D01*
X49586799Y24134838D01*
X49539923Y24134879D01*
X49337401Y24337401D01*
X49090839Y24502148D01*
X48800000Y24560000D01*
X44267857Y24560000D01*
X44627792Y24708722D01*
X44990006Y25070305D01*
X45186276Y25542977D01*
X45186723Y26054778D01*
X44991278Y26527792D01*
X44629695Y26890006D01*
X44195737Y27070201D01*
X44627792Y27248722D01*
X44990006Y27610305D01*
X45186276Y28082977D01*
X45186723Y28594778D01*
X44991278Y29067792D01*
X44760000Y29299474D01*
X44760000Y32300000D01*
X44702148Y32590839D01*
X44537401Y32837401D01*
X43984800Y33390002D01*
X45135196Y33390002D01*
X48840000Y29685198D01*
X48840000Y27762463D01*
X48807808Y27730327D01*
X48665162Y27386799D01*
X48664838Y27014833D01*
X48806883Y26671057D01*
X49069673Y26407808D01*
X49413201Y26265162D01*
X49785167Y26264838D01*
X50128943Y26406883D01*
X50392192Y26669673D01*
X50534838Y27013201D01*
X50535162Y27385167D01*
X50393117Y27728943D01*
X50360000Y27762118D01*
X50360000Y30000000D01*
X50302148Y30290839D01*
X50137401Y30537401D01*
X46174802Y34500000D01*
X63852560Y34500000D01*
X63852560Y31500000D01*
X63896838Y31264683D01*
X64035910Y31048559D01*
X64248110Y30903569D01*
X64500000Y30852560D01*
X67500000Y30852560D01*
X67735317Y30896838D01*
X67951441Y31035910D01*
X68096431Y31248110D01*
X68147440Y31500000D01*
X68147440Y34500000D01*
X68103162Y34735317D01*
X67964090Y34951441D01*
X67751890Y35096431D01*
X67500000Y35147440D01*
X64500000Y35147440D01*
X64264683Y35103162D01*
X64048559Y34964090D01*
X63903569Y34751890D01*
X63852560Y34500000D01*
X46174802Y34500000D01*
X45987399Y34687403D01*
X45740837Y34852150D01*
X45449998Y34910002D01*
X33164800Y34910002D01*
X32537401Y35537401D01*
X32290839Y35702148D01*
X32227068Y35714833D01*
X41964838Y35714833D01*
X42106883Y35371057D01*
X42369673Y35107808D01*
X42713201Y34965162D01*
X43085167Y34964838D01*
X43428943Y35106883D01*
X43692192Y35369673D01*
X43834838Y35713201D01*
X43834879Y35760077D01*
X45814802Y37740000D01*
X47837537Y37740000D01*
X47869673Y37707808D01*
X48213201Y37565162D01*
X48585167Y37564838D01*
X48928943Y37706883D01*
X49192192Y37969673D01*
X49334838Y38313201D01*
X49335162Y38685167D01*
X49193117Y39028943D01*
X49160000Y39062118D01*
X49160000Y42285198D01*
X50537401Y43662599D01*
X50664329Y43852560D01*
X51500000Y43852560D01*
X51735317Y43896838D01*
X51951441Y44035910D01*
X52096431Y44248110D01*
X52144611Y44486030D01*
X53745635Y44486030D01*
X53905418Y44167261D01*
X54696187Y43857277D01*
X55545387Y43873503D01*
X56254582Y44167261D01*
X56414365Y44486030D01*
X55080000Y45820395D01*
X53745635Y44486030D01*
X52144611Y44486030D01*
X52147440Y44500000D01*
X52147440Y46383813D01*
X52937277Y46383813D01*
X52953503Y45534613D01*
X53247261Y44825418D01*
X53566030Y44665635D01*
X54900395Y46000000D01*
X55259605Y46000000D01*
X56593970Y44665635D01*
X56912739Y44825418D01*
X57199670Y45557381D01*
X63764613Y45557381D01*
X64104155Y44735628D01*
X64732321Y44106364D01*
X65553481Y43765389D01*
X66442619Y43764613D01*
X67264372Y44104155D01*
X67893636Y44732321D01*
X68234611Y45553481D01*
X68235387Y46442619D01*
X67895845Y47264372D01*
X67267679Y47893636D01*
X66446519Y48234611D01*
X65557381Y48235387D01*
X64735628Y47895845D01*
X64106364Y47267679D01*
X63765389Y46446519D01*
X63764613Y45557381D01*
X57199670Y45557381D01*
X57222723Y45616187D01*
X57206497Y46465387D01*
X56912739Y47174582D01*
X56593970Y47334365D01*
X55259605Y46000000D01*
X54900395Y46000000D01*
X53566030Y47334365D01*
X53247261Y47174582D01*
X52937277Y46383813D01*
X52147440Y46383813D01*
X52147440Y47500000D01*
X52144812Y47513970D01*
X53745635Y47513970D01*
X55080000Y46179605D01*
X56414365Y47513970D01*
X56254582Y47832739D01*
X55463813Y48142723D01*
X54614613Y48126497D01*
X53905418Y47832739D01*
X53745635Y47513970D01*
X52144812Y47513970D01*
X52103162Y47735317D01*
X51964090Y47951441D01*
X51751890Y48096431D01*
X51500000Y48147440D01*
X48500000Y48147440D01*
X48264683Y48103162D01*
X48048559Y47964090D01*
X47903569Y47751890D01*
X47852560Y47500000D01*
X47852560Y44500000D01*
X47896838Y44264683D01*
X48035910Y44048559D01*
X48248110Y43903569D01*
X48500000Y43852560D01*
X48577758Y43852560D01*
X47862599Y43137401D01*
X47697852Y42890839D01*
X47640000Y42600000D01*
X47640000Y39260000D01*
X45500000Y39260000D01*
X45209160Y39202148D01*
X44962599Y39037401D01*
X42760320Y36835122D01*
X42714833Y36835162D01*
X42371057Y36693117D01*
X42107808Y36430327D01*
X41965162Y36086799D01*
X41964838Y35714833D01*
X32227068Y35714833D01*
X32000000Y35760000D01*
X26100000Y35760000D01*
X25809160Y35702148D01*
X25562599Y35537401D01*
X24860000Y34834802D01*
X24860000Y35837537D01*
X24892192Y35869673D01*
X25034838Y36213201D01*
X25035162Y36585167D01*
X24893117Y36928943D01*
X24872290Y36949806D01*
X24892192Y36969673D01*
X25034838Y37313201D01*
X25035162Y37685167D01*
X24893117Y38028943D01*
X24630327Y38292192D01*
X24286799Y38434838D01*
X23914833Y38435162D01*
X23571057Y38293117D01*
X23307808Y38030327D01*
X23165162Y37686799D01*
X23165121Y37639923D01*
X22760000Y37234802D01*
X22760000Y38517733D01*
X22920000Y38485907D01*
X23488285Y38598946D01*
X23970054Y38920853D01*
X24190000Y39250026D01*
X24409946Y38920853D01*
X24891715Y38598946D01*
X25460000Y38485907D01*
X26028285Y38598946D01*
X26510054Y38920853D01*
X26537850Y38962452D01*
X26546838Y38914683D01*
X26685910Y38698559D01*
X26898110Y38553569D01*
X27150000Y38502560D01*
X28850000Y38502560D01*
X29085317Y38546838D01*
X29301441Y38685910D01*
X29446431Y38898110D01*
X29497440Y39150000D01*
X29497440Y40850000D01*
X29453162Y41085317D01*
X29314090Y41301441D01*
X29101890Y41446431D01*
X28850000Y41497440D01*
X27150000Y41497440D01*
X26914683Y41453162D01*
X26698559Y41314090D01*
X26553569Y41101890D01*
X26539914Y41034459D01*
X26510054Y41079147D01*
X26028285Y41401054D01*
X25460000Y41514093D01*
X24891715Y41401054D01*
X24409946Y41079147D01*
X24190000Y40749974D01*
X23970054Y41079147D01*
X23488285Y41401054D01*
X22920000Y41514093D01*
X22351715Y41401054D01*
X21869946Y41079147D01*
X21650000Y40749974D01*
X21430054Y41079147D01*
X21140000Y41272954D01*
X21140000Y43870000D01*
X21082148Y44160839D01*
X20917401Y44407401D01*
X20735122Y44589680D01*
X20735162Y44635167D01*
X20593117Y44978943D01*
X20330327Y45242192D01*
X19986799Y45384838D01*
X19614833Y45385162D01*
X19271057Y45243117D01*
X19007808Y44980327D01*
X18865162Y44636799D01*
X18864838Y44264833D01*
X19006883Y43921057D01*
X19269673Y43657808D01*
X19613201Y43515162D01*
X19620000Y43515156D01*
X19620000Y41272954D01*
X19329946Y41079147D01*
X19102298Y40738447D01*
X19035183Y40881358D01*
X18652440Y41230165D01*
X18792192Y41369673D01*
X18934838Y41713201D01*
X18935162Y42085167D01*
X18793117Y42428943D01*
X18530327Y42692192D01*
X18186799Y42834838D01*
X17814833Y42835162D01*
X17471057Y42693117D01*
X17207808Y42430327D01*
X17137082Y42260000D01*
X16600000Y42260000D01*
X16309161Y42202148D01*
X16062599Y42037401D01*
X15285198Y41260000D01*
X13704242Y41260000D01*
X13593117Y41528943D01*
X13330327Y41792192D01*
X12986799Y41934838D01*
X12614833Y41935162D01*
X12271057Y41793117D01*
X12007808Y41530327D01*
X11865162Y41186799D01*
X11864838Y40814833D01*
X12006883Y40471057D01*
X12269673Y40207808D01*
X12351274Y40173924D01*
X12562599Y39962599D01*
X12809161Y39797852D01*
X13100000Y39740000D01*
X15600000Y39740000D01*
X15890839Y39797852D01*
X16137401Y39962599D01*
X16444356Y40269554D01*
X16519181Y40127000D01*
X17713000Y40127000D01*
X17713000Y40147000D01*
X17967000Y40147000D01*
X17967000Y40127000D01*
X17987000Y40127000D01*
X17987000Y39873000D01*
X17967000Y39873000D01*
X17967000Y38679845D01*
X18196890Y38558524D01*
X18606924Y38728355D01*
X19035183Y39118642D01*
X19102298Y39261553D01*
X19329946Y38920853D01*
X19811715Y38598946D01*
X20380000Y38485907D01*
X20948285Y38598946D01*
X21240000Y38793863D01*
X21240000Y34762289D01*
X21107808Y34630327D01*
X20965162Y34286799D01*
X20964838Y33914833D01*
X21106883Y33571057D01*
X21140000Y33537882D01*
X21140000Y33000000D01*
X21197852Y32709161D01*
X21362599Y32462599D01*
X22262599Y31562599D01*
X22509160Y31397852D01*
X22800000Y31340000D01*
X33137537Y31340000D01*
X33169673Y31307808D01*
X33513201Y31165162D01*
X33885167Y31164838D01*
X34140000Y31270133D01*
X34140000Y25082327D01*
X34030327Y25192192D01*
X33686799Y25334838D01*
X33314833Y25335162D01*
X32971057Y25193117D01*
X32707808Y24930327D01*
X32565162Y24586799D01*
X32565121Y24539923D01*
X31062599Y23037401D01*
X30897852Y22790839D01*
X30840000Y22500000D01*
X30840000Y22060000D01*
X20834879Y22060000D01*
X20835162Y22385167D01*
X20693117Y22728943D01*
X20430327Y22992192D01*
X20086799Y23134838D01*
X19714833Y23135162D01*
X19532927Y23060000D01*
X16321223Y23060000D01*
X16384838Y23213201D01*
X16384879Y23260077D01*
X16887401Y23762599D01*
X17052148Y24009160D01*
X17110000Y24300000D01*
X17110000Y24385198D01*
X17637401Y24912599D01*
X17802148Y25159160D01*
X17860000Y25450000D01*
X17860000Y26465034D01*
X18085167Y26464838D01*
X18428943Y26606883D01*
X18692192Y26869673D01*
X18834838Y27213201D01*
X18834879Y27260077D01*
X18937401Y27362599D01*
X19102148Y27609161D01*
X19160000Y27900000D01*
X19160000Y36200000D01*
X19134936Y36326003D01*
X19135162Y36585167D01*
X18993117Y36928943D01*
X18730327Y37192192D01*
X18386799Y37334838D01*
X18014833Y37335162D01*
X17671057Y37193117D01*
X17637882Y37160000D01*
X15682153Y37160000D01*
X15892192Y37369673D01*
X16034838Y37713201D01*
X16035162Y38085167D01*
X15893117Y38428943D01*
X15630327Y38692192D01*
X15286799Y38834838D01*
X15239924Y38834879D01*
X14937401Y39137401D01*
X14690839Y39302148D01*
X14400000Y39360000D01*
X7614802Y39360000D01*
X7537401Y39437401D01*
X7290839Y39602148D01*
X7084922Y39643108D01*
X16398514Y39643108D01*
X16644817Y39118642D01*
X17073076Y38728355D01*
X17483110Y38558524D01*
X17713000Y38679845D01*
X17713000Y39873000D01*
X16519181Y39873000D01*
X16398514Y39643108D01*
X7084922Y39643108D01*
X7000000Y39660000D01*
X5100000Y39660000D01*
X4857414Y39611746D01*
X4809160Y39602148D01*
X4562599Y39437401D01*
X4162599Y39037401D01*
X3997852Y38790839D01*
X3940000Y38500000D01*
X3940000Y34062463D01*
X3907808Y34030327D01*
X3765162Y33686799D01*
X3764838Y33314833D01*
X3906883Y32971057D01*
X4169673Y32707808D01*
X4513201Y32565162D01*
X4885167Y32564838D01*
X5228943Y32706883D01*
X5492192Y32969673D01*
X5634838Y33313201D01*
X5635162Y33685167D01*
X5493117Y34028943D01*
X5460000Y34062118D01*
X5460000Y38140000D01*
X5565121Y38140000D01*
X5564838Y37814833D01*
X5706883Y37471057D01*
X5969673Y37207808D01*
X6313201Y37065162D01*
X6685167Y37064838D01*
X7028943Y37206883D01*
X7062118Y37240000D01*
X13185198Y37240000D01*
X13265198Y37160000D01*
X12600000Y37160000D01*
X12309160Y37102148D01*
X12062599Y36937401D01*
X11085198Y35960000D01*
X9362463Y35960000D01*
X9330327Y35992192D01*
X8986799Y36134838D01*
X8614833Y36135162D01*
X8271057Y35993117D01*
X8007808Y35730327D01*
X7865162Y35386799D01*
X7864838Y35014833D01*
X8006883Y34671057D01*
X8227709Y34449845D01*
X8007808Y34230327D01*
X7865162Y33886799D01*
X7864838Y33514833D01*
X8006883Y33171057D01*
X8269673Y32907808D01*
X8613201Y32765162D01*
X8985167Y32764838D01*
X9049896Y32791583D01*
X8854092Y32264539D01*
X8878144Y31614540D01*
X9080613Y31125736D01*
X9347468Y31027073D01*
X10320395Y32000000D01*
X10679605Y32000000D01*
X11652532Y31027073D01*
X11919387Y31125736D01*
X12145908Y31735461D01*
X12121856Y32385460D01*
X11919387Y32874264D01*
X11652532Y32972927D01*
X10679605Y32000000D01*
X10320395Y32000000D01*
X10306253Y32014142D01*
X10485858Y32193747D01*
X10500000Y32179605D01*
X11472927Y33152532D01*
X11374264Y33419387D01*
X11049611Y33540000D01*
X11928777Y33540000D01*
X11865162Y33386799D01*
X11864838Y33014833D01*
X12006883Y32671057D01*
X12269673Y32407808D01*
X12440000Y32337082D01*
X12440000Y24200000D01*
X12497852Y23909161D01*
X12662599Y23662599D01*
X13265198Y23060000D01*
X8000000Y23060000D01*
X7709161Y23002148D01*
X7462599Y22837401D01*
X6462599Y21837401D01*
X6297852Y21590839D01*
X6240000Y21300000D01*
X6240000Y19460000D01*
X3219500Y19460000D01*
X3079147Y19670054D01*
X2749974Y19890000D01*
X3079147Y20109946D01*
X3401054Y20591715D01*
X3514093Y21160000D01*
X3401054Y21728285D01*
X3079147Y22210054D01*
X2749974Y22430000D01*
X3079147Y22649946D01*
X3401054Y23131715D01*
X3514093Y23700000D01*
X3401054Y24268285D01*
X3348146Y24347468D01*
X9527073Y24347468D01*
X9625736Y24080613D01*
X10235461Y23854092D01*
X10885460Y23878144D01*
X11374264Y24080613D01*
X11472927Y24347468D01*
X10500000Y25320395D01*
X9527073Y24347468D01*
X3348146Y24347468D01*
X3079147Y24750054D01*
X2597378Y25071961D01*
X2029093Y25185000D01*
X1970907Y25185000D01*
X1402622Y25071961D01*
X1127000Y24887797D01*
X1127000Y25764539D01*
X8854092Y25764539D01*
X8878144Y25114540D01*
X9080613Y24625736D01*
X9347468Y24527073D01*
X10320395Y25500000D01*
X10679605Y25500000D01*
X11652532Y24527073D01*
X11919387Y24625736D01*
X12145908Y25235461D01*
X12121856Y25885460D01*
X11919387Y26374264D01*
X11652532Y26472927D01*
X10679605Y25500000D01*
X10320395Y25500000D01*
X9347468Y26472927D01*
X9080613Y26374264D01*
X8854092Y25764539D01*
X1127000Y25764539D01*
X1127000Y26652532D01*
X9527073Y26652532D01*
X10500000Y25679605D01*
X11472927Y26652532D01*
X11374264Y26919387D01*
X10764539Y27145908D01*
X10114540Y27121856D01*
X9625736Y26919387D01*
X9527073Y26652532D01*
X1127000Y26652532D01*
X1127000Y29507218D01*
X1150000Y29502560D01*
X2850000Y29502560D01*
X3085317Y29546838D01*
X3301441Y29685910D01*
X3446431Y29898110D01*
X3497440Y30150000D01*
X3497440Y30847468D01*
X9527073Y30847468D01*
X9625736Y30580613D01*
X10235461Y30354092D01*
X10885460Y30378144D01*
X11374264Y30580613D01*
X11472927Y30847468D01*
X10500000Y31820395D01*
X9527073Y30847468D01*
X3497440Y30847468D01*
X3497440Y31850000D01*
X3453162Y32085317D01*
X3314090Y32301441D01*
X3101890Y32446431D01*
X3034459Y32460086D01*
X3079147Y32489946D01*
X3401054Y32971715D01*
X3514093Y33540000D01*
X3401054Y34108285D01*
X3079147Y34590054D01*
X2738447Y34817702D01*
X2881358Y34884817D01*
X3271645Y35313076D01*
X3441476Y35723110D01*
X3320155Y35953000D01*
X2127000Y35953000D01*
X2127000Y35933000D01*
X1873000Y35933000D01*
X1873000Y35953000D01*
X1853000Y35953000D01*
X1853000Y36207000D01*
X1873000Y36207000D01*
X1873000Y36227000D01*
X2127000Y36227000D01*
X2127000Y36207000D01*
X3320155Y36207000D01*
X3441476Y36436890D01*
X3271645Y36846924D01*
X2881358Y37275183D01*
X2738447Y37342298D01*
X3079147Y37569946D01*
X3401054Y38051715D01*
X3514093Y38620000D01*
X3401054Y39188285D01*
X3079147Y39670054D01*
X2597378Y39991961D01*
X2029093Y40105000D01*
X1970907Y40105000D01*
X1402622Y39991961D01*
X1127000Y39807797D01*
X1127000Y45557381D01*
X1764613Y45557381D01*
X2104155Y44735628D01*
X2732321Y44106364D01*
X3553481Y43765389D01*
X4442619Y43764613D01*
X5264372Y44104155D01*
X5893636Y44732321D01*
X6234611Y45553481D01*
X6235387Y46442619D01*
X5895845Y47264372D01*
X5311239Y47850000D01*
X20502560Y47850000D01*
X20502560Y46150000D01*
X20546838Y45914683D01*
X20685910Y45698559D01*
X20898110Y45553569D01*
X21150000Y45502560D01*
X22850000Y45502560D01*
X23085317Y45546838D01*
X23301441Y45685910D01*
X23446431Y45898110D01*
X23460086Y45965541D01*
X23489946Y45920853D01*
X23971715Y45598946D01*
X24540000Y45485907D01*
X25108285Y45598946D01*
X25590054Y45920853D01*
X25817702Y46261553D01*
X25884817Y46118642D01*
X26313076Y45728355D01*
X26723110Y45558524D01*
X26953000Y45679845D01*
X26953000Y46873000D01*
X27207000Y46873000D01*
X27207000Y45679845D01*
X27436890Y45558524D01*
X27846924Y45728355D01*
X28275183Y46118642D01*
X28521486Y46643108D01*
X28400819Y46873000D01*
X27207000Y46873000D01*
X26953000Y46873000D01*
X26933000Y46873000D01*
X26933000Y47127000D01*
X26953000Y47127000D01*
X26953000Y48320155D01*
X27207000Y48320155D01*
X27207000Y47127000D01*
X28400819Y47127000D01*
X28521486Y47356892D01*
X28275183Y47881358D01*
X27846924Y48271645D01*
X27436890Y48441476D01*
X27207000Y48320155D01*
X26953000Y48320155D01*
X26723110Y48441476D01*
X26313076Y48271645D01*
X25884817Y47881358D01*
X25817702Y47738447D01*
X25590054Y48079147D01*
X25108285Y48401054D01*
X24540000Y48514093D01*
X23971715Y48401054D01*
X23489946Y48079147D01*
X23462150Y48037548D01*
X23453162Y48085317D01*
X23314090Y48301441D01*
X23101890Y48446431D01*
X22850000Y48497440D01*
X21150000Y48497440D01*
X20914683Y48453162D01*
X20698559Y48314090D01*
X20553569Y48101890D01*
X20502560Y47850000D01*
X5311239Y47850000D01*
X5267679Y47893636D01*
X4446519Y48234611D01*
X3557381Y48235387D01*
X2735628Y47895845D01*
X2106364Y47267679D01*
X1765389Y46446519D01*
X1764613Y45557381D01*
X1127000Y45557381D01*
X1127000Y48873000D01*
X68873000Y48873000D01*
X68873000Y1127000D01*
M02*
