M48
;DRILL file {KiCad 4.0.1-stable} date 2019/02/18 22:32:08
;FORMAT={-:-/ absolute / metric / decimal}
FMAT,2
METRIC,TZ
T1C0.400
T2C0.760
T3C1.000
T4C1.100
T5C1.520
T6C3.200
%
G90
G05
M71
T1
X4.7Y33.5
X6.5Y38.
X8.Y20.8
X8.8Y35.2
X8.8Y33.7
X9.3Y39.6
X10.55Y20.85
X11.8Y21.35
X12.8Y41.
X12.8Y33.2
X14.3Y37.2
X14.3Y23.1
X15.1Y37.9
X15.45Y23.4
X16.4Y21.4
X17.1Y34.3
X17.1Y31.4
X17.9Y27.4
X18.Y41.9
X18.2Y36.4
X19.45Y19.45
X19.8Y44.45
X19.8Y9.2
X19.9Y22.2
X21.9Y34.1
X22.9Y34.1
X23.Y13.8
X23.4Y11.8
X23.7Y13.
X23.9Y34.3
X24.1Y37.5
X24.1Y36.4
X24.5Y11.9
X26.1Y20.15
X26.2Y11.9
X26.3Y13.
X26.4Y18.6
X26.4Y17.2
X27.Y9.4
X27.8Y34.1
X28.Y19.6
X28.Y3.4
X28.2Y11.3
X28.3Y16.1
X28.9Y5.7
X29.2Y32.9
X30.4Y4.
X31.3Y13.6
X31.5Y11.4
X33.4Y16.1
X33.5Y36.
X33.5Y24.4
X33.7Y32.1
X34.1Y17.7
X35.Y47.
X35.3Y32.9
X35.8Y13.5
X36.Y41.
X36.Y39.5
X37.Y47.
X37.Y41.
X37.Y39.5
X38.Y41.
X38.Y39.5
X39.Y47.
X39.Y41.
X39.Y39.5
X40.Y41.
X40.Y39.5
X41.Y47.
X41.9Y11.8
X42.9Y35.9
X43.Y47.
X48.4Y38.5
X49.4Y23.2
X49.6Y27.2
X52.5Y19.
X59.Y23.1
X60.2Y34.5
X62.9Y19.6
T2
X43.9Y28.34
X43.9Y25.8
T3
X2.Y38.62
X2.Y36.08
X2.Y33.54
X2.Y31.
X2.Y23.7
X2.Y21.16
X2.Y18.62
X2.Y16.08
X2.Y13.54
X2.Y11.
X17.84Y40.
X20.12Y6.4
X20.12Y3.86
X20.38Y40.
X22.Y47.
X22.66Y6.4
X22.66Y3.86
X22.92Y40.
X24.54Y47.
X25.2Y6.4
X25.2Y3.86
X25.46Y40.
X27.08Y47.
X28.Y40.
X37.5Y28.5
X37.5Y25.96
X75.Y29.
X75.Y26.46
X75.Y23.92
X75.Y21.38
X85.Y29.
X85.Y26.46
X85.Y23.92
X85.Y21.38
T4
X10.5Y32.
X10.5Y25.5
X15.Y32.
X15.Y25.5
T5
X41.Y4.
X46.08Y4.
X50.Y46.
X51.16Y4.
X55.08Y46.
X56.24Y4.
X66.Y33.
X66.Y27.92
X66.Y22.84
X66.Y17.76
T6
X4.Y46.
X4.Y4.
X66.Y46.
X66.Y4.
X80.Y33.
X80.Y17.
T0
M30
