solid OpenSCAD_Model
  facet normal -1 0 0
    outer loop
      vertex 0 -4 5.6
      vertex 0 -2.61436 13.7
      vertex 0 -2.61436 4.8
    endloop
  endfacet
  facet normal -1 0 0
    outer loop
      vertex 0 -4 5.6
      vertex 0 -4 12.9
      vertex 0 -2.61436 13.7
    endloop
  endfacet
  facet normal -1 0 0
    outer loop
      vertex 0 -5.38564 4.8
      vertex 0 -4 12.9
      vertex 0 -4 5.6
    endloop
  endfacet
  facet normal -1 -0 0
    outer loop
      vertex 0 -4 12.9
      vertex 0 -5.38564 4.8
      vertex 0 -5.38564 13.7
    endloop
  endfacet
  facet normal -1 0 0
    outer loop
      vertex 0 35 5.6
      vertex 0 36.3856 13.7
      vertex 0 36.3856 4.8
    endloop
  endfacet
  facet normal -1 0 0
    outer loop
      vertex 0 35 5.6
      vertex 0 35 12.9
      vertex 0 36.3856 13.7
    endloop
  endfacet
  facet normal -1 0 0
    outer loop
      vertex 0 33.6144 4.8
      vertex 0 35 12.9
      vertex 0 35 5.6
    endloop
  endfacet
  facet normal -1 -0 0
    outer loop
      vertex 0 35 12.9
      vertex 0 33.6144 4.8
      vertex 0 33.6144 13.7
    endloop
  endfacet
  facet normal -1 0 0
    outer loop
      vertex 0 36.3856 4.8
      vertex 0 39.5 0
      vertex 0 36.3856 3.2
    endloop
  endfacet
  facet normal -1 0 0
    outer loop
      vertex 0 39.5 0
      vertex 0 35 2.4
      vertex 0 36.3856 3.2
    endloop
  endfacet
  facet normal -1 0 0
    outer loop
      vertex 0 -2.61436 4.8
      vertex 0 33.6144 4.8
      vertex 0 33.6144 3.2
    endloop
  endfacet
  facet normal -1 0 0
    outer loop
      vertex 0 33.6144 4.8
      vertex 0 -2.61436 4.8
      vertex 0 33.6144 13.7
    endloop
  endfacet
  facet normal -1 0 0
    outer loop
      vertex 0 33.6144 13.7
      vertex 0 31 20
      vertex 0 33.6144 15.3
    endloop
  endfacet
  facet normal -1 0 0
    outer loop
      vertex 0 31 20
      vertex 0 0 20
      vertex 0 31 26
    endloop
  endfacet
  facet normal -1 0 0
    outer loop
      vertex 0 -2.61436 13.7
      vertex 0 33.6144 13.7
      vertex 0 -2.61436 4.8
    endloop
  endfacet
  facet normal -1 0 0
    outer loop
      vertex 0 -2.61436 3.2
      vertex 0 33.6144 3.2
      vertex 0 35 2.4
    endloop
  endfacet
  facet normal -1 0 0
    outer loop
      vertex 0 -4 2.4
      vertex 0 35 2.4
      vertex 0 39.5 0
    endloop
  endfacet
  facet normal -1 0 0
    outer loop
      vertex 0 33.6144 3.2
      vertex 0 -2.61436 3.2
      vertex 0 -2.61436 4.8
    endloop
  endfacet
  facet normal -1 0 0
    outer loop
      vertex 0 35 2.4
      vertex 0 -4 2.4
      vertex 0 -2.61436 3.2
    endloop
  endfacet
  facet normal -1 0 0
    outer loop
      vertex 0 -8.5 0
      vertex 0 -5.38564 4.8
      vertex 0 -5.38564 3.2
    endloop
  endfacet
  facet normal -1 -0 0
    outer loop
      vertex 0 -5.38564 4.8
      vertex 0 -8.5 0
      vertex 0 -5.38564 13.7
    endloop
  endfacet
  facet normal -1 0 0
    outer loop
      vertex 0 -8.5 20
      vertex 0 -5.38564 13.7
      vertex 0 -8.5 0
    endloop
  endfacet
  facet normal -1 -0 0
    outer loop
      vertex 0 -4 2.4
      vertex 0 -8.5 0
      vertex 0 -5.38564 3.2
    endloop
  endfacet
  facet normal -1 0 0
    outer loop
      vertex 0 -8.5 0
      vertex 0 -4 2.4
      vertex 0 39.5 0
    endloop
  endfacet
  facet normal -1 0 0
    outer loop
      vertex 0 36.3856 13.7
      vertex 0 39.5 0
      vertex 0 36.3856 4.8
    endloop
  endfacet
  facet normal -1 0 0
    outer loop
      vertex 0 39.5 0
      vertex 0 36.3856 13.7
      vertex 0 39.5 20
    endloop
  endfacet
  facet normal -1 0 0
    outer loop
      vertex 0 36.3856 15.3
      vertex 0 39.5 20
      vertex 0 36.3856 13.7
    endloop
  endfacet
  facet normal -1 0 0
    outer loop
      vertex 0 35 16.1
      vertex 0 39.5 20
      vertex 0 36.3856 15.3
    endloop
  endfacet
  facet normal -1 0 0
    outer loop
      vertex 0 31 20
      vertex 0 35 16.1
      vertex 0 33.6144 15.3
    endloop
  endfacet
  facet normal -1 0 0
    outer loop
      vertex 0 35 16.1
      vertex 0 31 20
      vertex 0 39.5 20
    endloop
  endfacet
  facet normal -1 -0 0
    outer loop
      vertex 0 31 26
      vertex 0 0 20
      vertex 0 0 26
    endloop
  endfacet
  facet normal -1 0 0
    outer loop
      vertex 0 33.6144 13.7
      vertex 0 -2.61436 13.7
      vertex 0 31 20
    endloop
  endfacet
  facet normal -1 -0 0
    outer loop
      vertex 0 31 20
      vertex 0 -2.61436 13.7
      vertex 0 0 20
    endloop
  endfacet
  facet normal -1 0 0
    outer loop
      vertex 0 -2.61436 15.3
      vertex 0 0 20
      vertex 0 -2.61436 13.7
    endloop
  endfacet
  facet normal -1 0 0
    outer loop
      vertex 0 -4 16.1
      vertex 0 0 20
      vertex 0 -2.61436 15.3
    endloop
  endfacet
  facet normal -1 0 0
    outer loop
      vertex 0 -8.5 20
      vertex 0 -4 16.1
      vertex 0 -5.38564 15.3
    endloop
  endfacet
  facet normal -1 0 0
    outer loop
      vertex 0 -4 16.1
      vertex 0 -8.5 20
      vertex 0 0 20
    endloop
  endfacet
  facet normal -1 0 0
    outer loop
      vertex 0 -5.38564 13.7
      vertex 0 -8.5 20
      vertex 0 -5.38564 15.3
    endloop
  endfacet
  facet normal 1 -0 0
    outer loop
      vertex 28 0 29
      vertex 28 31 0
      vertex 28 31 29
    endloop
  endfacet
  facet normal 1 0 0
    outer loop
      vertex 28 31 0
      vertex 28 0 29
      vertex 28 0 0
    endloop
  endfacet
  facet normal 0 0 -1
    outer loop
      vertex 0 -8.5 0
      vertex 2 0 0
      vertex 2 -8.5 0
    endloop
  endfacet
  facet normal -0 0 -1
    outer loop
      vertex 2 0 0
      vertex 0 -8.5 0
      vertex 2 2.25 0
    endloop
  endfacet
  facet normal -0 0 -1
    outer loop
      vertex 2 2.25 0
      vertex 0 -8.5 0
      vertex 2 28.75 0
    endloop
  endfacet
  facet normal 0 0 -1
    outer loop
      vertex 0 39.5 0
      vertex 2 28.75 0
      vertex 0 -8.5 0
    endloop
  endfacet
  facet normal 0 0 -1
    outer loop
      vertex 2 28.75 0
      vertex 0 39.5 0
      vertex 2 31 0
    endloop
  endfacet
  facet normal 0 0 -1
    outer loop
      vertex 2 31 0
      vertex 0 39.5 0
      vertex 2 39.5 0
    endloop
  endfacet
  facet normal 0 0 -1
    outer loop
      vertex 28 0 0
      vertex 26.75 2.25 0
      vertex 28 31 0
    endloop
  endfacet
  facet normal 0 0 -1
    outer loop
      vertex 2 0 0
      vertex 26.75 2.25 0
      vertex 28 0 0
    endloop
  endfacet
  facet normal -0 0 -1
    outer loop
      vertex 26.75 2.25 0
      vertex 2 0 0
      vertex 2 2.25 0
    endloop
  endfacet
  facet normal 0 0 -1
    outer loop
      vertex 26.75 28.75 0
      vertex 28 31 0
      vertex 26.75 2.25 0
    endloop
  endfacet
  facet normal 0 0 -1
    outer loop
      vertex 2 31 0
      vertex 26.75 28.75 0
      vertex 2 28.75 0
    endloop
  endfacet
  facet normal 0 0 -1
    outer loop
      vertex 26.75 28.75 0
      vertex 2 31 0
      vertex 28 31 0
    endloop
  endfacet
  facet normal 0 1 0
    outer loop
      vertex 28 31 29
      vertex 7 31 26
      vertex 7 31 29
    endloop
  endfacet
  facet normal 0 1 0
    outer loop
      vertex 7 31 26
      vertex 2 31 20
      vertex 0 31 26
    endloop
  endfacet
  facet normal 0 1 -0
    outer loop
      vertex 28 31 0
      vertex 7 31 26
      vertex 28 31 29
    endloop
  endfacet
  facet normal 0 1 0
    outer loop
      vertex 7 31 26
      vertex 28 31 0
      vertex 2 31 20
    endloop
  endfacet
  facet normal 0 1 0
    outer loop
      vertex 2 31 20
      vertex 28 31 0
      vertex 2 31 0
    endloop
  endfacet
  facet normal 0 1 0
    outer loop
      vertex 0 31 26
      vertex 2 31 20
      vertex 0 31 20
    endloop
  endfacet
  facet normal 0 0 1
    outer loop
      vertex 28 31 29
      vertex 26.75 28.75 29
      vertex 28 0 29
    endloop
  endfacet
  facet normal 0 0 1
    outer loop
      vertex 28 31 29
      vertex 25 29.75 29
      vertex 26.75 28.75 29
    endloop
  endfacet
  facet normal -0 0 1
    outer loop
      vertex 7 31 29
      vertex 25 29.75 29
      vertex 28 31 29
    endloop
  endfacet
  facet normal 0 0 1
    outer loop
      vertex 25 29.75 29
      vertex 7 31 29
      vertex 7 29.75 29
    endloop
  endfacet
  facet normal -0 0 1
    outer loop
      vertex 26.75 2.25 29
      vertex 28 0 29
      vertex 26.75 28.75 29
    endloop
  endfacet
  facet normal 0 0 1
    outer loop
      vertex 25 1.25 29
      vertex 26.75 2.25 29
      vertex 25 2.25 29
    endloop
  endfacet
  facet normal 0 0 1
    outer loop
      vertex 26.75 2.25 29
      vertex 25 1.25 29
      vertex 28 0 29
    endloop
  endfacet
  facet normal 0 0 1
    outer loop
      vertex 7 0 29
      vertex 25 1.25 29
      vertex 7 1.25 29
    endloop
  endfacet
  facet normal 0 0 1
    outer loop
      vertex 25 1.25 29
      vertex 7 0 29
      vertex 28 0 29
    endloop
  endfacet
  facet normal 0 0 1
    outer loop
      vertex 26.75 28.75 29
      vertex 25 29.75 29
      vertex 25 28.75 29
    endloop
  endfacet
  facet normal 0 -1 0
    outer loop
      vertex 2 0 20
      vertex 0 0 26
      vertex 0 0 20
    endloop
  endfacet
  facet normal 0 -1 0
    outer loop
      vertex 7 0 26
      vertex 28 0 29
      vertex 7 0 29
    endloop
  endfacet
  facet normal 0 -1 0
    outer loop
      vertex 0 0 26
      vertex 2 0 20
      vertex 7 0 26
    endloop
  endfacet
  facet normal 0 -1 0
    outer loop
      vertex 28 0 0
      vertex 7 0 26
      vertex 2 0 20
    endloop
  endfacet
  facet normal 0 -1 0
    outer loop
      vertex 28 0 0
      vertex 2 0 20
      vertex 2 0 0
    endloop
  endfacet
  facet normal 0 -1 0
    outer loop
      vertex 7 0 26
      vertex 28 0 0
      vertex 28 0 29
    endloop
  endfacet
  facet normal 1 -0 0
    outer loop
      vertex 1.25 2.25 26
      vertex 1.25 28.75 20
      vertex 1.25 28.75 26
    endloop
  endfacet
  facet normal 1 0 0
    outer loop
      vertex 1.25 28.75 20
      vertex 1.25 2.25 26
      vertex 1.25 2.25 20
    endloop
  endfacet
  facet normal -1 0 0
    outer loop
      vertex 26.75 2.25 0
      vertex 26.75 28.75 29
      vertex 26.75 28.75 0
    endloop
  endfacet
  facet normal -1 -0 0
    outer loop
      vertex 26.75 28.75 29
      vertex 26.75 2.25 0
      vertex 26.75 2.25 29
    endloop
  endfacet
  facet normal 0 -1 0
    outer loop
      vertex 2 28.75 20
      vertex 1.25 28.75 26
      vertex 1.25 28.75 20
    endloop
  endfacet
  facet normal 0 -1 0
    outer loop
      vertex 1.25 28.75 26
      vertex 2 28.75 20
      vertex 5 28.75 26
    endloop
  endfacet
  facet normal 0 -1 0
    outer loop
      vertex 2 28.75 20
      vertex 5 28.75 3
      vertex 5 28.75 26
    endloop
  endfacet
  facet normal 0 -1 0
    outer loop
      vertex 26.75 28.75 0
      vertex 5 28.75 3
      vertex 2 28.75 0
    endloop
  endfacet
  facet normal 0 -1 0
    outer loop
      vertex 2 28.75 0
      vertex 5 28.75 3
      vertex 2 28.75 20
    endloop
  endfacet
  facet normal 0 -1 0
    outer loop
      vertex 25 28.75 3
      vertex 26.75 28.75 29
      vertex 25 28.75 29
    endloop
  endfacet
  facet normal 0 -1 0
    outer loop
      vertex 25 28.75 3
      vertex 26.75 28.75 0
      vertex 26.75 28.75 29
    endloop
  endfacet
  facet normal 0 -1 0
    outer loop
      vertex 5 28.75 3
      vertex 26.75 28.75 0
      vertex 25 28.75 3
    endloop
  endfacet
  facet normal 0 1 0
    outer loop
      vertex 26.75 2.25 29
      vertex 25 2.25 3
      vertex 25 2.25 29
    endloop
  endfacet
  facet normal 0 1 0
    outer loop
      vertex 25 2.25 3
      vertex 26.75 2.25 0
      vertex 5 2.25 3
    endloop
  endfacet
  facet normal 0 1 -0
    outer loop
      vertex 26.75 2.25 0
      vertex 25 2.25 3
      vertex 26.75 2.25 29
    endloop
  endfacet
  facet normal 0 1 0
    outer loop
      vertex 5 2.25 26
      vertex 2 2.25 20
      vertex 1.25 2.25 26
    endloop
  endfacet
  facet normal 0 1 -0
    outer loop
      vertex 5 2.25 3
      vertex 2 2.25 20
      vertex 5 2.25 26
    endloop
  endfacet
  facet normal 0 1 0
    outer loop
      vertex 5 2.25 3
      vertex 2 2.25 0
      vertex 2 2.25 20
    endloop
  endfacet
  facet normal 0 1 0
    outer loop
      vertex 2 2.25 0
      vertex 5 2.25 3
      vertex 26.75 2.25 0
    endloop
  endfacet
  facet normal 0 1 0
    outer loop
      vertex 1.25 2.25 26
      vertex 2 2.25 20
      vertex 1.25 2.25 20
    endloop
  endfacet
  facet normal -1 0 0
    outer loop
      vertex 7 0 26
      vertex 7 1.25 29
      vertex 7 1.25 26
    endloop
  endfacet
  facet normal -1 -0 0
    outer loop
      vertex 7 1.25 29
      vertex 7 0 26
      vertex 7 0 29
    endloop
  endfacet
  facet normal -1 0 0
    outer loop
      vertex 7 29.75 26
      vertex 7 31 29
      vertex 7 31 26
    endloop
  endfacet
  facet normal -1 -0 0
    outer loop
      vertex 7 31 29
      vertex 7 29.75 26
      vertex 7 29.75 29
    endloop
  endfacet
  facet normal 0 0 1
    outer loop
      vertex 7 31 26
      vertex 5 29.75 26
      vertex 7 29.75 26
    endloop
  endfacet
  facet normal 0 0 1
    outer loop
      vertex 5 29.75 26
      vertex 1.25 28.75 26
      vertex 5 28.75 26
    endloop
  endfacet
  facet normal -0 0 1
    outer loop
      vertex 0 31 26
      vertex 5 29.75 26
      vertex 7 31 26
    endloop
  endfacet
  facet normal 0 0 1
    outer loop
      vertex 1.25 28.75 26
      vertex 0 31 26
      vertex 1.25 2.25 26
    endloop
  endfacet
  facet normal 0 0 1
    outer loop
      vertex 5 29.75 26
      vertex 0 31 26
      vertex 1.25 28.75 26
    endloop
  endfacet
  facet normal 0 0 1
    outer loop
      vertex 5 2.25 26
      vertex 1.25 2.25 26
      vertex 5 1.25 26
    endloop
  endfacet
  facet normal -0 0 1
    outer loop
      vertex 5 1.25 26
      vertex 7 0 26
      vertex 7 1.25 26
    endloop
  endfacet
  facet normal 0 0 1
    outer loop
      vertex 0 0 26
      vertex 5 1.25 26
      vertex 1.25 2.25 26
    endloop
  endfacet
  facet normal 0 0 1
    outer loop
      vertex 5 1.25 26
      vertex 0 0 26
      vertex 7 0 26
    endloop
  endfacet
  facet normal 0 0 1
    outer loop
      vertex 0 0 26
      vertex 1.25 2.25 26
      vertex 0 31 26
    endloop
  endfacet
  facet normal 1 -0 0
    outer loop
      vertex 5 28.75 26
      vertex 5 29.75 3
      vertex 5 29.75 26
    endloop
  endfacet
  facet normal 1 0 0
    outer loop
      vertex 5 29.75 3
      vertex 5 28.75 26
      vertex 5 28.75 3
    endloop
  endfacet
  facet normal 1 -0 0
    outer loop
      vertex 5 1.25 26
      vertex 5 2.25 3
      vertex 5 2.25 26
    endloop
  endfacet
  facet normal 1 0 0
    outer loop
      vertex 5 2.25 3
      vertex 5 1.25 26
      vertex 5 1.25 3
    endloop
  endfacet
  facet normal -1 0 0
    outer loop
      vertex 25 1.25 3
      vertex 25 2.25 29
      vertex 25 2.25 3
    endloop
  endfacet
  facet normal -1 -0 0
    outer loop
      vertex 25 2.25 29
      vertex 25 1.25 3
      vertex 25 1.25 29
    endloop
  endfacet
  facet normal -1 0 0
    outer loop
      vertex 25 28.75 3
      vertex 25 29.75 29
      vertex 25 29.75 3
    endloop
  endfacet
  facet normal -1 -0 0
    outer loop
      vertex 25 29.75 29
      vertex 25 28.75 3
      vertex 25 28.75 29
    endloop
  endfacet
  facet normal -0 0 1
    outer loop
      vertex 5 29.75 3
      vertex 25 28.75 3
      vertex 25 29.75 3
    endloop
  endfacet
  facet normal 0 0 1
    outer loop
      vertex 25 28.75 3
      vertex 5 29.75 3
      vertex 5 28.75 3
    endloop
  endfacet
  facet normal -0 0 1
    outer loop
      vertex 5 2.25 3
      vertex 25 1.25 3
      vertex 25 2.25 3
    endloop
  endfacet
  facet normal 0 0 1
    outer loop
      vertex 25 1.25 3
      vertex 5 2.25 3
      vertex 5 1.25 3
    endloop
  endfacet
  facet normal 0 1 0
    outer loop
      vertex 25 1.25 29
      vertex 7 1.25 26
      vertex 7 1.25 29
    endloop
  endfacet
  facet normal 0 1 -0
    outer loop
      vertex 25 1.25 3
      vertex 7 1.25 26
      vertex 25 1.25 29
    endloop
  endfacet
  facet normal 0 1 0
    outer loop
      vertex 5 1.25 3
      vertex 7 1.25 26
      vertex 25 1.25 3
    endloop
  endfacet
  facet normal 0 1 0
    outer loop
      vertex 7 1.25 26
      vertex 5 1.25 3
      vertex 5 1.25 26
    endloop
  endfacet
  facet normal 0 -1 0
    outer loop
      vertex 5 29.75 26
      vertex 5 29.75 3
      vertex 7 29.75 26
    endloop
  endfacet
  facet normal 0 -1 0
    outer loop
      vertex 7 29.75 26
      vertex 25 29.75 29
      vertex 7 29.75 29
    endloop
  endfacet
  facet normal 0 -1 0
    outer loop
      vertex 25 29.75 3
      vertex 7 29.75 26
      vertex 5 29.75 3
    endloop
  endfacet
  facet normal 0 -1 0
    outer loop
      vertex 7 29.75 26
      vertex 25 29.75 3
      vertex 25 29.75 29
    endloop
  endfacet
  facet normal -0 0 1
    outer loop
      vertex 0 0 20
      vertex 2 -8.5 20
      vertex 2 0 20
    endloop
  endfacet
  facet normal 0 0 1
    outer loop
      vertex 2 -8.5 20
      vertex 0 0 20
      vertex 0 -8.5 20
    endloop
  endfacet
  facet normal -0 0 1
    outer loop
      vertex 0 39.5 20
      vertex 2 31 20
      vertex 2 39.5 20
    endloop
  endfacet
  facet normal 0 0 1
    outer loop
      vertex 2 31 20
      vertex 0 39.5 20
      vertex 0 31 20
    endloop
  endfacet
  facet normal -0 0 1
    outer loop
      vertex 1.25 28.75 20
      vertex 2 2.25 20
      vertex 2 28.75 20
    endloop
  endfacet
  facet normal 0 0 1
    outer loop
      vertex 2 2.25 20
      vertex 1.25 28.75 20
      vertex 1.25 2.25 20
    endloop
  endfacet
  facet normal 1 -0 0
    outer loop
      vertex 2 -4 12.9
      vertex 2 -2.61436 4.8
      vertex 2 -2.61436 13.7
    endloop
  endfacet
  facet normal 1 0 0
    outer loop
      vertex 2 -4 12.9
      vertex 2 -4 5.6
      vertex 2 -2.61436 4.8
    endloop
  endfacet
  facet normal 1 0 0
    outer loop
      vertex 2 -5.38564 13.7
      vertex 2 -4 5.6
      vertex 2 -4 12.9
    endloop
  endfacet
  facet normal 1 0 0
    outer loop
      vertex 2 -4 5.6
      vertex 2 -5.38564 13.7
      vertex 2 -5.38564 4.8
    endloop
  endfacet
  facet normal 1 0 0
    outer loop
      vertex 2 -2.61436 13.7
      vertex 2 0 20
      vertex 2 -2.61436 15.3
    endloop
  endfacet
  facet normal 1 0 0
    outer loop
      vertex 2 0 20
      vertex 2 -4 16.1
      vertex 2 -2.61436 15.3
    endloop
  endfacet
  facet normal 1 -0 0
    outer loop
      vertex 2 -8.5 20
      vertex 2 -4 16.1
      vertex 2 0 20
    endloop
  endfacet
  facet normal 1 0 0
    outer loop
      vertex 2 -8.5 20
      vertex 2 -5.38564 13.7
      vertex 2 -5.38564 15.3
    endloop
  endfacet
  facet normal 1 0 0
    outer loop
      vertex 2 -5.38564 13.7
      vertex 2 -8.5 0
      vertex 2 -5.38564 4.8
    endloop
  endfacet
  facet normal 1 0 0
    outer loop
      vertex 2 -5.38564 13.7
      vertex 2 -8.5 20
      vertex 2 -8.5 0
    endloop
  endfacet
  facet normal 1 0 0
    outer loop
      vertex 2 -4 16.1
      vertex 2 -8.5 20
      vertex 2 -5.38564 15.3
    endloop
  endfacet
  facet normal 1 0 0
    outer loop
      vertex 2 0 20
      vertex 2 -2.61436 13.7
      vertex 2 0 0
    endloop
  endfacet
  facet normal 1 -0 0
    outer loop
      vertex 2 -2.61436 4.8
      vertex 2 0 0
      vertex 2 -2.61436 13.7
    endloop
  endfacet
  facet normal 1 -0 0
    outer loop
      vertex 2 -2.61436 3.2
      vertex 2 0 0
      vertex 2 -2.61436 4.8
    endloop
  endfacet
  facet normal 1 -0 0
    outer loop
      vertex 2 -4 2.4
      vertex 2 0 0
      vertex 2 -2.61436 3.2
    endloop
  endfacet
  facet normal 1 0 0
    outer loop
      vertex 2 -8.5 0
      vertex 2 -4 2.4
      vertex 2 -5.38564 3.2
    endloop
  endfacet
  facet normal 1 0 0
    outer loop
      vertex 2 -4 2.4
      vertex 2 -8.5 0
      vertex 2 0 0
    endloop
  endfacet
  facet normal 1 0 0
    outer loop
      vertex 2 -5.38564 4.8
      vertex 2 -8.5 0
      vertex 2 -5.38564 3.2
    endloop
  endfacet
  facet normal 1 -0 0
    outer loop
      vertex 2 35 12.9
      vertex 2 36.3856 4.8
      vertex 2 36.3856 13.7
    endloop
  endfacet
  facet normal 1 0 0
    outer loop
      vertex 2 35 12.9
      vertex 2 35 5.6
      vertex 2 36.3856 4.8
    endloop
  endfacet
  facet normal 1 0 0
    outer loop
      vertex 2 33.6144 13.7
      vertex 2 35 5.6
      vertex 2 35 12.9
    endloop
  endfacet
  facet normal 1 0 0
    outer loop
      vertex 2 35 5.6
      vertex 2 33.6144 13.7
      vertex 2 33.6144 4.8
    endloop
  endfacet
  facet normal 1 0 0
    outer loop
      vertex 2 36.3856 13.7
      vertex 2 39.5 20
      vertex 2 36.3856 15.3
    endloop
  endfacet
  facet normal 1 0 0
    outer loop
      vertex 2 39.5 20
      vertex 2 35 16.1
      vertex 2 36.3856 15.3
    endloop
  endfacet
  facet normal 1 -0 0
    outer loop
      vertex 2 31 20
      vertex 2 35 16.1
      vertex 2 39.5 20
    endloop
  endfacet
  facet normal 1 0 0
    outer loop
      vertex 2 31 20
      vertex 2 33.6144 13.7
      vertex 2 33.6144 15.3
    endloop
  endfacet
  facet normal 1 0 0
    outer loop
      vertex 2 33.6144 13.7
      vertex 2 31 0
      vertex 2 33.6144 4.8
    endloop
  endfacet
  facet normal 1 0 0
    outer loop
      vertex 2 33.6144 13.7
      vertex 2 31 20
      vertex 2 31 0
    endloop
  endfacet
  facet normal 1 0 0
    outer loop
      vertex 2 35 16.1
      vertex 2 31 20
      vertex 2 33.6144 15.3
    endloop
  endfacet
  facet normal 1 0 0
    outer loop
      vertex 2 39.5 20
      vertex 2 36.3856 13.7
      vertex 2 39.5 0
    endloop
  endfacet
  facet normal 1 -0 0
    outer loop
      vertex 2 36.3856 4.8
      vertex 2 39.5 0
      vertex 2 36.3856 13.7
    endloop
  endfacet
  facet normal 1 -0 0
    outer loop
      vertex 2 36.3856 3.2
      vertex 2 39.5 0
      vertex 2 36.3856 4.8
    endloop
  endfacet
  facet normal 1 -0 0
    outer loop
      vertex 2 35 2.4
      vertex 2 39.5 0
      vertex 2 36.3856 3.2
    endloop
  endfacet
  facet normal 1 0 0
    outer loop
      vertex 2 35 2.4
      vertex 2 31 0
      vertex 2 39.5 0
    endloop
  endfacet
  facet normal 1 0 0
    outer loop
      vertex 2 33.6144 3.2
      vertex 2 31 0
      vertex 2 35 2.4
    endloop
  endfacet
  facet normal 1 0 0
    outer loop
      vertex 2 33.6144 4.8
      vertex 2 31 0
      vertex 2 33.6144 3.2
    endloop
  endfacet
  facet normal 1 -0 0
    outer loop
      vertex 2 2.25 20
      vertex 2 28.75 0
      vertex 2 28.75 20
    endloop
  endfacet
  facet normal 1 0 0
    outer loop
      vertex 2 28.75 0
      vertex 2 2.25 20
      vertex 2 2.25 0
    endloop
  endfacet
  facet normal 0 1 -0
    outer loop
      vertex 2 39.5 0
      vertex 0 39.5 20
      vertex 2 39.5 20
    endloop
  endfacet
  facet normal 0 1 0
    outer loop
      vertex 0 39.5 20
      vertex 2 39.5 0
      vertex 0 39.5 0
    endloop
  endfacet
  facet normal 0 -1 0
    outer loop
      vertex 0 -8.5 0
      vertex 2 -8.5 20
      vertex 0 -8.5 20
    endloop
  endfacet
  facet normal 0 -1 -0
    outer loop
      vertex 2 -8.5 20
      vertex 0 -8.5 0
      vertex 2 -8.5 0
    endloop
  endfacet
  facet normal 0 -0.5 0.866025
    outer loop
      vertex 0 36.3856 13.7
      vertex 2 35 12.9
      vertex 2 36.3856 13.7
    endloop
  endfacet
  facet normal 0 -0.5 0.866025
    outer loop
      vertex 2 35 12.9
      vertex 0 36.3856 13.7
      vertex 0 35 12.9
    endloop
  endfacet
  facet normal 0 0.499999 -0.866026
    outer loop
      vertex 0 33.6144 15.3
      vertex 2 35 16.1
      vertex 2 33.6144 15.3
    endloop
  endfacet
  facet normal 0 0.499999 -0.866026
    outer loop
      vertex 2 35 16.1
      vertex 0 33.6144 15.3
      vertex 0 35 16.1
    endloop
  endfacet
  facet normal 0 -0.5 -0.866025
    outer loop
      vertex 0 35 16.1
      vertex 2 36.3856 15.3
      vertex 2 35 16.1
    endloop
  endfacet
  facet normal -0 -0.5 -0.866025
    outer loop
      vertex 2 36.3856 15.3
      vertex 0 35 16.1
      vertex 0 36.3856 15.3
    endloop
  endfacet
  facet normal 0 -1 0
    outer loop
      vertex 0 36.3856 13.7
      vertex 2 36.3856 15.3
      vertex 0 36.3856 15.3
    endloop
  endfacet
  facet normal 0 -1 -0
    outer loop
      vertex 2 36.3856 15.3
      vertex 0 36.3856 13.7
      vertex 2 36.3856 13.7
    endloop
  endfacet
  facet normal -0 0.499999 0.866026
    outer loop
      vertex 0 35 12.9
      vertex 2 33.6144 13.7
      vertex 2 35 12.9
    endloop
  endfacet
  facet normal 0 0.499999 0.866026
    outer loop
      vertex 2 33.6144 13.7
      vertex 0 35 12.9
      vertex 0 33.6144 13.7
    endloop
  endfacet
  facet normal 0 1 -0
    outer loop
      vertex 2 33.6144 13.7
      vertex 0 33.6144 15.3
      vertex 2 33.6144 15.3
    endloop
  endfacet
  facet normal 0 1 0
    outer loop
      vertex 0 33.6144 15.3
      vertex 2 33.6144 13.7
      vertex 0 33.6144 13.7
    endloop
  endfacet
  facet normal 0 -0.5 0.866025
    outer loop
      vertex 0 36.3856 3.2
      vertex 2 35 2.4
      vertex 2 36.3856 3.2
    endloop
  endfacet
  facet normal 0 -0.5 0.866025
    outer loop
      vertex 2 35 2.4
      vertex 0 36.3856 3.2
      vertex 0 35 2.4
    endloop
  endfacet
  facet normal 0 0.499999 -0.866026
    outer loop
      vertex 0 33.6144 4.8
      vertex 2 35 5.6
      vertex 2 33.6144 4.8
    endloop
  endfacet
  facet normal 0 0.499999 -0.866026
    outer loop
      vertex 2 35 5.6
      vertex 0 33.6144 4.8
      vertex 0 35 5.6
    endloop
  endfacet
  facet normal 0 -0.5 -0.866025
    outer loop
      vertex 0 35 5.6
      vertex 2 36.3856 4.8
      vertex 2 35 5.6
    endloop
  endfacet
  facet normal -0 -0.5 -0.866025
    outer loop
      vertex 2 36.3856 4.8
      vertex 0 35 5.6
      vertex 0 36.3856 4.8
    endloop
  endfacet
  facet normal 0 -1 0
    outer loop
      vertex 0 36.3856 3.2
      vertex 2 36.3856 4.8
      vertex 0 36.3856 4.8
    endloop
  endfacet
  facet normal 0 -1 -0
    outer loop
      vertex 2 36.3856 4.8
      vertex 0 36.3856 3.2
      vertex 2 36.3856 3.2
    endloop
  endfacet
  facet normal -0 0.499999 0.866026
    outer loop
      vertex 0 35 2.4
      vertex 2 33.6144 3.2
      vertex 2 35 2.4
    endloop
  endfacet
  facet normal 0 0.499999 0.866026
    outer loop
      vertex 2 33.6144 3.2
      vertex 0 35 2.4
      vertex 0 33.6144 3.2
    endloop
  endfacet
  facet normal 0 1 -0
    outer loop
      vertex 2 33.6144 3.2
      vertex 0 33.6144 4.8
      vertex 2 33.6144 4.8
    endloop
  endfacet
  facet normal 0 1 0
    outer loop
      vertex 0 33.6144 4.8
      vertex 2 33.6144 3.2
      vertex 0 33.6144 3.2
    endloop
  endfacet
  facet normal 0 -0.5 0.866025
    outer loop
      vertex 0 -2.61436 13.7
      vertex 2 -4 12.9
      vertex 2 -2.61436 13.7
    endloop
  endfacet
  facet normal 0 -0.5 0.866025
    outer loop
      vertex 2 -4 12.9
      vertex 0 -2.61436 13.7
      vertex 0 -4 12.9
    endloop
  endfacet
  facet normal 0 -0.5 -0.866026
    outer loop
      vertex 0 -4 16.1
      vertex 2 -2.61436 15.3
      vertex 2 -4 16.1
    endloop
  endfacet
  facet normal -0 -0.5 -0.866026
    outer loop
      vertex 2 -2.61436 15.3
      vertex 0 -4 16.1
      vertex 0 -2.61436 15.3
    endloop
  endfacet
  facet normal 0 -1 0
    outer loop
      vertex 0 -2.61436 13.7
      vertex 2 -2.61436 15.3
      vertex 0 -2.61436 15.3
    endloop
  endfacet
  facet normal 0 -1 -0
    outer loop
      vertex 2 -2.61436 15.3
      vertex 0 -2.61436 13.7
      vertex 2 -2.61436 13.7
    endloop
  endfacet
  facet normal -0 0.5 0.866025
    outer loop
      vertex 0 -4 12.9
      vertex 2 -5.38564 13.7
      vertex 2 -4 12.9
    endloop
  endfacet
  facet normal 0 0.5 0.866025
    outer loop
      vertex 2 -5.38564 13.7
      vertex 0 -4 12.9
      vertex 0 -5.38564 13.7
    endloop
  endfacet
  facet normal 0 1 -0
    outer loop
      vertex 2 -5.38564 13.7
      vertex 0 -5.38564 15.3
      vertex 2 -5.38564 15.3
    endloop
  endfacet
  facet normal 0 1 0
    outer loop
      vertex 0 -5.38564 15.3
      vertex 2 -5.38564 13.7
      vertex 0 -5.38564 13.7
    endloop
  endfacet
  facet normal 0 0.5 -0.866026
    outer loop
      vertex 0 -5.38564 15.3
      vertex 2 -4 16.1
      vertex 2 -5.38564 15.3
    endloop
  endfacet
  facet normal 0 0.5 -0.866026
    outer loop
      vertex 2 -4 16.1
      vertex 0 -5.38564 15.3
      vertex 0 -4 16.1
    endloop
  endfacet
  facet normal 0 -0.5 0.866025
    outer loop
      vertex 0 -2.61436 3.2
      vertex 2 -4 2.4
      vertex 2 -2.61436 3.2
    endloop
  endfacet
  facet normal 0 -0.5 0.866025
    outer loop
      vertex 2 -4 2.4
      vertex 0 -2.61436 3.2
      vertex 0 -4 2.4
    endloop
  endfacet
  facet normal 0 -0.5 -0.866025
    outer loop
      vertex 0 -4 5.6
      vertex 2 -2.61436 4.8
      vertex 2 -4 5.6
    endloop
  endfacet
  facet normal -0 -0.5 -0.866025
    outer loop
      vertex 2 -2.61436 4.8
      vertex 0 -4 5.6
      vertex 0 -2.61436 4.8
    endloop
  endfacet
  facet normal 0 -1 0
    outer loop
      vertex 0 -2.61436 3.2
      vertex 2 -2.61436 4.8
      vertex 0 -2.61436 4.8
    endloop
  endfacet
  facet normal 0 -1 -0
    outer loop
      vertex 2 -2.61436 4.8
      vertex 0 -2.61436 3.2
      vertex 2 -2.61436 3.2
    endloop
  endfacet
  facet normal -0 0.5 0.866025
    outer loop
      vertex 0 -4 2.4
      vertex 2 -5.38564 3.2
      vertex 2 -4 2.4
    endloop
  endfacet
  facet normal 0 0.5 0.866025
    outer loop
      vertex 2 -5.38564 3.2
      vertex 0 -4 2.4
      vertex 0 -5.38564 3.2
    endloop
  endfacet
  facet normal 0 1 -0
    outer loop
      vertex 2 -5.38564 3.2
      vertex 0 -5.38564 4.8
      vertex 2 -5.38564 4.8
    endloop
  endfacet
  facet normal 0 1 0
    outer loop
      vertex 0 -5.38564 4.8
      vertex 2 -5.38564 3.2
      vertex 0 -5.38564 3.2
    endloop
  endfacet
  facet normal 0 0.5 -0.866025
    outer loop
      vertex 0 -5.38564 4.8
      vertex 2 -4 5.6
      vertex 2 -5.38564 4.8
    endloop
  endfacet
  facet normal 0 0.5 -0.866025
    outer loop
      vertex 2 -4 5.6
      vertex 0 -5.38564 4.8
      vertex 0 -4 5.6
    endloop
  endfacet
endsolid OpenSCAD_Model
