solid OpenSCAD_Model
  facet normal -1 0 0
    outer loop
      vertex -22 -10 2.22045e-015
      vertex -22 -13 5
      vertex -22 -10 12
    endloop
  endfacet
  facet normal -1 0 0
    outer loop
      vertex -22 -45 9.99201e-015
      vertex -22 -13 5
      vertex -22 -10 2.22045e-015
    endloop
  endfacet
  facet normal -1 -0 0
    outer loop
      vertex -22 -13 5
      vertex -22 -45 9.99201e-015
      vertex -22 -45 5
    endloop
  endfacet
  facet normal -1 -0 0
    outer loop
      vertex -22 -10 12
      vertex -22 -13 5
      vertex -22 -13 12
    endloop
  endfacet
  facet normal 0 -1 0
    outer loop
      vertex 59.247 -13 3.43634
      vertex 64 -13 5
      vertex 60 -13 5
    endloop
  endfacet
  facet normal 0 -1 0
    outer loop
      vertex 59.247 -13 3.43634
      vertex 64 -13 2.88658e-015
      vertex 64 -13 5
    endloop
  endfacet
  facet normal 0 -1 0
    outer loop
      vertex 57.555 -13 3.05014
      vertex 64 -13 2.88658e-015
      vertex 59.247 -13 3.43634
    endloop
  endfacet
  facet normal 0 -1 0
    outer loop
      vertex 64 -13 2.88658e-015
      vertex 57.555 -13 3.05014
      vertex -8 -13 2.88658e-015
    endloop
  endfacet
  facet normal 0 -1 0
    outer loop
      vertex -0.753021 -13 6.56366
      vertex 57.555 -13 6.94986
      vertex -2.44504 -13 6.94986
    endloop
  endfacet
  facet normal 0 -1 0
    outer loop
      vertex -0.753021 -13 6.56366
      vertex 56.1981 -13 5.86777
      vertex 57.555 -13 6.94986
    endloop
  endfacet
  facet normal 0 -1 0
    outer loop
      vertex 0 -13 5
      vertex 56.1981 -13 5.86777
      vertex -0.753021 -13 6.56366
    endloop
  endfacet
  facet normal 0 -1 0
    outer loop
      vertex 0 -13 5
      vertex 56.1981 -13 4.13223
      vertex 56.1981 -13 5.86777
    endloop
  endfacet
  facet normal 0 -1 0
    outer loop
      vertex -0.753021 -13 3.43634
      vertex 56.1981 -13 4.13223
      vertex 0 -13 5
    endloop
  endfacet
  facet normal 0 -1 0
    outer loop
      vertex -8 -13 2.88658e-015
      vertex -0.753021 -13 3.43634
      vertex -2.44504 -13 3.05014
    endloop
  endfacet
  facet normal 0 -1 0
    outer loop
      vertex -0.753021 -13 3.43634
      vertex 57.555 -13 3.05014
      vertex 56.1981 -13 4.13223
    endloop
  endfacet
  facet normal 0 -1 0
    outer loop
      vertex 57.555 -13 6.94986
      vertex -22 -13 12
      vertex -2.44504 -13 6.94986
    endloop
  endfacet
  facet normal 0 -1 0
    outer loop
      vertex -8 -13 5
      vertex -2.44504 -13 6.94986
      vertex -22 -13 12
    endloop
  endfacet
  facet normal 0 -1 0
    outer loop
      vertex -8 -13 5
      vertex -22 -13 12
      vertex -22 -13 5
    endloop
  endfacet
  facet normal 0 -1 0
    outer loop
      vertex -2.44504 -13 6.94986
      vertex -8 -13 5
      vertex -3.80194 -13 5.86777
    endloop
  endfacet
  facet normal 0 -1 0
    outer loop
      vertex -8 -13 5
      vertex -3.80194 -13 4.13223
      vertex -3.80194 -13 5.86777
    endloop
  endfacet
  facet normal 0 -1 0
    outer loop
      vertex -8 -13 2.88658e-015
      vertex -3.80194 -13 4.13223
      vertex -8 -13 5
    endloop
  endfacet
  facet normal 0 -1 -0
    outer loop
      vertex -0.753021 -13 3.43634
      vertex -8 -13 2.88658e-015
      vertex 57.555 -13 3.05014
    endloop
  endfacet
  facet normal 0 -1 -0
    outer loop
      vertex -3.80194 -13 4.13223
      vertex -8 -13 2.88658e-015
      vertex -2.44504 -13 3.05014
    endloop
  endfacet
  facet normal 0 -1 0
    outer loop
      vertex -22 -13 12
      vertex 57.555 -13 6.94986
      vertex 78 -13 12
    endloop
  endfacet
  facet normal 0 -1 0
    outer loop
      vertex 59.247 -13 6.56366
      vertex 78 -13 12
      vertex 57.555 -13 6.94986
    endloop
  endfacet
  facet normal 0 -1 0
    outer loop
      vertex 64 -13 5
      vertex 59.247 -13 6.56366
      vertex 60 -13 5
    endloop
  endfacet
  facet normal 0 -1 0
    outer loop
      vertex 59.247 -13 6.56366
      vertex 64 -13 5
      vertex 78 -13 12
    endloop
  endfacet
  facet normal 0 -1 -0
    outer loop
      vertex 78 -13 12
      vertex 64 -13 5
      vertex 78 -13 5
    endloop
  endfacet
  facet normal 1 0 0
    outer loop
      vertex 78 -13 5
      vertex 78 -10 12
      vertex 78 -13 12
    endloop
  endfacet
  facet normal 1 0 0
    outer loop
      vertex 78 -10 12
      vertex 78 -13 5
      vertex 78 -10 2.22045e-015
    endloop
  endfacet
  facet normal 1 0 0
    outer loop
      vertex 78 -45 9.99201e-015
      vertex 78 -13 5
      vertex 78 -45 5
    endloop
  endfacet
  facet normal 1 0 0
    outer loop
      vertex 78 -13 5
      vertex 78 -45 9.99201e-015
      vertex 78 -10 2.22045e-015
    endloop
  endfacet
  facet normal -0 0 1
    outer loop
      vertex -22 -10 12
      vertex 78 -13 12
      vertex 78 -10 12
    endloop
  endfacet
  facet normal 0 0 1
    outer loop
      vertex 78 -13 12
      vertex -22 -10 12
      vertex -22 -13 12
    endloop
  endfacet
  facet normal 0 1 0
    outer loop
      vertex 57.555 -10 6.94986
      vertex -0.753021 -10 6.56366
      vertex -2.44504 -10 6.94986
    endloop
  endfacet
  facet normal 0 1 -0
    outer loop
      vertex 56.1981 -10 5.86777
      vertex -0.753021 -10 6.56366
      vertex 57.555 -10 6.94986
    endloop
  endfacet
  facet normal 0 1 0
    outer loop
      vertex 56.1981 -10 5.86777
      vertex 0 -10 5
      vertex -0.753021 -10 6.56366
    endloop
  endfacet
  facet normal 0 1 -0
    outer loop
      vertex 56.1981 -10 4.13223
      vertex 0 -10 5
      vertex 56.1981 -10 5.86777
    endloop
  endfacet
  facet normal 0 1 0
    outer loop
      vertex 56.1981 -10 4.13223
      vertex -0.753021 -10 3.43634
      vertex 0 -10 5
    endloop
  endfacet
  facet normal 0 1 0
    outer loop
      vertex 57.555 -10 3.05014
      vertex -0.753021 -10 3.43634
      vertex 56.1981 -10 4.13223
    endloop
  endfacet
  facet normal 0 1 0
    outer loop
      vertex -0.753021 -10 3.43634
      vertex 57.555 -10 3.05014
      vertex -2.44504 -10 3.05014
    endloop
  endfacet
  facet normal 0 1 0
    outer loop
      vertex 78 -10 12
      vertex 57.555 -10 6.94986
      vertex -22 -10 12
    endloop
  endfacet
  facet normal 0 1 0
    outer loop
      vertex 78 -10 12
      vertex 59.247 -10 6.56366
      vertex 57.555 -10 6.94986
    endloop
  endfacet
  facet normal 0 1 0
    outer loop
      vertex 78 -10 12
      vertex 60 -10 5
      vertex 59.247 -10 6.56366
    endloop
  endfacet
  facet normal 0 1 -0
    outer loop
      vertex 78 -10 2.22045e-015
      vertex 60 -10 5
      vertex 78 -10 12
    endloop
  endfacet
  facet normal 0 1 0
    outer loop
      vertex 57.555 -10 3.05014
      vertex 78 -10 2.22045e-015
      vertex -2.44504 -10 3.05014
    endloop
  endfacet
  facet normal 0 1 0
    outer loop
      vertex 59.247 -10 3.43634
      vertex 78 -10 2.22045e-015
      vertex 57.555 -10 3.05014
    endloop
  endfacet
  facet normal 0 1 0
    outer loop
      vertex 60 -10 5
      vertex 78 -10 2.22045e-015
      vertex 59.247 -10 3.43634
    endloop
  endfacet
  facet normal 0 1 -0
    outer loop
      vertex -2.44504 -10 6.94986
      vertex -22 -10 12
      vertex 57.555 -10 6.94986
    endloop
  endfacet
  facet normal 0 1 -0
    outer loop
      vertex -3.80194 -10 5.86777
      vertex -22 -10 12
      vertex -2.44504 -10 6.94986
    endloop
  endfacet
  facet normal 0 1 0
    outer loop
      vertex -22 -10 2.22045e-015
      vertex -3.80194 -10 5.86777
      vertex -3.80194 -10 4.13223
    endloop
  endfacet
  facet normal 0 1 0
    outer loop
      vertex -22 -10 2.22045e-015
      vertex -3.80194 -10 4.13223
      vertex -2.44504 -10 3.05014
    endloop
  endfacet
  facet normal 0 1 0
    outer loop
      vertex -3.80194 -10 5.86777
      vertex -22 -10 2.22045e-015
      vertex -22 -10 12
    endloop
  endfacet
  facet normal 0 1 0
    outer loop
      vertex -22 -10 2.22045e-015
      vertex -2.44504 -10 3.05014
      vertex 78 -10 2.22045e-015
    endloop
  endfacet
  facet normal 0 -2.22045e-016 -1
    outer loop
      vertex -8 -45 9.99201e-015
      vertex -10.9 -36 7.99361e-015
      vertex -8 -13 2.88658e-015
    endloop
  endfacet
  facet normal 0 -2.22045e-016 -1
    outer loop
      vertex -8 -45 9.99201e-015
      vertex -11.3696 -37.9054 8.41668e-015
      vertex -10.9 -36 7.99361e-015
    endloop
  endfacet
  facet normal 0 -2.22045e-016 -1
    outer loop
      vertex -8 -45 9.99201e-015
      vertex -12.6709 -39.3742 8.74284e-015
      vertex -11.3696 -37.9054 8.41668e-015
    endloop
  endfacet
  facet normal 0 -2.22045e-016 -1
    outer loop
      vertex -8 -45 9.99201e-015
      vertex -14.5058 -40.0701 8.89735e-015
      vertex -12.6709 -39.3742 8.74284e-015
    endloop
  endfacet
  facet normal 0 -2.22045e-016 -1
    outer loop
      vertex -22 -45 9.99201e-015
      vertex -14.5058 -40.0701 8.89735e-015
      vertex -8 -45 9.99201e-015
    endloop
  endfacet
  facet normal 0 -2.22045e-016 -1
    outer loop
      vertex -18.9809 -36.9812 8.21147e-015
      vertex -22 -45 9.99201e-015
      vertex -18.9809 -35.0188 7.77574e-015
    endloop
  endfacet
  facet normal 0 -2.22045e-016 -1
    outer loop
      vertex -18.0689 -38.7188 8.5973e-015
      vertex -22 -45 9.99201e-015
      vertex -18.9809 -36.9812 8.21147e-015
    endloop
  endfacet
  facet normal 0 -2.22045e-016 -1
    outer loop
      vertex -16.4539 -39.8336 8.84483e-015
      vertex -22 -45 9.99201e-015
      vertex -18.0689 -38.7188 8.5973e-015
    endloop
  endfacet
  facet normal 0 -2.22045e-016 -1
    outer loop
      vertex -14.5058 -40.0701 8.89735e-015
      vertex -22 -45 9.99201e-015
      vertex -16.4539 -39.8336 8.84483e-015
    endloop
  endfacet
  facet normal 0 -2.22045e-016 -1
    outer loop
      vertex 78 -45 9.99201e-015
      vertex 75.1 -36 7.99361e-015
      vertex 78 -10 2.22045e-015
    endloop
  endfacet
  facet normal 0 -2.22045e-016 -1
    outer loop
      vertex 78 -45 9.99201e-015
      vertex 74.6304 -37.9054 8.41668e-015
      vertex 75.1 -36 7.99361e-015
    endloop
  endfacet
  facet normal 0 -2.22045e-016 -1
    outer loop
      vertex 78 -45 9.99201e-015
      vertex 73.3291 -39.3742 8.74284e-015
      vertex 74.6304 -37.9054 8.41668e-015
    endloop
  endfacet
  facet normal 0 -2.22045e-016 -1
    outer loop
      vertex 78 -45 9.99201e-015
      vertex 71.4942 -40.0701 8.89735e-015
      vertex 73.3291 -39.3742 8.74284e-015
    endloop
  endfacet
  facet normal 0 -2.22045e-016 -1
    outer loop
      vertex 64 -45 9.99201e-015
      vertex 71.4942 -40.0701 8.89735e-015
      vertex 78 -45 9.99201e-015
    endloop
  endfacet
  facet normal 0 -2.22045e-016 -1
    outer loop
      vertex 67.0191 -36.9812 8.21147e-015
      vertex 64 -45 9.99201e-015
      vertex 67.0191 -35.0188 7.77574e-015
    endloop
  endfacet
  facet normal 0 -2.22045e-016 -1
    outer loop
      vertex 67.9311 -38.7188 8.5973e-015
      vertex 64 -45 9.99201e-015
      vertex 67.0191 -36.9812 8.21147e-015
    endloop
  endfacet
  facet normal 0 -2.22045e-016 -1
    outer loop
      vertex 69.5461 -39.8336 8.84483e-015
      vertex 64 -45 9.99201e-015
      vertex 67.9311 -38.7188 8.5973e-015
    endloop
  endfacet
  facet normal 0 -2.22045e-016 -1
    outer loop
      vertex 71.4942 -40.0701 8.89735e-015
      vertex 64 -45 9.99201e-015
      vertex 69.5461 -39.8336 8.84483e-015
    endloop
  endfacet
  facet normal 0 -2.22045e-016 -1
    outer loop
      vertex 74.6304 -34.0946 7.57053e-015
      vertex 78 -10 2.22045e-015
      vertex 75.1 -36 7.99361e-015
    endloop
  endfacet
  facet normal 0 -2.22045e-016 -1
    outer loop
      vertex 73.3291 -32.6258 7.24438e-015
      vertex 78 -10 2.22045e-015
      vertex 74.6304 -34.0946 7.57053e-015
    endloop
  endfacet
  facet normal 0 -2.22045e-016 -1
    outer loop
      vertex 71.4942 -31.9299 7.08986e-015
      vertex 78 -10 2.22045e-015
      vertex 73.3291 -32.6258 7.24438e-015
    endloop
  endfacet
  facet normal 0 -2.22045e-016 -1
    outer loop
      vertex 64 -13 2.88658e-015
      vertex 71.4942 -31.9299 7.08986e-015
      vertex 69.5461 -32.1664 7.14238e-015
    endloop
  endfacet
  facet normal 0 -2.22045e-016 -1
    outer loop
      vertex 64 -13 2.88658e-015
      vertex 69.5461 -32.1664 7.14238e-015
      vertex 67.9311 -33.2812 7.38991e-015
    endloop
  endfacet
  facet normal 0 -2.22045e-016 -1
    outer loop
      vertex 64 -13 2.88658e-015
      vertex 67.9311 -33.2812 7.38991e-015
      vertex 67.0191 -35.0188 7.77574e-015
    endloop
  endfacet
  facet normal 0 -2.22045e-016 -1
    outer loop
      vertex 64 -13 2.88658e-015
      vertex 67.0191 -35.0188 7.77574e-015
      vertex 64 -45 9.99201e-015
    endloop
  endfacet
  facet normal 0 -2.22045e-016 -1
    outer loop
      vertex 71.4942 -31.9299 7.08986e-015
      vertex 64 -13 2.88658e-015
      vertex 78 -10 2.22045e-015
    endloop
  endfacet
  facet normal 0 -2.22045e-016 -1
    outer loop
      vertex -8 -13 2.88658e-015
      vertex 78 -10 2.22045e-015
      vertex 64 -13 2.88658e-015
    endloop
  endfacet
  facet normal 0 -2.22045e-016 -1
    outer loop
      vertex -11.3696 -34.0946 7.57053e-015
      vertex -8 -13 2.88658e-015
      vertex -10.9 -36 7.99361e-015
    endloop
  endfacet
  facet normal 0 -2.22045e-016 -1
    outer loop
      vertex -12.6709 -32.6258 7.24438e-015
      vertex -8 -13 2.88658e-015
      vertex -11.3696 -34.0946 7.57053e-015
    endloop
  endfacet
  facet normal 0 -2.22045e-016 -1
    outer loop
      vertex -14.5058 -31.9299 7.08986e-015
      vertex -8 -13 2.88658e-015
      vertex -12.6709 -32.6258 7.24438e-015
    endloop
  endfacet
  facet normal 0 -2.22045e-016 -1
    outer loop
      vertex -16.4539 -32.1664 7.14238e-015
      vertex -8 -13 2.88658e-015
      vertex -14.5058 -31.9299 7.08986e-015
    endloop
  endfacet
  facet normal 0 -2.22045e-016 -1
    outer loop
      vertex -22 -10 2.22045e-015
      vertex -16.4539 -32.1664 7.14238e-015
      vertex -18.0689 -33.2812 7.38991e-015
    endloop
  endfacet
  facet normal 0 -2.22045e-016 -1
    outer loop
      vertex -22 -10 2.22045e-015
      vertex -18.0689 -33.2812 7.38991e-015
      vertex -18.9809 -35.0188 7.77574e-015
    endloop
  endfacet
  facet normal 0 -2.22045e-016 -1
    outer loop
      vertex -8 -13 2.88658e-015
      vertex -22 -10 2.22045e-015
      vertex 78 -10 2.22045e-015
    endloop
  endfacet
  facet normal 0 -2.22045e-016 -1
    outer loop
      vertex -16.4539 -32.1664 7.14238e-015
      vertex -22 -10 2.22045e-015
      vertex -8 -13 2.88658e-015
    endloop
  endfacet
  facet normal 0 -2.22045e-016 -1
    outer loop
      vertex -22 -10 2.22045e-015
      vertex -18.9809 -35.0188 7.77574e-015
      vertex -22 -45 9.99201e-015
    endloop
  endfacet
  facet normal -0.900969 0 -0.433884
    outer loop
      vertex 0 -13 5
      vertex -0.753021 -10 6.56366
      vertex 0 -10 5
    endloop
  endfacet
  facet normal -0.900969 -0 -0.433884
    outer loop
      vertex -0.753021 -10 6.56366
      vertex 0 -13 5
      vertex -0.753021 -13 6.56366
    endloop
  endfacet
  facet normal 1 -0 0
    outer loop
      vertex -3.80194 -13 5.86777
      vertex -3.80194 -10 4.13223
      vertex -3.80194 -10 5.86777
    endloop
  endfacet
  facet normal 1 0 0
    outer loop
      vertex -3.80194 -10 4.13223
      vertex -3.80194 -13 5.86777
      vertex -3.80194 -13 4.13223
    endloop
  endfacet
  facet normal -0.222521 0 -0.974928
    outer loop
      vertex -2.44504 -13 6.94986
      vertex -0.753021 -10 6.56366
      vertex -0.753021 -13 6.56366
    endloop
  endfacet
  facet normal -0.222521 0 -0.974928
    outer loop
      vertex -0.753021 -10 6.56366
      vertex -2.44504 -13 6.94986
      vertex -2.44504 -10 6.94986
    endloop
  endfacet
  facet normal 0.62349 0 0.781831
    outer loop
      vertex -3.80194 -10 4.13223
      vertex -2.44504 -13 3.05014
      vertex -2.44504 -10 3.05014
    endloop
  endfacet
  facet normal 0.62349 0 0.781831
    outer loop
      vertex -2.44504 -13 3.05014
      vertex -3.80194 -10 4.13223
      vertex -3.80194 -13 4.13223
    endloop
  endfacet
  facet normal 0.62349 0 -0.781831
    outer loop
      vertex -3.80194 -13 5.86777
      vertex -2.44504 -10 6.94986
      vertex -2.44504 -13 6.94986
    endloop
  endfacet
  facet normal 0.62349 0 -0.781831
    outer loop
      vertex -2.44504 -10 6.94986
      vertex -3.80194 -13 5.86777
      vertex -3.80194 -10 5.86777
    endloop
  endfacet
  facet normal -0.900969 0 0.433884
    outer loop
      vertex -0.753021 -13 3.43634
      vertex 0 -10 5
      vertex -0.753021 -10 3.43634
    endloop
  endfacet
  facet normal -0.900969 0 0.433884
    outer loop
      vertex 0 -10 5
      vertex -0.753021 -13 3.43634
      vertex 0 -13 5
    endloop
  endfacet
  facet normal -0.222521 0 0.974928
    outer loop
      vertex -2.44504 -10 3.05014
      vertex -0.753021 -13 3.43634
      vertex -0.753021 -10 3.43634
    endloop
  endfacet
  facet normal -0.222521 0 0.974928
    outer loop
      vertex -0.753021 -13 3.43634
      vertex -2.44504 -10 3.05014
      vertex -2.44504 -13 3.05014
    endloop
  endfacet
  facet normal -0.900969 0 -0.433884
    outer loop
      vertex 60 -13 5
      vertex 59.247 -10 6.56366
      vertex 60 -10 5
    endloop
  endfacet
  facet normal -0.900969 -0 -0.433884
    outer loop
      vertex 59.247 -10 6.56366
      vertex 60 -13 5
      vertex 59.247 -13 6.56366
    endloop
  endfacet
  facet normal 1 -0 0
    outer loop
      vertex 56.1981 -13 5.86777
      vertex 56.1981 -10 4.13223
      vertex 56.1981 -10 5.86777
    endloop
  endfacet
  facet normal 1 0 0
    outer loop
      vertex 56.1981 -10 4.13223
      vertex 56.1981 -13 5.86777
      vertex 56.1981 -13 4.13223
    endloop
  endfacet
  facet normal -0.222521 0 -0.974928
    outer loop
      vertex 57.555 -13 6.94986
      vertex 59.247 -10 6.56366
      vertex 59.247 -13 6.56366
    endloop
  endfacet
  facet normal -0.222521 0 -0.974928
    outer loop
      vertex 59.247 -10 6.56366
      vertex 57.555 -13 6.94986
      vertex 57.555 -10 6.94986
    endloop
  endfacet
  facet normal 0.62349 0 0.781831
    outer loop
      vertex 56.1981 -10 4.13223
      vertex 57.555 -13 3.05014
      vertex 57.555 -10 3.05014
    endloop
  endfacet
  facet normal 0.62349 0 0.781831
    outer loop
      vertex 57.555 -13 3.05014
      vertex 56.1981 -10 4.13223
      vertex 56.1981 -13 4.13223
    endloop
  endfacet
  facet normal 0.62349 0 -0.781831
    outer loop
      vertex 56.1981 -13 5.86777
      vertex 57.555 -10 6.94986
      vertex 57.555 -13 6.94986
    endloop
  endfacet
  facet normal 0.62349 0 -0.781831
    outer loop
      vertex 57.555 -10 6.94986
      vertex 56.1981 -13 5.86777
      vertex 56.1981 -10 5.86777
    endloop
  endfacet
  facet normal -0.900969 0 0.433884
    outer loop
      vertex 59.247 -13 3.43634
      vertex 60 -10 5
      vertex 59.247 -10 3.43634
    endloop
  endfacet
  facet normal -0.900969 0 0.433884
    outer loop
      vertex 60 -10 5
      vertex 59.247 -13 3.43634
      vertex 60 -13 5
    endloop
  endfacet
  facet normal -0.222521 0 0.974928
    outer loop
      vertex 57.555 -10 3.05014
      vertex 59.247 -13 3.43634
      vertex 59.247 -10 3.43634
    endloop
  endfacet
  facet normal -0.222521 0 0.974928
    outer loop
      vertex 59.247 -13 3.43634
      vertex 57.555 -10 3.05014
      vertex 57.555 -13 3.05014
    endloop
  endfacet
  facet normal 0 -1 0
    outer loop
      vertex -22 -45 9.99201e-015
      vertex -8 -45 5
      vertex -22 -45 5
    endloop
  endfacet
  facet normal 0 -1 -0
    outer loop
      vertex -8 -45 5
      vertex -22 -45 9.99201e-015
      vertex -8 -45 9.99201e-015
    endloop
  endfacet
  facet normal 1 -0 0
    outer loop
      vertex -8 -45 5
      vertex -8 -13 2.88658e-015
      vertex -8 -13 5
    endloop
  endfacet
  facet normal 1 0 0
    outer loop
      vertex -8 -13 2.88658e-015
      vertex -8 -45 5
      vertex -8 -45 9.99201e-015
    endloop
  endfacet
  facet normal 0 0 1
    outer loop
      vertex -8 -13 5
      vertex -8.9 -36 5
      vertex -8 -45 5
    endloop
  endfacet
  facet normal 0 0 1
    outer loop
      vertex -8 -13 5
      vertex -9.19856 -34.115 5
      vertex -8.9 -36 5
    endloop
  endfacet
  facet normal 0 0 1
    outer loop
      vertex -8 -13 5
      vertex -10.065 -32.4145 5
      vertex -9.19856 -34.115 5
    endloop
  endfacet
  facet normal 0 0 1
    outer loop
      vertex -8 -13 5
      vertex -11.4145 -31.065 5
      vertex -10.065 -32.4145 5
    endloop
  endfacet
  facet normal 0 0 1
    outer loop
      vertex -8 -13 5
      vertex -13.115 -30.1986 5
      vertex -11.4145 -31.065 5
    endloop
  endfacet
  facet normal 0 0 1
    outer loop
      vertex -8 -13 5
      vertex -15 -29.9 5
      vertex -13.115 -30.1986 5
    endloop
  endfacet
  facet normal -0 0 1
    outer loop
      vertex -22 -13 5
      vertex -15 -29.9 5
      vertex -8 -13 5
    endloop
  endfacet
  facet normal 0 0 1
    outer loop
      vertex -15 -29.9 5
      vertex -22 -13 5
      vertex -16.885 -30.1986 5
    endloop
  endfacet
  facet normal 0 0 1
    outer loop
      vertex -16.885 -30.1986 5
      vertex -22 -13 5
      vertex -18.5855 -31.065 5
    endloop
  endfacet
  facet normal 0 0 1
    outer loop
      vertex -20.8014 -34.115 5
      vertex -22 -13 5
      vertex -21.1 -36 5
    endloop
  endfacet
  facet normal 0 0 1
    outer loop
      vertex -19.935 -32.4145 5
      vertex -22 -13 5
      vertex -20.8014 -34.115 5
    endloop
  endfacet
  facet normal 0 0 1
    outer loop
      vertex -18.5855 -31.065 5
      vertex -22 -13 5
      vertex -19.935 -32.4145 5
    endloop
  endfacet
  facet normal -0 0 1
    outer loop
      vertex -9.19856 -37.885 5
      vertex -8 -45 5
      vertex -8.9 -36 5
    endloop
  endfacet
  facet normal -0 0 1
    outer loop
      vertex -10.065 -39.5855 5
      vertex -8 -45 5
      vertex -9.19856 -37.885 5
    endloop
  endfacet
  facet normal -0 0 1
    outer loop
      vertex -11.4145 -40.935 5
      vertex -8 -45 5
      vertex -10.065 -39.5855 5
    endloop
  endfacet
  facet normal -0 0 1
    outer loop
      vertex -13.115 -41.8014 5
      vertex -8 -45 5
      vertex -11.4145 -40.935 5
    endloop
  endfacet
  facet normal -0 0 1
    outer loop
      vertex -15 -42.1 5
      vertex -8 -45 5
      vertex -13.115 -41.8014 5
    endloop
  endfacet
  facet normal 0 0 1
    outer loop
      vertex -22 -45 5
      vertex -15 -42.1 5
      vertex -16.885 -41.8014 5
    endloop
  endfacet
  facet normal 0 0 1
    outer loop
      vertex -15 -42.1 5
      vertex -22 -45 5
      vertex -8 -45 5
    endloop
  endfacet
  facet normal 0 0 1
    outer loop
      vertex -18.5855 -40.935 5
      vertex -22 -45 5
      vertex -16.885 -41.8014 5
    endloop
  endfacet
  facet normal 0 0 1
    outer loop
      vertex -19.935 -39.5855 5
      vertex -22 -45 5
      vertex -18.5855 -40.935 5
    endloop
  endfacet
  facet normal 0 0 1
    outer loop
      vertex -20.8014 -37.885 5
      vertex -22 -45 5
      vertex -19.935 -39.5855 5
    endloop
  endfacet
  facet normal 0 0 1
    outer loop
      vertex -21.1 -36 5
      vertex -22 -45 5
      vertex -20.8014 -37.885 5
    endloop
  endfacet
  facet normal 0 0 1
    outer loop
      vertex -22 -45 5
      vertex -21.1 -36 5
      vertex -22 -13 5
    endloop
  endfacet
  facet normal -0.970942 -0.239316 0
    outer loop
      vertex -11.3696 -34.0946 7.57053e-015
      vertex -11.0704 -35.3086 1.5
      vertex -11.3696 -34.0946 1.5
    endloop
  endfacet
  facet normal -0.970942 -0.239316 3.27426e-007
    outer loop
      vertex -10.9 -36 7.99361e-015
      vertex -11.0704 -35.3086 1.5
      vertex -11.3696 -34.0946 7.57053e-015
    endloop
  endfacet
  facet normal -0.970942 -0.239315 0
    outer loop
      vertex -11.0704 -35.3086 1.5
      vertex -10.9 -36 7.99361e-015
      vertex -10.9 -36 1.5
    endloop
  endfacet
  facet normal 0.120536 -0.992709 2.52459e-006
    outer loop
      vertex -16.4539 -32.1664 7.14238e-015
      vertex -14.5058 -31.9299 1.5
      vertex -16.4539 -32.1664 1.5
    endloop
  endfacet
  facet normal 0.120538 -0.992709 0
    outer loop
      vertex -14.5058 -31.9299 1.5
      vertex -16.4539 -32.1664 7.14238e-015
      vertex -14.5058 -31.9299 7.08986e-015
    endloop
  endfacet
  facet normal -0.748511 -0.663123 0
    outer loop
      vertex -11.3696 -34.0946 7.57053e-015
      vertex -12.6709 -32.6258 1.5
      vertex -12.6709 -32.6258 7.24438e-015
    endloop
  endfacet
  facet normal -0.748511 -0.663123 0
    outer loop
      vertex -12.6709 -32.6258 1.5
      vertex -11.3696 -34.0946 7.57053e-015
      vertex -11.3696 -34.0946 1.5
    endloop
  endfacet
  facet normal 0.568065 -0.822984 0
    outer loop
      vertex -18.0689 -33.2812 1.5
      vertex -18.0689 -33.2812 7.38991e-015
      vertex -16.8406 -32.4334 1.5
    endloop
  endfacet
  facet normal 0.568064 -0.822984 7.27354e-007
    outer loop
      vertex -16.4539 -32.1664 7.14238e-015
      vertex -16.8406 -32.4334 1.5
      vertex -18.0689 -33.2812 7.38991e-015
    endloop
  endfacet
  facet normal 0.568068 -0.822982 2.09295e-006
    outer loop
      vertex -16.8406 -32.4334 1.5
      vertex -16.4539 -32.1664 7.14238e-015
      vertex -16.4539 -32.1664 1.5
    endloop
  endfacet
  facet normal -0.748511 0.663123 0
    outer loop
      vertex -12.6709 -39.3742 8.74284e-015
      vertex -11.3696 -37.9054 1.5
      vertex -11.3696 -37.9054 8.41668e-015
    endloop
  endfacet
  facet normal -0.748511 0.663123 0
    outer loop
      vertex -11.3696 -37.9054 1.5
      vertex -12.6709 -39.3742 8.74284e-015
      vertex -12.6709 -39.3742 1.5
    endloop
  endfacet
  facet normal -0.354605 0.935016 0
    outer loop
      vertex -12.6709 -39.3742 1.5
      vertex -14.5058 -40.0701 8.89735e-015
      vertex -14.5058 -40.0701 1.5
    endloop
  endfacet
  facet normal -0.354605 0.935016 0
    outer loop
      vertex -14.5058 -40.0701 8.89735e-015
      vertex -12.6709 -39.3742 1.5
      vertex -12.6709 -39.3742 8.74284e-015
    endloop
  endfacet
  facet normal 0.120538 0.992709 -0
    outer loop
      vertex -14.5058 -40.0701 8.89735e-015
      vertex -16.4539 -39.8336 1.5
      vertex -14.5058 -40.0701 1.5
    endloop
  endfacet
  facet normal 0.120538 0.992709 0
    outer loop
      vertex -16.4539 -39.8336 1.5
      vertex -14.5058 -40.0701 8.89735e-015
      vertex -16.4539 -39.8336 8.84483e-015
    endloop
  endfacet
  facet normal -0.354607 -0.935015 0
    outer loop
      vertex -13.1522 -32.4432 1.5
      vertex -12.6709 -32.6258 7.24438e-015
      vertex -12.6709 -32.6258 1.5
    endloop
  endfacet
  facet normal -0.354604 -0.935016 0
    outer loop
      vertex -14.5058 -31.9299 7.08986e-015
      vertex -13.1522 -32.4432 1.5
      vertex -14.5058 -31.9299 1.5
    endloop
  endfacet
  facet normal -0.354605 -0.935016 6.61129e-007
    outer loop
      vertex -13.1522 -32.4432 1.5
      vertex -14.5058 -31.9299 7.08986e-015
      vertex -12.6709 -32.6258 7.24438e-015
    endloop
  endfacet
  facet normal 0.885456 -0.464723 0
    outer loop
      vertex -18.9809 -35.0188 1.5
      vertex -18.0689 -33.2812 7.38991e-015
      vertex -18.0689 -33.2812 1.5
    endloop
  endfacet
  facet normal 0.885456 -0.464723 0
    outer loop
      vertex -18.0689 -33.2812 7.38991e-015
      vertex -18.9809 -35.0188 1.5
      vertex -18.9809 -35.0188 7.77574e-015
    endloop
  endfacet
  facet normal -0.970942 0.239316 0
    outer loop
      vertex -10.9 -36 7.99361e-015
      vertex -11.3646 -37.885 1.5
      vertex -10.9 -36 1.5
    endloop
  endfacet
  facet normal -0.970942 0.239316 1.26687e-007
    outer loop
      vertex -11.3696 -37.9054 8.41668e-015
      vertex -11.3646 -37.885 1.5
      vertex -10.9 -36 7.99361e-015
    endloop
  endfacet
  facet normal -0.97094 0.239324 0
    outer loop
      vertex -11.3646 -37.885 1.5
      vertex -11.3696 -37.9054 8.41668e-015
      vertex -11.3696 -37.9054 1.5
    endloop
  endfacet
  facet normal 1 -0 0
    outer loop
      vertex -18.9809 -35.3792 1.5
      vertex -18.9809 -35.0188 7.77574e-015
      vertex -18.9809 -35.0188 1.5
    endloop
  endfacet
  facet normal 1 0 0
    outer loop
      vertex -18.9809 -36.9812 8.21147e-015
      vertex -18.9809 -35.3792 1.5
      vertex -18.9809 -36.9812 1.5
    endloop
  endfacet
  facet normal 1 0 0
    outer loop
      vertex -18.9809 -35.3792 1.5
      vertex -18.9809 -36.9812 8.21147e-015
      vertex -18.9809 -35.0188 7.77574e-015
    endloop
  endfacet
  facet normal 0.568064 0.822984 -0
    outer loop
      vertex -16.4539 -39.8336 8.84483e-015
      vertex -18.0689 -38.7188 1.5
      vertex -16.4539 -39.8336 1.5
    endloop
  endfacet
  facet normal 0.568064 0.822984 0
    outer loop
      vertex -18.0689 -38.7188 1.5
      vertex -16.4539 -39.8336 8.84483e-015
      vertex -18.0689 -38.7188 8.5973e-015
    endloop
  endfacet
  facet normal 0.885456 0.464723 0
    outer loop
      vertex -18.5065 -37.885 1.5
      vertex -18.9809 -36.9812 8.21147e-015
      vertex -18.9809 -36.9812 1.5
    endloop
  endfacet
  facet normal 0.885456 0.464723 -0
    outer loop
      vertex -18.0689 -38.7188 8.5973e-015
      vertex -18.5065 -37.885 1.5
      vertex -18.0689 -38.7188 1.5
    endloop
  endfacet
  facet normal 0.885456 0.464723 -1.40754e-007
    outer loop
      vertex -18.5065 -37.885 1.5
      vertex -18.0689 -38.7188 8.5973e-015
      vertex -18.9809 -36.9812 8.21147e-015
    endloop
  endfacet
  facet normal -0.707107 -0.707107 0
    outer loop
      vertex -10.065 -32.4145 1.5
      vertex -11.4145 -31.065 5
      vertex -11.4145 -31.065 1.5
    endloop
  endfacet
  facet normal -0.707107 -0.707107 0
    outer loop
      vertex -11.4145 -31.065 5
      vertex -10.065 -32.4145 1.5
      vertex -10.065 -32.4145 5
    endloop
  endfacet
  facet normal -0.987688 -0.156434 0
    outer loop
      vertex -8.9 -36 1.5
      vertex -9.19856 -34.115 5
      vertex -9.19856 -34.115 1.5
    endloop
  endfacet
  facet normal -0.987688 -0.156434 0
    outer loop
      vertex -9.19856 -34.115 5
      vertex -8.9 -36 1.5
      vertex -8.9 -36 5
    endloop
  endfacet
  facet normal 0.987688 -0.156434 0
    outer loop
      vertex -21.1 -36 5
      vertex -20.8014 -34.115 1.5
      vertex -20.8014 -34.115 5
    endloop
  endfacet
  facet normal 0.987688 -0.156434 0
    outer loop
      vertex -20.8014 -34.115 1.5
      vertex -21.1 -36 5
      vertex -21.1 -36 1.5
    endloop
  endfacet
  facet normal 1.59715e-006 -2.52963e-007 1
    outer loop
      vertex -20.8014 -37.885 1.5
      vertex -20.8014 -34.115 1.5
      vertex -21.1 -36 1.5
    endloop
  endfacet
  facet normal 0.707107 -0.707107 0
    outer loop
      vertex -19.935 -32.4145 5
      vertex -18.5855 -31.065 1.5
      vertex -18.5855 -31.065 5
    endloop
  endfacet
  facet normal 0.707107 -0.707107 0
    outer loop
      vertex -18.5855 -31.065 1.5
      vertex -19.935 -32.4145 5
      vertex -19.935 -32.4145 1.5
    endloop
  endfacet
  facet normal -0.156434 0.987688 0
    outer loop
      vertex -13.115 -41.8014 1.5
      vertex -15 -42.1 5
      vertex -13.115 -41.8014 5
    endloop
  endfacet
  facet normal -0.156434 0.987688 0
    outer loop
      vertex -15 -42.1 5
      vertex -13.115 -41.8014 1.5
      vertex -15 -42.1 1.5
    endloop
  endfacet
  facet normal 0.156434 -0.987688 0
    outer loop
      vertex -16.885 -30.1986 1.5
      vertex -15 -29.9 5
      vertex -16.885 -30.1986 5
    endloop
  endfacet
  facet normal 0.156434 -0.987688 0
    outer loop
      vertex -15 -29.9 5
      vertex -16.885 -30.1986 1.5
      vertex -15 -29.9 1.5
    endloop
  endfacet
  facet normal -0.891006 0.453991 0
    outer loop
      vertex -10.065 -39.5855 1.5
      vertex -9.19856 -37.885 5
      vertex -9.19856 -37.885 1.5
    endloop
  endfacet
  facet normal -0.891006 0.453991 0
    outer loop
      vertex -9.19856 -37.885 5
      vertex -10.065 -39.5855 1.5
      vertex -10.065 -39.5855 5
    endloop
  endfacet
  facet normal -8.53852e-008 -1.67578e-007 1
    outer loop
      vertex -9.19856 -37.885 1.5
      vertex -11.4145 -31.065 1.5
      vertex -13.115 -30.1986 1.5
    endloop
  endfacet
  facet normal 8.4598e-008 -7.73457e-008 1
    outer loop
      vertex -9.19856 -37.885 1.5
      vertex -11.3696 -34.0946 1.5
      vertex -11.0704 -35.3086 1.5
    endloop
  endfacet
  facet normal 2.73494e-008 -1.10137e-007 1
    outer loop
      vertex -13.115 -30.1986 1.5
      vertex -11.3696 -34.0946 1.5
      vertex -9.19856 -37.885 1.5
    endloop
  endfacet
  facet normal -9.41486e-008 -1.64566e-007 1
    outer loop
      vertex -13.115 -30.1986 1.5
      vertex -12.6709 -32.6258 1.5
      vertex -11.3696 -34.0946 1.5
    endloop
  endfacet
  facet normal -6.00457e-008 -1.58326e-007 1
    outer loop
      vertex -13.115 -30.1986 1.5
      vertex -13.1522 -32.4432 1.5
      vertex -12.6709 -32.6258 1.5
    endloop
  endfacet
  facet normal -2.51681e-008 -1.58905e-007 1
    outer loop
      vertex -13.1522 -32.4432 1.5
      vertex -13.115 -30.1986 1.5
      vertex -15 -29.9 1.5
    endloop
  endfacet
  facet normal 8.53851e-008 -1.67578e-007 1
    outer loop
      vertex -16.885 -30.1986 1.5
      vertex -18.5855 -31.065 1.5
      vertex -20.8014 -37.885 1.5
    endloop
  endfacet
  facet normal 0.891007 -0.45399 0
    outer loop
      vertex -20.8014 -34.115 5
      vertex -19.935 -32.4145 1.5
      vertex -19.935 -32.4145 5
    endloop
  endfacet
  facet normal 0.891007 -0.45399 0
    outer loop
      vertex -19.935 -32.4145 1.5
      vertex -20.8014 -34.115 5
      vertex -20.8014 -34.115 1.5
    endloop
  endfacet
  facet normal 0.45399 -0.891007 0
    outer loop
      vertex -18.5855 -31.065 1.5
      vertex -16.885 -30.1986 5
      vertex -18.5855 -31.065 5
    endloop
  endfacet
  facet normal 0.45399 -0.891007 0
    outer loop
      vertex -16.885 -30.1986 5
      vertex -18.5855 -31.065 1.5
      vertex -16.885 -30.1986 1.5
    endloop
  endfacet
  facet normal -1.59715e-006 -2.52963e-007 1
    outer loop
      vertex -8.9 -36 1.5
      vertex -9.19856 -34.115 1.5
      vertex -9.19856 -37.885 1.5
    endloop
  endfacet
  facet normal 2.52661e-008 -1.59524e-007 1
    outer loop
      vertex -16.885 -30.1986 1.5
      vertex -16.8406 -32.4334 1.5
      vertex -15 -29.9 1.5
    endloop
  endfacet
  facet normal 1.08964e-007 -1.57861e-007 1
    outer loop
      vertex -16.885 -30.1986 1.5
      vertex -18.0689 -33.2812 1.5
      vertex -16.8406 -32.4334 1.5
    endloop
  endfacet
  facet normal -1.50559e-007 -5.81913e-008 1
    outer loop
      vertex -16.885 -30.1986 1.5
      vertex -18.9809 -35.0188 1.5
      vertex -18.0689 -33.2812 1.5
    endloop
  endfacet
  facet normal -1.96436e-007 0 1
    outer loop
      vertex -18.9809 -35.0188 1.5
      vertex -20.8014 -37.885 1.5
      vertex -18.9809 -35.3792 1.5
    endloop
  endfacet
  facet normal -5.58798e-009 -1.21225e-007 1
    outer loop
      vertex -20.8014 -37.885 1.5
      vertex -18.9809 -35.0188 1.5
      vertex -16.885 -30.1986 1.5
    endloop
  endfacet
  facet normal 8.40379e-009 -1.48825e-007 1
    outer loop
      vertex -18.9809 -35.3792 1.5
      vertex -20.8014 -37.885 1.5
      vertex -18.9809 -36.9812 1.5
    endloop
  endfacet
  facet normal 0 -1.31897e-007 1
    outer loop
      vertex -18.5065 -37.885 1.5
      vertex -18.9809 -36.9812 1.5
      vertex -20.8014 -37.885 1.5
    endloop
  endfacet
  facet normal -7.00129e-008 -1.89677e-007 1
    outer loop
      vertex -9.19856 -37.885 1.5
      vertex -11.0704 -35.3086 1.5
      vertex -10.9 -36 1.5
    endloop
  endfacet
  facet normal 0 -1.26482e-007 1
    outer loop
      vertex -9.19856 -37.885 1.5
      vertex -10.9 -36 1.5
      vertex -11.3646 -37.885 1.5
    endloop
  endfacet
  facet normal 4.79538e-008 -1.05779e-007 1
    outer loop
      vertex -15 -29.9 1.5
      vertex -14.5058 -31.9299 1.5
      vertex -13.1522 -32.4432 1.5
    endloop
  endfacet
  facet normal 1.38519e-008 -1.14081e-007 1
    outer loop
      vertex -15 -29.9 1.5
      vertex -16.4539 -32.1664 1.5
      vertex -14.5058 -31.9299 1.5
    endloop
  endfacet
  facet normal -4.22906e-007 1.66092e-007 1
    outer loop
      vertex -16.4539 -32.1664 1.5
      vertex -15 -29.9 1.5
      vertex -16.8406 -32.4334 1.5
    endloop
  endfacet
  facet normal -0.891006 -0.453991 0
    outer loop
      vertex -9.19856 -34.115 1.5
      vertex -10.065 -32.4145 5
      vertex -10.065 -32.4145 1.5
    endloop
  endfacet
  facet normal -0.891006 -0.453991 0
    outer loop
      vertex -10.065 -32.4145 5
      vertex -9.19856 -34.115 1.5
      vertex -9.19856 -34.115 5
    endloop
  endfacet
  facet normal 4.96469e-007 -2.52963e-007 1
    outer loop
      vertex -19.935 -32.4145 1.5
      vertex -20.8014 -34.115 1.5
      vertex -20.8014 -37.885 1.5
    endloop
  endfacet
  facet normal 2.07138e-007 -2.07138e-007 1
    outer loop
      vertex -18.5855 -31.065 1.5
      vertex -19.935 -32.4145 1.5
      vertex -20.8014 -37.885 1.5
    endloop
  endfacet
  facet normal -0.453992 0.891006 0
    outer loop
      vertex -11.4145 -40.935 1.5
      vertex -13.115 -41.8014 5
      vertex -11.4145 -40.935 5
    endloop
  endfacet
  facet normal -0.453992 0.891006 0
    outer loop
      vertex -13.115 -41.8014 5
      vertex -11.4145 -40.935 1.5
      vertex -13.115 -41.8014 1.5
    endloop
  endfacet
  facet normal -2.07138e-007 -2.07138e-007 1
    outer loop
      vertex -9.19856 -37.885 1.5
      vertex -10.065 -32.4145 1.5
      vertex -11.4145 -31.065 1.5
    endloop
  endfacet
  facet normal -4.96469e-007 -2.52963e-007 1
    outer loop
      vertex -9.19856 -37.885 1.5
      vertex -9.19856 -34.115 1.5
      vertex -10.065 -32.4145 1.5
    endloop
  endfacet
  facet normal -0.156435 -0.987688 0
    outer loop
      vertex -15 -29.9 1.5
      vertex -13.115 -30.1986 5
      vertex -15 -29.9 5
    endloop
  endfacet
  facet normal -0.156435 -0.987688 -0
    outer loop
      vertex -13.115 -30.1986 5
      vertex -15 -29.9 1.5
      vertex -13.115 -30.1986 1.5
    endloop
  endfacet
  facet normal -0.45399 -0.891007 0
    outer loop
      vertex -13.115 -30.1986 1.5
      vertex -11.4145 -31.065 5
      vertex -13.115 -30.1986 5
    endloop
  endfacet
  facet normal -0.45399 -0.891007 -0
    outer loop
      vertex -11.4145 -31.065 5
      vertex -13.115 -30.1986 1.5
      vertex -11.4145 -31.065 1.5
    endloop
  endfacet
  facet normal -0.987688 0.156435 0
    outer loop
      vertex -9.19856 -37.885 1.5
      vertex -8.9 -36 5
      vertex -8.9 -36 1.5
    endloop
  endfacet
  facet normal -0.987688 0.156435 0
    outer loop
      vertex -8.9 -36 5
      vertex -9.19856 -37.885 1.5
      vertex -9.19856 -37.885 5
    endloop
  endfacet
  facet normal 0.987688 0.156435 0
    outer loop
      vertex -20.8014 -37.885 5
      vertex -21.1 -36 1.5
      vertex -21.1 -36 5
    endloop
  endfacet
  facet normal 0.987688 0.156435 0
    outer loop
      vertex -21.1 -36 1.5
      vertex -20.8014 -37.885 5
      vertex -20.8014 -37.885 1.5
    endloop
  endfacet
  facet normal 0.156434 0.987688 -0
    outer loop
      vertex -15 -42.1 1.5
      vertex -16.885 -41.8014 5
      vertex -15 -42.1 5
    endloop
  endfacet
  facet normal 0.156434 0.987688 0
    outer loop
      vertex -16.885 -41.8014 5
      vertex -15 -42.1 1.5
      vertex -16.885 -41.8014 1.5
    endloop
  endfacet
  facet normal -0.707107 0.707107 0
    outer loop
      vertex -11.4145 -40.935 1.5
      vertex -10.065 -39.5855 5
      vertex -10.065 -39.5855 1.5
    endloop
  endfacet
  facet normal -0.707107 0.707107 0
    outer loop
      vertex -10.065 -39.5855 5
      vertex -11.4145 -40.935 1.5
      vertex -11.4145 -40.935 5
    endloop
  endfacet
  facet normal 0.453991 0.891006 -0
    outer loop
      vertex -16.885 -41.8014 1.5
      vertex -18.5855 -40.935 5
      vertex -16.885 -41.8014 5
    endloop
  endfacet
  facet normal 0.453991 0.891006 0
    outer loop
      vertex -18.5855 -40.935 5
      vertex -16.885 -41.8014 1.5
      vertex -18.5855 -40.935 1.5
    endloop
  endfacet
  facet normal 0 0 1
    outer loop
      vertex -11.3696 -37.9054 1.5
      vertex -9.19856 -37.885 1.5
      vertex -11.3646 -37.885 1.5
    endloop
  endfacet
  facet normal 0 0 1
    outer loop
      vertex -9.19856 -37.885 1.5
      vertex -11.3696 -37.9054 1.5
      vertex -10.065 -39.5855 1.5
    endloop
  endfacet
  facet normal -0 0 1
    outer loop
      vertex -12.6709 -39.3742 1.5
      vertex -10.065 -39.5855 1.5
      vertex -11.3696 -37.9054 1.5
    endloop
  endfacet
  facet normal 0 0 1
    outer loop
      vertex -10.065 -39.5855 1.5
      vertex -12.6709 -39.3742 1.5
      vertex -11.4145 -40.935 1.5
    endloop
  endfacet
  facet normal 0 0 1
    outer loop
      vertex -12.6709 -39.3742 1.5
      vertex -13.115 -41.8014 1.5
      vertex -11.4145 -40.935 1.5
    endloop
  endfacet
  facet normal -0 0 1
    outer loop
      vertex -14.5058 -40.0701 1.5
      vertex -13.115 -41.8014 1.5
      vertex -12.6709 -39.3742 1.5
    endloop
  endfacet
  facet normal 0 0 1
    outer loop
      vertex -14.5058 -40.0701 1.5
      vertex -15 -42.1 1.5
      vertex -13.115 -41.8014 1.5
    endloop
  endfacet
  facet normal 0 0 1
    outer loop
      vertex -16.4539 -39.8336 1.5
      vertex -15 -42.1 1.5
      vertex -14.5058 -40.0701 1.5
    endloop
  endfacet
  facet normal 0 0 1
    outer loop
      vertex -16.4539 -39.8336 1.5
      vertex -16.885 -41.8014 1.5
      vertex -15 -42.1 1.5
    endloop
  endfacet
  facet normal 0 0 1
    outer loop
      vertex -18.5855 -40.935 1.5
      vertex -16.4539 -39.8336 1.5
      vertex -18.0689 -38.7188 1.5
    endloop
  endfacet
  facet normal 0 0 1
    outer loop
      vertex -19.935 -39.5855 1.5
      vertex -18.0689 -38.7188 1.5
      vertex -18.5065 -37.885 1.5
    endloop
  endfacet
  facet normal 0 0 1
    outer loop
      vertex -16.4539 -39.8336 1.5
      vertex -18.5855 -40.935 1.5
      vertex -16.885 -41.8014 1.5
    endloop
  endfacet
  facet normal 0 0 1
    outer loop
      vertex -18.0689 -38.7188 1.5
      vertex -19.935 -39.5855 1.5
      vertex -18.5855 -40.935 1.5
    endloop
  endfacet
  facet normal 0 -0 1
    outer loop
      vertex -19.935 -39.5855 1.5
      vertex -18.5065 -37.885 1.5
      vertex -20.8014 -37.885 1.5
    endloop
  endfacet
  facet normal 0.707107 0.707107 0
    outer loop
      vertex -18.5855 -40.935 5
      vertex -19.935 -39.5855 1.5
      vertex -19.935 -39.5855 5
    endloop
  endfacet
  facet normal 0.707107 0.707107 0
    outer loop
      vertex -19.935 -39.5855 1.5
      vertex -18.5855 -40.935 5
      vertex -18.5855 -40.935 1.5
    endloop
  endfacet
  facet normal 0.891007 0.45399 0
    outer loop
      vertex -19.935 -39.5855 5
      vertex -20.8014 -37.885 1.5
      vertex -20.8014 -37.885 5
    endloop
  endfacet
  facet normal 0.891007 0.45399 0
    outer loop
      vertex -20.8014 -37.885 1.5
      vertex -19.935 -39.5855 5
      vertex -19.935 -39.5855 1.5
    endloop
  endfacet
  facet normal -1 0 0
    outer loop
      vertex 64 -45 9.99201e-015
      vertex 64 -13 5
      vertex 64 -13 2.88658e-015
    endloop
  endfacet
  facet normal -1 -0 0
    outer loop
      vertex 64 -13 5
      vertex 64 -45 9.99201e-015
      vertex 64 -45 5
    endloop
  endfacet
  facet normal 0 -1 0
    outer loop
      vertex 64 -45 9.99201e-015
      vertex 78 -45 5
      vertex 64 -45 5
    endloop
  endfacet
  facet normal 0 -1 -0
    outer loop
      vertex 78 -45 5
      vertex 64 -45 9.99201e-015
      vertex 78 -45 9.99201e-015
    endloop
  endfacet
  facet normal 0 0 1
    outer loop
      vertex 78 -13 5
      vertex 77.1 -36 5
      vertex 78 -45 5
    endloop
  endfacet
  facet normal 0 0 1
    outer loop
      vertex 78 -13 5
      vertex 76.8014 -34.115 5
      vertex 77.1 -36 5
    endloop
  endfacet
  facet normal 0 0 1
    outer loop
      vertex 78 -13 5
      vertex 75.935 -32.4145 5
      vertex 76.8014 -34.115 5
    endloop
  endfacet
  facet normal 0 0 1
    outer loop
      vertex 78 -13 5
      vertex 74.5855 -31.065 5
      vertex 75.935 -32.4145 5
    endloop
  endfacet
  facet normal 0 0 1
    outer loop
      vertex 78 -13 5
      vertex 72.885 -30.1986 5
      vertex 74.5855 -31.065 5
    endloop
  endfacet
  facet normal 0 0 1
    outer loop
      vertex 78 -13 5
      vertex 71 -29.9 5
      vertex 72.885 -30.1986 5
    endloop
  endfacet
  facet normal -0 0 1
    outer loop
      vertex 64 -13 5
      vertex 71 -29.9 5
      vertex 78 -13 5
    endloop
  endfacet
  facet normal 0 0 1
    outer loop
      vertex 71 -29.9 5
      vertex 64 -13 5
      vertex 69.115 -30.1986 5
    endloop
  endfacet
  facet normal 0 0 1
    outer loop
      vertex 69.115 -30.1986 5
      vertex 64 -13 5
      vertex 67.4145 -31.065 5
    endloop
  endfacet
  facet normal 0 0 1
    outer loop
      vertex 65.1986 -34.115 5
      vertex 64 -13 5
      vertex 64.9 -36 5
    endloop
  endfacet
  facet normal 0 0 1
    outer loop
      vertex 66.065 -32.4145 5
      vertex 64 -13 5
      vertex 65.1986 -34.115 5
    endloop
  endfacet
  facet normal 0 0 1
    outer loop
      vertex 67.4145 -31.065 5
      vertex 64 -13 5
      vertex 66.065 -32.4145 5
    endloop
  endfacet
  facet normal -0 0 1
    outer loop
      vertex 76.8014 -37.885 5
      vertex 78 -45 5
      vertex 77.1 -36 5
    endloop
  endfacet
  facet normal -0 0 1
    outer loop
      vertex 75.935 -39.5855 5
      vertex 78 -45 5
      vertex 76.8014 -37.885 5
    endloop
  endfacet
  facet normal -0 0 1
    outer loop
      vertex 74.5855 -40.935 5
      vertex 78 -45 5
      vertex 75.935 -39.5855 5
    endloop
  endfacet
  facet normal -0 0 1
    outer loop
      vertex 72.885 -41.8014 5
      vertex 78 -45 5
      vertex 74.5855 -40.935 5
    endloop
  endfacet
  facet normal -0 0 1
    outer loop
      vertex 71 -42.1 5
      vertex 78 -45 5
      vertex 72.885 -41.8014 5
    endloop
  endfacet
  facet normal 0 0 1
    outer loop
      vertex 64 -45 5
      vertex 71 -42.1 5
      vertex 69.115 -41.8014 5
    endloop
  endfacet
  facet normal 0 0 1
    outer loop
      vertex 71 -42.1 5
      vertex 64 -45 5
      vertex 78 -45 5
    endloop
  endfacet
  facet normal 0 0 1
    outer loop
      vertex 67.4145 -40.935 5
      vertex 64 -45 5
      vertex 69.115 -41.8014 5
    endloop
  endfacet
  facet normal 0 0 1
    outer loop
      vertex 66.065 -39.5855 5
      vertex 64 -45 5
      vertex 67.4145 -40.935 5
    endloop
  endfacet
  facet normal 0 0 1
    outer loop
      vertex 65.1986 -37.885 5
      vertex 64 -45 5
      vertex 66.065 -39.5855 5
    endloop
  endfacet
  facet normal 0 0 1
    outer loop
      vertex 64.9 -36 5
      vertex 64 -45 5
      vertex 65.1986 -37.885 5
    endloop
  endfacet
  facet normal 0 0 1
    outer loop
      vertex 64 -45 5
      vertex 64.9 -36 5
      vertex 64 -13 5
    endloop
  endfacet
  facet normal -0.970942 -0.239315 0
    outer loop
      vertex 74.6304 -34.0946 7.57053e-015
      vertex 74.9296 -35.3086 1.5
      vertex 74.6304 -34.0946 1.5
    endloop
  endfacet
  facet normal -0.970942 -0.239314 2.72739e-007
    outer loop
      vertex 75.1 -36 7.99361e-015
      vertex 74.9296 -35.3086 1.5
      vertex 74.6304 -34.0946 7.57053e-015
    endloop
  endfacet
  facet normal -0.970942 -0.239314 0
    outer loop
      vertex 74.9296 -35.3086 1.5
      vertex 75.1 -36 7.99361e-015
      vertex 75.1 -36 1.5
    endloop
  endfacet
  facet normal 0.120536 -0.992709 2.52459e-006
    outer loop
      vertex 69.5461 -32.1664 7.14238e-015
      vertex 71.4942 -31.9299 1.5
      vertex 69.5461 -32.1664 1.5
    endloop
  endfacet
  facet normal 0.120538 -0.992709 0
    outer loop
      vertex 71.4942 -31.9299 1.5
      vertex 69.5461 -32.1664 7.14238e-015
      vertex 71.4942 -31.9299 7.08986e-015
    endloop
  endfacet
  facet normal -0.74851 -0.663124 0
    outer loop
      vertex 74.6304 -34.0946 7.57053e-015
      vertex 73.3291 -32.6258 1.5
      vertex 73.3291 -32.6258 7.24438e-015
    endloop
  endfacet
  facet normal -0.74851 -0.663124 0
    outer loop
      vertex 73.3291 -32.6258 1.5
      vertex 74.6304 -34.0946 7.57053e-015
      vertex 74.6304 -34.0946 1.5
    endloop
  endfacet
  facet normal 0.568065 -0.822983 0
    outer loop
      vertex 67.9311 -33.2812 1.5
      vertex 67.9311 -33.2812 7.38991e-015
      vertex 69.1594 -32.4334 1.5
    endloop
  endfacet
  facet normal 0.568064 -0.822984 1.44968e-006
    outer loop
      vertex 69.5461 -32.1664 7.14238e-015
      vertex 69.1594 -32.4334 1.5
      vertex 67.9311 -33.2812 7.38991e-015
    endloop
  endfacet
  facet normal 0.568066 -0.822983 2.09295e-006
    outer loop
      vertex 69.1594 -32.4334 1.5
      vertex 69.5461 -32.1664 7.14238e-015
      vertex 69.5461 -32.1664 1.5
    endloop
  endfacet
  facet normal -0.74851 0.663124 0
    outer loop
      vertex 73.3291 -39.3742 8.74284e-015
      vertex 74.6304 -37.9054 1.5
      vertex 74.6304 -37.9054 8.41668e-015
    endloop
  endfacet
  facet normal -0.74851 0.663124 0
    outer loop
      vertex 74.6304 -37.9054 1.5
      vertex 73.3291 -39.3742 8.74284e-015
      vertex 73.3291 -39.3742 1.5
    endloop
  endfacet
  facet normal -0.354606 0.935016 0
    outer loop
      vertex 73.3291 -39.3742 1.5
      vertex 71.4942 -40.0701 8.89735e-015
      vertex 71.4942 -40.0701 1.5
    endloop
  endfacet
  facet normal -0.354606 0.935016 0
    outer loop
      vertex 71.4942 -40.0701 8.89735e-015
      vertex 73.3291 -39.3742 1.5
      vertex 73.3291 -39.3742 8.74284e-015
    endloop
  endfacet
  facet normal 0.120538 0.992709 -0
    outer loop
      vertex 71.4942 -40.0701 8.89735e-015
      vertex 69.5461 -39.8336 1.5
      vertex 71.4942 -40.0701 1.5
    endloop
  endfacet
  facet normal 0.120538 0.992709 0
    outer loop
      vertex 69.5461 -39.8336 1.5
      vertex 71.4942 -40.0701 8.89735e-015
      vertex 69.5461 -39.8336 8.84483e-015
    endloop
  endfacet
  facet normal -0.35461 -0.935014 0
    outer loop
      vertex 72.8478 -32.4432 1.5
      vertex 73.3291 -32.6258 7.24438e-015
      vertex 73.3291 -32.6258 1.5
    endloop
  endfacet
  facet normal -0.354604 -0.935016 0
    outer loop
      vertex 71.4942 -31.9299 7.08986e-015
      vertex 72.8478 -32.4432 1.5
      vertex 71.4942 -31.9299 1.5
    endloop
  endfacet
  facet normal -0.354606 -0.935016 1.55184e-006
    outer loop
      vertex 72.8478 -32.4432 1.5
      vertex 71.4942 -31.9299 7.08986e-015
      vertex 73.3291 -32.6258 7.24438e-015
    endloop
  endfacet
  facet normal 0.885455 -0.464725 0
    outer loop
      vertex 67.0191 -35.0188 1.5
      vertex 67.9311 -33.2812 7.38991e-015
      vertex 67.9311 -33.2812 1.5
    endloop
  endfacet
  facet normal 0.885455 -0.464725 0
    outer loop
      vertex 67.9311 -33.2812 7.38991e-015
      vertex 67.0191 -35.0188 1.5
      vertex 67.0191 -35.0188 7.77574e-015
    endloop
  endfacet
  facet normal -0.970942 0.239314 0
    outer loop
      vertex 75.1 -36 7.99361e-015
      vertex 74.6354 -37.885 1.5
      vertex 75.1 -36 1.5
    endloop
  endfacet
  facet normal -0.970942 0.239314 7.63788e-007
    outer loop
      vertex 74.6304 -37.9054 8.41668e-015
      vertex 74.6354 -37.885 1.5
      vertex 75.1 -36 7.99361e-015
    endloop
  endfacet
  facet normal -0.970929 0.239367 0
    outer loop
      vertex 74.6354 -37.885 1.5
      vertex 74.6304 -37.9054 8.41668e-015
      vertex 74.6304 -37.9054 1.5
    endloop
  endfacet
  facet normal 1 -0 0
    outer loop
      vertex 67.0191 -35.3792 1.5
      vertex 67.0191 -35.0188 7.77574e-015
      vertex 67.0191 -35.0188 1.5
    endloop
  endfacet
  facet normal 1 0 0
    outer loop
      vertex 67.0191 -36.9812 8.21147e-015
      vertex 67.0191 -35.3792 1.5
      vertex 67.0191 -36.9812 1.5
    endloop
  endfacet
  facet normal 1 0 0
    outer loop
      vertex 67.0191 -35.3792 1.5
      vertex 67.0191 -36.9812 8.21147e-015
      vertex 67.0191 -35.0188 7.77574e-015
    endloop
  endfacet
  facet normal 0.568064 0.822984 -0
    outer loop
      vertex 69.5461 -39.8336 8.84483e-015
      vertex 67.9311 -38.7188 1.5
      vertex 69.5461 -39.8336 1.5
    endloop
  endfacet
  facet normal 0.568064 0.822984 0
    outer loop
      vertex 67.9311 -38.7188 1.5
      vertex 69.5461 -39.8336 8.84483e-015
      vertex 67.9311 -38.7188 8.5973e-015
    endloop
  endfacet
  facet normal 0.885455 0.464725 0
    outer loop
      vertex 67.4935 -37.885 1.5
      vertex 67.0191 -36.9812 8.21147e-015
      vertex 67.0191 -36.9812 1.5
    endloop
  endfacet
  facet normal 0.885455 0.464725 -0
    outer loop
      vertex 67.9311 -38.7188 8.5973e-015
      vertex 67.4935 -37.885 1.5
      vertex 67.9311 -38.7188 1.5
    endloop
  endfacet
  facet normal 0.885455 0.464725 -9.53917e-008
    outer loop
      vertex 67.4935 -37.885 1.5
      vertex 67.9311 -38.7188 8.5973e-015
      vertex 67.0191 -36.9812 8.21147e-015
    endloop
  endfacet
  facet normal -0.707106 -0.707108 0
    outer loop
      vertex 74.5855 -31.065 1.5
      vertex 75.935 -32.4145 5
      vertex 74.5855 -31.065 5
    endloop
  endfacet
  facet normal -0.707106 -0.707108 -0
    outer loop
      vertex 75.935 -32.4145 5
      vertex 74.5855 -31.065 1.5
      vertex 75.935 -32.4145 1.5
    endloop
  endfacet
  facet normal -0.987689 -0.156433 0
    outer loop
      vertex 77.1 -36 1.5
      vertex 76.8014 -34.115 5
      vertex 76.8014 -34.115 1.5
    endloop
  endfacet
  facet normal -0.987689 -0.156433 0
    outer loop
      vertex 76.8014 -34.115 5
      vertex 77.1 -36 1.5
      vertex 77.1 -36 5
    endloop
  endfacet
  facet normal 0.987689 -0.156433 0
    outer loop
      vertex 64.9 -36 5
      vertex 65.1986 -34.115 1.5
      vertex 65.1986 -34.115 5
    endloop
  endfacet
  facet normal 0.987689 -0.156433 0
    outer loop
      vertex 65.1986 -34.115 1.5
      vertex 64.9 -36 5
      vertex 64.9 -36 1.5
    endloop
  endfacet
  facet normal 1.59716e-006 -2.52963e-007 1
    outer loop
      vertex 65.1986 -37.885 1.5
      vertex 65.1986 -34.115 1.5
      vertex 64.9 -36 1.5
    endloop
  endfacet
  facet normal 0.707106 -0.707108 0
    outer loop
      vertex 66.065 -32.4145 1.5
      vertex 67.4145 -31.065 5
      vertex 66.065 -32.4145 5
    endloop
  endfacet
  facet normal 0.707106 -0.707108 0
    outer loop
      vertex 67.4145 -31.065 5
      vertex 66.065 -32.4145 1.5
      vertex 67.4145 -31.065 1.5
    endloop
  endfacet
  facet normal -0.156434 0.987688 0
    outer loop
      vertex 72.885 -41.8014 1.5
      vertex 71 -42.1 5
      vertex 72.885 -41.8014 5
    endloop
  endfacet
  facet normal -0.156434 0.987688 0
    outer loop
      vertex 71 -42.1 5
      vertex 72.885 -41.8014 1.5
      vertex 71 -42.1 1.5
    endloop
  endfacet
  facet normal 0.156435 -0.987688 0
    outer loop
      vertex 69.115 -30.1986 1.5
      vertex 71 -29.9 5
      vertex 69.115 -30.1986 5
    endloop
  endfacet
  facet normal 0.156435 -0.987688 0
    outer loop
      vertex 71 -29.9 5
      vertex 69.115 -30.1986 1.5
      vertex 71 -29.9 1.5
    endloop
  endfacet
  facet normal -0.891007 0.45399 0
    outer loop
      vertex 75.935 -39.5855 1.5
      vertex 76.8014 -37.885 5
      vertex 76.8014 -37.885 1.5
    endloop
  endfacet
  facet normal -0.891007 0.45399 0
    outer loop
      vertex 76.8014 -37.885 5
      vertex 75.935 -39.5855 1.5
      vertex 75.935 -39.5855 5
    endloop
  endfacet
  facet normal -8.53853e-008 -1.67578e-007 1
    outer loop
      vertex 76.8014 -37.885 1.5
      vertex 74.5855 -31.065 1.5
      vertex 72.885 -30.1986 1.5
    endloop
  endfacet
  facet normal 8.45977e-008 -7.73459e-008 1
    outer loop
      vertex 76.8014 -37.885 1.5
      vertex 74.6304 -34.0946 1.5
      vertex 74.9296 -35.3086 1.5
    endloop
  endfacet
  facet normal 2.73497e-008 -1.10137e-007 1
    outer loop
      vertex 72.885 -30.1986 1.5
      vertex 74.6304 -34.0946 1.5
      vertex 76.8014 -37.885 1.5
    endloop
  endfacet
  facet normal -9.41482e-008 -1.64566e-007 1
    outer loop
      vertex 72.885 -30.1986 1.5
      vertex 73.3291 -32.6258 1.5
      vertex 74.6304 -34.0946 1.5
    endloop
  endfacet
  facet normal -6.00463e-008 -1.58327e-007 1
    outer loop
      vertex 72.885 -30.1986 1.5
      vertex 72.8478 -32.4432 1.5
      vertex 73.3291 -32.6258 1.5
    endloop
  endfacet
  facet normal -2.51681e-008 -1.58905e-007 1
    outer loop
      vertex 72.8478 -32.4432 1.5
      vertex 72.885 -30.1986 1.5
      vertex 71 -29.9 1.5
    endloop
  endfacet
  facet normal 8.53853e-008 -1.67578e-007 1
    outer loop
      vertex 69.115 -30.1986 1.5
      vertex 67.4145 -31.065 1.5
      vertex 65.1986 -37.885 1.5
    endloop
  endfacet
  facet normal 0.891007 -0.45399 0
    outer loop
      vertex 65.1986 -34.115 5
      vertex 66.065 -32.4145 1.5
      vertex 66.065 -32.4145 5
    endloop
  endfacet
  facet normal 0.891007 -0.45399 0
    outer loop
      vertex 66.065 -32.4145 1.5
      vertex 65.1986 -34.115 5
      vertex 65.1986 -34.115 1.5
    endloop
  endfacet
  facet normal 0.45399 -0.891007 0
    outer loop
      vertex 67.4145 -31.065 1.5
      vertex 69.115 -30.1986 5
      vertex 67.4145 -31.065 5
    endloop
  endfacet
  facet normal 0.45399 -0.891007 0
    outer loop
      vertex 69.115 -30.1986 5
      vertex 67.4145 -31.065 1.5
      vertex 69.115 -30.1986 1.5
    endloop
  endfacet
  facet normal -1.59716e-006 -2.52963e-007 1
    outer loop
      vertex 77.1 -36 1.5
      vertex 76.8014 -34.115 1.5
      vertex 76.8014 -37.885 1.5
    endloop
  endfacet
  facet normal 2.52662e-008 -1.59524e-007 1
    outer loop
      vertex 69.115 -30.1986 1.5
      vertex 69.1594 -32.4334 1.5
      vertex 71 -29.9 1.5
    endloop
  endfacet
  facet normal 1.08964e-007 -1.57861e-007 1
    outer loop
      vertex 69.115 -30.1986 1.5
      vertex 67.9311 -33.2812 1.5
      vertex 69.1594 -32.4334 1.5
    endloop
  endfacet
  facet normal -1.50557e-007 -5.81919e-008 1
    outer loop
      vertex 69.115 -30.1986 1.5
      vertex 67.0191 -35.0188 1.5
      vertex 67.9311 -33.2812 1.5
    endloop
  endfacet
  facet normal -1.96436e-007 0 1
    outer loop
      vertex 67.0191 -35.0188 1.5
      vertex 65.1986 -37.885 1.5
      vertex 67.0191 -35.3792 1.5
    endloop
  endfacet
  facet normal -5.58805e-009 -1.21225e-007 1
    outer loop
      vertex 65.1986 -37.885 1.5
      vertex 67.0191 -35.0188 1.5
      vertex 69.115 -30.1986 1.5
    endloop
  endfacet
  facet normal 8.40381e-009 -1.48825e-007 1
    outer loop
      vertex 67.0191 -35.3792 1.5
      vertex 65.1986 -37.885 1.5
      vertex 67.0191 -36.9812 1.5
    endloop
  endfacet
  facet normal 0 -1.31897e-007 1
    outer loop
      vertex 67.4935 -37.885 1.5
      vertex 67.0191 -36.9812 1.5
      vertex 65.1986 -37.885 1.5
    endloop
  endfacet
  facet normal -7.00126e-008 -1.89677e-007 1
    outer loop
      vertex 76.8014 -37.885 1.5
      vertex 74.9296 -35.3086 1.5
      vertex 75.1 -36 1.5
    endloop
  endfacet
  facet normal 0 -1.26482e-007 1
    outer loop
      vertex 76.8014 -37.885 1.5
      vertex 75.1 -36 1.5
      vertex 74.6354 -37.885 1.5
    endloop
  endfacet
  facet normal 4.79538e-008 -1.05779e-007 1
    outer loop
      vertex 71 -29.9 1.5
      vertex 71.4942 -31.9299 1.5
      vertex 72.8478 -32.4432 1.5
    endloop
  endfacet
  facet normal 1.38519e-008 -1.14081e-007 1
    outer loop
      vertex 71 -29.9 1.5
      vertex 69.5461 -32.1664 1.5
      vertex 71.4942 -31.9299 1.5
    endloop
  endfacet
  facet normal -4.22902e-007 1.66089e-007 1
    outer loop
      vertex 69.5461 -32.1664 1.5
      vertex 71 -29.9 1.5
      vertex 69.1594 -32.4334 1.5
    endloop
  endfacet
  facet normal -0.891007 -0.45399 0
    outer loop
      vertex 76.8014 -34.115 1.5
      vertex 75.935 -32.4145 5
      vertex 75.935 -32.4145 1.5
    endloop
  endfacet
  facet normal -0.891007 -0.45399 0
    outer loop
      vertex 75.935 -32.4145 5
      vertex 76.8014 -34.115 1.5
      vertex 76.8014 -34.115 5
    endloop
  endfacet
  facet normal 4.96469e-007 -2.52963e-007 1
    outer loop
      vertex 66.065 -32.4145 1.5
      vertex 65.1986 -34.115 1.5
      vertex 65.1986 -37.885 1.5
    endloop
  endfacet
  facet normal 2.07137e-007 -2.07138e-007 1
    outer loop
      vertex 67.4145 -31.065 1.5
      vertex 66.065 -32.4145 1.5
      vertex 65.1986 -37.885 1.5
    endloop
  endfacet
  facet normal -0.453992 0.891006 0
    outer loop
      vertex 74.5855 -40.935 1.5
      vertex 72.885 -41.8014 5
      vertex 74.5855 -40.935 5
    endloop
  endfacet
  facet normal -0.453992 0.891006 0
    outer loop
      vertex 72.885 -41.8014 5
      vertex 74.5855 -40.935 1.5
      vertex 72.885 -41.8014 1.5
    endloop
  endfacet
  facet normal -2.07137e-007 -2.07138e-007 1
    outer loop
      vertex 76.8014 -37.885 1.5
      vertex 75.935 -32.4145 1.5
      vertex 74.5855 -31.065 1.5
    endloop
  endfacet
  facet normal -4.96469e-007 -2.52963e-007 1
    outer loop
      vertex 76.8014 -37.885 1.5
      vertex 76.8014 -34.115 1.5
      vertex 75.935 -32.4145 1.5
    endloop
  endfacet
  facet normal -0.156435 -0.987688 0
    outer loop
      vertex 71 -29.9 1.5
      vertex 72.885 -30.1986 5
      vertex 71 -29.9 5
    endloop
  endfacet
  facet normal -0.156435 -0.987688 -0
    outer loop
      vertex 72.885 -30.1986 5
      vertex 71 -29.9 1.5
      vertex 72.885 -30.1986 1.5
    endloop
  endfacet
  facet normal -0.45399 -0.891007 0
    outer loop
      vertex 72.885 -30.1986 1.5
      vertex 74.5855 -31.065 5
      vertex 72.885 -30.1986 5
    endloop
  endfacet
  facet normal -0.45399 -0.891007 -0
    outer loop
      vertex 74.5855 -31.065 5
      vertex 72.885 -30.1986 1.5
      vertex 74.5855 -31.065 1.5
    endloop
  endfacet
  facet normal -0.987688 0.156434 0
    outer loop
      vertex 76.8014 -37.885 1.5
      vertex 77.1 -36 5
      vertex 77.1 -36 1.5
    endloop
  endfacet
  facet normal -0.987688 0.156434 0
    outer loop
      vertex 77.1 -36 5
      vertex 76.8014 -37.885 1.5
      vertex 76.8014 -37.885 5
    endloop
  endfacet
  facet normal 0.987688 0.156434 0
    outer loop
      vertex 65.1986 -37.885 5
      vertex 64.9 -36 1.5
      vertex 64.9 -36 5
    endloop
  endfacet
  facet normal 0.987688 0.156434 0
    outer loop
      vertex 64.9 -36 1.5
      vertex 65.1986 -37.885 5
      vertex 65.1986 -37.885 1.5
    endloop
  endfacet
  facet normal 0.156434 0.987688 -0
    outer loop
      vertex 71 -42.1 1.5
      vertex 69.115 -41.8014 5
      vertex 71 -42.1 5
    endloop
  endfacet
  facet normal 0.156434 0.987688 0
    outer loop
      vertex 69.115 -41.8014 5
      vertex 71 -42.1 1.5
      vertex 69.115 -41.8014 1.5
    endloop
  endfacet
  facet normal -0.707106 0.707108 0
    outer loop
      vertex 75.935 -39.5855 1.5
      vertex 74.5855 -40.935 5
      vertex 75.935 -39.5855 5
    endloop
  endfacet
  facet normal -0.707106 0.707108 0
    outer loop
      vertex 74.5855 -40.935 5
      vertex 75.935 -39.5855 1.5
      vertex 74.5855 -40.935 1.5
    endloop
  endfacet
  facet normal 0.453992 0.891006 -0
    outer loop
      vertex 69.115 -41.8014 1.5
      vertex 67.4145 -40.935 5
      vertex 69.115 -41.8014 5
    endloop
  endfacet
  facet normal 0.453992 0.891006 0
    outer loop
      vertex 67.4145 -40.935 5
      vertex 69.115 -41.8014 1.5
      vertex 67.4145 -40.935 1.5
    endloop
  endfacet
  facet normal 0 0 1
    outer loop
      vertex 74.6304 -37.9054 1.5
      vertex 76.8014 -37.885 1.5
      vertex 74.6354 -37.885 1.5
    endloop
  endfacet
  facet normal 0 0 1
    outer loop
      vertex 76.8014 -37.885 1.5
      vertex 74.6304 -37.9054 1.5
      vertex 75.935 -39.5855 1.5
    endloop
  endfacet
  facet normal -0 0 1
    outer loop
      vertex 73.3291 -39.3742 1.5
      vertex 75.935 -39.5855 1.5
      vertex 74.6304 -37.9054 1.5
    endloop
  endfacet
  facet normal 0 0 1
    outer loop
      vertex 75.935 -39.5855 1.5
      vertex 73.3291 -39.3742 1.5
      vertex 74.5855 -40.935 1.5
    endloop
  endfacet
  facet normal 0 0 1
    outer loop
      vertex 73.3291 -39.3742 1.5
      vertex 72.885 -41.8014 1.5
      vertex 74.5855 -40.935 1.5
    endloop
  endfacet
  facet normal -0 0 1
    outer loop
      vertex 71.4942 -40.0701 1.5
      vertex 72.885 -41.8014 1.5
      vertex 73.3291 -39.3742 1.5
    endloop
  endfacet
  facet normal 0 0 1
    outer loop
      vertex 71.4942 -40.0701 1.5
      vertex 71 -42.1 1.5
      vertex 72.885 -41.8014 1.5
    endloop
  endfacet
  facet normal 0 0 1
    outer loop
      vertex 69.5461 -39.8336 1.5
      vertex 71 -42.1 1.5
      vertex 71.4942 -40.0701 1.5
    endloop
  endfacet
  facet normal 0 0 1
    outer loop
      vertex 69.5461 -39.8336 1.5
      vertex 69.115 -41.8014 1.5
      vertex 71 -42.1 1.5
    endloop
  endfacet
  facet normal 0 0 1
    outer loop
      vertex 67.4145 -40.935 1.5
      vertex 69.5461 -39.8336 1.5
      vertex 67.9311 -38.7188 1.5
    endloop
  endfacet
  facet normal 0 0 1
    outer loop
      vertex 66.065 -39.5855 1.5
      vertex 67.9311 -38.7188 1.5
      vertex 67.4935 -37.885 1.5
    endloop
  endfacet
  facet normal 0 0 1
    outer loop
      vertex 69.5461 -39.8336 1.5
      vertex 67.4145 -40.935 1.5
      vertex 69.115 -41.8014 1.5
    endloop
  endfacet
  facet normal 0 0 1
    outer loop
      vertex 67.9311 -38.7188 1.5
      vertex 66.065 -39.5855 1.5
      vertex 67.4145 -40.935 1.5
    endloop
  endfacet
  facet normal 0 -0 1
    outer loop
      vertex 66.065 -39.5855 1.5
      vertex 67.4935 -37.885 1.5
      vertex 65.1986 -37.885 1.5
    endloop
  endfacet
  facet normal 0.707106 0.707108 -0
    outer loop
      vertex 67.4145 -40.935 1.5
      vertex 66.065 -39.5855 5
      vertex 67.4145 -40.935 5
    endloop
  endfacet
  facet normal 0.707106 0.707108 0
    outer loop
      vertex 66.065 -39.5855 5
      vertex 67.4145 -40.935 1.5
      vertex 66.065 -39.5855 1.5
    endloop
  endfacet
  facet normal 0.891007 0.45399 0
    outer loop
      vertex 66.065 -39.5855 5
      vertex 65.1986 -37.885 1.5
      vertex 65.1986 -37.885 5
    endloop
  endfacet
  facet normal 0.891007 0.45399 0
    outer loop
      vertex 65.1986 -37.885 1.5
      vertex 66.065 -39.5855 5
      vertex 66.065 -39.5855 1.5
    endloop
  endfacet
endsolid OpenSCAD_Model
