solid OpenSCAD_Model
  facet normal -1 0 0
    outer loop
      vertex -35 -50 1.11022e-014
      vertex -35 -3 5
      vertex -35 0 0
    endloop
  endfacet
  facet normal -1 -0 0
    outer loop
      vertex -35 -3 5
      vertex -35 -50 1.11022e-014
      vertex -35 -50 5
    endloop
  endfacet
  facet normal -1 0 0
    outer loop
      vertex -35 -3 5
      vertex -35 2.66454e-015 12
      vertex -35 0 0
    endloop
  endfacet
  facet normal -1 -0 0
    outer loop
      vertex -35 2.66454e-015 12
      vertex -35 -3 5
      vertex -35 -3 12
    endloop
  endfacet
  facet normal 0 -1 0
    outer loop
      vertex -0.5 -3 12
      vertex -13.753 -3 6.56366
      vertex -4.94504 -3 6.94986
    endloop
  endfacet
  facet normal 0 -1 0
    outer loop
      vertex -13.753 -3 6.56366
      vertex -6.30194 -3 5.86777
      vertex -4.94504 -3 6.94986
    endloop
  endfacet
  facet normal 0 -1 0
    outer loop
      vertex -13 -3 5
      vertex -6.30194 -3 5.86777
      vertex -13.753 -3 6.56366
    endloop
  endfacet
  facet normal 0 -1 0
    outer loop
      vertex -13 -3 5
      vertex -6.30194 -3 4.13223
      vertex -6.30194 -3 5.86777
    endloop
  endfacet
  facet normal 0 -1 0
    outer loop
      vertex -13.753 -3 3.43634
      vertex -6.30194 -3 4.13223
      vertex -13 -3 5
    endloop
  endfacet
  facet normal 0 -1 0
    outer loop
      vertex -21 -3 6.66134e-016
      vertex -13.753 -3 3.43634
      vertex -15.445 -3 3.05014
    endloop
  endfacet
  facet normal 0 -1 0
    outer loop
      vertex -13.753 -3 3.43634
      vertex -4.94504 -3 3.05014
      vertex -6.30194 -3 4.13223
    endloop
  endfacet
  facet normal 0 -1 0
    outer loop
      vertex -35 -3 12
      vertex -15.445 -3 6.94986
      vertex -0.5 -3 12
    endloop
  endfacet
  facet normal 0 -1 0
    outer loop
      vertex -21 -3 5
      vertex -15.445 -3 6.94986
      vertex -35 -3 12
    endloop
  endfacet
  facet normal 0 -1 0
    outer loop
      vertex -21 -3 5
      vertex -35 -3 12
      vertex -35 -3 5
    endloop
  endfacet
  facet normal 0 -1 0
    outer loop
      vertex -15.445 -3 6.94986
      vertex -21 -3 5
      vertex -16.8019 -3 5.86777
    endloop
  endfacet
  facet normal 0 -1 0
    outer loop
      vertex -21 -3 5
      vertex -16.8019 -3 4.13223
      vertex -16.8019 -3 5.86777
    endloop
  endfacet
  facet normal 0 -1 0
    outer loop
      vertex -21 -3 6.66134e-016
      vertex -16.8019 -3 4.13223
      vertex -21 -3 5
    endloop
  endfacet
  facet normal 0 -1 -0
    outer loop
      vertex -13.753 -3 3.43634
      vertex -21 -3 6.66134e-016
      vertex -0.5 -3 6.66134e-016
    endloop
  endfacet
  facet normal 0 -1 -0
    outer loop
      vertex -16.8019 -3 4.13223
      vertex -21 -3 6.66134e-016
      vertex -15.445 -3 3.05014
    endloop
  endfacet
  facet normal 0 -1 0
    outer loop
      vertex -13.753 -3 6.56366
      vertex -0.5 -3 12
      vertex -15.445 -3 6.94986
    endloop
  endfacet
  facet normal 0 -1 0
    outer loop
      vertex -3.25302 -3 6.56366
      vertex -0.5 -3 12
      vertex -4.94504 -3 6.94986
    endloop
  endfacet
  facet normal 0 -1 0
    outer loop
      vertex -2.5 -3 5
      vertex -0.5 -3 12
      vertex -3.25302 -3 6.56366
    endloop
  endfacet
  facet normal 0 -1 0
    outer loop
      vertex -2.5 -3 5
      vertex -0.5 -3 6.66134e-016
      vertex -0.5 -3 12
    endloop
  endfacet
  facet normal 0 -1 0
    outer loop
      vertex -3.25302 -3 3.43634
      vertex -0.5 -3 6.66134e-016
      vertex -2.5 -3 5
    endloop
  endfacet
  facet normal 0 -1 0
    outer loop
      vertex -4.94504 -3 3.05014
      vertex -0.5 -3 6.66134e-016
      vertex -3.25302 -3 3.43634
    endloop
  endfacet
  facet normal 0 -1 0
    outer loop
      vertex -13.753 -3 3.43634
      vertex -0.5 -3 6.66134e-016
      vertex -4.94504 -3 3.05014
    endloop
  endfacet
  facet normal 0 -1 0
    outer loop
      vertex 16.247 -3 3.43634
      vertex 21 -3 5
      vertex 17 -3 5
    endloop
  endfacet
  facet normal 0 -1 0
    outer loop
      vertex 16.247 -3 3.43634
      vertex 21 -3 6.66134e-016
      vertex 21 -3 5
    endloop
  endfacet
  facet normal 0 -1 0
    outer loop
      vertex 14.555 -3 3.05014
      vertex 21 -3 6.66134e-016
      vertex 16.247 -3 3.43634
    endloop
  endfacet
  facet normal 0 -1 0
    outer loop
      vertex 21 -3 6.66134e-016
      vertex 14.555 -3 3.05014
      vertex 0.5 -3 6.66134e-016
    endloop
  endfacet
  facet normal 0 -1 0
    outer loop
      vertex 0.5 -3 12
      vertex 5.74698 -3 6.56366
      vertex 14.555 -3 6.94986
    endloop
  endfacet
  facet normal 0 -1 0
    outer loop
      vertex 5.74698 -3 6.56366
      vertex 13.1981 -3 5.86777
      vertex 14.555 -3 6.94986
    endloop
  endfacet
  facet normal 0 -1 0
    outer loop
      vertex 6.5 -3 5
      vertex 13.1981 -3 5.86777
      vertex 5.74698 -3 6.56366
    endloop
  endfacet
  facet normal 0 -1 0
    outer loop
      vertex 6.5 -3 5
      vertex 13.1981 -3 4.13223
      vertex 13.1981 -3 5.86777
    endloop
  endfacet
  facet normal 0 -1 0
    outer loop
      vertex 5.74698 -3 3.43634
      vertex 13.1981 -3 4.13223
      vertex 6.5 -3 5
    endloop
  endfacet
  facet normal 0 -1 0
    outer loop
      vertex 0.5 -3 6.66134e-016
      vertex 5.74698 -3 3.43634
      vertex 4.05496 -3 3.05014
    endloop
  endfacet
  facet normal 0 -1 0
    outer loop
      vertex 5.74698 -3 3.43634
      vertex 14.555 -3 3.05014
      vertex 13.1981 -3 4.13223
    endloop
  endfacet
  facet normal 0 -1 0
    outer loop
      vertex 5.74698 -3 6.56366
      vertex 0.5 -3 12
      vertex 4.05496 -3 6.94986
    endloop
  endfacet
  facet normal 0 -1 0
    outer loop
      vertex 0.5 -3 12
      vertex 2.69806 -3 5.86777
      vertex 4.05496 -3 6.94986
    endloop
  endfacet
  facet normal 0 -1 0
    outer loop
      vertex 0.5 -3 6.66134e-016
      vertex 2.69806 -3 5.86777
      vertex 0.5 -3 12
    endloop
  endfacet
  facet normal 0 -1 -0
    outer loop
      vertex 5.74698 -3 3.43634
      vertex 0.5 -3 6.66134e-016
      vertex 14.555 -3 3.05014
    endloop
  endfacet
  facet normal 0 -1 -0
    outer loop
      vertex 2.69806 -3 4.13223
      vertex 0.5 -3 6.66134e-016
      vertex 4.05496 -3 3.05014
    endloop
  endfacet
  facet normal 0 -1 -0
    outer loop
      vertex 2.69806 -3 5.86777
      vertex 0.5 -3 6.66134e-016
      vertex 2.69806 -3 4.13223
    endloop
  endfacet
  facet normal 0 -1 0
    outer loop
      vertex 0.5 -3 12
      vertex 14.555 -3 6.94986
      vertex 35 -3 12
    endloop
  endfacet
  facet normal 0 -1 0
    outer loop
      vertex 16.247 -3 6.56366
      vertex 35 -3 12
      vertex 14.555 -3 6.94986
    endloop
  endfacet
  facet normal 0 -1 0
    outer loop
      vertex 21 -3 5
      vertex 16.247 -3 6.56366
      vertex 17 -3 5
    endloop
  endfacet
  facet normal 0 -1 0
    outer loop
      vertex 16.247 -3 6.56366
      vertex 21 -3 5
      vertex 35 -3 12
    endloop
  endfacet
  facet normal 0 -1 -0
    outer loop
      vertex 35 -3 12
      vertex 21 -3 5
      vertex 35 -3 5
    endloop
  endfacet
  facet normal 1 0 0
    outer loop
      vertex 35 -3 5
      vertex 35 2.66454e-015 12
      vertex 35 -3 12
    endloop
  endfacet
  facet normal 1 0 0
    outer loop
      vertex 35 2.66454e-015 12
      vertex 35 -3 5
      vertex 35 0 0
    endloop
  endfacet
  facet normal 1 0 0
    outer loop
      vertex 35 -50 1.11022e-014
      vertex 35 -3 5
      vertex 35 -50 5
    endloop
  endfacet
  facet normal 1 0 0
    outer loop
      vertex 35 -3 5
      vertex 35 -50 1.11022e-014
      vertex 35 0 0
    endloop
  endfacet
  facet normal 0 0 1
    outer loop
      vertex 35 2.66454e-015 12
      vertex 0.5 -1 12
      vertex 35 -3 12
    endloop
  endfacet
  facet normal 0 0 1
    outer loop
      vertex 35 2.66454e-015 12
      vertex -0.5 -1 12
      vertex 0.5 -1 12
    endloop
  endfacet
  facet normal -0 0 1
    outer loop
      vertex -35 2.66454e-015 12
      vertex -0.5 -1 12
      vertex 35 2.66454e-015 12
    endloop
  endfacet
  facet normal 0 0 1
    outer loop
      vertex -35 -3 12
      vertex -0.5 -1 12
      vertex -35 2.66454e-015 12
    endloop
  endfacet
  facet normal 0 0 1
    outer loop
      vertex -0.5 -1 12
      vertex -35 -3 12
      vertex -0.5 -3 12
    endloop
  endfacet
  facet normal 0 0 1
    outer loop
      vertex 35 -3 12
      vertex 0.5 -1 12
      vertex 0.5 -3 12
    endloop
  endfacet
  facet normal 0 1 -2.22045e-016
    outer loop
      vertex -4.94504 1.54318e-015 6.94986
      vertex -13.753 1.45743e-015 6.56366
      vertex -15.445 1.54318e-015 6.94986
    endloop
  endfacet
  facet normal 0 1 -2.22045e-016
    outer loop
      vertex -6.30194 1.30291e-015 5.86777
      vertex -13.753 1.45743e-015 6.56366
      vertex -4.94504 1.54318e-015 6.94986
    endloop
  endfacet
  facet normal 0 1 -2.22045e-016
    outer loop
      vertex -6.30194 1.30291e-015 5.86777
      vertex -13 1.11022e-015 5
      vertex -13.753 1.45743e-015 6.56366
    endloop
  endfacet
  facet normal 0 1 -2.22045e-016
    outer loop
      vertex -6.30194 9.1754e-016 4.13223
      vertex -13 1.11022e-015 5
      vertex -6.30194 1.30291e-015 5.86777
    endloop
  endfacet
  facet normal 0 1 -2.22045e-016
    outer loop
      vertex -6.30194 9.1754e-016 4.13223
      vertex -13.753 7.6302e-016 3.43634
      vertex -13 1.11022e-015 5
    endloop
  endfacet
  facet normal 0 1 -2.22045e-016
    outer loop
      vertex -4.94504 6.77268e-016 3.05014
      vertex -13.753 7.6302e-016 3.43634
      vertex -6.30194 9.1754e-016 4.13223
    endloop
  endfacet
  facet normal 0 1 -2.22045e-016
    outer loop
      vertex -13.753 7.6302e-016 3.43634
      vertex -4.94504 6.77268e-016 3.05014
      vertex -15.445 6.77268e-016 3.05014
    endloop
  endfacet
  facet normal 0 1 -2.22045e-016
    outer loop
      vertex 4.05496 1.54318e-015 6.94986
      vertex -3.25302 1.45743e-015 6.56366
      vertex -4.94504 1.54318e-015 6.94986
    endloop
  endfacet
  facet normal 0 1 -2.22045e-016
    outer loop
      vertex 2.69806 1.30291e-015 5.86777
      vertex -3.25302 1.45743e-015 6.56366
      vertex 4.05496 1.54318e-015 6.94986
    endloop
  endfacet
  facet normal 0 1 -2.22045e-016
    outer loop
      vertex 2.69806 1.30291e-015 5.86777
      vertex -2.5 1.11022e-015 5
      vertex -3.25302 1.45743e-015 6.56366
    endloop
  endfacet
  facet normal 0 1 -2.22045e-016
    outer loop
      vertex 2.69806 9.1754e-016 4.13223
      vertex -2.5 1.11022e-015 5
      vertex 2.69806 1.30291e-015 5.86777
    endloop
  endfacet
  facet normal 0 1 -2.22045e-016
    outer loop
      vertex 2.69806 9.1754e-016 4.13223
      vertex -3.25302 7.6302e-016 3.43634
      vertex -2.5 1.11022e-015 5
    endloop
  endfacet
  facet normal 0 1 -2.22045e-016
    outer loop
      vertex 4.05496 6.77268e-016 3.05014
      vertex -3.25302 7.6302e-016 3.43634
      vertex 2.69806 9.1754e-016 4.13223
    endloop
  endfacet
  facet normal 0 1 -2.22045e-016
    outer loop
      vertex -3.25302 7.6302e-016 3.43634
      vertex 4.05496 6.77268e-016 3.05014
      vertex -4.94504 6.77268e-016 3.05014
    endloop
  endfacet
  facet normal 0 1 -2.22045e-016
    outer loop
      vertex 14.555 1.54318e-015 6.94986
      vertex 5.74698 1.45743e-015 6.56366
      vertex 4.05496 1.54318e-015 6.94986
    endloop
  endfacet
  facet normal 0 1 -2.22045e-016
    outer loop
      vertex 13.1981 1.30291e-015 5.86777
      vertex 5.74698 1.45743e-015 6.56366
      vertex 14.555 1.54318e-015 6.94986
    endloop
  endfacet
  facet normal 0 1 -2.22045e-016
    outer loop
      vertex 13.1981 1.30291e-015 5.86777
      vertex 6.5 1.11022e-015 5
      vertex 5.74698 1.45743e-015 6.56366
    endloop
  endfacet
  facet normal 0 1 -2.22045e-016
    outer loop
      vertex 13.1981 9.1754e-016 4.13223
      vertex 6.5 1.11022e-015 5
      vertex 13.1981 1.30291e-015 5.86777
    endloop
  endfacet
  facet normal 0 1 -2.22045e-016
    outer loop
      vertex 13.1981 9.1754e-016 4.13223
      vertex 5.74698 7.6302e-016 3.43634
      vertex 6.5 1.11022e-015 5
    endloop
  endfacet
  facet normal 0 1 -2.22045e-016
    outer loop
      vertex 14.555 6.77268e-016 3.05014
      vertex 5.74698 7.6302e-016 3.43634
      vertex 13.1981 9.1754e-016 4.13223
    endloop
  endfacet
  facet normal 0 1 -2.22045e-016
    outer loop
      vertex 5.74698 7.6302e-016 3.43634
      vertex 14.555 6.77268e-016 3.05014
      vertex 4.05496 6.77268e-016 3.05014
    endloop
  endfacet
  facet normal 0 1 -2.22045e-016
    outer loop
      vertex 4.05496 1.54318e-015 6.94986
      vertex 35 2.66454e-015 12
      vertex 14.555 1.54318e-015 6.94986
    endloop
  endfacet
  facet normal 0 1 -2.22045e-016
    outer loop
      vertex 35 2.66454e-015 12
      vertex 16.247 1.45743e-015 6.56366
      vertex 14.555 1.54318e-015 6.94986
    endloop
  endfacet
  facet normal 0 1 -2.22045e-016
    outer loop
      vertex 35 2.66454e-015 12
      vertex 17 1.11022e-015 5
      vertex 16.247 1.45743e-015 6.56366
    endloop
  endfacet
  facet normal 0 1 -2.22045e-016
    outer loop
      vertex 35 0 0
      vertex 17 1.11022e-015 5
      vertex 35 2.66454e-015 12
    endloop
  endfacet
  facet normal 0 1 -2.22045e-016
    outer loop
      vertex 35 0 0
      vertex 4.05496 6.77268e-016 3.05014
      vertex 14.555 6.77268e-016 3.05014
    endloop
  endfacet
  facet normal 0 1 -2.22045e-016
    outer loop
      vertex 4.05496 6.77268e-016 3.05014
      vertex 35 0 0
      vertex -4.94504 6.77268e-016 3.05014
    endloop
  endfacet
  facet normal 0 1 -2.22045e-016
    outer loop
      vertex -35 0 0
      vertex -4.94504 6.77268e-016 3.05014
      vertex 35 0 0
    endloop
  endfacet
  facet normal 0 1 -2.22045e-016
    outer loop
      vertex 16.247 7.6302e-016 3.43634
      vertex 35 0 0
      vertex 14.555 6.77268e-016 3.05014
    endloop
  endfacet
  facet normal 0 1 -2.22045e-016
    outer loop
      vertex 17 1.11022e-015 5
      vertex 35 0 0
      vertex 16.247 7.6302e-016 3.43634
    endloop
  endfacet
  facet normal 0 1 -2.22045e-016
    outer loop
      vertex 35 2.66454e-015 12
      vertex 4.05496 1.54318e-015 6.94986
      vertex -35 2.66454e-015 12
    endloop
  endfacet
  facet normal 0 1 -2.22045e-016
    outer loop
      vertex -4.94504 1.54318e-015 6.94986
      vertex -35 2.66454e-015 12
      vertex 4.05496 1.54318e-015 6.94986
    endloop
  endfacet
  facet normal 0 1 -2.22045e-016
    outer loop
      vertex -15.445 1.54318e-015 6.94986
      vertex -35 2.66454e-015 12
      vertex -4.94504 1.54318e-015 6.94986
    endloop
  endfacet
  facet normal 0 1 -2.22045e-016
    outer loop
      vertex -16.8019 1.30291e-015 5.86777
      vertex -35 2.66454e-015 12
      vertex -15.445 1.54318e-015 6.94986
    endloop
  endfacet
  facet normal 0 1 -2.22045e-016
    outer loop
      vertex -35 0 0
      vertex -16.8019 1.30291e-015 5.86777
      vertex -16.8019 9.1754e-016 4.13223
    endloop
  endfacet
  facet normal 0 1 -2.22045e-016
    outer loop
      vertex -35 0 0
      vertex -16.8019 9.1754e-016 4.13223
      vertex -15.445 6.77268e-016 3.05014
    endloop
  endfacet
  facet normal 0 1 -2.22045e-016
    outer loop
      vertex -16.8019 1.30291e-015 5.86777
      vertex -35 0 0
      vertex -35 2.66454e-015 12
    endloop
  endfacet
  facet normal 0 1 -2.22045e-016
    outer loop
      vertex -4.94504 6.77268e-016 3.05014
      vertex -35 0 0
      vertex -15.445 6.77268e-016 3.05014
    endloop
  endfacet
  facet normal 0 -2.22045e-016 -1
    outer loop
      vertex -21 -50 1.11022e-014
      vertex -23.9 -41 9.10383e-015
      vertex -21 -3 6.66134e-016
    endloop
  endfacet
  facet normal 0 -2.22045e-016 -1
    outer loop
      vertex -21 -50 1.11022e-014
      vertex -24.3696 -42.9054 9.5269e-015
      vertex -23.9 -41 9.10383e-015
    endloop
  endfacet
  facet normal 0 -2.22045e-016 -1
    outer loop
      vertex -21 -50 1.11022e-014
      vertex -25.6709 -44.3742 9.85306e-015
      vertex -24.3696 -42.9054 9.5269e-015
    endloop
  endfacet
  facet normal 0 -2.22045e-016 -1
    outer loop
      vertex -21 -50 1.11022e-014
      vertex -27.5058 -45.0701 1.00076e-014
      vertex -25.6709 -44.3742 9.85306e-015
    endloop
  endfacet
  facet normal 0 -2.22045e-016 -1
    outer loop
      vertex -35 -50 1.11022e-014
      vertex -27.5058 -45.0701 1.00076e-014
      vertex -21 -50 1.11022e-014
    endloop
  endfacet
  facet normal 0 -2.22045e-016 -1
    outer loop
      vertex -31.9809 -41.9812 9.3217e-015
      vertex -35 -50 1.11022e-014
      vertex -31.9809 -40.0188 8.88596e-015
    endloop
  endfacet
  facet normal 0 -2.22045e-016 -1
    outer loop
      vertex -31.0689 -43.7188 9.70752e-015
      vertex -35 -50 1.11022e-014
      vertex -31.9809 -41.9812 9.3217e-015
    endloop
  endfacet
  facet normal 0 -2.22045e-016 -1
    outer loop
      vertex -29.4539 -44.8336 9.95505e-015
      vertex -35 -50 1.11022e-014
      vertex -31.0689 -43.7188 9.70752e-015
    endloop
  endfacet
  facet normal 0 -2.22045e-016 -1
    outer loop
      vertex -27.5058 -45.0701 1.00076e-014
      vertex -35 -50 1.11022e-014
      vertex -29.4539 -44.8336 9.95505e-015
    endloop
  endfacet
  facet normal -0 -2.22045e-016 -1
    outer loop
      vertex -0.5 -3 6.66134e-016
      vertex -21 -3 6.66134e-016
      vertex -0.5 -1 2.22045e-016
    endloop
  endfacet
  facet normal 0 -2.22045e-016 -1
    outer loop
      vertex 35 -50 1.11022e-014
      vertex 32.1 -41 9.10383e-015
      vertex 35 0 0
    endloop
  endfacet
  facet normal 0 -2.22045e-016 -1
    outer loop
      vertex 35 -50 1.11022e-014
      vertex 31.6304 -42.9054 9.5269e-015
      vertex 32.1 -41 9.10383e-015
    endloop
  endfacet
  facet normal 0 -2.22045e-016 -1
    outer loop
      vertex 35 -50 1.11022e-014
      vertex 30.3291 -44.3742 9.85306e-015
      vertex 31.6304 -42.9054 9.5269e-015
    endloop
  endfacet
  facet normal 0 -2.22045e-016 -1
    outer loop
      vertex 35 -50 1.11022e-014
      vertex 28.4942 -45.0701 1.00076e-014
      vertex 30.3291 -44.3742 9.85306e-015
    endloop
  endfacet
  facet normal 0 -2.22045e-016 -1
    outer loop
      vertex 21 -50 1.11022e-014
      vertex 28.4942 -45.0701 1.00076e-014
      vertex 35 -50 1.11022e-014
    endloop
  endfacet
  facet normal 0 -2.22045e-016 -1
    outer loop
      vertex 24.0191 -41.9812 9.3217e-015
      vertex 21 -50 1.11022e-014
      vertex 24.0191 -40.0188 8.88596e-015
    endloop
  endfacet
  facet normal 0 -2.22045e-016 -1
    outer loop
      vertex 24.9311 -43.7188 9.70752e-015
      vertex 21 -50 1.11022e-014
      vertex 24.0191 -41.9812 9.3217e-015
    endloop
  endfacet
  facet normal 0 -2.22045e-016 -1
    outer loop
      vertex 26.5461 -44.8336 9.95505e-015
      vertex 21 -50 1.11022e-014
      vertex 24.9311 -43.7188 9.70752e-015
    endloop
  endfacet
  facet normal 0 -2.22045e-016 -1
    outer loop
      vertex 28.4942 -45.0701 1.00076e-014
      vertex 21 -50 1.11022e-014
      vertex 26.5461 -44.8336 9.95505e-015
    endloop
  endfacet
  facet normal 0 -2.22045e-016 -1
    outer loop
      vertex 31.6304 -39.0946 8.68075e-015
      vertex 35 0 0
      vertex 32.1 -41 9.10383e-015
    endloop
  endfacet
  facet normal 0 -2.22045e-016 -1
    outer loop
      vertex 30.3291 -37.6258 8.3546e-015
      vertex 35 0 0
      vertex 31.6304 -39.0946 8.68075e-015
    endloop
  endfacet
  facet normal 0 -2.22045e-016 -1
    outer loop
      vertex 28.4942 -36.9299 8.20008e-015
      vertex 35 0 0
      vertex 30.3291 -37.6258 8.3546e-015
    endloop
  endfacet
  facet normal 0 -2.22045e-016 -1
    outer loop
      vertex 21 -3 6.66134e-016
      vertex 28.4942 -36.9299 8.20008e-015
      vertex 26.5461 -37.1664 8.25261e-015
    endloop
  endfacet
  facet normal 0 -2.22045e-016 -1
    outer loop
      vertex 21 -3 6.66134e-016
      vertex 26.5461 -37.1664 8.25261e-015
      vertex 24.9311 -38.2812 8.50013e-015
    endloop
  endfacet
  facet normal 0 -2.22045e-016 -1
    outer loop
      vertex 21 -3 6.66134e-016
      vertex 24.9311 -38.2812 8.50013e-015
      vertex 24.0191 -40.0188 8.88596e-015
    endloop
  endfacet
  facet normal 0 -2.22045e-016 -1
    outer loop
      vertex 21 -3 6.66134e-016
      vertex 24.0191 -40.0188 8.88596e-015
      vertex 21 -50 1.11022e-014
    endloop
  endfacet
  facet normal 0 -2.22045e-016 -1
    outer loop
      vertex 28.4942 -36.9299 8.20008e-015
      vertex 21 -3 6.66134e-016
      vertex 35 0 0
    endloop
  endfacet
  facet normal 0 -2.22045e-016 -1
    outer loop
      vertex 0.5 -1 2.22045e-016
      vertex 21 -3 6.66134e-016
      vertex 0.5 -3 6.66134e-016
    endloop
  endfacet
  facet normal 0 -2.22045e-016 -1
    outer loop
      vertex 21 -3 6.66134e-016
      vertex 0.5 -1 2.22045e-016
      vertex 35 0 0
    endloop
  endfacet
  facet normal 0 -2.22045e-016 -1
    outer loop
      vertex -0.5 -1 2.22045e-016
      vertex 35 0 0
      vertex 0.5 -1 2.22045e-016
    endloop
  endfacet
  facet normal 0 -2.22045e-016 -1
    outer loop
      vertex -24.3696 -39.0946 8.68075e-015
      vertex -21 -3 6.66134e-016
      vertex -23.9 -41 9.10383e-015
    endloop
  endfacet
  facet normal 0 -2.22045e-016 -1
    outer loop
      vertex -25.6709 -37.6258 8.3546e-015
      vertex -21 -3 6.66134e-016
      vertex -24.3696 -39.0946 8.68075e-015
    endloop
  endfacet
  facet normal 0 -2.22045e-016 -1
    outer loop
      vertex -27.5058 -36.9299 8.20008e-015
      vertex -21 -3 6.66134e-016
      vertex -25.6709 -37.6258 8.3546e-015
    endloop
  endfacet
  facet normal 0 -2.22045e-016 -1
    outer loop
      vertex -29.4539 -37.1664 8.25261e-015
      vertex -21 -3 6.66134e-016
      vertex -27.5058 -36.9299 8.20008e-015
    endloop
  endfacet
  facet normal 0 -2.22045e-016 -1
    outer loop
      vertex -35 0 0
      vertex -29.4539 -37.1664 8.25261e-015
      vertex -31.0689 -38.2812 8.50013e-015
    endloop
  endfacet
  facet normal 0 -2.22045e-016 -1
    outer loop
      vertex -35 0 0
      vertex -31.0689 -38.2812 8.50013e-015
      vertex -31.9809 -40.0188 8.88596e-015
    endloop
  endfacet
  facet normal 0 -2.22045e-016 -1
    outer loop
      vertex -35 0 0
      vertex -31.9809 -40.0188 8.88596e-015
      vertex -35 -50 1.11022e-014
    endloop
  endfacet
  facet normal 0 -2.22045e-016 -1
    outer loop
      vertex -0.5 -1 2.22045e-016
      vertex -35 0 0
      vertex 35 0 0
    endloop
  endfacet
  facet normal 0 -2.22045e-016 -1
    outer loop
      vertex -21 -3 6.66134e-016
      vertex -35 0 0
      vertex -0.5 -1 2.22045e-016
    endloop
  endfacet
  facet normal 0 -2.22045e-016 -1
    outer loop
      vertex -29.4539 -37.1664 8.25261e-015
      vertex -35 0 0
      vertex -21 -3 6.66134e-016
    endloop
  endfacet
  facet normal -0.900969 0 -0.433884
    outer loop
      vertex -13 -3 5
      vertex -13.753 1.45743e-015 6.56366
      vertex -13 1.11022e-015 5
    endloop
  endfacet
  facet normal -0.900969 -0 -0.433884
    outer loop
      vertex -13.753 1.45743e-015 6.56366
      vertex -13 -3 5
      vertex -13.753 -3 6.56366
    endloop
  endfacet
  facet normal 1 -0 0
    outer loop
      vertex -16.8019 -3 5.86777
      vertex -16.8019 9.1754e-016 4.13223
      vertex -16.8019 1.30291e-015 5.86777
    endloop
  endfacet
  facet normal 1 0 0
    outer loop
      vertex -16.8019 9.1754e-016 4.13223
      vertex -16.8019 -3 5.86777
      vertex -16.8019 -3 4.13223
    endloop
  endfacet
  facet normal -0.222521 0 -0.974928
    outer loop
      vertex -15.445 -3 6.94986
      vertex -13.753 1.45743e-015 6.56366
      vertex -13.753 -3 6.56366
    endloop
  endfacet
  facet normal -0.222521 0 -0.974928
    outer loop
      vertex -13.753 1.45743e-015 6.56366
      vertex -15.445 -3 6.94986
      vertex -15.445 1.54318e-015 6.94986
    endloop
  endfacet
  facet normal 0.62349 0 -0.781831
    outer loop
      vertex -16.8019 -3 5.86777
      vertex -15.445 1.54318e-015 6.94986
      vertex -15.445 -3 6.94986
    endloop
  endfacet
  facet normal 0.62349 0 -0.781831
    outer loop
      vertex -15.445 1.54318e-015 6.94986
      vertex -16.8019 -3 5.86777
      vertex -16.8019 1.30291e-015 5.86777
    endloop
  endfacet
  facet normal -0.900969 0 0.433884
    outer loop
      vertex -13.753 -3 3.43634
      vertex -13 1.11022e-015 5
      vertex -13.753 7.6302e-016 3.43634
    endloop
  endfacet
  facet normal -0.900969 0 0.433884
    outer loop
      vertex -13 1.11022e-015 5
      vertex -13.753 -3 3.43634
      vertex -13 -3 5
    endloop
  endfacet
  facet normal -0.222521 0 0.974928
    outer loop
      vertex -15.445 6.77268e-016 3.05014
      vertex -13.753 -3 3.43634
      vertex -13.753 7.6302e-016 3.43634
    endloop
  endfacet
  facet normal -0.222521 0 0.974928
    outer loop
      vertex -13.753 -3 3.43634
      vertex -15.445 6.77268e-016 3.05014
      vertex -15.445 -3 3.05014
    endloop
  endfacet
  facet normal 0.62349 0 0.781831
    outer loop
      vertex -16.8019 9.1754e-016 4.13223
      vertex -15.445 -3 3.05014
      vertex -15.445 6.77268e-016 3.05014
    endloop
  endfacet
  facet normal 0.62349 0 0.781831
    outer loop
      vertex -15.445 -3 3.05014
      vertex -16.8019 9.1754e-016 4.13223
      vertex -16.8019 -3 4.13223
    endloop
  endfacet
  facet normal -0.900969 0 -0.433884
    outer loop
      vertex -2.5 -3 5
      vertex -3.25302 1.45743e-015 6.56366
      vertex -2.5 1.11022e-015 5
    endloop
  endfacet
  facet normal -0.900969 -0 -0.433884
    outer loop
      vertex -3.25302 1.45743e-015 6.56366
      vertex -2.5 -3 5
      vertex -3.25302 -3 6.56366
    endloop
  endfacet
  facet normal 1 -0 0
    outer loop
      vertex -6.30194 -3 5.86777
      vertex -6.30194 9.1754e-016 4.13223
      vertex -6.30194 1.30291e-015 5.86777
    endloop
  endfacet
  facet normal 1 0 0
    outer loop
      vertex -6.30194 9.1754e-016 4.13223
      vertex -6.30194 -3 5.86777
      vertex -6.30194 -3 4.13223
    endloop
  endfacet
  facet normal -0.222521 0 -0.974928
    outer loop
      vertex -4.94504 -3 6.94986
      vertex -3.25302 1.45743e-015 6.56366
      vertex -3.25302 -3 6.56366
    endloop
  endfacet
  facet normal -0.222521 0 -0.974928
    outer loop
      vertex -3.25302 1.45743e-015 6.56366
      vertex -4.94504 -3 6.94986
      vertex -4.94504 1.54318e-015 6.94986
    endloop
  endfacet
  facet normal 0.62349 0 0.781831
    outer loop
      vertex -6.30194 9.1754e-016 4.13223
      vertex -4.94504 -3 3.05014
      vertex -4.94504 6.77268e-016 3.05014
    endloop
  endfacet
  facet normal 0.62349 0 0.781831
    outer loop
      vertex -4.94504 -3 3.05014
      vertex -6.30194 9.1754e-016 4.13223
      vertex -6.30194 -3 4.13223
    endloop
  endfacet
  facet normal 0.62349 0 -0.781831
    outer loop
      vertex -6.30194 -3 5.86777
      vertex -4.94504 1.54318e-015 6.94986
      vertex -4.94504 -3 6.94986
    endloop
  endfacet
  facet normal 0.62349 0 -0.781831
    outer loop
      vertex -4.94504 1.54318e-015 6.94986
      vertex -6.30194 -3 5.86777
      vertex -6.30194 1.30291e-015 5.86777
    endloop
  endfacet
  facet normal -0.900969 0 0.433884
    outer loop
      vertex -3.25302 -3 3.43634
      vertex -2.5 1.11022e-015 5
      vertex -3.25302 7.6302e-016 3.43634
    endloop
  endfacet
  facet normal -0.900969 0 0.433884
    outer loop
      vertex -2.5 1.11022e-015 5
      vertex -3.25302 -3 3.43634
      vertex -2.5 -3 5
    endloop
  endfacet
  facet normal -0.222521 0 0.974928
    outer loop
      vertex -4.94504 6.77268e-016 3.05014
      vertex -3.25302 -3 3.43634
      vertex -3.25302 7.6302e-016 3.43634
    endloop
  endfacet
  facet normal -0.222521 0 0.974928
    outer loop
      vertex -3.25302 -3 3.43634
      vertex -4.94504 6.77268e-016 3.05014
      vertex -4.94504 -3 3.05014
    endloop
  endfacet
  facet normal -0.900969 0 -0.433884
    outer loop
      vertex 17 -3 5
      vertex 16.247 1.45743e-015 6.56366
      vertex 17 1.11022e-015 5
    endloop
  endfacet
  facet normal -0.900969 -0 -0.433884
    outer loop
      vertex 16.247 1.45743e-015 6.56366
      vertex 17 -3 5
      vertex 16.247 -3 6.56366
    endloop
  endfacet
  facet normal 1 -0 0
    outer loop
      vertex 13.1981 -3 5.86777
      vertex 13.1981 9.1754e-016 4.13223
      vertex 13.1981 1.30291e-015 5.86777
    endloop
  endfacet
  facet normal 1 0 0
    outer loop
      vertex 13.1981 9.1754e-016 4.13223
      vertex 13.1981 -3 5.86777
      vertex 13.1981 -3 4.13223
    endloop
  endfacet
  facet normal -0.222521 0 -0.974928
    outer loop
      vertex 14.555 -3 6.94986
      vertex 16.247 1.45743e-015 6.56366
      vertex 16.247 -3 6.56366
    endloop
  endfacet
  facet normal -0.222521 0 -0.974928
    outer loop
      vertex 16.247 1.45743e-015 6.56366
      vertex 14.555 -3 6.94986
      vertex 14.555 1.54318e-015 6.94986
    endloop
  endfacet
  facet normal 0.62349 0 -0.781831
    outer loop
      vertex 13.1981 -3 5.86777
      vertex 14.555 1.54318e-015 6.94986
      vertex 14.555 -3 6.94986
    endloop
  endfacet
  facet normal 0.62349 0 -0.781831
    outer loop
      vertex 14.555 1.54318e-015 6.94986
      vertex 13.1981 -3 5.86777
      vertex 13.1981 1.30291e-015 5.86777
    endloop
  endfacet
  facet normal -0.222521 0 0.974928
    outer loop
      vertex 14.555 6.77268e-016 3.05014
      vertex 16.247 -3 3.43634
      vertex 16.247 7.6302e-016 3.43634
    endloop
  endfacet
  facet normal -0.222521 0 0.974928
    outer loop
      vertex 16.247 -3 3.43634
      vertex 14.555 6.77268e-016 3.05014
      vertex 14.555 -3 3.05014
    endloop
  endfacet
  facet normal 0.62349 0 0.781831
    outer loop
      vertex 13.1981 9.1754e-016 4.13223
      vertex 14.555 -3 3.05014
      vertex 14.555 6.77268e-016 3.05014
    endloop
  endfacet
  facet normal 0.62349 0 0.781831
    outer loop
      vertex 14.555 -3 3.05014
      vertex 13.1981 9.1754e-016 4.13223
      vertex 13.1981 -3 4.13223
    endloop
  endfacet
  facet normal -0.900969 0 0.433884
    outer loop
      vertex 16.247 -3 3.43634
      vertex 17 1.11022e-015 5
      vertex 16.247 7.6302e-016 3.43634
    endloop
  endfacet
  facet normal -0.900969 0 0.433884
    outer loop
      vertex 17 1.11022e-015 5
      vertex 16.247 -3 3.43634
      vertex 17 -3 5
    endloop
  endfacet
  facet normal -0.900969 0 -0.433884
    outer loop
      vertex 6.5 -3 5
      vertex 5.74698 1.45743e-015 6.56366
      vertex 6.5 1.11022e-015 5
    endloop
  endfacet
  facet normal -0.900969 -0 -0.433884
    outer loop
      vertex 5.74698 1.45743e-015 6.56366
      vertex 6.5 -3 5
      vertex 5.74698 -3 6.56366
    endloop
  endfacet
  facet normal 1 -0 0
    outer loop
      vertex 2.69806 -3 5.86777
      vertex 2.69806 9.1754e-016 4.13223
      vertex 2.69806 1.30291e-015 5.86777
    endloop
  endfacet
  facet normal 1 0 0
    outer loop
      vertex 2.69806 9.1754e-016 4.13223
      vertex 2.69806 -3 5.86777
      vertex 2.69806 -3 4.13223
    endloop
  endfacet
  facet normal -0.222521 0 -0.974928
    outer loop
      vertex 4.05496 -3 6.94986
      vertex 5.74698 1.45743e-015 6.56366
      vertex 5.74698 -3 6.56366
    endloop
  endfacet
  facet normal -0.222521 0 -0.974928
    outer loop
      vertex 5.74698 1.45743e-015 6.56366
      vertex 4.05496 -3 6.94986
      vertex 4.05496 1.54318e-015 6.94986
    endloop
  endfacet
  facet normal 0.62349 0 0.781831
    outer loop
      vertex 2.69806 9.1754e-016 4.13223
      vertex 4.05496 -3 3.05014
      vertex 4.05496 6.77268e-016 3.05014
    endloop
  endfacet
  facet normal 0.62349 0 0.781831
    outer loop
      vertex 4.05496 -3 3.05014
      vertex 2.69806 9.1754e-016 4.13223
      vertex 2.69806 -3 4.13223
    endloop
  endfacet
  facet normal 0.62349 0 -0.781831
    outer loop
      vertex 2.69806 -3 5.86777
      vertex 4.05496 1.54318e-015 6.94986
      vertex 4.05496 -3 6.94986
    endloop
  endfacet
  facet normal 0.62349 0 -0.781831
    outer loop
      vertex 4.05496 1.54318e-015 6.94986
      vertex 2.69806 -3 5.86777
      vertex 2.69806 1.30291e-015 5.86777
    endloop
  endfacet
  facet normal -0.900969 0 0.433884
    outer loop
      vertex 5.74698 -3 3.43634
      vertex 6.5 1.11022e-015 5
      vertex 5.74698 7.6302e-016 3.43634
    endloop
  endfacet
  facet normal -0.900969 0 0.433884
    outer loop
      vertex 6.5 1.11022e-015 5
      vertex 5.74698 -3 3.43634
      vertex 6.5 -3 5
    endloop
  endfacet
  facet normal -0.222521 0 0.974928
    outer loop
      vertex 4.05496 6.77268e-016 3.05014
      vertex 5.74698 -3 3.43634
      vertex 5.74698 7.6302e-016 3.43634
    endloop
  endfacet
  facet normal -0.222521 0 0.974928
    outer loop
      vertex 5.74698 -3 3.43634
      vertex 4.05496 6.77268e-016 3.05014
      vertex 4.05496 -3 3.05014
    endloop
  endfacet
  facet normal 1 -0 0
    outer loop
      vertex -0.5 -3 12
      vertex -0.5 -1 2.22045e-016
      vertex -0.5 -1 12
    endloop
  endfacet
  facet normal 1 0 0
    outer loop
      vertex -0.5 -1 2.22045e-016
      vertex -0.5 -3 12
      vertex -0.5 -3 6.66134e-016
    endloop
  endfacet
  facet normal -1 0 0
    outer loop
      vertex 0.5 -3 6.66134e-016
      vertex 0.5 -1 12
      vertex 0.5 -1 2.22045e-016
    endloop
  endfacet
  facet normal -1 -0 0
    outer loop
      vertex 0.5 -1 12
      vertex 0.5 -3 6.66134e-016
      vertex 0.5 -3 12
    endloop
  endfacet
  facet normal 0 -1 0
    outer loop
      vertex -0.5 -1 2.22045e-016
      vertex 0.5 -1 12
      vertex -0.5 -1 12
    endloop
  endfacet
  facet normal 0 -1 -0
    outer loop
      vertex 0.5 -1 12
      vertex -0.5 -1 2.22045e-016
      vertex 0.5 -1 2.22045e-016
    endloop
  endfacet
  facet normal 0 -1 0
    outer loop
      vertex -35 -50 1.11022e-014
      vertex -21 -50 5
      vertex -35 -50 5
    endloop
  endfacet
  facet normal 0 -1 -0
    outer loop
      vertex -21 -50 5
      vertex -35 -50 1.11022e-014
      vertex -21 -50 1.11022e-014
    endloop
  endfacet
  facet normal 1 -0 0
    outer loop
      vertex -21 -50 5
      vertex -21 -3 6.66134e-016
      vertex -21 -3 5
    endloop
  endfacet
  facet normal 1 0 0
    outer loop
      vertex -21 -3 6.66134e-016
      vertex -21 -50 5
      vertex -21 -50 1.11022e-014
    endloop
  endfacet
  facet normal 0 0 1
    outer loop
      vertex -21 -3 5
      vertex -21.9 -41 5
      vertex -21 -50 5
    endloop
  endfacet
  facet normal 0 0 1
    outer loop
      vertex -21 -3 5
      vertex -22.1986 -39.115 5
      vertex -21.9 -41 5
    endloop
  endfacet
  facet normal 0 0 1
    outer loop
      vertex -21 -3 5
      vertex -23.065 -37.4145 5
      vertex -22.1986 -39.115 5
    endloop
  endfacet
  facet normal 0 0 1
    outer loop
      vertex -21 -3 5
      vertex -24.4145 -36.065 5
      vertex -23.065 -37.4145 5
    endloop
  endfacet
  facet normal 0 0 1
    outer loop
      vertex -21 -3 5
      vertex -26.115 -35.1986 5
      vertex -24.4145 -36.065 5
    endloop
  endfacet
  facet normal 0 0 1
    outer loop
      vertex -21 -3 5
      vertex -28 -34.9 5
      vertex -26.115 -35.1986 5
    endloop
  endfacet
  facet normal -0 0 1
    outer loop
      vertex -35 -3 5
      vertex -28 -34.9 5
      vertex -21 -3 5
    endloop
  endfacet
  facet normal 0 0 1
    outer loop
      vertex -28 -34.9 5
      vertex -35 -3 5
      vertex -29.885 -35.1986 5
    endloop
  endfacet
  facet normal 0 0 1
    outer loop
      vertex -29.885 -35.1986 5
      vertex -35 -3 5
      vertex -31.5855 -36.065 5
    endloop
  endfacet
  facet normal 0 0 1
    outer loop
      vertex -31.5855 -36.065 5
      vertex -35 -3 5
      vertex -32.935 -37.4145 5
    endloop
  endfacet
  facet normal 0 0 1
    outer loop
      vertex -33.8014 -39.115 5
      vertex -35 -3 5
      vertex -34.1 -41 5
    endloop
  endfacet
  facet normal 0 0 1
    outer loop
      vertex -32.935 -37.4145 5
      vertex -35 -3 5
      vertex -33.8014 -39.115 5
    endloop
  endfacet
  facet normal -0 0 1
    outer loop
      vertex -22.1986 -42.885 5
      vertex -21 -50 5
      vertex -21.9 -41 5
    endloop
  endfacet
  facet normal -0 0 1
    outer loop
      vertex -23.065 -44.5855 5
      vertex -21 -50 5
      vertex -22.1986 -42.885 5
    endloop
  endfacet
  facet normal -0 0 1
    outer loop
      vertex -24.4145 -45.935 5
      vertex -21 -50 5
      vertex -23.065 -44.5855 5
    endloop
  endfacet
  facet normal -0 0 1
    outer loop
      vertex -26.115 -46.8014 5
      vertex -21 -50 5
      vertex -24.4145 -45.935 5
    endloop
  endfacet
  facet normal -0 0 1
    outer loop
      vertex -28 -47.1 5
      vertex -21 -50 5
      vertex -26.115 -46.8014 5
    endloop
  endfacet
  facet normal 0 0 1
    outer loop
      vertex -35 -50 5
      vertex -28 -47.1 5
      vertex -29.885 -46.8014 5
    endloop
  endfacet
  facet normal 0 0 1
    outer loop
      vertex -28 -47.1 5
      vertex -35 -50 5
      vertex -21 -50 5
    endloop
  endfacet
  facet normal 0 0 1
    outer loop
      vertex -31.5855 -45.935 5
      vertex -35 -50 5
      vertex -29.885 -46.8014 5
    endloop
  endfacet
  facet normal 0 0 1
    outer loop
      vertex -32.935 -44.5855 5
      vertex -35 -50 5
      vertex -31.5855 -45.935 5
    endloop
  endfacet
  facet normal 0 0 1
    outer loop
      vertex -33.8014 -42.885 5
      vertex -35 -50 5
      vertex -32.935 -44.5855 5
    endloop
  endfacet
  facet normal 0 0 1
    outer loop
      vertex -34.1 -41 5
      vertex -35 -50 5
      vertex -33.8014 -42.885 5
    endloop
  endfacet
  facet normal 0 0 1
    outer loop
      vertex -35 -50 5
      vertex -34.1 -41 5
      vertex -35 -3 5
    endloop
  endfacet
  facet normal -0.970942 -0.239316 0
    outer loop
      vertex -24.3696 -39.0946 8.68075e-015
      vertex -24.0704 -40.3086 1.5
      vertex -24.3696 -39.0946 1.5
    endloop
  endfacet
  facet normal -0.970942 -0.239315 7.20736e-007
    outer loop
      vertex -23.9 -41 9.10383e-015
      vertex -24.0704 -40.3086 1.5
      vertex -24.3696 -39.0946 8.68075e-015
    endloop
  endfacet
  facet normal -0.970942 -0.239314 0
    outer loop
      vertex -24.0704 -40.3086 1.5
      vertex -23.9 -41 9.10383e-015
      vertex -23.9 -41 1.5
    endloop
  endfacet
  facet normal 0.120536 -0.992709 2.52459e-006
    outer loop
      vertex -29.4539 -37.1664 8.25261e-015
      vertex -27.5058 -36.9299 1.5
      vertex -29.4539 -37.1664 1.5
    endloop
  endfacet
  facet normal 0.120538 -0.992709 0
    outer loop
      vertex -27.5058 -36.9299 1.5
      vertex -29.4539 -37.1664 8.25261e-015
      vertex -27.5058 -36.9299 8.20008e-015
    endloop
  endfacet
  facet normal -0.748511 -0.663123 0
    outer loop
      vertex -24.3696 -39.0946 8.68075e-015
      vertex -25.6709 -37.6258 1.5
      vertex -25.6709 -37.6258 8.3546e-015
    endloop
  endfacet
  facet normal -0.748511 -0.663123 0
    outer loop
      vertex -25.6709 -37.6258 1.5
      vertex -24.3696 -39.0946 8.68075e-015
      vertex -24.3696 -39.0946 1.5
    endloop
  endfacet
  facet normal 0.568065 -0.822984 0
    outer loop
      vertex -31.0689 -38.2812 1.5
      vertex -31.0689 -38.2812 8.50013e-015
      vertex -29.8406 -37.4334 1.5
    endloop
  endfacet
  facet normal 0.568064 -0.822984 7.27354e-007
    outer loop
      vertex -29.4539 -37.1664 8.25261e-015
      vertex -29.8406 -37.4334 1.5
      vertex -31.0689 -38.2812 8.50013e-015
    endloop
  endfacet
  facet normal 0.568068 -0.822982 2.09295e-006
    outer loop
      vertex -29.8406 -37.4334 1.5
      vertex -29.4539 -37.1664 8.25261e-015
      vertex -29.4539 -37.1664 1.5
    endloop
  endfacet
  facet normal -0.748511 0.663123 0
    outer loop
      vertex -25.6709 -44.3742 9.85306e-015
      vertex -24.3696 -42.9054 1.5
      vertex -24.3696 -42.9054 9.5269e-015
    endloop
  endfacet
  facet normal -0.748511 0.663123 0
    outer loop
      vertex -24.3696 -42.9054 1.5
      vertex -25.6709 -44.3742 9.85306e-015
      vertex -25.6709 -44.3742 1.5
    endloop
  endfacet
  facet normal -0.354605 0.935016 0
    outer loop
      vertex -25.6709 -44.3742 1.5
      vertex -27.5058 -45.0701 1.00076e-014
      vertex -27.5058 -45.0701 1.5
    endloop
  endfacet
  facet normal -0.354605 0.935016 0
    outer loop
      vertex -27.5058 -45.0701 1.00076e-014
      vertex -25.6709 -44.3742 1.5
      vertex -25.6709 -44.3742 9.85306e-015
    endloop
  endfacet
  facet normal 0.120538 0.992709 -0
    outer loop
      vertex -27.5058 -45.0701 1.00076e-014
      vertex -29.4539 -44.8336 1.5
      vertex -27.5058 -45.0701 1.5
    endloop
  endfacet
  facet normal 0.120538 0.992709 0
    outer loop
      vertex -29.4539 -44.8336 1.5
      vertex -27.5058 -45.0701 1.00076e-014
      vertex -29.4539 -44.8336 9.95505e-015
    endloop
  endfacet
  facet normal -0.354606 -0.935016 0
    outer loop
      vertex -26.1522 -37.4432 1.5
      vertex -25.6709 -37.6258 8.3546e-015
      vertex -25.6709 -37.6258 1.5
    endloop
  endfacet
  facet normal -0.354605 -0.935016 0
    outer loop
      vertex -27.5058 -36.9299 8.20008e-015
      vertex -26.1522 -37.4432 1.5
      vertex -27.5058 -36.9299 1.5
    endloop
  endfacet
  facet normal -0.354605 -0.935016 4.35678e-007
    outer loop
      vertex -26.1522 -37.4432 1.5
      vertex -27.5058 -36.9299 8.20008e-015
      vertex -25.6709 -37.6258 8.3546e-015
    endloop
  endfacet
  facet normal 0.885456 -0.464723 0
    outer loop
      vertex -31.9809 -40.0188 1.5
      vertex -31.0689 -38.2812 8.50013e-015
      vertex -31.0689 -38.2812 1.5
    endloop
  endfacet
  facet normal 0.885456 -0.464723 0
    outer loop
      vertex -31.0689 -38.2812 8.50013e-015
      vertex -31.9809 -40.0188 1.5
      vertex -31.9809 -40.0188 8.88596e-015
    endloop
  endfacet
  facet normal -0.970942 0.239316 0
    outer loop
      vertex -23.9 -41 9.10383e-015
      vertex -24.3646 -42.885 1.5
      vertex -23.9 -41 1.5
    endloop
  endfacet
  facet normal -0.970942 0.239315 -4.84024e-007
    outer loop
      vertex -24.3696 -42.9054 9.5269e-015
      vertex -24.3646 -42.885 1.5
      vertex -23.9 -41 9.10383e-015
    endloop
  endfacet
  facet normal -0.97095 0.239282 0
    outer loop
      vertex -24.3646 -42.885 1.5
      vertex -24.3696 -42.9054 9.5269e-015
      vertex -24.3696 -42.9054 1.5
    endloop
  endfacet
  facet normal 1 -0 0
    outer loop
      vertex -31.9809 -40.3792 1.5
      vertex -31.9809 -40.0188 8.88596e-015
      vertex -31.9809 -40.0188 1.5
    endloop
  endfacet
  facet normal 1 0 0
    outer loop
      vertex -31.9809 -41.9812 9.3217e-015
      vertex -31.9809 -40.3792 1.5
      vertex -31.9809 -41.9812 1.5
    endloop
  endfacet
  facet normal 1 0 0
    outer loop
      vertex -31.9809 -40.3792 1.5
      vertex -31.9809 -41.9812 9.3217e-015
      vertex -31.9809 -40.0188 8.88596e-015
    endloop
  endfacet
  facet normal 0.568064 0.822984 -0
    outer loop
      vertex -29.4539 -44.8336 9.95505e-015
      vertex -31.0689 -43.7188 1.5
      vertex -29.4539 -44.8336 1.5
    endloop
  endfacet
  facet normal 0.568064 0.822984 0
    outer loop
      vertex -31.0689 -43.7188 1.5
      vertex -29.4539 -44.8336 9.95505e-015
      vertex -31.0689 -43.7188 9.70752e-015
    endloop
  endfacet
  facet normal 0.885456 0.464723 0
    outer loop
      vertex -31.5065 -42.885 1.5
      vertex -31.9809 -41.9812 9.3217e-015
      vertex -31.9809 -41.9812 1.5
    endloop
  endfacet
  facet normal 0.885456 0.464723 -0
    outer loop
      vertex -31.0689 -43.7188 9.70752e-015
      vertex -31.5065 -42.885 1.5
      vertex -31.0689 -43.7188 1.5
    endloop
  endfacet
  facet normal 0.885456 0.464723 -1.40754e-007
    outer loop
      vertex -31.5065 -42.885 1.5
      vertex -31.0689 -43.7188 9.70752e-015
      vertex -31.9809 -41.9812 9.3217e-015
    endloop
  endfacet
  facet normal 0.987688 0.156434 0
    outer loop
      vertex -33.8014 -42.885 5
      vertex -34.1 -41 1.5
      vertex -34.1 -41 5
    endloop
  endfacet
  facet normal 0.987688 0.156434 0
    outer loop
      vertex -34.1 -41 1.5
      vertex -33.8014 -42.885 5
      vertex -33.8014 -42.885 1.5
    endloop
  endfacet
  facet normal -0.707107 -0.707107 0
    outer loop
      vertex -23.065 -37.4145 1.5
      vertex -24.4145 -36.065 5
      vertex -24.4145 -36.065 1.5
    endloop
  endfacet
  facet normal -0.707107 -0.707107 0
    outer loop
      vertex -24.4145 -36.065 5
      vertex -23.065 -37.4145 1.5
      vertex -23.065 -37.4145 5
    endloop
  endfacet
  facet normal -0.987689 -0.156433 0
    outer loop
      vertex -21.9 -41 1.5
      vertex -22.1986 -39.115 5
      vertex -22.1986 -39.115 1.5
    endloop
  endfacet
  facet normal -0.987689 -0.156433 0
    outer loop
      vertex -22.1986 -39.115 5
      vertex -21.9 -41 1.5
      vertex -21.9 -41 5
    endloop
  endfacet
  facet normal 0.987689 -0.156433 0
    outer loop
      vertex -34.1 -41 5
      vertex -33.8014 -39.115 1.5
      vertex -33.8014 -39.115 5
    endloop
  endfacet
  facet normal 0.987689 -0.156433 0
    outer loop
      vertex -33.8014 -39.115 1.5
      vertex -34.1 -41 5
      vertex -34.1 -41 1.5
    endloop
  endfacet
  facet normal 1.59716e-006 -2.52963e-007 1
    outer loop
      vertex -33.8014 -42.885 1.5
      vertex -33.8014 -39.115 1.5
      vertex -34.1 -41 1.5
    endloop
  endfacet
  facet normal 0.707107 -0.707107 0
    outer loop
      vertex -32.935 -37.4145 5
      vertex -31.5855 -36.065 1.5
      vertex -31.5855 -36.065 5
    endloop
  endfacet
  facet normal 0.707107 -0.707107 0
    outer loop
      vertex -31.5855 -36.065 1.5
      vertex -32.935 -37.4145 5
      vertex -32.935 -37.4145 1.5
    endloop
  endfacet
  facet normal -0.156434 0.987688 0
    outer loop
      vertex -26.115 -46.8014 1.5
      vertex -28 -47.1 5
      vertex -26.115 -46.8014 5
    endloop
  endfacet
  facet normal -0.156434 0.987688 0
    outer loop
      vertex -28 -47.1 5
      vertex -26.115 -46.8014 1.5
      vertex -28 -47.1 1.5
    endloop
  endfacet
  facet normal 0.156435 -0.987688 0
    outer loop
      vertex -29.885 -35.1986 1.5
      vertex -28 -34.9 5
      vertex -29.885 -35.1986 5
    endloop
  endfacet
  facet normal 0.156435 -0.987688 0
    outer loop
      vertex -28 -34.9 5
      vertex -29.885 -35.1986 1.5
      vertex -28 -34.9 1.5
    endloop
  endfacet
  facet normal -0.891006 0.453991 0
    outer loop
      vertex -23.065 -44.5855 1.5
      vertex -22.1986 -42.885 5
      vertex -22.1986 -42.885 1.5
    endloop
  endfacet
  facet normal -0.891006 0.453991 0
    outer loop
      vertex -22.1986 -42.885 5
      vertex -23.065 -44.5855 1.5
      vertex -23.065 -44.5855 5
    endloop
  endfacet
  facet normal -8.53852e-008 -1.67578e-007 1
    outer loop
      vertex -22.1986 -42.885 1.5
      vertex -24.4145 -36.065 1.5
      vertex -26.115 -35.1986 1.5
    endloop
  endfacet
  facet normal 8.45979e-008 -7.73457e-008 1
    outer loop
      vertex -22.1986 -42.885 1.5
      vertex -24.3696 -39.0946 1.5
      vertex -24.0704 -40.3086 1.5
    endloop
  endfacet
  facet normal 2.73494e-008 -1.10137e-007 1
    outer loop
      vertex -26.115 -35.1986 1.5
      vertex -24.3696 -39.0946 1.5
      vertex -22.1986 -42.885 1.5
    endloop
  endfacet
  facet normal -9.41487e-008 -1.64566e-007 1
    outer loop
      vertex -26.115 -35.1986 1.5
      vertex -25.6709 -37.6258 1.5
      vertex -24.3696 -39.0946 1.5
    endloop
  endfacet
  facet normal -6.00456e-008 -1.58326e-007 1
    outer loop
      vertex -26.115 -35.1986 1.5
      vertex -26.1522 -37.4432 1.5
      vertex -25.6709 -37.6258 1.5
    endloop
  endfacet
  facet normal -2.51683e-008 -1.58905e-007 1
    outer loop
      vertex -26.1522 -37.4432 1.5
      vertex -26.115 -35.1986 1.5
      vertex -28 -34.9 1.5
    endloop
  endfacet
  facet normal 8.53851e-008 -1.67578e-007 1
    outer loop
      vertex -29.885 -35.1986 1.5
      vertex -31.5855 -36.065 1.5
      vertex -33.8014 -42.885 1.5
    endloop
  endfacet
  facet normal 0.891007 -0.45399 0
    outer loop
      vertex -33.8014 -39.115 5
      vertex -32.935 -37.4145 1.5
      vertex -32.935 -37.4145 5
    endloop
  endfacet
  facet normal 0.891007 -0.45399 0
    outer loop
      vertex -32.935 -37.4145 1.5
      vertex -33.8014 -39.115 5
      vertex -33.8014 -39.115 1.5
    endloop
  endfacet
  facet normal 0.45399 -0.891007 0
    outer loop
      vertex -31.5855 -36.065 1.5
      vertex -29.885 -35.1986 5
      vertex -31.5855 -36.065 5
    endloop
  endfacet
  facet normal 0.45399 -0.891007 0
    outer loop
      vertex -29.885 -35.1986 5
      vertex -31.5855 -36.065 1.5
      vertex -29.885 -35.1986 1.5
    endloop
  endfacet
  facet normal -1.59716e-006 -2.52963e-007 1
    outer loop
      vertex -21.9 -41 1.5
      vertex -22.1986 -39.115 1.5
      vertex -22.1986 -42.885 1.5
    endloop
  endfacet
  facet normal -0.987688 0.156434 0
    outer loop
      vertex -22.1986 -42.885 1.5
      vertex -21.9 -41 5
      vertex -21.9 -41 1.5
    endloop
  endfacet
  facet normal -0.987688 0.156434 0
    outer loop
      vertex -21.9 -41 5
      vertex -22.1986 -42.885 1.5
      vertex -22.1986 -42.885 5
    endloop
  endfacet
  facet normal 2.52663e-008 -1.59524e-007 1
    outer loop
      vertex -29.885 -35.1986 1.5
      vertex -29.8406 -37.4334 1.5
      vertex -28 -34.9 1.5
    endloop
  endfacet
  facet normal 1.08964e-007 -1.57861e-007 1
    outer loop
      vertex -29.885 -35.1986 1.5
      vertex -31.0689 -38.2812 1.5
      vertex -29.8406 -37.4334 1.5
    endloop
  endfacet
  facet normal -1.50559e-007 -5.81913e-008 1
    outer loop
      vertex -29.885 -35.1986 1.5
      vertex -31.9809 -40.0188 1.5
      vertex -31.0689 -38.2812 1.5
    endloop
  endfacet
  facet normal -1.96436e-007 0 1
    outer loop
      vertex -31.9809 -40.0188 1.5
      vertex -33.8014 -42.885 1.5
      vertex -31.9809 -40.3792 1.5
    endloop
  endfacet
  facet normal -5.58798e-009 -1.21225e-007 1
    outer loop
      vertex -33.8014 -42.885 1.5
      vertex -31.9809 -40.0188 1.5
      vertex -29.885 -35.1986 1.5
    endloop
  endfacet
  facet normal 8.40379e-009 -1.48825e-007 1
    outer loop
      vertex -31.9809 -40.3792 1.5
      vertex -33.8014 -42.885 1.5
      vertex -31.9809 -41.9812 1.5
    endloop
  endfacet
  facet normal 0 -1.31897e-007 1
    outer loop
      vertex -31.5065 -42.885 1.5
      vertex -31.9809 -41.9812 1.5
      vertex -33.8014 -42.885 1.5
    endloop
  endfacet
  facet normal -7.00126e-008 -1.89677e-007 1
    outer loop
      vertex -22.1986 -42.885 1.5
      vertex -24.0704 -40.3086 1.5
      vertex -23.9 -41 1.5
    endloop
  endfacet
  facet normal 0 -1.26482e-007 1
    outer loop
      vertex -22.1986 -42.885 1.5
      vertex -23.9 -41 1.5
      vertex -24.3646 -42.885 1.5
    endloop
  endfacet
  facet normal 4.79539e-008 -1.05779e-007 1
    outer loop
      vertex -28 -34.9 1.5
      vertex -27.5058 -36.9299 1.5
      vertex -26.1522 -37.4432 1.5
    endloop
  endfacet
  facet normal 1.38519e-008 -1.14081e-007 1
    outer loop
      vertex -28 -34.9 1.5
      vertex -29.4539 -37.1664 1.5
      vertex -27.5058 -36.9299 1.5
    endloop
  endfacet
  facet normal -4.22905e-007 1.66091e-007 1
    outer loop
      vertex -29.4539 -37.1664 1.5
      vertex -28 -34.9 1.5
      vertex -29.8406 -37.4334 1.5
    endloop
  endfacet
  facet normal -0.891006 -0.453991 0
    outer loop
      vertex -22.1986 -39.115 1.5
      vertex -23.065 -37.4145 5
      vertex -23.065 -37.4145 1.5
    endloop
  endfacet
  facet normal -0.891006 -0.453991 0
    outer loop
      vertex -23.065 -37.4145 5
      vertex -22.1986 -39.115 1.5
      vertex -22.1986 -39.115 5
    endloop
  endfacet
  facet normal 4.96469e-007 -2.52963e-007 1
    outer loop
      vertex -32.935 -37.4145 1.5
      vertex -33.8014 -39.115 1.5
      vertex -33.8014 -42.885 1.5
    endloop
  endfacet
  facet normal 2.07138e-007 -2.07138e-007 1
    outer loop
      vertex -31.5855 -36.065 1.5
      vertex -32.935 -37.4145 1.5
      vertex -33.8014 -42.885 1.5
    endloop
  endfacet
  facet normal -0.453991 0.891006 0
    outer loop
      vertex -24.4145 -45.935 1.5
      vertex -26.115 -46.8014 5
      vertex -24.4145 -45.935 5
    endloop
  endfacet
  facet normal -0.453991 0.891006 0
    outer loop
      vertex -26.115 -46.8014 5
      vertex -24.4145 -45.935 1.5
      vertex -26.115 -46.8014 1.5
    endloop
  endfacet
  facet normal -2.07138e-007 -2.07138e-007 1
    outer loop
      vertex -22.1986 -42.885 1.5
      vertex -23.065 -37.4145 1.5
      vertex -24.4145 -36.065 1.5
    endloop
  endfacet
  facet normal -4.96468e-007 -2.52963e-007 1
    outer loop
      vertex -22.1986 -42.885 1.5
      vertex -22.1986 -39.115 1.5
      vertex -23.065 -37.4145 1.5
    endloop
  endfacet
  facet normal -0.156436 -0.987688 0
    outer loop
      vertex -28 -34.9 1.5
      vertex -26.115 -35.1986 5
      vertex -28 -34.9 5
    endloop
  endfacet
  facet normal -0.156436 -0.987688 -0
    outer loop
      vertex -26.115 -35.1986 5
      vertex -28 -34.9 1.5
      vertex -26.115 -35.1986 1.5
    endloop
  endfacet
  facet normal -0.45399 -0.891007 0
    outer loop
      vertex -26.115 -35.1986 1.5
      vertex -24.4145 -36.065 5
      vertex -26.115 -35.1986 5
    endloop
  endfacet
  facet normal -0.45399 -0.891007 -0
    outer loop
      vertex -24.4145 -36.065 5
      vertex -26.115 -35.1986 1.5
      vertex -24.4145 -36.065 1.5
    endloop
  endfacet
  facet normal 0.891007 0.45399 0
    outer loop
      vertex -32.935 -44.5855 5
      vertex -33.8014 -42.885 1.5
      vertex -33.8014 -42.885 5
    endloop
  endfacet
  facet normal 0.891007 0.45399 0
    outer loop
      vertex -33.8014 -42.885 1.5
      vertex -32.935 -44.5855 5
      vertex -32.935 -44.5855 1.5
    endloop
  endfacet
  facet normal 0.156434 0.987688 -0
    outer loop
      vertex -28 -47.1 1.5
      vertex -29.885 -46.8014 5
      vertex -28 -47.1 5
    endloop
  endfacet
  facet normal 0.156434 0.987688 0
    outer loop
      vertex -29.885 -46.8014 5
      vertex -28 -47.1 1.5
      vertex -29.885 -46.8014 1.5
    endloop
  endfacet
  facet normal -0.707107 0.707107 0
    outer loop
      vertex -24.4145 -45.935 1.5
      vertex -23.065 -44.5855 5
      vertex -23.065 -44.5855 1.5
    endloop
  endfacet
  facet normal -0.707107 0.707107 0
    outer loop
      vertex -23.065 -44.5855 5
      vertex -24.4145 -45.935 1.5
      vertex -24.4145 -45.935 5
    endloop
  endfacet
  facet normal 0.453991 0.891006 -0
    outer loop
      vertex -29.885 -46.8014 1.5
      vertex -31.5855 -45.935 5
      vertex -29.885 -46.8014 5
    endloop
  endfacet
  facet normal 0.453991 0.891006 0
    outer loop
      vertex -31.5855 -45.935 5
      vertex -29.885 -46.8014 1.5
      vertex -31.5855 -45.935 1.5
    endloop
  endfacet
  facet normal 0 0 1
    outer loop
      vertex -24.3696 -42.9054 1.5
      vertex -22.1986 -42.885 1.5
      vertex -24.3646 -42.885 1.5
    endloop
  endfacet
  facet normal 0 0 1
    outer loop
      vertex -22.1986 -42.885 1.5
      vertex -24.3696 -42.9054 1.5
      vertex -23.065 -44.5855 1.5
    endloop
  endfacet
  facet normal -0 0 1
    outer loop
      vertex -25.6709 -44.3742 1.5
      vertex -23.065 -44.5855 1.5
      vertex -24.3696 -42.9054 1.5
    endloop
  endfacet
  facet normal 0 0 1
    outer loop
      vertex -23.065 -44.5855 1.5
      vertex -25.6709 -44.3742 1.5
      vertex -24.4145 -45.935 1.5
    endloop
  endfacet
  facet normal 0 0 1
    outer loop
      vertex -25.6709 -44.3742 1.5
      vertex -26.115 -46.8014 1.5
      vertex -24.4145 -45.935 1.5
    endloop
  endfacet
  facet normal -0 0 1
    outer loop
      vertex -27.5058 -45.0701 1.5
      vertex -26.115 -46.8014 1.5
      vertex -25.6709 -44.3742 1.5
    endloop
  endfacet
  facet normal 0 0 1
    outer loop
      vertex -27.5058 -45.0701 1.5
      vertex -28 -47.1 1.5
      vertex -26.115 -46.8014 1.5
    endloop
  endfacet
  facet normal 0 0 1
    outer loop
      vertex -29.4539 -44.8336 1.5
      vertex -28 -47.1 1.5
      vertex -27.5058 -45.0701 1.5
    endloop
  endfacet
  facet normal 0 0 1
    outer loop
      vertex -29.4539 -44.8336 1.5
      vertex -29.885 -46.8014 1.5
      vertex -28 -47.1 1.5
    endloop
  endfacet
  facet normal 0 0 1
    outer loop
      vertex -31.5855 -45.935 1.5
      vertex -29.4539 -44.8336 1.5
      vertex -31.0689 -43.7188 1.5
    endloop
  endfacet
  facet normal 0 0 1
    outer loop
      vertex -32.935 -44.5855 1.5
      vertex -31.0689 -43.7188 1.5
      vertex -31.5065 -42.885 1.5
    endloop
  endfacet
  facet normal 0 0 1
    outer loop
      vertex -29.4539 -44.8336 1.5
      vertex -31.5855 -45.935 1.5
      vertex -29.885 -46.8014 1.5
    endloop
  endfacet
  facet normal 0 0 1
    outer loop
      vertex -31.0689 -43.7188 1.5
      vertex -32.935 -44.5855 1.5
      vertex -31.5855 -45.935 1.5
    endloop
  endfacet
  facet normal 0 -0 1
    outer loop
      vertex -32.935 -44.5855 1.5
      vertex -31.5065 -42.885 1.5
      vertex -33.8014 -42.885 1.5
    endloop
  endfacet
  facet normal 0.707107 0.707107 0
    outer loop
      vertex -31.5855 -45.935 5
      vertex -32.935 -44.5855 1.5
      vertex -32.935 -44.5855 5
    endloop
  endfacet
  facet normal 0.707107 0.707107 0
    outer loop
      vertex -32.935 -44.5855 1.5
      vertex -31.5855 -45.935 5
      vertex -31.5855 -45.935 1.5
    endloop
  endfacet
  facet normal -1 0 0
    outer loop
      vertex 21 -50 1.11022e-014
      vertex 21 -3 5
      vertex 21 -3 6.66134e-016
    endloop
  endfacet
  facet normal -1 -0 0
    outer loop
      vertex 21 -3 5
      vertex 21 -50 1.11022e-014
      vertex 21 -50 5
    endloop
  endfacet
  facet normal 0 -1 0
    outer loop
      vertex 21 -50 1.11022e-014
      vertex 35 -50 5
      vertex 21 -50 5
    endloop
  endfacet
  facet normal 0 -1 -0
    outer loop
      vertex 35 -50 5
      vertex 21 -50 1.11022e-014
      vertex 35 -50 1.11022e-014
    endloop
  endfacet
  facet normal 0 0 1
    outer loop
      vertex 35 -3 5
      vertex 34.1 -41 5
      vertex 35 -50 5
    endloop
  endfacet
  facet normal 0 0 1
    outer loop
      vertex 35 -3 5
      vertex 33.8014 -39.115 5
      vertex 34.1 -41 5
    endloop
  endfacet
  facet normal 0 0 1
    outer loop
      vertex 35 -3 5
      vertex 32.935 -37.4145 5
      vertex 33.8014 -39.115 5
    endloop
  endfacet
  facet normal 0 0 1
    outer loop
      vertex 35 -3 5
      vertex 31.5855 -36.065 5
      vertex 32.935 -37.4145 5
    endloop
  endfacet
  facet normal 0 0 1
    outer loop
      vertex 35 -3 5
      vertex 29.885 -35.1986 5
      vertex 31.5855 -36.065 5
    endloop
  endfacet
  facet normal 0 0 1
    outer loop
      vertex 35 -3 5
      vertex 28 -34.9 5
      vertex 29.885 -35.1986 5
    endloop
  endfacet
  facet normal -0 0 1
    outer loop
      vertex 21 -3 5
      vertex 28 -34.9 5
      vertex 35 -3 5
    endloop
  endfacet
  facet normal 0 0 1
    outer loop
      vertex 28 -34.9 5
      vertex 21 -3 5
      vertex 26.115 -35.1986 5
    endloop
  endfacet
  facet normal 0 0 1
    outer loop
      vertex 26.115 -35.1986 5
      vertex 21 -3 5
      vertex 24.4145 -36.065 5
    endloop
  endfacet
  facet normal 0 0 1
    outer loop
      vertex 24.4145 -36.065 5
      vertex 21 -3 5
      vertex 23.065 -37.4145 5
    endloop
  endfacet
  facet normal 0 0 1
    outer loop
      vertex 22.1986 -39.115 5
      vertex 21 -3 5
      vertex 21.9 -41 5
    endloop
  endfacet
  facet normal 0 0 1
    outer loop
      vertex 23.065 -37.4145 5
      vertex 21 -3 5
      vertex 22.1986 -39.115 5
    endloop
  endfacet
  facet normal -0 0 1
    outer loop
      vertex 33.8014 -42.885 5
      vertex 35 -50 5
      vertex 34.1 -41 5
    endloop
  endfacet
  facet normal -0 0 1
    outer loop
      vertex 32.935 -44.5855 5
      vertex 35 -50 5
      vertex 33.8014 -42.885 5
    endloop
  endfacet
  facet normal -0 0 1
    outer loop
      vertex 31.5855 -45.935 5
      vertex 35 -50 5
      vertex 32.935 -44.5855 5
    endloop
  endfacet
  facet normal -0 0 1
    outer loop
      vertex 29.885 -46.8014 5
      vertex 35 -50 5
      vertex 31.5855 -45.935 5
    endloop
  endfacet
  facet normal -0 0 1
    outer loop
      vertex 28 -47.1 5
      vertex 35 -50 5
      vertex 29.885 -46.8014 5
    endloop
  endfacet
  facet normal 0 0 1
    outer loop
      vertex 21 -50 5
      vertex 28 -47.1 5
      vertex 26.115 -46.8014 5
    endloop
  endfacet
  facet normal 0 0 1
    outer loop
      vertex 28 -47.1 5
      vertex 21 -50 5
      vertex 35 -50 5
    endloop
  endfacet
  facet normal 0 0 1
    outer loop
      vertex 24.4145 -45.935 5
      vertex 21 -50 5
      vertex 26.115 -46.8014 5
    endloop
  endfacet
  facet normal 0 0 1
    outer loop
      vertex 23.065 -44.5855 5
      vertex 21 -50 5
      vertex 24.4145 -45.935 5
    endloop
  endfacet
  facet normal 0 0 1
    outer loop
      vertex 22.1986 -42.885 5
      vertex 21 -50 5
      vertex 23.065 -44.5855 5
    endloop
  endfacet
  facet normal 0 0 1
    outer loop
      vertex 21.9 -41 5
      vertex 21 -50 5
      vertex 22.1986 -42.885 5
    endloop
  endfacet
  facet normal 0 0 1
    outer loop
      vertex 21 -50 5
      vertex 21.9 -41 5
      vertex 21 -3 5
    endloop
  endfacet
  facet normal -0.970942 -0.239316 0
    outer loop
      vertex 31.6304 -39.0946 8.68075e-015
      vertex 31.9296 -40.3086 1.5
      vertex 31.6304 -39.0946 1.5
    endloop
  endfacet
  facet normal -0.970942 -0.239315 7.20736e-007
    outer loop
      vertex 32.1 -41 9.10383e-015
      vertex 31.9296 -40.3086 1.5
      vertex 31.6304 -39.0946 8.68075e-015
    endloop
  endfacet
  facet normal -0.970942 -0.239314 0
    outer loop
      vertex 31.9296 -40.3086 1.5
      vertex 32.1 -41 9.10383e-015
      vertex 32.1 -41 1.5
    endloop
  endfacet
  facet normal 0.120536 -0.992709 2.52459e-006
    outer loop
      vertex 26.5461 -37.1664 8.25261e-015
      vertex 28.4942 -36.9299 1.5
      vertex 26.5461 -37.1664 1.5
    endloop
  endfacet
  facet normal 0.120538 -0.992709 0
    outer loop
      vertex 28.4942 -36.9299 1.5
      vertex 26.5461 -37.1664 8.25261e-015
      vertex 28.4942 -36.9299 8.20008e-015
    endloop
  endfacet
  facet normal -0.748511 -0.663123 0
    outer loop
      vertex 31.6304 -39.0946 8.68075e-015
      vertex 30.3291 -37.6258 1.5
      vertex 30.3291 -37.6258 8.3546e-015
    endloop
  endfacet
  facet normal -0.748511 -0.663123 0
    outer loop
      vertex 30.3291 -37.6258 1.5
      vertex 31.6304 -39.0946 8.68075e-015
      vertex 31.6304 -39.0946 1.5
    endloop
  endfacet
  facet normal 0.568065 -0.822984 0
    outer loop
      vertex 24.9311 -38.2812 1.5
      vertex 24.9311 -38.2812 8.50013e-015
      vertex 26.1594 -37.4334 1.5
    endloop
  endfacet
  facet normal 0.568064 -0.822984 7.27354e-007
    outer loop
      vertex 26.5461 -37.1664 8.25261e-015
      vertex 26.1594 -37.4334 1.5
      vertex 24.9311 -38.2812 8.50013e-015
    endloop
  endfacet
  facet normal 0.568068 -0.822982 2.09295e-006
    outer loop
      vertex 26.1594 -37.4334 1.5
      vertex 26.5461 -37.1664 8.25261e-015
      vertex 26.5461 -37.1664 1.5
    endloop
  endfacet
  facet normal -0.748511 0.663123 0
    outer loop
      vertex 30.3291 -44.3742 9.85306e-015
      vertex 31.6304 -42.9054 1.5
      vertex 31.6304 -42.9054 9.5269e-015
    endloop
  endfacet
  facet normal -0.748511 0.663123 0
    outer loop
      vertex 31.6304 -42.9054 1.5
      vertex 30.3291 -44.3742 9.85306e-015
      vertex 30.3291 -44.3742 1.5
    endloop
  endfacet
  facet normal -0.354605 0.935016 0
    outer loop
      vertex 30.3291 -44.3742 1.5
      vertex 28.4942 -45.0701 1.00076e-014
      vertex 28.4942 -45.0701 1.5
    endloop
  endfacet
  facet normal -0.354605 0.935016 0
    outer loop
      vertex 28.4942 -45.0701 1.00076e-014
      vertex 30.3291 -44.3742 1.5
      vertex 30.3291 -44.3742 9.85306e-015
    endloop
  endfacet
  facet normal 0.120538 0.992709 -0
    outer loop
      vertex 28.4942 -45.0701 1.00076e-014
      vertex 26.5461 -44.8336 1.5
      vertex 28.4942 -45.0701 1.5
    endloop
  endfacet
  facet normal 0.120538 0.992709 0
    outer loop
      vertex 26.5461 -44.8336 1.5
      vertex 28.4942 -45.0701 1.00076e-014
      vertex 26.5461 -44.8336 9.95505e-015
    endloop
  endfacet
  facet normal -0.354606 -0.935016 0
    outer loop
      vertex 29.8478 -37.4432 1.5
      vertex 30.3291 -37.6258 8.3546e-015
      vertex 30.3291 -37.6258 1.5
    endloop
  endfacet
  facet normal -0.354605 -0.935016 0
    outer loop
      vertex 28.4942 -36.9299 8.20008e-015
      vertex 29.8478 -37.4432 1.5
      vertex 28.4942 -36.9299 1.5
    endloop
  endfacet
  facet normal -0.354605 -0.935016 4.35678e-007
    outer loop
      vertex 29.8478 -37.4432 1.5
      vertex 28.4942 -36.9299 8.20008e-015
      vertex 30.3291 -37.6258 8.3546e-015
    endloop
  endfacet
  facet normal 0.885456 -0.464723 0
    outer loop
      vertex 24.0191 -40.0188 1.5
      vertex 24.9311 -38.2812 8.50013e-015
      vertex 24.9311 -38.2812 1.5
    endloop
  endfacet
  facet normal 0.885456 -0.464723 0
    outer loop
      vertex 24.9311 -38.2812 8.50013e-015
      vertex 24.0191 -40.0188 1.5
      vertex 24.0191 -40.0188 8.88596e-015
    endloop
  endfacet
  facet normal -0.970942 0.239316 0
    outer loop
      vertex 32.1 -41 9.10383e-015
      vertex 31.6354 -42.885 1.5
      vertex 32.1 -41 1.5
    endloop
  endfacet
  facet normal -0.970942 0.239315 -4.84024e-007
    outer loop
      vertex 31.6304 -42.9054 9.5269e-015
      vertex 31.6354 -42.885 1.5
      vertex 32.1 -41 9.10383e-015
    endloop
  endfacet
  facet normal -0.97095 0.239282 0
    outer loop
      vertex 31.6354 -42.885 1.5
      vertex 31.6304 -42.9054 9.5269e-015
      vertex 31.6304 -42.9054 1.5
    endloop
  endfacet
  facet normal 1 -0 0
    outer loop
      vertex 24.0191 -40.3792 1.5
      vertex 24.0191 -40.0188 8.88596e-015
      vertex 24.0191 -40.0188 1.5
    endloop
  endfacet
  facet normal 1 0 0
    outer loop
      vertex 24.0191 -41.9812 9.3217e-015
      vertex 24.0191 -40.3792 1.5
      vertex 24.0191 -41.9812 1.5
    endloop
  endfacet
  facet normal 1 0 0
    outer loop
      vertex 24.0191 -40.3792 1.5
      vertex 24.0191 -41.9812 9.3217e-015
      vertex 24.0191 -40.0188 8.88596e-015
    endloop
  endfacet
  facet normal 0.568064 0.822984 -0
    outer loop
      vertex 26.5461 -44.8336 9.95505e-015
      vertex 24.9311 -43.7188 1.5
      vertex 26.5461 -44.8336 1.5
    endloop
  endfacet
  facet normal 0.568064 0.822984 0
    outer loop
      vertex 24.9311 -43.7188 1.5
      vertex 26.5461 -44.8336 9.95505e-015
      vertex 24.9311 -43.7188 9.70752e-015
    endloop
  endfacet
  facet normal 0.885456 0.464723 0
    outer loop
      vertex 24.4935 -42.885 1.5
      vertex 24.0191 -41.9812 9.3217e-015
      vertex 24.0191 -41.9812 1.5
    endloop
  endfacet
  facet normal 0.885456 0.464723 -0
    outer loop
      vertex 24.9311 -43.7188 9.70752e-015
      vertex 24.4935 -42.885 1.5
      vertex 24.9311 -43.7188 1.5
    endloop
  endfacet
  facet normal 0.885456 0.464723 -1.40754e-007
    outer loop
      vertex 24.4935 -42.885 1.5
      vertex 24.9311 -43.7188 9.70752e-015
      vertex 24.0191 -41.9812 9.3217e-015
    endloop
  endfacet
  facet normal 0.987688 0.156435 0
    outer loop
      vertex 22.1986 -42.885 5
      vertex 21.9 -41 1.5
      vertex 21.9 -41 5
    endloop
  endfacet
  facet normal 0.987688 0.156435 0
    outer loop
      vertex 21.9 -41 1.5
      vertex 22.1986 -42.885 5
      vertex 22.1986 -42.885 1.5
    endloop
  endfacet
  facet normal -0.707106 -0.707107 0
    outer loop
      vertex 31.5855 -36.065 1.5
      vertex 32.935 -37.4145 5
      vertex 31.5855 -36.065 5
    endloop
  endfacet
  facet normal -0.707106 -0.707107 -0
    outer loop
      vertex 32.935 -37.4145 5
      vertex 31.5855 -36.065 1.5
      vertex 32.935 -37.4145 1.5
    endloop
  endfacet
  facet normal -0.987689 -0.156433 0
    outer loop
      vertex 34.1 -41 1.5
      vertex 33.8014 -39.115 5
      vertex 33.8014 -39.115 1.5
    endloop
  endfacet
  facet normal -0.987689 -0.156433 0
    outer loop
      vertex 33.8014 -39.115 5
      vertex 34.1 -41 1.5
      vertex 34.1 -41 5
    endloop
  endfacet
  facet normal 0.987688 -0.156434 0
    outer loop
      vertex 21.9 -41 5
      vertex 22.1986 -39.115 1.5
      vertex 22.1986 -39.115 5
    endloop
  endfacet
  facet normal 0.987688 -0.156434 0
    outer loop
      vertex 22.1986 -39.115 1.5
      vertex 21.9 -41 5
      vertex 21.9 -41 1.5
    endloop
  endfacet
  facet normal 1.59715e-006 -2.52963e-007 1
    outer loop
      vertex 22.1986 -42.885 1.5
      vertex 22.1986 -39.115 1.5
      vertex 21.9 -41 1.5
    endloop
  endfacet
  facet normal 0.707107 -0.707107 0
    outer loop
      vertex 23.065 -37.4145 5
      vertex 24.4145 -36.065 1.5
      vertex 24.4145 -36.065 5
    endloop
  endfacet
  facet normal 0.707107 -0.707107 0
    outer loop
      vertex 24.4145 -36.065 1.5
      vertex 23.065 -37.4145 5
      vertex 23.065 -37.4145 1.5
    endloop
  endfacet
  facet normal -0.156434 0.987688 0
    outer loop
      vertex 29.885 -46.8014 1.5
      vertex 28 -47.1 5
      vertex 29.885 -46.8014 5
    endloop
  endfacet
  facet normal -0.156434 0.987688 0
    outer loop
      vertex 28 -47.1 5
      vertex 29.885 -46.8014 1.5
      vertex 28 -47.1 1.5
    endloop
  endfacet
  facet normal 0.156435 -0.987688 0
    outer loop
      vertex 26.115 -35.1986 1.5
      vertex 28 -34.9 5
      vertex 26.115 -35.1986 5
    endloop
  endfacet
  facet normal 0.156435 -0.987688 0
    outer loop
      vertex 28 -34.9 5
      vertex 26.115 -35.1986 1.5
      vertex 28 -34.9 1.5
    endloop
  endfacet
  facet normal -0.891007 0.45399 0
    outer loop
      vertex 32.935 -44.5855 1.5
      vertex 33.8014 -42.885 5
      vertex 33.8014 -42.885 1.5
    endloop
  endfacet
  facet normal -0.891007 0.45399 0
    outer loop
      vertex 33.8014 -42.885 5
      vertex 32.935 -44.5855 1.5
      vertex 32.935 -44.5855 5
    endloop
  endfacet
  facet normal -8.53852e-008 -1.67578e-007 1
    outer loop
      vertex 33.8014 -42.885 1.5
      vertex 31.5855 -36.065 1.5
      vertex 29.885 -35.1986 1.5
    endloop
  endfacet
  facet normal 8.45979e-008 -7.73457e-008 1
    outer loop
      vertex 33.8014 -42.885 1.5
      vertex 31.6304 -39.0946 1.5
      vertex 31.9296 -40.3086 1.5
    endloop
  endfacet
  facet normal 2.73494e-008 -1.10137e-007 1
    outer loop
      vertex 29.885 -35.1986 1.5
      vertex 31.6304 -39.0946 1.5
      vertex 33.8014 -42.885 1.5
    endloop
  endfacet
  facet normal -9.41487e-008 -1.64566e-007 1
    outer loop
      vertex 29.885 -35.1986 1.5
      vertex 30.3291 -37.6258 1.5
      vertex 31.6304 -39.0946 1.5
    endloop
  endfacet
  facet normal -6.00456e-008 -1.58326e-007 1
    outer loop
      vertex 29.885 -35.1986 1.5
      vertex 29.8478 -37.4432 1.5
      vertex 30.3291 -37.6258 1.5
    endloop
  endfacet
  facet normal -2.51683e-008 -1.58905e-007 1
    outer loop
      vertex 29.8478 -37.4432 1.5
      vertex 29.885 -35.1986 1.5
      vertex 28 -34.9 1.5
    endloop
  endfacet
  facet normal 8.53851e-008 -1.67578e-007 1
    outer loop
      vertex 26.115 -35.1986 1.5
      vertex 24.4145 -36.065 1.5
      vertex 22.1986 -42.885 1.5
    endloop
  endfacet
  facet normal 0.891007 -0.45399 0
    outer loop
      vertex 22.1986 -39.115 5
      vertex 23.065 -37.4145 1.5
      vertex 23.065 -37.4145 5
    endloop
  endfacet
  facet normal 0.891007 -0.45399 0
    outer loop
      vertex 23.065 -37.4145 1.5
      vertex 22.1986 -39.115 5
      vertex 22.1986 -39.115 1.5
    endloop
  endfacet
  facet normal 0.45399 -0.891007 0
    outer loop
      vertex 24.4145 -36.065 1.5
      vertex 26.115 -35.1986 5
      vertex 24.4145 -36.065 5
    endloop
  endfacet
  facet normal 0.45399 -0.891007 0
    outer loop
      vertex 26.115 -35.1986 5
      vertex 24.4145 -36.065 1.5
      vertex 26.115 -35.1986 1.5
    endloop
  endfacet
  facet normal -1.59716e-006 -2.52963e-007 1
    outer loop
      vertex 34.1 -41 1.5
      vertex 33.8014 -39.115 1.5
      vertex 33.8014 -42.885 1.5
    endloop
  endfacet
  facet normal -0.987688 0.156434 0
    outer loop
      vertex 33.8014 -42.885 1.5
      vertex 34.1 -41 5
      vertex 34.1 -41 1.5
    endloop
  endfacet
  facet normal -0.987688 0.156434 0
    outer loop
      vertex 34.1 -41 5
      vertex 33.8014 -42.885 1.5
      vertex 33.8014 -42.885 5
    endloop
  endfacet
  facet normal 2.52663e-008 -1.59524e-007 1
    outer loop
      vertex 26.115 -35.1986 1.5
      vertex 26.1594 -37.4334 1.5
      vertex 28 -34.9 1.5
    endloop
  endfacet
  facet normal 1.08964e-007 -1.57861e-007 1
    outer loop
      vertex 26.115 -35.1986 1.5
      vertex 24.9311 -38.2812 1.5
      vertex 26.1594 -37.4334 1.5
    endloop
  endfacet
  facet normal -1.50559e-007 -5.81913e-008 1
    outer loop
      vertex 26.115 -35.1986 1.5
      vertex 24.0191 -40.0188 1.5
      vertex 24.9311 -38.2812 1.5
    endloop
  endfacet
  facet normal -1.96436e-007 0 1
    outer loop
      vertex 24.0191 -40.0188 1.5
      vertex 22.1986 -42.885 1.5
      vertex 24.0191 -40.3792 1.5
    endloop
  endfacet
  facet normal -5.58798e-009 -1.21225e-007 1
    outer loop
      vertex 22.1986 -42.885 1.5
      vertex 24.0191 -40.0188 1.5
      vertex 26.115 -35.1986 1.5
    endloop
  endfacet
  facet normal 8.40379e-009 -1.48825e-007 1
    outer loop
      vertex 24.0191 -40.3792 1.5
      vertex 22.1986 -42.885 1.5
      vertex 24.0191 -41.9812 1.5
    endloop
  endfacet
  facet normal 0 -1.31897e-007 1
    outer loop
      vertex 24.4935 -42.885 1.5
      vertex 24.0191 -41.9812 1.5
      vertex 22.1986 -42.885 1.5
    endloop
  endfacet
  facet normal -7.00126e-008 -1.89677e-007 1
    outer loop
      vertex 33.8014 -42.885 1.5
      vertex 31.9296 -40.3086 1.5
      vertex 32.1 -41 1.5
    endloop
  endfacet
  facet normal 0 -1.26482e-007 1
    outer loop
      vertex 33.8014 -42.885 1.5
      vertex 32.1 -41 1.5
      vertex 31.6354 -42.885 1.5
    endloop
  endfacet
  facet normal 4.79539e-008 -1.05779e-007 1
    outer loop
      vertex 28 -34.9 1.5
      vertex 28.4942 -36.9299 1.5
      vertex 29.8478 -37.4432 1.5
    endloop
  endfacet
  facet normal 1.38519e-008 -1.14081e-007 1
    outer loop
      vertex 28 -34.9 1.5
      vertex 26.5461 -37.1664 1.5
      vertex 28.4942 -36.9299 1.5
    endloop
  endfacet
  facet normal -4.22905e-007 1.66091e-007 1
    outer loop
      vertex 26.5461 -37.1664 1.5
      vertex 28 -34.9 1.5
      vertex 26.1594 -37.4334 1.5
    endloop
  endfacet
  facet normal -0.891007 -0.45399 0
    outer loop
      vertex 33.8014 -39.115 1.5
      vertex 32.935 -37.4145 5
      vertex 32.935 -37.4145 1.5
    endloop
  endfacet
  facet normal -0.891007 -0.45399 0
    outer loop
      vertex 32.935 -37.4145 5
      vertex 33.8014 -39.115 1.5
      vertex 33.8014 -39.115 5
    endloop
  endfacet
  facet normal 4.96469e-007 -2.52963e-007 1
    outer loop
      vertex 23.065 -37.4145 1.5
      vertex 22.1986 -39.115 1.5
      vertex 22.1986 -42.885 1.5
    endloop
  endfacet
  facet normal 2.07138e-007 -2.07138e-007 1
    outer loop
      vertex 24.4145 -36.065 1.5
      vertex 23.065 -37.4145 1.5
      vertex 22.1986 -42.885 1.5
    endloop
  endfacet
  facet normal -0.453991 0.891006 0
    outer loop
      vertex 31.5855 -45.935 1.5
      vertex 29.885 -46.8014 5
      vertex 31.5855 -45.935 5
    endloop
  endfacet
  facet normal -0.453991 0.891006 0
    outer loop
      vertex 29.885 -46.8014 5
      vertex 31.5855 -45.935 1.5
      vertex 29.885 -46.8014 1.5
    endloop
  endfacet
  facet normal -2.07138e-007 -2.07138e-007 1
    outer loop
      vertex 33.8014 -42.885 1.5
      vertex 32.935 -37.4145 1.5
      vertex 31.5855 -36.065 1.5
    endloop
  endfacet
  facet normal -4.96469e-007 -2.52963e-007 1
    outer loop
      vertex 33.8014 -42.885 1.5
      vertex 33.8014 -39.115 1.5
      vertex 32.935 -37.4145 1.5
    endloop
  endfacet
  facet normal -0.156436 -0.987688 0
    outer loop
      vertex 28 -34.9 1.5
      vertex 29.885 -35.1986 5
      vertex 28 -34.9 5
    endloop
  endfacet
  facet normal -0.156436 -0.987688 -0
    outer loop
      vertex 29.885 -35.1986 5
      vertex 28 -34.9 1.5
      vertex 29.885 -35.1986 1.5
    endloop
  endfacet
  facet normal -0.45399 -0.891007 0
    outer loop
      vertex 29.885 -35.1986 1.5
      vertex 31.5855 -36.065 5
      vertex 29.885 -35.1986 5
    endloop
  endfacet
  facet normal -0.45399 -0.891007 -0
    outer loop
      vertex 31.5855 -36.065 5
      vertex 29.885 -35.1986 1.5
      vertex 31.5855 -36.065 1.5
    endloop
  endfacet
  facet normal 0.891007 0.45399 0
    outer loop
      vertex 23.065 -44.5855 5
      vertex 22.1986 -42.885 1.5
      vertex 22.1986 -42.885 5
    endloop
  endfacet
  facet normal 0.891007 0.45399 0
    outer loop
      vertex 22.1986 -42.885 1.5
      vertex 23.065 -44.5855 5
      vertex 23.065 -44.5855 1.5
    endloop
  endfacet
  facet normal 0.156434 0.987688 -0
    outer loop
      vertex 28 -47.1 1.5
      vertex 26.115 -46.8014 5
      vertex 28 -47.1 5
    endloop
  endfacet
  facet normal 0.156434 0.987688 0
    outer loop
      vertex 26.115 -46.8014 5
      vertex 28 -47.1 1.5
      vertex 26.115 -46.8014 1.5
    endloop
  endfacet
  facet normal -0.707106 0.707107 0
    outer loop
      vertex 32.935 -44.5855 1.5
      vertex 31.5855 -45.935 5
      vertex 32.935 -44.5855 5
    endloop
  endfacet
  facet normal -0.707106 0.707107 0
    outer loop
      vertex 31.5855 -45.935 5
      vertex 32.935 -44.5855 1.5
      vertex 31.5855 -45.935 1.5
    endloop
  endfacet
  facet normal 0.453991 0.891006 -0
    outer loop
      vertex 26.115 -46.8014 1.5
      vertex 24.4145 -45.935 5
      vertex 26.115 -46.8014 5
    endloop
  endfacet
  facet normal 0.453991 0.891006 0
    outer loop
      vertex 24.4145 -45.935 5
      vertex 26.115 -46.8014 1.5
      vertex 24.4145 -45.935 1.5
    endloop
  endfacet
  facet normal 0 0 1
    outer loop
      vertex 31.6304 -42.9054 1.5
      vertex 33.8014 -42.885 1.5
      vertex 31.6354 -42.885 1.5
    endloop
  endfacet
  facet normal 0 0 1
    outer loop
      vertex 33.8014 -42.885 1.5
      vertex 31.6304 -42.9054 1.5
      vertex 32.935 -44.5855 1.5
    endloop
  endfacet
  facet normal -0 0 1
    outer loop
      vertex 30.3291 -44.3742 1.5
      vertex 32.935 -44.5855 1.5
      vertex 31.6304 -42.9054 1.5
    endloop
  endfacet
  facet normal 0 0 1
    outer loop
      vertex 32.935 -44.5855 1.5
      vertex 30.3291 -44.3742 1.5
      vertex 31.5855 -45.935 1.5
    endloop
  endfacet
  facet normal 0 0 1
    outer loop
      vertex 30.3291 -44.3742 1.5
      vertex 29.885 -46.8014 1.5
      vertex 31.5855 -45.935 1.5
    endloop
  endfacet
  facet normal -0 0 1
    outer loop
      vertex 28.4942 -45.0701 1.5
      vertex 29.885 -46.8014 1.5
      vertex 30.3291 -44.3742 1.5
    endloop
  endfacet
  facet normal 0 0 1
    outer loop
      vertex 28.4942 -45.0701 1.5
      vertex 28 -47.1 1.5
      vertex 29.885 -46.8014 1.5
    endloop
  endfacet
  facet normal 0 0 1
    outer loop
      vertex 26.5461 -44.8336 1.5
      vertex 28 -47.1 1.5
      vertex 28.4942 -45.0701 1.5
    endloop
  endfacet
  facet normal 0 0 1
    outer loop
      vertex 26.5461 -44.8336 1.5
      vertex 26.115 -46.8014 1.5
      vertex 28 -47.1 1.5
    endloop
  endfacet
  facet normal 0 0 1
    outer loop
      vertex 24.4145 -45.935 1.5
      vertex 26.5461 -44.8336 1.5
      vertex 24.9311 -43.7188 1.5
    endloop
  endfacet
  facet normal 0 0 1
    outer loop
      vertex 23.065 -44.5855 1.5
      vertex 24.9311 -43.7188 1.5
      vertex 24.4935 -42.885 1.5
    endloop
  endfacet
  facet normal 0 0 1
    outer loop
      vertex 26.5461 -44.8336 1.5
      vertex 24.4145 -45.935 1.5
      vertex 26.115 -46.8014 1.5
    endloop
  endfacet
  facet normal 0 0 1
    outer loop
      vertex 24.9311 -43.7188 1.5
      vertex 23.065 -44.5855 1.5
      vertex 24.4145 -45.935 1.5
    endloop
  endfacet
  facet normal 0 -0 1
    outer loop
      vertex 23.065 -44.5855 1.5
      vertex 24.4935 -42.885 1.5
      vertex 22.1986 -42.885 1.5
    endloop
  endfacet
  facet normal 0.707107 0.707107 0
    outer loop
      vertex 24.4145 -45.935 5
      vertex 23.065 -44.5855 1.5
      vertex 23.065 -44.5855 5
    endloop
  endfacet
  facet normal 0.707107 0.707107 0
    outer loop
      vertex 23.065 -44.5855 1.5
      vertex 24.4145 -45.935 5
      vertex 24.4145 -45.935 1.5
    endloop
  endfacet
endsolid OpenSCAD_Model
