G75*
%MOIN*%
%OFA0B0*%
%FSLAX24Y24*%
%IPPOS*%
%LPD*%
%AMOC8*
5,1,8,0,0,1.08239X$1,22.5*
%
%ADD10C,0.0000*%
%ADD11R,0.0591X0.1417*%
%ADD12R,0.0591X0.1811*%
%ADD13R,0.1417X0.0591*%
D10*
X000180Y000680D02*
X000180Y020176D01*
X030550Y020176D01*
X030550Y000680D01*
X000180Y000680D01*
X001550Y002180D02*
X001552Y002230D01*
X001558Y002280D01*
X001568Y002329D01*
X001582Y002377D01*
X001599Y002424D01*
X001620Y002469D01*
X001645Y002513D01*
X001673Y002554D01*
X001705Y002593D01*
X001739Y002630D01*
X001776Y002664D01*
X001816Y002694D01*
X001858Y002721D01*
X001902Y002745D01*
X001948Y002766D01*
X001995Y002782D01*
X002043Y002795D01*
X002093Y002804D01*
X002142Y002809D01*
X002193Y002810D01*
X002243Y002807D01*
X002292Y002800D01*
X002341Y002789D01*
X002389Y002774D01*
X002435Y002756D01*
X002480Y002734D01*
X002523Y002708D01*
X002564Y002679D01*
X002603Y002647D01*
X002639Y002612D01*
X002671Y002574D01*
X002701Y002534D01*
X002728Y002491D01*
X002751Y002447D01*
X002770Y002401D01*
X002786Y002353D01*
X002798Y002304D01*
X002806Y002255D01*
X002810Y002205D01*
X002810Y002155D01*
X002806Y002105D01*
X002798Y002056D01*
X002786Y002007D01*
X002770Y001959D01*
X002751Y001913D01*
X002728Y001869D01*
X002701Y001826D01*
X002671Y001786D01*
X002639Y001748D01*
X002603Y001713D01*
X002564Y001681D01*
X002523Y001652D01*
X002480Y001626D01*
X002435Y001604D01*
X002389Y001586D01*
X002341Y001571D01*
X002292Y001560D01*
X002243Y001553D01*
X002193Y001550D01*
X002142Y001551D01*
X002093Y001556D01*
X002043Y001565D01*
X001995Y001578D01*
X001948Y001594D01*
X001902Y001615D01*
X001858Y001639D01*
X001816Y001666D01*
X001776Y001696D01*
X001739Y001730D01*
X001705Y001767D01*
X001673Y001806D01*
X001645Y001847D01*
X001620Y001891D01*
X001599Y001936D01*
X001582Y001983D01*
X001568Y002031D01*
X001558Y002080D01*
X001552Y002130D01*
X001550Y002180D01*
X001550Y018680D02*
X001552Y018730D01*
X001558Y018780D01*
X001568Y018829D01*
X001582Y018877D01*
X001599Y018924D01*
X001620Y018969D01*
X001645Y019013D01*
X001673Y019054D01*
X001705Y019093D01*
X001739Y019130D01*
X001776Y019164D01*
X001816Y019194D01*
X001858Y019221D01*
X001902Y019245D01*
X001948Y019266D01*
X001995Y019282D01*
X002043Y019295D01*
X002093Y019304D01*
X002142Y019309D01*
X002193Y019310D01*
X002243Y019307D01*
X002292Y019300D01*
X002341Y019289D01*
X002389Y019274D01*
X002435Y019256D01*
X002480Y019234D01*
X002523Y019208D01*
X002564Y019179D01*
X002603Y019147D01*
X002639Y019112D01*
X002671Y019074D01*
X002701Y019034D01*
X002728Y018991D01*
X002751Y018947D01*
X002770Y018901D01*
X002786Y018853D01*
X002798Y018804D01*
X002806Y018755D01*
X002810Y018705D01*
X002810Y018655D01*
X002806Y018605D01*
X002798Y018556D01*
X002786Y018507D01*
X002770Y018459D01*
X002751Y018413D01*
X002728Y018369D01*
X002701Y018326D01*
X002671Y018286D01*
X002639Y018248D01*
X002603Y018213D01*
X002564Y018181D01*
X002523Y018152D01*
X002480Y018126D01*
X002435Y018104D01*
X002389Y018086D01*
X002341Y018071D01*
X002292Y018060D01*
X002243Y018053D01*
X002193Y018050D01*
X002142Y018051D01*
X002093Y018056D01*
X002043Y018065D01*
X001995Y018078D01*
X001948Y018094D01*
X001902Y018115D01*
X001858Y018139D01*
X001816Y018166D01*
X001776Y018196D01*
X001739Y018230D01*
X001705Y018267D01*
X001673Y018306D01*
X001645Y018347D01*
X001620Y018391D01*
X001599Y018436D01*
X001582Y018483D01*
X001568Y018531D01*
X001558Y018580D01*
X001552Y018630D01*
X001550Y018680D01*
X027550Y018680D02*
X027552Y018730D01*
X027558Y018780D01*
X027568Y018829D01*
X027582Y018877D01*
X027599Y018924D01*
X027620Y018969D01*
X027645Y019013D01*
X027673Y019054D01*
X027705Y019093D01*
X027739Y019130D01*
X027776Y019164D01*
X027816Y019194D01*
X027858Y019221D01*
X027902Y019245D01*
X027948Y019266D01*
X027995Y019282D01*
X028043Y019295D01*
X028093Y019304D01*
X028142Y019309D01*
X028193Y019310D01*
X028243Y019307D01*
X028292Y019300D01*
X028341Y019289D01*
X028389Y019274D01*
X028435Y019256D01*
X028480Y019234D01*
X028523Y019208D01*
X028564Y019179D01*
X028603Y019147D01*
X028639Y019112D01*
X028671Y019074D01*
X028701Y019034D01*
X028728Y018991D01*
X028751Y018947D01*
X028770Y018901D01*
X028786Y018853D01*
X028798Y018804D01*
X028806Y018755D01*
X028810Y018705D01*
X028810Y018655D01*
X028806Y018605D01*
X028798Y018556D01*
X028786Y018507D01*
X028770Y018459D01*
X028751Y018413D01*
X028728Y018369D01*
X028701Y018326D01*
X028671Y018286D01*
X028639Y018248D01*
X028603Y018213D01*
X028564Y018181D01*
X028523Y018152D01*
X028480Y018126D01*
X028435Y018104D01*
X028389Y018086D01*
X028341Y018071D01*
X028292Y018060D01*
X028243Y018053D01*
X028193Y018050D01*
X028142Y018051D01*
X028093Y018056D01*
X028043Y018065D01*
X027995Y018078D01*
X027948Y018094D01*
X027902Y018115D01*
X027858Y018139D01*
X027816Y018166D01*
X027776Y018196D01*
X027739Y018230D01*
X027705Y018267D01*
X027673Y018306D01*
X027645Y018347D01*
X027620Y018391D01*
X027599Y018436D01*
X027582Y018483D01*
X027568Y018531D01*
X027558Y018580D01*
X027552Y018630D01*
X027550Y018680D01*
X027550Y002180D02*
X027552Y002230D01*
X027558Y002280D01*
X027568Y002329D01*
X027582Y002377D01*
X027599Y002424D01*
X027620Y002469D01*
X027645Y002513D01*
X027673Y002554D01*
X027705Y002593D01*
X027739Y002630D01*
X027776Y002664D01*
X027816Y002694D01*
X027858Y002721D01*
X027902Y002745D01*
X027948Y002766D01*
X027995Y002782D01*
X028043Y002795D01*
X028093Y002804D01*
X028142Y002809D01*
X028193Y002810D01*
X028243Y002807D01*
X028292Y002800D01*
X028341Y002789D01*
X028389Y002774D01*
X028435Y002756D01*
X028480Y002734D01*
X028523Y002708D01*
X028564Y002679D01*
X028603Y002647D01*
X028639Y002612D01*
X028671Y002574D01*
X028701Y002534D01*
X028728Y002491D01*
X028751Y002447D01*
X028770Y002401D01*
X028786Y002353D01*
X028798Y002304D01*
X028806Y002255D01*
X028810Y002205D01*
X028810Y002155D01*
X028806Y002105D01*
X028798Y002056D01*
X028786Y002007D01*
X028770Y001959D01*
X028751Y001913D01*
X028728Y001869D01*
X028701Y001826D01*
X028671Y001786D01*
X028639Y001748D01*
X028603Y001713D01*
X028564Y001681D01*
X028523Y001652D01*
X028480Y001626D01*
X028435Y001604D01*
X028389Y001586D01*
X028341Y001571D01*
X028292Y001560D01*
X028243Y001553D01*
X028193Y001550D01*
X028142Y001551D01*
X028093Y001556D01*
X028043Y001565D01*
X027995Y001578D01*
X027948Y001594D01*
X027902Y001615D01*
X027858Y001639D01*
X027816Y001666D01*
X027776Y001696D01*
X027739Y001730D01*
X027705Y001767D01*
X027673Y001806D01*
X027645Y001847D01*
X027620Y001891D01*
X027599Y001936D01*
X027582Y001983D01*
X027568Y002031D01*
X027558Y002080D01*
X027552Y002130D01*
X027550Y002180D01*
D11*
X005066Y006680D03*
X003294Y006680D03*
X004066Y004680D03*
X002294Y004680D03*
D12*
X009715Y002680D03*
X011645Y002680D03*
X013215Y004180D03*
X015145Y004180D03*
D13*
X007180Y004566D03*
X007180Y002794D03*
M02*
