%
M48
M72
T01C0.0236
T02C0.0276
T03C0.0315
T04C0.0320
T05C0.0400
T06C0.0470
T07C0.1260
%
T01
X8180Y8180
X20680Y11680
X22180Y11680
X9180Y17180
T02
X16680Y6180
X20196Y6196
X24680Y11680
T03
X5680Y18180
X6680Y18680
X7680Y18680
X8680Y18680
X9680Y18680
X10680Y18680
X11680Y18680
X12680Y18680
X13680Y18680
X14680Y18680
X15680Y18680
X16680Y18680
X17680Y18680
X15180Y17180
X14180Y17180
X12680Y17180
X11180Y17180
X10180Y17180
X5680Y17180
X5680Y16180
X5680Y15180
X5680Y14180
X5680Y13180
X6680Y12680
X7680Y12680
X8680Y12680
X9680Y12680
X10680Y12680
X11680Y12680
X12680Y12680
X13680Y12680
X14680Y12680
X15680Y12680
X16680Y12680
X17680Y12680
X15180Y11180
X10030Y11180
X10030Y10180
X10030Y9180
X10030Y8180
X10030Y7180
X21680Y7180
X21680Y8180
X21680Y9180
X21680Y10180
T04
X1680Y15680
X2680Y15680
X3680Y15680
X3680Y14680
X3680Y12680
X3180Y11180
X4180Y11180
X5180Y11180
X6180Y11180
X6180Y8180
X5180Y8180
X4180Y8180
X3180Y8180
X1680Y9180
X1680Y11180
X17680Y10180
X17680Y11180
X19180Y11180
X19180Y9180
X23680Y7680
X24680Y7680
X26680Y7180
X26680Y6180
X26680Y5180
X26180Y4180
X26180Y3180
X29680Y5180
X29680Y6180
X29680Y7180
X29680Y8180
X26680Y8180
X25180Y9180
X24180Y9180
X24680Y10680
X25680Y10680
X24180Y15680
X24180Y17680
T05
X19680Y15180
X20680Y15180
X21680Y15180
X22680Y15180
T06
X18227Y4680
X20196Y4680
X22164Y4680
X24133Y4680
X28680Y10727
X28680Y12696
X28680Y14664
X28680Y16633
T07
X2180Y18680
X2180Y2180
X28180Y2180
X28180Y18680
M30
