G75*
%MOIN*%
%OFA0B0*%
%FSLAX24Y24*%
%IPPOS*%
%LPD*%
%AMOC8*
5,1,8,0,0,1.08239X$1,22.5*
%
%ADD10C,0.0000*%
%ADD11C,0.0520*%
%ADD12R,0.0515X0.0515*%
%ADD13C,0.0515*%
%ADD14C,0.0600*%
%ADD15C,0.0515*%
%ADD16C,0.0705*%
%ADD17OC8,0.0520*%
%ADD18C,0.0472*%
%ADD19C,0.0160*%
%ADD20C,0.0320*%
%ADD21C,0.0240*%
%ADD22C,0.0413*%
%ADD23R,0.0356X0.0356*%
D10*
X000180Y000680D02*
X000180Y020176D01*
X030550Y020176D01*
X030550Y000680D01*
X000180Y000680D01*
X001550Y002180D02*
X001552Y002230D01*
X001558Y002280D01*
X001568Y002329D01*
X001582Y002377D01*
X001599Y002424D01*
X001620Y002469D01*
X001645Y002513D01*
X001673Y002554D01*
X001705Y002593D01*
X001739Y002630D01*
X001776Y002664D01*
X001816Y002694D01*
X001858Y002721D01*
X001902Y002745D01*
X001948Y002766D01*
X001995Y002782D01*
X002043Y002795D01*
X002093Y002804D01*
X002142Y002809D01*
X002193Y002810D01*
X002243Y002807D01*
X002292Y002800D01*
X002341Y002789D01*
X002389Y002774D01*
X002435Y002756D01*
X002480Y002734D01*
X002523Y002708D01*
X002564Y002679D01*
X002603Y002647D01*
X002639Y002612D01*
X002671Y002574D01*
X002701Y002534D01*
X002728Y002491D01*
X002751Y002447D01*
X002770Y002401D01*
X002786Y002353D01*
X002798Y002304D01*
X002806Y002255D01*
X002810Y002205D01*
X002810Y002155D01*
X002806Y002105D01*
X002798Y002056D01*
X002786Y002007D01*
X002770Y001959D01*
X002751Y001913D01*
X002728Y001869D01*
X002701Y001826D01*
X002671Y001786D01*
X002639Y001748D01*
X002603Y001713D01*
X002564Y001681D01*
X002523Y001652D01*
X002480Y001626D01*
X002435Y001604D01*
X002389Y001586D01*
X002341Y001571D01*
X002292Y001560D01*
X002243Y001553D01*
X002193Y001550D01*
X002142Y001551D01*
X002093Y001556D01*
X002043Y001565D01*
X001995Y001578D01*
X001948Y001594D01*
X001902Y001615D01*
X001858Y001639D01*
X001816Y001666D01*
X001776Y001696D01*
X001739Y001730D01*
X001705Y001767D01*
X001673Y001806D01*
X001645Y001847D01*
X001620Y001891D01*
X001599Y001936D01*
X001582Y001983D01*
X001568Y002031D01*
X001558Y002080D01*
X001552Y002130D01*
X001550Y002180D01*
X001550Y018680D02*
X001552Y018730D01*
X001558Y018780D01*
X001568Y018829D01*
X001582Y018877D01*
X001599Y018924D01*
X001620Y018969D01*
X001645Y019013D01*
X001673Y019054D01*
X001705Y019093D01*
X001739Y019130D01*
X001776Y019164D01*
X001816Y019194D01*
X001858Y019221D01*
X001902Y019245D01*
X001948Y019266D01*
X001995Y019282D01*
X002043Y019295D01*
X002093Y019304D01*
X002142Y019309D01*
X002193Y019310D01*
X002243Y019307D01*
X002292Y019300D01*
X002341Y019289D01*
X002389Y019274D01*
X002435Y019256D01*
X002480Y019234D01*
X002523Y019208D01*
X002564Y019179D01*
X002603Y019147D01*
X002639Y019112D01*
X002671Y019074D01*
X002701Y019034D01*
X002728Y018991D01*
X002751Y018947D01*
X002770Y018901D01*
X002786Y018853D01*
X002798Y018804D01*
X002806Y018755D01*
X002810Y018705D01*
X002810Y018655D01*
X002806Y018605D01*
X002798Y018556D01*
X002786Y018507D01*
X002770Y018459D01*
X002751Y018413D01*
X002728Y018369D01*
X002701Y018326D01*
X002671Y018286D01*
X002639Y018248D01*
X002603Y018213D01*
X002564Y018181D01*
X002523Y018152D01*
X002480Y018126D01*
X002435Y018104D01*
X002389Y018086D01*
X002341Y018071D01*
X002292Y018060D01*
X002243Y018053D01*
X002193Y018050D01*
X002142Y018051D01*
X002093Y018056D01*
X002043Y018065D01*
X001995Y018078D01*
X001948Y018094D01*
X001902Y018115D01*
X001858Y018139D01*
X001816Y018166D01*
X001776Y018196D01*
X001739Y018230D01*
X001705Y018267D01*
X001673Y018306D01*
X001645Y018347D01*
X001620Y018391D01*
X001599Y018436D01*
X001582Y018483D01*
X001568Y018531D01*
X001558Y018580D01*
X001552Y018630D01*
X001550Y018680D01*
X027550Y018680D02*
X027552Y018730D01*
X027558Y018780D01*
X027568Y018829D01*
X027582Y018877D01*
X027599Y018924D01*
X027620Y018969D01*
X027645Y019013D01*
X027673Y019054D01*
X027705Y019093D01*
X027739Y019130D01*
X027776Y019164D01*
X027816Y019194D01*
X027858Y019221D01*
X027902Y019245D01*
X027948Y019266D01*
X027995Y019282D01*
X028043Y019295D01*
X028093Y019304D01*
X028142Y019309D01*
X028193Y019310D01*
X028243Y019307D01*
X028292Y019300D01*
X028341Y019289D01*
X028389Y019274D01*
X028435Y019256D01*
X028480Y019234D01*
X028523Y019208D01*
X028564Y019179D01*
X028603Y019147D01*
X028639Y019112D01*
X028671Y019074D01*
X028701Y019034D01*
X028728Y018991D01*
X028751Y018947D01*
X028770Y018901D01*
X028786Y018853D01*
X028798Y018804D01*
X028806Y018755D01*
X028810Y018705D01*
X028810Y018655D01*
X028806Y018605D01*
X028798Y018556D01*
X028786Y018507D01*
X028770Y018459D01*
X028751Y018413D01*
X028728Y018369D01*
X028701Y018326D01*
X028671Y018286D01*
X028639Y018248D01*
X028603Y018213D01*
X028564Y018181D01*
X028523Y018152D01*
X028480Y018126D01*
X028435Y018104D01*
X028389Y018086D01*
X028341Y018071D01*
X028292Y018060D01*
X028243Y018053D01*
X028193Y018050D01*
X028142Y018051D01*
X028093Y018056D01*
X028043Y018065D01*
X027995Y018078D01*
X027948Y018094D01*
X027902Y018115D01*
X027858Y018139D01*
X027816Y018166D01*
X027776Y018196D01*
X027739Y018230D01*
X027705Y018267D01*
X027673Y018306D01*
X027645Y018347D01*
X027620Y018391D01*
X027599Y018436D01*
X027582Y018483D01*
X027568Y018531D01*
X027558Y018580D01*
X027552Y018630D01*
X027550Y018680D01*
X027550Y002180D02*
X027552Y002230D01*
X027558Y002280D01*
X027568Y002329D01*
X027582Y002377D01*
X027599Y002424D01*
X027620Y002469D01*
X027645Y002513D01*
X027673Y002554D01*
X027705Y002593D01*
X027739Y002630D01*
X027776Y002664D01*
X027816Y002694D01*
X027858Y002721D01*
X027902Y002745D01*
X027948Y002766D01*
X027995Y002782D01*
X028043Y002795D01*
X028093Y002804D01*
X028142Y002809D01*
X028193Y002810D01*
X028243Y002807D01*
X028292Y002800D01*
X028341Y002789D01*
X028389Y002774D01*
X028435Y002756D01*
X028480Y002734D01*
X028523Y002708D01*
X028564Y002679D01*
X028603Y002647D01*
X028639Y002612D01*
X028671Y002574D01*
X028701Y002534D01*
X028728Y002491D01*
X028751Y002447D01*
X028770Y002401D01*
X028786Y002353D01*
X028798Y002304D01*
X028806Y002255D01*
X028810Y002205D01*
X028810Y002155D01*
X028806Y002105D01*
X028798Y002056D01*
X028786Y002007D01*
X028770Y001959D01*
X028751Y001913D01*
X028728Y001869D01*
X028701Y001826D01*
X028671Y001786D01*
X028639Y001748D01*
X028603Y001713D01*
X028564Y001681D01*
X028523Y001652D01*
X028480Y001626D01*
X028435Y001604D01*
X028389Y001586D01*
X028341Y001571D01*
X028292Y001560D01*
X028243Y001553D01*
X028193Y001550D01*
X028142Y001551D01*
X028093Y001556D01*
X028043Y001565D01*
X027995Y001578D01*
X027948Y001594D01*
X027902Y001615D01*
X027858Y001639D01*
X027816Y001666D01*
X027776Y001696D01*
X027739Y001730D01*
X027705Y001767D01*
X027673Y001806D01*
X027645Y001847D01*
X027620Y001891D01*
X027599Y001936D01*
X027582Y001983D01*
X027568Y002031D01*
X027558Y002080D01*
X027552Y002130D01*
X027550Y002180D01*
D11*
X026940Y005180D02*
X026420Y005180D01*
X026420Y006180D02*
X026940Y006180D01*
X026940Y007180D02*
X026420Y007180D01*
X026420Y008180D02*
X026940Y008180D01*
X029420Y008180D02*
X029940Y008180D01*
X029940Y007180D02*
X029420Y007180D01*
X029420Y006180D02*
X029940Y006180D01*
X029940Y005180D02*
X029420Y005180D01*
X017940Y010180D02*
X017420Y010180D01*
X017420Y011180D02*
X017940Y011180D01*
X006180Y011440D02*
X006180Y010920D01*
X005180Y010920D02*
X005180Y011440D01*
X004180Y011440D02*
X004180Y010920D01*
X003180Y010920D02*
X003180Y011440D01*
X003180Y008440D02*
X003180Y007920D01*
X004180Y007920D02*
X004180Y008440D01*
X005180Y008440D02*
X005180Y007920D01*
X006180Y007920D02*
X006180Y008440D01*
X003680Y015420D02*
X003680Y015940D01*
X002680Y015940D02*
X002680Y015420D01*
X001680Y015420D02*
X001680Y015940D01*
D12*
X010030Y007180D03*
D13*
X010030Y008180D03*
X010030Y009180D03*
X010030Y010180D03*
X010030Y011180D03*
X021680Y010180D03*
X021680Y009180D03*
X021680Y008180D03*
X021680Y007180D03*
D14*
X021680Y014880D02*
X021680Y015480D01*
X020680Y015480D02*
X020680Y014880D01*
X019680Y014880D02*
X019680Y015480D01*
X022680Y015480D02*
X022680Y014880D01*
D15*
X017680Y012937D02*
X017680Y012423D01*
X016680Y012423D02*
X016680Y012937D01*
X015680Y012937D02*
X015680Y012423D01*
X014680Y012423D02*
X014680Y012937D01*
X013680Y012937D02*
X013680Y012423D01*
X012680Y012423D02*
X012680Y012937D01*
X011680Y012937D02*
X011680Y012423D01*
X010680Y012423D02*
X010680Y012937D01*
X009680Y012937D02*
X009680Y012423D01*
X008680Y012423D02*
X008680Y012937D01*
X007680Y012937D02*
X007680Y012423D01*
X006680Y012423D02*
X006680Y012937D01*
X005937Y013180D02*
X005423Y013180D01*
X005423Y014180D02*
X005937Y014180D01*
X005937Y015180D02*
X005423Y015180D01*
X005423Y016180D02*
X005937Y016180D01*
X005937Y017180D02*
X005423Y017180D01*
X005423Y018180D02*
X005937Y018180D01*
X006680Y018423D02*
X006680Y018937D01*
X007680Y018937D02*
X007680Y018423D01*
X008680Y018423D02*
X008680Y018937D01*
X009680Y018937D02*
X009680Y018423D01*
X010680Y018423D02*
X010680Y018937D01*
X011680Y018937D02*
X011680Y018423D01*
X012680Y018423D02*
X012680Y018937D01*
X013680Y018937D02*
X013680Y018423D01*
X014680Y018423D02*
X014680Y018937D01*
X015680Y018937D02*
X015680Y018423D01*
X016680Y018423D02*
X016680Y018937D01*
X017680Y018937D02*
X017680Y018423D01*
X015180Y017437D02*
X015180Y016923D01*
X014180Y016923D02*
X014180Y017437D01*
X011180Y017437D02*
X011180Y016923D01*
X010180Y016923D02*
X010180Y017437D01*
D16*
X028328Y016633D02*
X029033Y016633D01*
X029033Y014664D02*
X028328Y014664D01*
X028328Y012696D02*
X029033Y012696D01*
X029033Y010727D02*
X028328Y010727D01*
X024133Y005033D02*
X024133Y004328D01*
X022164Y004328D02*
X022164Y005033D01*
X020196Y005033D02*
X020196Y004328D01*
X018227Y004328D02*
X018227Y005033D01*
D17*
X023680Y007680D03*
X024680Y007680D03*
X024180Y009180D03*
X025180Y009180D03*
X024680Y010680D03*
X025680Y010680D03*
X019180Y011180D03*
X019180Y009180D03*
X026180Y004180D03*
X026180Y003180D03*
X024180Y015680D03*
X024180Y017680D03*
X003680Y014680D03*
X003680Y012680D03*
X001680Y011180D03*
X001680Y009180D03*
D18*
X012680Y017180D03*
X015180Y011180D03*
D19*
X015180Y013680D01*
X012680Y016180D01*
X012680Y017180D01*
X009180Y017180D02*
X009180Y014680D01*
X008180Y014180D01*
X008180Y008180D01*
X015680Y012680D02*
X015680Y013180D01*
X016680Y014180D01*
X018680Y014180D01*
X019180Y013680D01*
X024180Y013680D01*
X025180Y012680D01*
X025680Y010680D01*
X024680Y009680D02*
X024180Y009680D01*
X023680Y010180D01*
X023680Y012680D01*
X023180Y013180D01*
X018680Y013180D01*
X018180Y013680D01*
X017180Y013680D01*
X016680Y013180D01*
X016680Y012680D01*
X017680Y012680D02*
X022680Y012680D01*
X023180Y012180D01*
X023180Y008680D01*
X023680Y008180D01*
X024680Y008180D01*
X024680Y007680D01*
X025180Y009180D02*
X024680Y009680D01*
D20*
X025180Y009180D02*
X025680Y009180D01*
X025680Y007680D01*
X026680Y007180D01*
X026680Y006180D02*
X025680Y006180D01*
X024680Y007680D01*
X026680Y008180D02*
X026680Y009680D01*
X025680Y010680D01*
X022180Y011680D02*
X020680Y011680D01*
X020196Y006196D02*
X016680Y006180D01*
D21*
X016680Y001680D01*
X026180Y001680D01*
X027680Y003680D01*
X029180Y003680D01*
X029680Y005180D01*
X026680Y005180D02*
X026180Y004180D01*
D22*
X020196Y006196D03*
X016680Y006180D03*
X024680Y011680D03*
D23*
X022180Y011680D03*
X020680Y011680D03*
X009180Y017180D03*
X008180Y008180D03*
M02*
